<svg width="855" height="344" viewBox="0 0 855 344" fill="none" xmlns="http://www.w3.org/2000/svg">
<path d="M142 20C142 8.95431 150.954 0 162 0H260C271.046 0 280 8.95431 280 20V63C280 74.0457 271.046 83 260 83H162C150.954 83 142 74.0457 142 63V20Z" fill="#333333"/>
<path d="M199.152 40.032L200.616 43.38L200.4 43.404L201.768 40.032H202.86L200.58 45.3L198.984 41.892L197.532 45.3L195.228 40.032H196.32L197.868 43.536L197.484 43.464L198.588 40.896L198.192 40.032H199.152ZM205.958 45.12C205.494 45.12 205.07 45.02 204.686 44.82C204.31 44.62 204.01 44.328 203.786 43.944C203.57 43.552 203.462 43.076 203.462 42.516C203.462 41.964 203.578 41.488 203.81 41.088C204.042 40.68 204.35 40.368 204.734 40.152C205.126 39.936 205.554 39.828 206.018 39.828C206.482 39.828 206.874 39.936 207.194 40.152C207.514 40.36 207.758 40.608 207.926 40.896L207.854 41.088L207.962 40.032H208.994V45H207.878V43.704L207.998 43.992C207.966 44.072 207.894 44.176 207.782 44.304C207.678 44.424 207.534 44.548 207.35 44.676C207.174 44.804 206.97 44.912 206.738 45C206.506 45.08 206.246 45.12 205.958 45.12ZM206.258 44.196C206.538 44.196 206.79 44.144 207.014 44.04C207.238 43.936 207.422 43.792 207.566 43.608C207.718 43.416 207.822 43.188 207.878 42.924V41.952C207.814 41.712 207.702 41.504 207.542 41.328C207.382 41.144 207.19 41.004 206.966 40.908C206.742 40.804 206.494 40.752 206.222 40.752C205.926 40.752 205.654 40.824 205.406 40.968C205.158 41.112 204.958 41.312 204.806 41.568C204.662 41.824 204.59 42.124 204.59 42.468C204.59 42.788 204.666 43.08 204.818 43.344C204.97 43.608 205.174 43.816 205.43 43.968C205.686 44.12 205.962 44.196 206.258 44.196ZM213.313 47.46C212.945 47.46 212.621 47.416 212.341 47.328C212.061 47.248 211.805 47.132 211.573 46.98C211.349 46.828 211.133 46.656 210.925 46.464L211.573 45.708C211.837 45.956 212.105 46.148 212.377 46.284C212.649 46.42 212.953 46.488 213.289 46.488C213.665 46.488 213.981 46.424 214.237 46.296C214.501 46.176 214.701 46.004 214.837 45.78C214.973 45.564 215.041 45.312 215.041 45.024L215.053 43.68L215.149 43.896C215.005 44.24 214.745 44.532 214.369 44.772C213.993 45.004 213.537 45.12 213.001 45.12C212.545 45.12 212.125 45.004 211.741 44.772C211.365 44.54 211.061 44.228 210.829 43.836C210.605 43.436 210.493 42.988 210.493 42.492C210.493 41.972 210.613 41.516 210.853 41.124C211.093 40.724 211.409 40.408 211.801 40.176C212.193 39.944 212.621 39.828 213.085 39.828C213.525 39.828 213.925 39.92 214.285 40.104C214.653 40.28 214.921 40.508 215.089 40.788L215.029 40.992L215.149 40.032H216.169V45.036C216.169 45.484 216.053 45.892 215.821 46.26C215.589 46.628 215.261 46.92 214.837 47.136C214.413 47.352 213.905 47.46 213.313 47.46ZM211.609 42.468C211.609 42.788 211.685 43.08 211.837 43.344C211.989 43.608 212.193 43.816 212.449 43.968C212.713 44.12 213.005 44.196 213.325 44.196C213.621 44.196 213.885 44.144 214.117 44.04C214.357 43.928 214.557 43.78 214.717 43.596C214.877 43.404 214.989 43.184 215.053 42.936V41.952C214.981 41.712 214.861 41.504 214.693 41.328C214.525 41.144 214.325 41.004 214.093 40.908C213.861 40.804 213.605 40.752 213.325 40.752C213.005 40.752 212.713 40.824 212.449 40.968C212.193 41.112 211.989 41.316 211.837 41.58C211.685 41.836 211.609 42.132 211.609 42.468ZM220.401 45.12C219.833 45.12 219.345 45.008 218.937 44.784C218.529 44.552 218.213 44.24 217.989 43.848C217.773 43.448 217.665 42.992 217.665 42.48C217.665 41.992 217.789 41.548 218.037 41.148C218.285 40.748 218.617 40.428 219.033 40.188C219.449 39.948 219.913 39.828 220.425 39.828C221.081 39.828 221.625 40.02 222.057 40.404C222.489 40.788 222.781 41.316 222.933 41.988L218.841 43.428L218.577 42.768L221.937 41.544L221.697 41.7C221.601 41.436 221.441 41.208 221.217 41.016C220.993 40.816 220.701 40.716 220.341 40.716C220.037 40.716 219.765 40.792 219.525 40.944C219.285 41.088 219.097 41.288 218.961 41.544C218.825 41.8 218.757 42.092 218.757 42.42C218.757 42.764 218.829 43.068 218.973 43.332C219.117 43.588 219.313 43.792 219.561 43.944C219.817 44.088 220.105 44.16 220.425 44.16C220.641 44.16 220.849 44.12 221.049 44.04C221.257 43.96 221.449 43.856 221.625 43.728L222.141 44.556C221.893 44.724 221.613 44.86 221.301 44.964C220.997 45.068 220.697 45.12 220.401 45.12ZM225.327 40.032L225.435 41.472L225.375 41.28C225.503 40.976 225.687 40.72 225.927 40.512C226.175 40.296 226.431 40.132 226.695 40.02C226.967 39.9 227.203 39.84 227.403 39.84L227.343 40.944C226.967 40.92 226.635 40.992 226.347 41.16C226.067 41.328 225.843 41.552 225.675 41.832C225.515 42.112 225.435 42.412 225.435 42.732V45H224.331V40.032H225.327Z" fill="white"/>
<path d="M426 20C426 8.95431 434.954 0 446 0H544C555.046 0 564 8.95431 564 20V63C564 74.0457 555.046 83 544 83H446C434.954 83 426 74.0457 426 63V20Z" fill="#4285F4"/>
<path d="M451.384 45L455.176 35.964H455.248L459.028 45H457.696L454.864 37.788L455.692 37.248L452.524 45H451.384ZM453.604 41.712H456.832L457.216 42.72H453.268L453.604 41.712ZM461.382 40.032L461.49 41.472L461.43 41.28C461.558 40.976 461.742 40.72 461.982 40.512C462.23 40.296 462.486 40.132 462.75 40.02C463.022 39.9 463.258 39.84 463.458 39.84L463.398 40.944C463.022 40.92 462.69 40.992 462.402 41.16C462.122 41.328 461.898 41.552 461.73 41.832C461.57 42.112 461.49 42.412 461.49 42.732V45H460.386V40.032H461.382ZM465.378 37.848H466.494V40.056H467.862V40.932H466.494V45H465.378V40.932H464.466V40.056H465.378V37.848ZM469.21 40.032H470.326V45H469.21V40.032ZM469.126 38.232C469.126 38.056 469.194 37.908 469.33 37.788C469.474 37.668 469.63 37.608 469.798 37.608C469.966 37.608 470.114 37.668 470.242 37.788C470.378 37.908 470.446 38.056 470.446 38.232C470.446 38.416 470.378 38.568 470.242 38.688C470.114 38.8 469.966 38.856 469.798 38.856C469.63 38.856 469.474 38.796 469.33 38.676C469.194 38.556 469.126 38.408 469.126 38.232ZM472.665 45V41.028H471.813V40.032H472.665V37.932C472.665 37.212 472.825 36.66 473.145 36.276C473.473 35.892 473.953 35.7 474.585 35.7C474.753 35.7 474.937 35.724 475.137 35.772C475.345 35.82 475.525 35.9 475.677 36.012L475.209 36.816C475.137 36.744 475.057 36.696 474.969 36.672C474.881 36.64 474.793 36.624 474.705 36.624C474.409 36.624 474.181 36.724 474.021 36.924C473.861 37.124 473.781 37.464 473.781 37.944V40.032H475.353V41.028H473.781V45H472.665ZM478.54 45.12C478.076 45.12 477.652 45.02 477.268 44.82C476.892 44.62 476.592 44.328 476.368 43.944C476.152 43.552 476.044 43.076 476.044 42.516C476.044 41.964 476.16 41.488 476.392 41.088C476.624 40.68 476.932 40.368 477.316 40.152C477.708 39.936 478.136 39.828 478.6 39.828C479.064 39.828 479.456 39.936 479.776 40.152C480.096 40.36 480.34 40.608 480.508 40.896L480.436 41.088L480.544 40.032H481.576V45H480.46V43.704L480.58 43.992C480.548 44.072 480.476 44.176 480.364 44.304C480.26 44.424 480.116 44.548 479.932 44.676C479.756 44.804 479.552 44.912 479.32 45C479.088 45.08 478.828 45.12 478.54 45.12ZM478.84 44.196C479.12 44.196 479.372 44.144 479.596 44.04C479.82 43.936 480.004 43.792 480.148 43.608C480.3 43.416 480.404 43.188 480.46 42.924V41.952C480.396 41.712 480.284 41.504 480.124 41.328C479.964 41.144 479.772 41.004 479.548 40.908C479.324 40.804 479.076 40.752 478.804 40.752C478.508 40.752 478.236 40.824 477.988 40.968C477.74 41.112 477.54 41.312 477.388 41.568C477.244 41.824 477.172 42.124 477.172 42.468C477.172 42.788 477.248 43.08 477.4 43.344C477.552 43.608 477.756 43.816 478.012 43.968C478.268 44.12 478.544 44.196 478.84 44.196ZM487.539 44.544C487.315 44.72 487.047 44.86 486.735 44.964C486.423 45.068 486.111 45.12 485.799 45.12C485.255 45.12 484.779 45.012 484.371 44.796C483.963 44.58 483.643 44.28 483.411 43.896C483.187 43.504 483.075 43.044 483.075 42.516C483.075 41.988 483.195 41.528 483.435 41.136C483.683 40.744 484.003 40.444 484.395 40.236C484.795 40.02 485.223 39.912 485.679 39.912C486.079 39.912 486.435 39.968 486.747 40.08C487.067 40.192 487.339 40.344 487.563 40.536L487.011 41.256C486.867 41.144 486.691 41.044 486.483 40.956C486.275 40.868 486.039 40.824 485.775 40.824C485.487 40.824 485.219 40.9 484.971 41.052C484.731 41.196 484.539 41.396 484.395 41.652C484.259 41.908 484.191 42.196 484.191 42.516C484.191 42.82 484.263 43.104 484.407 43.368C484.551 43.624 484.751 43.828 485.007 43.98C485.263 44.124 485.555 44.196 485.883 44.196C486.099 44.196 486.295 44.164 486.471 44.1C486.655 44.036 486.819 43.948 486.963 43.836L487.539 44.544ZM489.46 37.848H490.576V40.056H491.944V40.932H490.576V45H489.46V40.932H488.548V40.056H489.46V37.848ZM499.669 36.324C500.109 36.324 500.513 36.384 500.881 36.504C501.257 36.616 501.581 36.788 501.853 37.02C502.133 37.244 502.349 37.524 502.501 37.86C502.661 38.188 502.741 38.572 502.741 39.012C502.741 39.356 502.689 39.692 502.585 40.02C502.489 40.348 502.325 40.648 502.093 40.92C501.861 41.184 501.557 41.4 501.181 41.568C500.813 41.728 500.357 41.808 499.813 41.808H498.529V45H497.365V36.324H499.669ZM499.789 40.692C500.133 40.692 500.417 40.64 500.641 40.536C500.873 40.432 501.053 40.3 501.181 40.14C501.309 39.972 501.401 39.792 501.457 39.6C501.513 39.408 501.541 39.228 501.541 39.06C501.541 38.884 501.509 38.704 501.445 38.52C501.389 38.328 501.293 38.152 501.157 37.992C501.029 37.832 500.857 37.7 500.641 37.596C500.433 37.492 500.177 37.44 499.873 37.44H498.529V40.692H499.789ZM501.217 41.352L503.485 45H502.141L499.837 41.388L501.217 41.352ZM507.151 45.12C506.583 45.12 506.095 45.008 505.687 44.784C505.279 44.552 504.963 44.24 504.739 43.848C504.523 43.448 504.415 42.992 504.415 42.48C504.415 41.992 504.539 41.548 504.787 41.148C505.035 40.748 505.367 40.428 505.783 40.188C506.199 39.948 506.663 39.828 507.175 39.828C507.831 39.828 508.375 40.02 508.807 40.404C509.239 40.788 509.531 41.316 509.683 41.988L505.591 43.428L505.327 42.768L508.687 41.544L508.447 41.7C508.351 41.436 508.191 41.208 507.967 41.016C507.743 40.816 507.451 40.716 507.091 40.716C506.787 40.716 506.515 40.792 506.275 40.944C506.035 41.088 505.847 41.288 505.711 41.544C505.575 41.8 505.507 42.092 505.507 42.42C505.507 42.764 505.579 43.068 505.723 43.332C505.867 43.588 506.063 43.792 506.311 43.944C506.567 44.088 506.855 44.16 507.175 44.16C507.391 44.16 507.599 44.12 507.799 44.04C508.007 43.96 508.199 43.856 508.375 43.728L508.891 44.556C508.643 44.724 508.363 44.86 508.051 44.964C507.747 45.068 507.447 45.12 507.151 45.12ZM513.469 47.46C513.101 47.46 512.777 47.416 512.497 47.328C512.217 47.248 511.961 47.132 511.729 46.98C511.505 46.828 511.289 46.656 511.081 46.464L511.729 45.708C511.993 45.956 512.261 46.148 512.533 46.284C512.805 46.42 513.109 46.488 513.445 46.488C513.821 46.488 514.137 46.424 514.393 46.296C514.657 46.176 514.857 46.004 514.993 45.78C515.129 45.564 515.197 45.312 515.197 45.024L515.209 43.68L515.305 43.896C515.161 44.24 514.901 44.532 514.525 44.772C514.149 45.004 513.693 45.12 513.157 45.12C512.701 45.12 512.281 45.004 511.897 44.772C511.521 44.54 511.217 44.228 510.985 43.836C510.761 43.436 510.649 42.988 510.649 42.492C510.649 41.972 510.769 41.516 511.009 41.124C511.249 40.724 511.565 40.408 511.957 40.176C512.349 39.944 512.777 39.828 513.241 39.828C513.681 39.828 514.081 39.92 514.441 40.104C514.809 40.28 515.077 40.508 515.245 40.788L515.185 40.992L515.305 40.032H516.325V45.036C516.325 45.484 516.209 45.892 515.977 46.26C515.745 46.628 515.417 46.92 514.993 47.136C514.569 47.352 514.061 47.46 513.469 47.46ZM511.765 42.468C511.765 42.788 511.841 43.08 511.993 43.344C512.145 43.608 512.349 43.816 512.605 43.968C512.869 44.12 513.161 44.196 513.481 44.196C513.777 44.196 514.041 44.144 514.273 44.04C514.513 43.928 514.713 43.78 514.873 43.596C515.033 43.404 515.145 43.184 515.209 42.936V41.952C515.137 41.712 515.017 41.504 514.849 41.328C514.681 41.144 514.481 41.004 514.249 40.908C514.017 40.804 513.761 40.752 513.481 40.752C513.161 40.752 512.869 40.824 512.605 40.968C512.349 41.112 512.145 41.316 511.993 41.58C511.841 41.836 511.765 42.132 511.765 42.468ZM518.253 40.032H519.369V45H518.253V40.032ZM518.169 38.232C518.169 38.056 518.237 37.908 518.373 37.788C518.517 37.668 518.673 37.608 518.841 37.608C519.009 37.608 519.157 37.668 519.285 37.788C519.421 37.908 519.489 38.056 519.489 38.232C519.489 38.416 519.421 38.568 519.285 38.688C519.157 38.8 519.009 38.856 518.841 38.856C518.673 38.856 518.517 38.796 518.373 38.676C518.237 38.556 518.169 38.408 518.169 38.232ZM522.692 45.096C522.34 45.096 521.996 45.036 521.66 44.916C521.332 44.788 521.06 44.6 520.844 44.352L521.312 43.704C521.52 43.904 521.732 44.056 521.948 44.16C522.172 44.256 522.392 44.304 522.608 44.304C522.768 44.304 522.916 44.284 523.052 44.244C523.188 44.204 523.296 44.14 523.376 44.052C523.464 43.956 523.508 43.828 523.508 43.668C523.508 43.492 523.448 43.352 523.328 43.248C523.216 43.144 523.068 43.06 522.884 42.996C522.708 42.932 522.52 42.872 522.32 42.816C521.912 42.68 521.6 42.492 521.384 42.252C521.168 42.012 521.06 41.72 521.06 41.376C521.06 41.112 521.124 40.868 521.252 40.644C521.388 40.412 521.584 40.224 521.84 40.08C522.104 39.936 522.428 39.864 522.812 39.864C523.156 39.864 523.464 39.908 523.736 39.996C524.008 40.076 524.264 40.212 524.504 40.404L524.06 41.1C523.916 40.948 523.744 40.836 523.544 40.764C523.344 40.692 523.164 40.652 523.004 40.644C522.868 40.636 522.736 40.656 522.608 40.704C522.488 40.752 522.388 40.82 522.308 40.908C522.228 40.996 522.188 41.1 522.188 41.22C522.188 41.388 522.244 41.524 522.356 41.628C522.468 41.732 522.612 41.816 522.788 41.88C522.972 41.936 523.152 41.996 523.328 42.06C523.576 42.132 523.796 42.228 523.988 42.348C524.18 42.468 524.332 42.616 524.444 42.792C524.564 42.968 524.624 43.188 524.624 43.452C524.624 43.748 524.552 44.024 524.408 44.28C524.272 44.528 524.06 44.728 523.772 44.88C523.492 45.024 523.132 45.096 522.692 45.096ZM526.667 37.848H527.783V40.056H529.151V40.932H527.783V45H526.667V40.932H525.755V40.056H526.667V37.848ZM531.495 40.032L531.603 41.472L531.543 41.28C531.671 40.976 531.855 40.72 532.095 40.512C532.343 40.296 532.599 40.132 532.863 40.02C533.135 39.9 533.371 39.84 533.571 39.84L533.511 40.944C533.135 40.92 532.803 40.992 532.515 41.16C532.235 41.328 532.011 41.552 531.843 41.832C531.683 42.112 531.603 42.412 531.603 42.732V45H530.499V40.032H531.495ZM535.431 47.388L538.707 40.032H539.739L536.535 47.388H535.431ZM536.655 45.036L534.267 40.032H535.527L537.531 44.472L536.655 45.036Z" fill="white"/>
<path d="M711 23C711 11.9543 719.954 3 731 3H829C840.046 3 849 11.9543 849 23V66C849 77.0457 840.046 86 829 86H731C719.954 86 711 77.0457 711 66V23Z" fill="#4285F4"/>
<path d="M758.736 37.872C758.44 37.72 758.116 37.588 757.764 37.476C757.412 37.364 757.068 37.308 756.732 37.308C756.268 37.308 755.896 37.416 755.616 37.632C755.344 37.848 755.208 38.136 755.208 38.496C755.208 38.768 755.296 39 755.472 39.192C755.648 39.376 755.88 39.536 756.168 39.672C756.456 39.808 756.756 39.936 757.068 40.056C757.34 40.16 757.608 40.276 757.872 40.404C758.136 40.532 758.372 40.692 758.58 40.884C758.796 41.076 758.964 41.312 759.084 41.592C759.212 41.872 759.276 42.22 759.276 42.636C759.276 43.092 759.16 43.508 758.928 43.884C758.704 44.26 758.38 44.556 757.956 44.772C757.532 44.988 757.028 45.096 756.444 45.096C756.06 45.096 755.692 45.052 755.34 44.964C754.996 44.876 754.676 44.764 754.38 44.628C754.084 44.484 753.82 44.336 753.588 44.184L754.104 43.272C754.296 43.408 754.516 43.54 754.764 43.668C755.012 43.788 755.272 43.888 755.544 43.968C755.816 44.04 756.08 44.076 756.336 44.076C756.608 44.076 756.876 44.028 757.14 43.932C757.412 43.828 757.636 43.672 757.812 43.464C757.988 43.256 758.076 42.98 758.076 42.636C758.076 42.34 757.996 42.096 757.836 41.904C757.684 41.704 757.48 41.536 757.224 41.4C756.968 41.256 756.696 41.128 756.408 41.016C756.136 40.912 755.86 40.8 755.58 40.68C755.3 40.552 755.04 40.4 754.8 40.224C754.56 40.04 754.368 39.816 754.224 39.552C754.08 39.288 754.008 38.968 754.008 38.592C754.008 38.136 754.116 37.74 754.332 37.404C754.556 37.06 754.86 36.792 755.244 36.6C755.628 36.4 756.068 36.292 756.564 36.276C757.124 36.276 757.616 36.344 758.04 36.48C758.472 36.616 758.852 36.784 759.18 36.984L758.736 37.872ZM763.884 45.12C763.508 45.12 763.144 45.032 762.792 44.856C762.448 44.68 762.18 44.444 761.988 44.148L762.06 43.8V47.388H760.956V39.96H761.916L762.072 41.232L761.952 40.884C762.192 40.58 762.496 40.328 762.864 40.128C763.232 39.928 763.644 39.828 764.1 39.828C764.564 39.828 764.98 39.94 765.348 40.164C765.724 40.388 766.02 40.7 766.236 41.1C766.452 41.5 766.56 41.968 766.56 42.504C766.56 43.04 766.444 43.504 766.212 43.896C765.98 44.288 765.66 44.592 765.252 44.808C764.852 45.016 764.396 45.12 763.884 45.12ZM763.668 44.232C763.988 44.232 764.28 44.16 764.544 44.016C764.816 43.864 765.032 43.66 765.192 43.404C765.352 43.14 765.432 42.844 765.432 42.516C765.432 42.18 765.356 41.884 765.204 41.628C765.052 41.364 764.848 41.156 764.592 41.004C764.344 40.852 764.064 40.776 763.752 40.776C763.464 40.776 763.204 40.832 762.972 40.944C762.74 41.056 762.548 41.212 762.396 41.412C762.244 41.604 762.136 41.828 762.072 42.084V42.912C762.112 43.168 762.208 43.396 762.36 43.596C762.512 43.796 762.7 43.952 762.924 44.064C763.156 44.176 763.404 44.232 763.668 44.232ZM768.07 40.032H769.186V45H768.07V40.032ZM767.986 38.232C767.986 38.056 768.054 37.908 768.19 37.788C768.334 37.668 768.49 37.608 768.658 37.608C768.826 37.608 768.974 37.668 769.102 37.788C769.238 37.908 769.306 38.056 769.306 38.232C769.306 38.416 769.238 38.568 769.102 38.688C768.974 38.8 768.826 38.856 768.658 38.856C768.49 38.856 768.334 38.796 768.19 38.676C768.054 38.556 767.986 38.408 767.986 38.232ZM772.113 40.032L772.209 41.244L772.161 41.052C772.321 40.684 772.581 40.392 772.941 40.176C773.301 39.952 773.717 39.84 774.189 39.84C774.661 39.84 775.045 39.98 775.341 40.26C775.645 40.532 775.801 40.888 775.809 41.328V45H774.681V41.724C774.673 41.452 774.593 41.232 774.441 41.064C774.297 40.888 774.069 40.8 773.757 40.8C773.469 40.8 773.209 40.88 772.977 41.04C772.745 41.2 772.561 41.42 772.425 41.7C772.297 41.98 772.233 42.304 772.233 42.672V45H771.117V40.032H772.113ZM778.745 40.032L778.841 41.244L778.793 41.052C778.953 40.684 779.213 40.392 779.573 40.176C779.933 39.952 780.349 39.84 780.821 39.84C781.293 39.84 781.677 39.98 781.973 40.26C782.277 40.532 782.433 40.888 782.441 41.328V45H781.313V41.724C781.305 41.452 781.225 41.232 781.073 41.064C780.929 40.888 780.701 40.8 780.389 40.8C780.101 40.8 779.841 40.88 779.609 41.04C779.377 41.2 779.193 41.42 779.057 41.7C778.929 41.98 778.865 42.304 778.865 42.672V45H777.749V40.032H778.745ZM786.446 45.12C785.982 45.12 785.558 45.02 785.174 44.82C784.798 44.62 784.498 44.328 784.274 43.944C784.058 43.552 783.95 43.076 783.95 42.516C783.95 41.964 784.066 41.488 784.298 41.088C784.53 40.68 784.838 40.368 785.222 40.152C785.614 39.936 786.042 39.828 786.506 39.828C786.97 39.828 787.362 39.936 787.682 40.152C788.002 40.36 788.246 40.608 788.414 40.896L788.342 41.088L788.45 40.032H789.482V45H788.366V43.704L788.486 43.992C788.454 44.072 788.382 44.176 788.27 44.304C788.166 44.424 788.022 44.548 787.838 44.676C787.662 44.804 787.458 44.912 787.226 45C786.994 45.08 786.734 45.12 786.446 45.12ZM786.746 44.196C787.026 44.196 787.278 44.144 787.502 44.04C787.726 43.936 787.91 43.792 788.054 43.608C788.206 43.416 788.31 43.188 788.366 42.924V41.952C788.302 41.712 788.19 41.504 788.03 41.328C787.87 41.144 787.678 41.004 787.454 40.908C787.23 40.804 786.982 40.752 786.71 40.752C786.414 40.752 786.142 40.824 785.894 40.968C785.646 41.112 785.446 41.312 785.294 41.568C785.15 41.824 785.078 42.124 785.078 42.468C785.078 42.788 785.154 43.08 785.306 43.344C785.458 43.608 785.662 43.816 785.918 43.968C786.174 44.12 786.45 44.196 786.746 44.196ZM791.413 45V35.712H792.529V45H791.413ZM793.729 41.7L796.009 45H794.701L792.985 42.324L793.729 41.7ZM792.181 43.416L792.073 42.348L795.085 39.924L795.769 40.512L792.181 43.416ZM799.506 45.12C798.938 45.12 798.45 45.008 798.042 44.784C797.634 44.552 797.318 44.24 797.094 43.848C796.878 43.448 796.77 42.992 796.77 42.48C796.77 41.992 796.894 41.548 797.142 41.148C797.39 40.748 797.722 40.428 798.138 40.188C798.554 39.948 799.018 39.828 799.53 39.828C800.186 39.828 800.73 40.02 801.162 40.404C801.594 40.788 801.886 41.316 802.038 41.988L797.946 43.428L797.682 42.768L801.042 41.544L800.802 41.7C800.706 41.436 800.546 41.208 800.322 41.016C800.098 40.816 799.806 40.716 799.446 40.716C799.142 40.716 798.87 40.792 798.63 40.944C798.39 41.088 798.202 41.288 798.066 41.544C797.93 41.8 797.862 42.092 797.862 42.42C797.862 42.764 797.934 43.068 798.078 43.332C798.222 43.588 798.418 43.792 798.666 43.944C798.922 44.088 799.21 44.16 799.53 44.16C799.746 44.16 799.954 44.12 800.154 44.04C800.362 43.96 800.554 43.856 800.73 43.728L801.246 44.556C800.998 44.724 800.718 44.86 800.406 44.964C800.102 45.068 799.802 45.12 799.506 45.12ZM804.433 40.032L804.541 41.472L804.481 41.28C804.609 40.976 804.793 40.72 805.033 40.512C805.281 40.296 805.537 40.132 805.801 40.02C806.073 39.9 806.309 39.84 806.509 39.84L806.449 40.944C806.073 40.92 805.741 40.992 805.453 41.16C805.173 41.328 804.949 41.552 804.781 41.832C804.621 42.112 804.541 42.412 804.541 42.732V45H803.437V40.032H804.433Z" fill="white"/>
<path d="M417.354 42.3536C417.549 42.1583 417.549 41.8417 417.354 41.6465L414.172 38.4645C413.976 38.2692 413.66 38.2692 413.464 38.4645C413.269 38.6597 413.269 38.9763 413.464 39.1716L416.293 42L413.464 44.8284C413.269 45.0237 413.269 45.3403 413.464 45.5355C413.66 45.7308 413.976 45.7308 414.172 45.5355L417.354 42.3536ZM288 42.5L417 42.5L417 41.5L288 41.5L288 42.5Z" fill="black"/>
<path d="M321.9 39.12C321.524 39.12 321.16 39.032 320.808 38.856C320.464 38.68 320.196 38.444 320.004 38.148L320.076 37.8V41.388H318.972V33.96H319.932L320.088 35.232L319.968 34.884C320.208 34.58 320.512 34.328 320.88 34.128C321.248 33.928 321.66 33.828 322.116 33.828C322.58 33.828 322.996 33.94 323.364 34.164C323.74 34.388 324.036 34.7 324.252 35.1C324.468 35.5 324.576 35.968 324.576 36.504C324.576 37.04 324.46 37.504 324.228 37.896C323.996 38.288 323.676 38.592 323.268 38.808C322.868 39.016 322.412 39.12 321.9 39.12ZM321.684 38.232C322.004 38.232 322.296 38.16 322.56 38.016C322.832 37.864 323.048 37.66 323.208 37.404C323.368 37.14 323.448 36.844 323.448 36.516C323.448 36.18 323.372 35.884 323.22 35.628C323.068 35.364 322.864 35.156 322.608 35.004C322.36 34.852 322.08 34.776 321.768 34.776C321.48 34.776 321.22 34.832 320.988 34.944C320.756 35.056 320.564 35.212 320.412 35.412C320.26 35.604 320.152 35.828 320.088 36.084V36.912C320.128 37.168 320.224 37.396 320.376 37.596C320.528 37.796 320.716 37.952 320.94 38.064C321.172 38.176 321.42 38.232 321.684 38.232ZM327.657 39.192C327.209 39.192 326.837 39.056 326.541 38.784C326.253 38.504 326.101 38.144 326.085 37.704V34.032H327.201V37.308C327.217 37.58 327.293 37.8 327.429 37.968C327.573 38.136 327.797 38.224 328.101 38.232C328.381 38.232 328.629 38.152 328.845 37.992C329.069 37.824 329.249 37.6 329.385 37.32C329.521 37.032 329.589 36.708 329.589 36.348V34.032H330.705V39H329.685L329.589 37.776L329.649 37.992C329.553 38.224 329.405 38.432 329.205 38.616C329.013 38.792 328.785 38.932 328.521 39.036C328.257 39.14 327.969 39.192 327.657 39.192ZM334.028 39.096C333.676 39.096 333.332 39.036 332.996 38.916C332.668 38.788 332.396 38.6 332.18 38.352L332.648 37.704C332.856 37.904 333.068 38.056 333.284 38.16C333.508 38.256 333.728 38.304 333.944 38.304C334.104 38.304 334.252 38.284 334.388 38.244C334.524 38.204 334.632 38.14 334.712 38.052C334.8 37.956 334.844 37.828 334.844 37.668C334.844 37.492 334.784 37.352 334.664 37.248C334.552 37.144 334.404 37.06 334.22 36.996C334.044 36.932 333.856 36.872 333.656 36.816C333.248 36.68 332.936 36.492 332.72 36.252C332.504 36.012 332.396 35.72 332.396 35.376C332.396 35.112 332.46 34.868 332.588 34.644C332.724 34.412 332.92 34.224 333.176 34.08C333.44 33.936 333.764 33.864 334.148 33.864C334.492 33.864 334.8 33.908 335.072 33.996C335.344 34.076 335.6 34.212 335.84 34.404L335.396 35.1C335.252 34.948 335.08 34.836 334.88 34.764C334.68 34.692 334.5 34.652 334.34 34.644C334.204 34.636 334.072 34.656 333.944 34.704C333.824 34.752 333.724 34.82 333.644 34.908C333.564 34.996 333.524 35.1 333.524 35.22C333.524 35.388 333.58 35.524 333.692 35.628C333.804 35.732 333.948 35.816 334.124 35.88C334.308 35.936 334.488 35.996 334.664 36.06C334.912 36.132 335.132 36.228 335.324 36.348C335.516 36.468 335.668 36.616 335.78 36.792C335.9 36.968 335.96 37.188 335.96 37.452C335.96 37.748 335.888 38.024 335.744 38.28C335.608 38.528 335.396 38.728 335.108 38.88C334.828 39.024 334.468 39.096 334.028 39.096ZM337.523 39V29.712H338.615V35.184L338.591 34.98C338.759 34.652 339.015 34.38 339.359 34.164C339.711 33.948 340.123 33.84 340.595 33.84C341.067 33.84 341.451 33.98 341.747 34.26C342.051 34.532 342.207 34.888 342.215 35.328V39H341.087V35.724C341.079 35.452 340.999 35.232 340.847 35.064C340.703 34.888 340.475 34.8 340.163 34.8C339.875 34.8 339.615 34.884 339.383 35.052C339.151 35.212 338.967 35.432 338.831 35.712C338.703 35.992 338.639 36.312 338.639 36.672V39H337.523ZM347.952 34.032H349.068V39H347.952V34.032ZM347.868 32.232C347.868 32.056 347.936 31.908 348.072 31.788C348.216 31.668 348.372 31.608 348.54 31.608C348.708 31.608 348.856 31.668 348.984 31.788C349.12 31.908 349.188 32.056 349.188 32.232C349.188 32.416 349.12 32.568 348.984 32.688C348.856 32.8 348.708 32.856 348.54 32.856C348.372 32.856 348.216 32.796 348.072 32.676C347.936 32.556 347.868 32.408 347.868 32.232ZM351.995 34.032L352.091 35.148L352.043 35.052C352.227 34.676 352.487 34.38 352.823 34.164C353.167 33.948 353.559 33.84 353.999 33.84C354.279 33.84 354.527 33.884 354.743 33.972C354.959 34.06 355.135 34.188 355.271 34.356C355.415 34.516 355.507 34.716 355.547 34.956L355.487 34.992C355.679 34.632 355.943 34.352 356.279 34.152C356.623 33.944 356.983 33.84 357.359 33.84C357.847 33.84 358.231 33.98 358.511 34.26C358.799 34.532 358.947 34.888 358.955 35.328V39H357.839V35.724C357.831 35.468 357.767 35.256 357.647 35.088C357.535 34.912 357.335 34.816 357.047 34.8C356.759 34.8 356.499 34.888 356.267 35.064C356.043 35.24 355.867 35.468 355.739 35.748C355.611 36.02 355.543 36.316 355.535 36.636V39H354.419V35.724C354.411 35.468 354.343 35.256 354.215 35.088C354.095 34.912 353.891 34.816 353.603 34.8C353.307 34.8 353.047 34.888 352.823 35.064C352.599 35.24 352.423 35.468 352.295 35.748C352.175 36.028 352.115 36.328 352.115 36.648V39H350.999V34.032H351.995ZM362.966 39.12C362.502 39.12 362.078 39.02 361.694 38.82C361.318 38.62 361.018 38.328 360.794 37.944C360.578 37.552 360.47 37.076 360.47 36.516C360.47 35.964 360.586 35.488 360.818 35.088C361.05 34.68 361.358 34.368 361.742 34.152C362.134 33.936 362.562 33.828 363.026 33.828C363.49 33.828 363.882 33.936 364.202 34.152C364.522 34.36 364.766 34.608 364.934 34.896L364.862 35.088L364.97 34.032H366.002V39H364.886V37.704L365.006 37.992C364.974 38.072 364.902 38.176 364.79 38.304C364.686 38.424 364.542 38.548 364.358 38.676C364.182 38.804 363.978 38.912 363.746 39C363.514 39.08 363.254 39.12 362.966 39.12ZM363.266 38.196C363.546 38.196 363.798 38.144 364.022 38.04C364.246 37.936 364.43 37.792 364.574 37.608C364.726 37.416 364.83 37.188 364.886 36.924V35.952C364.822 35.712 364.71 35.504 364.55 35.328C364.39 35.144 364.198 35.004 363.974 34.908C363.75 34.804 363.502 34.752 363.23 34.752C362.934 34.752 362.662 34.824 362.414 34.968C362.166 35.112 361.966 35.312 361.814 35.568C361.67 35.824 361.598 36.124 361.598 36.468C361.598 36.788 361.674 37.08 361.826 37.344C361.978 37.608 362.182 37.816 362.438 37.968C362.694 38.12 362.97 38.196 363.266 38.196ZM370.321 41.46C369.953 41.46 369.629 41.416 369.349 41.328C369.069 41.248 368.813 41.132 368.581 40.98C368.357 40.828 368.141 40.656 367.933 40.464L368.581 39.708C368.845 39.956 369.113 40.148 369.385 40.284C369.657 40.42 369.961 40.488 370.297 40.488C370.673 40.488 370.989 40.424 371.245 40.296C371.509 40.176 371.709 40.004 371.845 39.78C371.981 39.564 372.049 39.312 372.049 39.024L372.061 37.68L372.157 37.896C372.013 38.24 371.753 38.532 371.377 38.772C371.001 39.004 370.545 39.12 370.009 39.12C369.553 39.12 369.133 39.004 368.749 38.772C368.373 38.54 368.069 38.228 367.837 37.836C367.613 37.436 367.501 36.988 367.501 36.492C367.501 35.972 367.621 35.516 367.861 35.124C368.101 34.724 368.417 34.408 368.809 34.176C369.201 33.944 369.629 33.828 370.093 33.828C370.533 33.828 370.933 33.92 371.293 34.104C371.661 34.28 371.929 34.508 372.097 34.788L372.037 34.992L372.157 34.032H373.177V39.036C373.177 39.484 373.061 39.892 372.829 40.26C372.597 40.628 372.269 40.92 371.845 41.136C371.421 41.352 370.913 41.46 370.321 41.46ZM368.617 36.468C368.617 36.788 368.693 37.08 368.845 37.344C368.997 37.608 369.201 37.816 369.457 37.968C369.721 38.12 370.013 38.196 370.333 38.196C370.629 38.196 370.893 38.144 371.125 38.04C371.365 37.928 371.565 37.78 371.725 37.596C371.885 37.404 371.997 37.184 372.061 36.936V35.952C371.989 35.712 371.869 35.504 371.701 35.328C371.533 35.144 371.333 35.004 371.101 34.908C370.869 34.804 370.613 34.752 370.333 34.752C370.013 34.752 369.721 34.824 369.457 34.968C369.201 35.112 368.997 35.316 368.845 35.58C368.693 35.836 368.617 36.132 368.617 36.468ZM377.409 39.12C376.841 39.12 376.353 39.008 375.945 38.784C375.537 38.552 375.221 38.24 374.997 37.848C374.781 37.448 374.673 36.992 374.673 36.48C374.673 35.992 374.797 35.548 375.045 35.148C375.293 34.748 375.625 34.428 376.041 34.188C376.457 33.948 376.921 33.828 377.433 33.828C378.089 33.828 378.633 34.02 379.065 34.404C379.497 34.788 379.789 35.316 379.941 35.988L375.849 37.428L375.585 36.768L378.945 35.544L378.705 35.7C378.609 35.436 378.449 35.208 378.225 35.016C378.001 34.816 377.709 34.716 377.349 34.716C377.045 34.716 376.773 34.792 376.533 34.944C376.293 35.088 376.105 35.288 375.969 35.544C375.833 35.8 375.765 36.092 375.765 36.42C375.765 36.764 375.837 37.068 375.981 37.332C376.125 37.588 376.321 37.792 376.569 37.944C376.825 38.088 377.113 38.16 377.433 38.16C377.649 38.16 377.857 38.12 378.057 38.04C378.265 37.96 378.457 37.856 378.633 37.728L379.149 38.556C378.901 38.724 378.621 38.86 378.309 38.964C378.005 39.068 377.705 39.12 377.409 39.12ZM382.731 39.096C382.379 39.096 382.035 39.036 381.699 38.916C381.371 38.788 381.099 38.6 380.883 38.352L381.351 37.704C381.559 37.904 381.771 38.056 381.987 38.16C382.211 38.256 382.431 38.304 382.647 38.304C382.807 38.304 382.955 38.284 383.091 38.244C383.227 38.204 383.335 38.14 383.415 38.052C383.503 37.956 383.547 37.828 383.547 37.668C383.547 37.492 383.487 37.352 383.367 37.248C383.255 37.144 383.107 37.06 382.923 36.996C382.747 36.932 382.559 36.872 382.359 36.816C381.951 36.68 381.639 36.492 381.423 36.252C381.207 36.012 381.099 35.72 381.099 35.376C381.099 35.112 381.163 34.868 381.291 34.644C381.427 34.412 381.623 34.224 381.879 34.08C382.143 33.936 382.467 33.864 382.851 33.864C383.195 33.864 383.503 33.908 383.775 33.996C384.047 34.076 384.303 34.212 384.543 34.404L384.099 35.1C383.955 34.948 383.783 34.836 383.583 34.764C383.383 34.692 383.203 34.652 383.043 34.644C382.907 34.636 382.775 34.656 382.647 34.704C382.527 34.752 382.427 34.82 382.347 34.908C382.267 34.996 382.227 35.1 382.227 35.22C382.227 35.388 382.283 35.524 382.395 35.628C382.507 35.732 382.651 35.816 382.827 35.88C383.011 35.936 383.191 35.996 383.367 36.06C383.615 36.132 383.835 36.228 384.027 36.348C384.219 36.468 384.371 36.616 384.483 36.792C384.603 36.968 384.663 37.188 384.663 37.452C384.663 37.748 384.591 38.024 384.447 38.28C384.311 38.528 384.099 38.728 383.811 38.88C383.531 39.024 383.171 39.096 382.731 39.096Z" fill="black"/>
<path d="M129.354 42.3536C129.549 42.1583 129.549 41.8417 129.354 41.6465L126.172 38.4645C125.976 38.2692 125.66 38.2692 125.464 38.4645C125.269 38.6597 125.269 38.9763 125.464 39.1716L128.293 42L125.464 44.8284C125.269 45.0237 125.269 45.3403 125.464 45.5355C125.66 45.7308 125.976 45.7308 126.172 45.5355L129.354 42.3536ZM-4.37114e-08 42.5L129 42.5L129 41.5L4.37114e-08 41.5L-4.37114e-08 42.5Z" fill="black"/>
<path d="M15.968 34.032L16.064 35.148L16.016 35.052C16.2 34.676 16.46 34.38 16.796 34.164C17.14 33.948 17.532 33.84 17.972 33.84C18.252 33.84 18.5 33.884 18.716 33.972C18.932 34.06 19.108 34.188 19.244 34.356C19.388 34.516 19.48 34.716 19.52 34.956L19.46 34.992C19.652 34.632 19.916 34.352 20.252 34.152C20.596 33.944 20.956 33.84 21.332 33.84C21.82 33.84 22.204 33.98 22.484 34.26C22.772 34.532 22.92 34.888 22.928 35.328V39H21.812V35.724C21.804 35.468 21.74 35.256 21.62 35.088C21.508 34.912 21.308 34.816 21.02 34.8C20.732 34.8 20.472 34.888 20.24 35.064C20.016 35.24 19.84 35.468 19.712 35.748C19.584 36.02 19.516 36.316 19.508 36.636V39H18.392V35.724C18.384 35.468 18.316 35.256 18.188 35.088C18.068 34.912 17.864 34.816 17.576 34.8C17.28 34.8 17.02 34.888 16.796 35.064C16.572 35.24 16.396 35.468 16.268 35.748C16.148 36.028 16.088 36.328 16.088 36.648V39H14.972V34.032H15.968ZM27.1783 39.12C26.6103 39.12 26.1223 39.008 25.7143 38.784C25.3063 38.552 24.9903 38.24 24.7663 37.848C24.5503 37.448 24.4423 36.992 24.4423 36.48C24.4423 35.992 24.5663 35.548 24.8143 35.148C25.0623 34.748 25.3943 34.428 25.8103 34.188C26.2263 33.948 26.6903 33.828 27.2023 33.828C27.8583 33.828 28.4023 34.02 28.8343 34.404C29.2663 34.788 29.5583 35.316 29.7103 35.988L25.6183 37.428L25.3543 36.768L28.7143 35.544L28.4743 35.7C28.3783 35.436 28.2183 35.208 27.9943 35.016C27.7703 34.816 27.4783 34.716 27.1183 34.716C26.8143 34.716 26.5423 34.792 26.3023 34.944C26.0623 35.088 25.8743 35.288 25.7383 35.544C25.6023 35.8 25.5343 36.092 25.5343 36.42C25.5343 36.764 25.6063 37.068 25.7503 37.332C25.8943 37.588 26.0903 37.792 26.3383 37.944C26.5943 38.088 26.8823 38.16 27.2023 38.16C27.4183 38.16 27.6263 38.12 27.8263 38.04C28.0343 37.96 28.2263 37.856 28.4023 37.728L28.9183 38.556C28.6703 38.724 28.3903 38.86 28.0783 38.964C27.7743 39.068 27.4743 39.12 27.1783 39.12ZM32.1047 34.032L32.2127 35.472L32.1527 35.28C32.2807 34.976 32.4647 34.72 32.7047 34.512C32.9527 34.296 33.2087 34.132 33.4727 34.02C33.7447 33.9 33.9807 33.84 34.1807 33.84L34.1207 34.944C33.7447 34.92 33.4127 34.992 33.1247 35.16C32.8447 35.328 32.6207 35.552 32.4527 35.832C32.2927 36.112 32.2127 36.412 32.2127 36.732V39H31.1087V34.032H32.1047ZM37.7975 41.46C37.4295 41.46 37.1055 41.416 36.8255 41.328C36.5455 41.248 36.2895 41.132 36.0575 40.98C35.8335 40.828 35.6175 40.656 35.4095 40.464L36.0575 39.708C36.3215 39.956 36.5895 40.148 36.8615 40.284C37.1335 40.42 37.4375 40.488 37.7735 40.488C38.1495 40.488 38.4655 40.424 38.7215 40.296C38.9855 40.176 39.1855 40.004 39.3215 39.78C39.4575 39.564 39.5255 39.312 39.5255 39.024L39.5375 37.68L39.6335 37.896C39.4895 38.24 39.2295 38.532 38.8535 38.772C38.4775 39.004 38.0215 39.12 37.4855 39.12C37.0295 39.12 36.6095 39.004 36.2255 38.772C35.8495 38.54 35.5455 38.228 35.3135 37.836C35.0895 37.436 34.9775 36.988 34.9775 36.492C34.9775 35.972 35.0975 35.516 35.3375 35.124C35.5775 34.724 35.8935 34.408 36.2855 34.176C36.6775 33.944 37.1055 33.828 37.5695 33.828C38.0095 33.828 38.4095 33.92 38.7695 34.104C39.1375 34.28 39.4055 34.508 39.5735 34.788L39.5135 34.992L39.6335 34.032H40.6535V39.036C40.6535 39.484 40.5375 39.892 40.3055 40.26C40.0735 40.628 39.7455 40.92 39.3215 41.136C38.8975 41.352 38.3895 41.46 37.7975 41.46ZM36.0935 36.468C36.0935 36.788 36.1695 37.08 36.3215 37.344C36.4735 37.608 36.6775 37.816 36.9335 37.968C37.1975 38.12 37.4895 38.196 37.8095 38.196C38.1055 38.196 38.3695 38.144 38.6015 38.04C38.8415 37.928 39.0415 37.78 39.2015 37.596C39.3615 37.404 39.4735 37.184 39.5375 36.936V35.952C39.4655 35.712 39.3455 35.504 39.1775 35.328C39.0095 35.144 38.8095 35.004 38.5775 34.908C38.3455 34.804 38.0895 34.752 37.8095 34.752C37.4895 34.752 37.1975 34.824 36.9335 34.968C36.6775 35.112 36.4735 35.316 36.3215 35.58C36.1695 35.836 36.0935 36.132 36.0935 36.468ZM44.8854 39.12C44.3174 39.12 43.8294 39.008 43.4214 38.784C43.0134 38.552 42.6974 38.24 42.4734 37.848C42.2574 37.448 42.1494 36.992 42.1494 36.48C42.1494 35.992 42.2734 35.548 42.5214 35.148C42.7694 34.748 43.1014 34.428 43.5174 34.188C43.9334 33.948 44.3974 33.828 44.9094 33.828C45.5654 33.828 46.1094 34.02 46.5414 34.404C46.9734 34.788 47.2654 35.316 47.4174 35.988L43.3254 37.428L43.0614 36.768L46.4214 35.544L46.1814 35.7C46.0854 35.436 45.9254 35.208 45.7014 35.016C45.4774 34.816 45.1854 34.716 44.8254 34.716C44.5214 34.716 44.2494 34.792 44.0094 34.944C43.7694 35.088 43.5814 35.288 43.4454 35.544C43.3094 35.8 43.2414 36.092 43.2414 36.42C43.2414 36.764 43.3134 37.068 43.4574 37.332C43.6014 37.588 43.7974 37.792 44.0454 37.944C44.3014 38.088 44.5894 38.16 44.9094 38.16C45.1254 38.16 45.3334 38.12 45.5334 38.04C45.7414 37.96 45.9334 37.856 46.1094 37.728L46.6254 38.556C46.3774 38.724 46.0974 38.86 45.7854 38.964C45.4814 39.068 45.1814 39.12 44.8854 39.12ZM55.5406 39.12C55.1646 39.12 54.8006 39.032 54.4486 38.856C54.1046 38.68 53.8366 38.444 53.6446 38.148L53.7166 37.8V41.388H52.6126V33.96H53.5726L53.7286 35.232L53.6086 34.884C53.8486 34.58 54.1526 34.328 54.5206 34.128C54.8886 33.928 55.3006 33.828 55.7566 33.828C56.2206 33.828 56.6366 33.94 57.0046 34.164C57.3806 34.388 57.6766 34.7 57.8926 35.1C58.1086 35.5 58.2166 35.968 58.2166 36.504C58.2166 37.04 58.1006 37.504 57.8686 37.896C57.6366 38.288 57.3166 38.592 56.9086 38.808C56.5086 39.016 56.0526 39.12 55.5406 39.12ZM55.3246 38.232C55.6446 38.232 55.9366 38.16 56.2006 38.016C56.4726 37.864 56.6886 37.66 56.8486 37.404C57.0086 37.14 57.0886 36.844 57.0886 36.516C57.0886 36.18 57.0126 35.884 56.8606 35.628C56.7086 35.364 56.5046 35.156 56.2486 35.004C56.0006 34.852 55.7206 34.776 55.4086 34.776C55.1206 34.776 54.8606 34.832 54.6286 34.944C54.3966 35.056 54.2046 35.212 54.0526 35.412C53.9006 35.604 53.7926 35.828 53.7286 36.084V36.912C53.7686 37.168 53.8646 37.396 54.0166 37.596C54.1686 37.796 54.3566 37.952 54.5806 38.064C54.8126 38.176 55.0606 38.232 55.3246 38.232ZM61.2979 39.192C60.8499 39.192 60.4779 39.056 60.1819 38.784C59.8939 38.504 59.7419 38.144 59.7259 37.704V34.032H60.8419V37.308C60.8579 37.58 60.9339 37.8 61.0699 37.968C61.2139 38.136 61.4379 38.224 61.7419 38.232C62.0219 38.232 62.2699 38.152 62.4859 37.992C62.7099 37.824 62.8899 37.6 63.0259 37.32C63.1619 37.032 63.2299 36.708 63.2299 36.348V34.032H64.3459V39H63.3259L63.2299 37.776L63.2899 37.992C63.1939 38.224 63.0459 38.432 62.8459 38.616C62.6539 38.792 62.4259 38.932 62.1619 39.036C61.8979 39.14 61.6099 39.192 61.2979 39.192ZM66.2767 29.712H67.3927V39H66.2767V29.712ZM69.3236 29.712H70.4396V39H69.3236V29.712ZM77.1633 34.032L77.2713 35.472L77.2113 35.28C77.3393 34.976 77.5233 34.72 77.7633 34.512C78.0113 34.296 78.2673 34.132 78.5313 34.02C78.8033 33.9 79.0393 33.84 79.2393 33.84L79.1793 34.944C78.8033 34.92 78.4713 34.992 78.1833 35.16C77.9033 35.328 77.6793 35.552 77.5113 35.832C77.3513 36.112 77.2713 36.412 77.2713 36.732V39H76.1673V34.032H77.1633ZM82.7721 39.12C82.2041 39.12 81.7161 39.008 81.3081 38.784C80.9001 38.552 80.5841 38.24 80.3601 37.848C80.1441 37.448 80.0361 36.992 80.0361 36.48C80.0361 35.992 80.1601 35.548 80.4081 35.148C80.6561 34.748 80.9881 34.428 81.4041 34.188C81.8201 33.948 82.2841 33.828 82.7961 33.828C83.4521 33.828 83.9961 34.02 84.4281 34.404C84.8601 34.788 85.1521 35.316 85.3041 35.988L81.2121 37.428L80.9481 36.768L84.3081 35.544L84.0681 35.7C83.9721 35.436 83.8121 35.208 83.5881 35.016C83.3641 34.816 83.0721 34.716 82.7121 34.716C82.4081 34.716 82.1361 34.792 81.8961 34.944C81.6561 35.088 81.4681 35.288 81.3321 35.544C81.1961 35.8 81.1281 36.092 81.1281 36.42C81.1281 36.764 81.2001 37.068 81.3441 37.332C81.4881 37.588 81.6841 37.792 81.9321 37.944C82.1881 38.088 82.4761 38.16 82.7961 38.16C83.0121 38.16 83.2201 38.12 83.4201 38.04C83.6281 37.96 83.8201 37.856 83.9961 37.728L84.5121 38.556C84.2641 38.724 83.9841 38.86 83.6721 38.964C83.3681 39.068 83.0681 39.12 82.7721 39.12ZM88.6945 39.12C88.2545 39.12 87.8505 39.012 87.4825 38.796C87.1145 38.58 86.8185 38.28 86.5945 37.896C86.3785 37.504 86.2705 37.044 86.2705 36.516C86.2705 35.972 86.3865 35.5 86.6185 35.1C86.8585 34.7 87.1745 34.388 87.5665 34.164C87.9665 33.94 88.4025 33.828 88.8745 33.828C89.3225 33.828 89.7185 33.928 90.0625 34.128C90.4065 34.32 90.6825 34.572 90.8905 34.884L90.7585 35.232V33.96H91.8745V41.388H90.7705V37.728L90.8185 38.196C90.6265 38.468 90.3425 38.692 89.9665 38.868C89.5905 39.036 89.1665 39.12 88.6945 39.12ZM89.0665 38.232C89.3545 38.232 89.6185 38.176 89.8585 38.064C90.0985 37.952 90.2945 37.8 90.4465 37.608C90.6065 37.408 90.7105 37.18 90.7585 36.924V36.084C90.6945 35.828 90.5865 35.604 90.4345 35.412C90.2825 35.212 90.0905 35.056 89.8585 34.944C89.6265 34.832 89.3625 34.776 89.0665 34.776C88.7705 34.776 88.4945 34.852 88.2385 35.004C87.9825 35.156 87.7785 35.364 87.6265 35.628C87.4745 35.892 87.3985 36.188 87.3985 36.516C87.3985 36.844 87.4745 37.136 87.6265 37.392C87.7785 37.648 87.9825 37.852 88.2385 38.004C88.4945 38.156 88.7705 38.232 89.0665 38.232ZM95.3878 39.192C94.9398 39.192 94.5678 39.056 94.2718 38.784C93.9838 38.504 93.8318 38.144 93.8158 37.704V34.032H94.9318V37.308C94.9478 37.58 95.0238 37.8 95.1598 37.968C95.3038 38.136 95.5278 38.224 95.8318 38.232C96.1118 38.232 96.3598 38.152 96.5758 37.992C96.7998 37.824 96.9798 37.6 97.1158 37.32C97.2518 37.032 97.3198 36.708 97.3198 36.348V34.032H98.4358V39H97.4158L97.3198 37.776L97.3798 37.992C97.2838 38.224 97.1358 38.432 96.9358 38.616C96.7438 38.792 96.5158 38.932 96.2518 39.036C95.9878 39.14 95.6998 39.192 95.3878 39.192ZM102.671 39.12C102.103 39.12 101.615 39.008 101.207 38.784C100.799 38.552 100.483 38.24 100.259 37.848C100.043 37.448 99.9345 36.992 99.9345 36.48C99.9345 35.992 100.059 35.548 100.307 35.148C100.555 34.748 100.887 34.428 101.303 34.188C101.719 33.948 102.183 33.828 102.695 33.828C103.351 33.828 103.895 34.02 104.327 34.404C104.759 34.788 105.051 35.316 105.203 35.988L101.111 37.428L100.847 36.768L104.207 35.544L103.967 35.7C103.871 35.436 103.711 35.208 103.487 35.016C103.263 34.816 102.971 34.716 102.611 34.716C102.307 34.716 102.035 34.792 101.795 34.944C101.555 35.088 101.367 35.288 101.231 35.544C101.095 35.8 101.027 36.092 101.027 36.42C101.027 36.764 101.099 37.068 101.243 37.332C101.387 37.588 101.583 37.792 101.831 37.944C102.087 38.088 102.375 38.16 102.695 38.16C102.911 38.16 103.119 38.12 103.319 38.04C103.527 37.96 103.719 37.856 103.895 37.728L104.411 38.556C104.163 38.724 103.883 38.86 103.571 38.964C103.267 39.068 102.967 39.12 102.671 39.12ZM107.993 39.096C107.641 39.096 107.297 39.036 106.961 38.916C106.633 38.788 106.361 38.6 106.145 38.352L106.613 37.704C106.821 37.904 107.033 38.056 107.249 38.16C107.473 38.256 107.693 38.304 107.909 38.304C108.069 38.304 108.217 38.284 108.353 38.244C108.489 38.204 108.597 38.14 108.677 38.052C108.765 37.956 108.809 37.828 108.809 37.668C108.809 37.492 108.749 37.352 108.629 37.248C108.517 37.144 108.369 37.06 108.185 36.996C108.009 36.932 107.821 36.872 107.621 36.816C107.213 36.68 106.901 36.492 106.685 36.252C106.469 36.012 106.361 35.72 106.361 35.376C106.361 35.112 106.425 34.868 106.553 34.644C106.689 34.412 106.885 34.224 107.141 34.08C107.405 33.936 107.729 33.864 108.113 33.864C108.457 33.864 108.765 33.908 109.037 33.996C109.309 34.076 109.565 34.212 109.805 34.404L109.361 35.1C109.217 34.948 109.045 34.836 108.845 34.764C108.645 34.692 108.465 34.652 108.305 34.644C108.169 34.636 108.037 34.656 107.909 34.704C107.789 34.752 107.689 34.82 107.609 34.908C107.529 34.996 107.489 35.1 107.489 35.22C107.489 35.388 107.545 35.524 107.657 35.628C107.769 35.732 107.913 35.816 108.089 35.88C108.273 35.936 108.453 35.996 108.629 36.06C108.877 36.132 109.097 36.228 109.289 36.348C109.481 36.468 109.633 36.616 109.745 36.792C109.865 36.968 109.925 37.188 109.925 37.452C109.925 37.748 109.853 38.024 109.709 38.28C109.573 38.528 109.361 38.728 109.073 38.88C108.793 39.024 108.433 39.096 107.993 39.096ZM111.968 31.848H113.084V34.056H114.452V34.932H113.084V39H111.968V34.932H111.056V34.056H111.968V31.848Z" fill="black"/>
<path d="M700.354 45.3536C700.549 45.1583 700.549 44.8417 700.354 44.6465L697.172 41.4645C696.976 41.2692 696.66 41.2692 696.464 41.4645C696.269 41.6597 696.269 41.9763 696.464 42.1716L699.293 45L696.464 47.8284C696.269 48.0237 696.269 48.3403 696.464 48.5355C696.66 48.7308 696.976 48.7308 697.172 48.5355L700.354 45.3536ZM571 45.5L700 45.5L700 44.5L571 44.5L571 45.5Z" fill="black"/>
<path d="M594.452 34.848H595.568V37.056H596.936V37.932H595.568V42H594.452V37.932H593.54V37.056H594.452V34.848ZM599.281 37.032L599.389 38.472L599.329 38.28C599.457 37.976 599.641 37.72 599.881 37.512C600.129 37.296 600.385 37.132 600.649 37.02C600.921 36.9 601.157 36.84 601.357 36.84L601.297 37.944C600.921 37.92 600.589 37.992 600.301 38.16C600.021 38.328 599.797 38.552 599.629 38.832C599.469 39.112 599.389 39.412 599.389 39.732V42H598.285V37.032H599.281ZM602.796 37.032H603.912V42H602.796V37.032ZM602.712 35.232C602.712 35.056 602.78 34.908 602.916 34.788C603.06 34.668 603.216 34.608 603.384 34.608C603.552 34.608 603.7 34.668 603.828 34.788C603.964 34.908 604.032 35.056 604.032 35.232C604.032 35.416 603.964 35.568 603.828 35.688C603.7 35.8 603.552 35.856 603.384 35.856C603.216 35.856 603.06 35.796 602.916 35.676C602.78 35.556 602.712 35.408 602.712 35.232ZM608.231 44.46C607.863 44.46 607.539 44.416 607.259 44.328C606.979 44.248 606.723 44.132 606.491 43.98C606.267 43.828 606.051 43.656 605.843 43.464L606.491 42.708C606.755 42.956 607.023 43.148 607.295 43.284C607.567 43.42 607.871 43.488 608.207 43.488C608.583 43.488 608.899 43.424 609.155 43.296C609.419 43.176 609.619 43.004 609.755 42.78C609.891 42.564 609.959 42.312 609.959 42.024L609.971 40.68L610.067 40.896C609.923 41.24 609.663 41.532 609.287 41.772C608.911 42.004 608.455 42.12 607.919 42.12C607.463 42.12 607.043 42.004 606.659 41.772C606.283 41.54 605.979 41.228 605.747 40.836C605.523 40.436 605.411 39.988 605.411 39.492C605.411 38.972 605.531 38.516 605.771 38.124C606.011 37.724 606.327 37.408 606.719 37.176C607.111 36.944 607.539 36.828 608.003 36.828C608.443 36.828 608.843 36.92 609.203 37.104C609.571 37.28 609.839 37.508 610.007 37.788L609.947 37.992L610.067 37.032H611.087V42.036C611.087 42.484 610.971 42.892 610.739 43.26C610.507 43.628 610.179 43.92 609.755 44.136C609.331 44.352 608.823 44.46 608.231 44.46ZM606.527 39.468C606.527 39.788 606.603 40.08 606.755 40.344C606.907 40.608 607.111 40.816 607.367 40.968C607.631 41.12 607.923 41.196 608.243 41.196C608.539 41.196 608.803 41.144 609.035 41.04C609.275 40.928 609.475 40.78 609.635 40.596C609.795 40.404 609.907 40.184 609.971 39.936V38.952C609.899 38.712 609.779 38.504 609.611 38.328C609.443 38.144 609.243 38.004 609.011 37.908C608.779 37.804 608.523 37.752 608.243 37.752C607.923 37.752 607.631 37.824 607.367 37.968C607.111 38.112 606.907 38.316 606.755 38.58C606.603 38.836 606.527 39.132 606.527 39.468ZM615.403 44.46C615.035 44.46 614.711 44.416 614.431 44.328C614.151 44.248 613.895 44.132 613.663 43.98C613.439 43.828 613.223 43.656 613.015 43.464L613.663 42.708C613.927 42.956 614.195 43.148 614.467 43.284C614.739 43.42 615.043 43.488 615.379 43.488C615.755 43.488 616.071 43.424 616.327 43.296C616.591 43.176 616.791 43.004 616.927 42.78C617.063 42.564 617.131 42.312 617.131 42.024L617.143 40.68L617.239 40.896C617.095 41.24 616.835 41.532 616.459 41.772C616.083 42.004 615.627 42.12 615.091 42.12C614.635 42.12 614.215 42.004 613.831 41.772C613.455 41.54 613.151 41.228 612.919 40.836C612.695 40.436 612.583 39.988 612.583 39.492C612.583 38.972 612.703 38.516 612.943 38.124C613.183 37.724 613.499 37.408 613.891 37.176C614.283 36.944 614.711 36.828 615.175 36.828C615.615 36.828 616.015 36.92 616.375 37.104C616.743 37.28 617.011 37.508 617.179 37.788L617.119 37.992L617.239 37.032H618.259V42.036C618.259 42.484 618.143 42.892 617.911 43.26C617.679 43.628 617.351 43.92 616.927 44.136C616.503 44.352 615.995 44.46 615.403 44.46ZM613.699 39.468C613.699 39.788 613.775 40.08 613.927 40.344C614.079 40.608 614.283 40.816 614.539 40.968C614.803 41.12 615.095 41.196 615.415 41.196C615.711 41.196 615.975 41.144 616.207 41.04C616.447 40.928 616.647 40.78 616.807 40.596C616.967 40.404 617.079 40.184 617.143 39.936V38.952C617.071 38.712 616.951 38.504 616.783 38.328C616.615 38.144 616.415 38.004 616.183 37.908C615.951 37.804 615.695 37.752 615.415 37.752C615.095 37.752 614.803 37.824 614.539 37.968C614.283 38.112 614.079 38.316 613.927 38.58C613.775 38.836 613.699 39.132 613.699 39.468ZM622.491 42.12C621.923 42.12 621.435 42.008 621.027 41.784C620.619 41.552 620.303 41.24 620.079 40.848C619.863 40.448 619.755 39.992 619.755 39.48C619.755 38.992 619.879 38.548 620.127 38.148C620.375 37.748 620.707 37.428 621.123 37.188C621.539 36.948 622.003 36.828 622.515 36.828C623.171 36.828 623.715 37.02 624.147 37.404C624.579 37.788 624.871 38.316 625.023 38.988L620.931 40.428L620.667 39.768L624.027 38.544L623.787 38.7C623.691 38.436 623.531 38.208 623.307 38.016C623.083 37.816 622.791 37.716 622.431 37.716C622.127 37.716 621.855 37.792 621.615 37.944C621.375 38.088 621.187 38.288 621.051 38.544C620.915 38.8 620.847 39.092 620.847 39.42C620.847 39.764 620.919 40.068 621.063 40.332C621.207 40.588 621.403 40.792 621.651 40.944C621.907 41.088 622.195 41.16 622.515 41.16C622.731 41.16 622.939 41.12 623.139 41.04C623.347 40.96 623.539 40.856 623.715 40.728L624.231 41.556C623.983 41.724 623.703 41.86 623.391 41.964C623.087 42.068 622.787 42.12 622.491 42.12ZM627.417 37.032L627.525 38.472L627.465 38.28C627.593 37.976 627.777 37.72 628.017 37.512C628.265 37.296 628.521 37.132 628.785 37.02C629.057 36.9 629.293 36.84 629.493 36.84L629.433 37.944C629.057 37.92 628.725 37.992 628.437 38.16C628.157 38.328 627.933 38.552 627.765 38.832C627.605 39.112 627.525 39.412 627.525 39.732V42H626.421V37.032H627.417ZM637.658 42.12C637.282 42.12 636.918 42.032 636.566 41.856C636.222 41.68 635.954 41.444 635.762 41.148L635.834 40.8V44.388H634.73V36.96H635.69L635.846 38.232L635.726 37.884C635.966 37.58 636.27 37.328 636.638 37.128C637.006 36.928 637.418 36.828 637.874 36.828C638.338 36.828 638.754 36.94 639.122 37.164C639.498 37.388 639.794 37.7 640.01 38.1C640.226 38.5 640.334 38.968 640.334 39.504C640.334 40.04 640.218 40.504 639.986 40.896C639.754 41.288 639.434 41.592 639.026 41.808C638.626 42.016 638.17 42.12 637.658 42.12ZM637.442 41.232C637.762 41.232 638.054 41.16 638.318 41.016C638.59 40.864 638.806 40.66 638.966 40.404C639.126 40.14 639.206 39.844 639.206 39.516C639.206 39.18 639.13 38.884 638.978 38.628C638.826 38.364 638.622 38.156 638.366 38.004C638.118 37.852 637.838 37.776 637.526 37.776C637.238 37.776 636.978 37.832 636.746 37.944C636.514 38.056 636.322 38.212 636.17 38.412C636.018 38.604 635.91 38.828 635.846 39.084V39.912C635.886 40.168 635.982 40.396 636.134 40.596C636.286 40.796 636.474 40.952 636.698 41.064C636.93 41.176 637.178 41.232 637.442 41.232ZM641.843 37.032H642.959V42H641.843V37.032ZM641.759 35.232C641.759 35.056 641.827 34.908 641.963 34.788C642.107 34.668 642.263 34.608 642.431 34.608C642.599 34.608 642.747 34.668 642.875 34.788C643.011 34.908 643.079 35.056 643.079 35.232C643.079 35.416 643.011 35.568 642.875 35.688C642.747 35.8 642.599 35.856 642.431 35.856C642.263 35.856 642.107 35.796 641.963 35.676C641.827 35.556 641.759 35.408 641.759 35.232ZM647.818 42.12C647.442 42.12 647.078 42.032 646.726 41.856C646.382 41.68 646.114 41.444 645.922 41.148L645.994 40.8V44.388H644.89V36.96H645.85L646.006 38.232L645.886 37.884C646.126 37.58 646.43 37.328 646.798 37.128C647.166 36.928 647.578 36.828 648.034 36.828C648.498 36.828 648.914 36.94 649.282 37.164C649.658 37.388 649.954 37.7 650.17 38.1C650.386 38.5 650.494 38.968 650.494 39.504C650.494 40.04 650.378 40.504 650.146 40.896C649.914 41.288 649.594 41.592 649.186 41.808C648.786 42.016 648.33 42.12 647.818 42.12ZM647.602 41.232C647.922 41.232 648.214 41.16 648.478 41.016C648.75 40.864 648.966 40.66 649.126 40.404C649.286 40.14 649.366 39.844 649.366 39.516C649.366 39.18 649.29 38.884 649.138 38.628C648.986 38.364 648.782 38.156 648.526 38.004C648.278 37.852 647.998 37.776 647.686 37.776C647.398 37.776 647.138 37.832 646.906 37.944C646.674 38.056 646.482 38.212 646.33 38.412C646.178 38.604 646.07 38.828 646.006 39.084V39.912C646.046 40.168 646.142 40.396 646.294 40.596C646.446 40.796 646.634 40.952 646.858 41.064C647.09 41.176 647.338 41.232 647.602 41.232ZM654.307 42.12C653.739 42.12 653.251 42.008 652.843 41.784C652.435 41.552 652.119 41.24 651.895 40.848C651.679 40.448 651.571 39.992 651.571 39.48C651.571 38.992 651.695 38.548 651.943 38.148C652.191 37.748 652.523 37.428 652.939 37.188C653.355 36.948 653.819 36.828 654.331 36.828C654.987 36.828 655.531 37.02 655.963 37.404C656.395 37.788 656.687 38.316 656.839 38.988L652.747 40.428L652.483 39.768L655.843 38.544L655.603 38.7C655.507 38.436 655.347 38.208 655.123 38.016C654.899 37.816 654.607 37.716 654.247 37.716C653.943 37.716 653.671 37.792 653.431 37.944C653.191 38.088 653.003 38.288 652.867 38.544C652.731 38.8 652.663 39.092 652.663 39.42C652.663 39.764 652.735 40.068 652.879 40.332C653.023 40.588 653.219 40.792 653.467 40.944C653.723 41.088 654.011 41.16 654.331 41.16C654.547 41.16 654.755 41.12 654.955 41.04C655.163 40.96 655.355 40.856 655.531 40.728L656.047 41.556C655.799 41.724 655.519 41.86 655.207 41.964C654.903 42.068 654.603 42.12 654.307 42.12ZM658.238 32.712H659.354V42H658.238V32.712ZM661.285 37.032H662.401V42H661.285V37.032ZM661.201 35.232C661.201 35.056 661.269 34.908 661.405 34.788C661.549 34.668 661.705 34.608 661.873 34.608C662.041 34.608 662.189 34.668 662.317 34.788C662.453 34.908 662.521 35.056 662.521 35.232C662.521 35.416 662.453 35.568 662.317 35.688C662.189 35.8 662.041 35.856 661.873 35.856C661.705 35.856 661.549 35.796 661.405 35.676C661.269 35.556 661.201 35.408 661.201 35.232ZM665.327 37.032L665.423 38.244L665.375 38.052C665.535 37.684 665.795 37.392 666.155 37.176C666.515 36.952 666.931 36.84 667.403 36.84C667.875 36.84 668.259 36.98 668.555 37.26C668.859 37.532 669.015 37.888 669.023 38.328V42H667.895V38.724C667.887 38.452 667.807 38.232 667.655 38.064C667.511 37.888 667.283 37.8 666.971 37.8C666.683 37.8 666.423 37.88 666.191 38.04C665.959 38.2 665.775 38.42 665.639 38.7C665.511 38.98 665.447 39.304 665.447 39.672V42H664.331V37.032H665.327ZM673.268 42.12C672.7 42.12 672.212 42.008 671.804 41.784C671.396 41.552 671.08 41.24 670.856 40.848C670.64 40.448 670.532 39.992 670.532 39.48C670.532 38.992 670.656 38.548 670.904 38.148C671.152 37.748 671.484 37.428 671.9 37.188C672.316 36.948 672.78 36.828 673.292 36.828C673.948 36.828 674.492 37.02 674.924 37.404C675.356 37.788 675.648 38.316 675.8 38.988L671.708 40.428L671.444 39.768L674.804 38.544L674.564 38.7C674.468 38.436 674.308 38.208 674.084 38.016C673.86 37.816 673.568 37.716 673.208 37.716C672.904 37.716 672.632 37.792 672.392 37.944C672.152 38.088 671.964 38.288 671.828 38.544C671.692 38.8 671.624 39.092 671.624 39.42C671.624 39.764 671.696 40.068 671.84 40.332C671.984 40.588 672.18 40.792 672.428 40.944C672.684 41.088 672.972 41.16 673.292 41.16C673.508 41.16 673.716 41.12 673.916 41.04C674.124 40.96 674.316 40.856 674.492 40.728L675.008 41.556C674.76 41.724 674.48 41.86 674.168 41.964C673.864 42.068 673.564 42.12 673.268 42.12Z" fill="black"/>
<path d="M779.646 229.354C779.842 229.549 780.158 229.549 780.354 229.354L783.536 226.172C783.731 225.976 783.731 225.66 783.536 225.464C783.34 225.269 783.024 225.269 782.828 225.464L780 228.293L777.172 225.464C776.976 225.269 776.66 225.269 776.464 225.464C776.269 225.66 776.269 225.976 776.464 226.172L779.646 229.354ZM779.5 100V229H780.5V100H779.5Z" fill="black"/>
<path d="M253.424 208.816L253.388 209.248L253.544 209.032L257.096 205.324H258.596L255.008 209.044L258.8 214H257.324L254.156 209.788L253.424 210.496V214H252.248V205.324H253.424V208.816ZM261.689 214.192C261.241 214.192 260.869 214.056 260.573 213.784C260.285 213.504 260.133 213.144 260.117 212.704V209.032H261.233V212.308C261.249 212.58 261.325 212.8 261.461 212.968C261.605 213.136 261.829 213.224 262.133 213.232C262.413 213.232 262.661 213.152 262.877 212.992C263.101 212.824 263.281 212.6 263.417 212.32C263.553 212.032 263.621 211.708 263.621 211.348V209.032H264.737V214H263.717L263.621 212.776L263.681 212.992C263.585 213.224 263.437 213.432 263.237 213.616C263.045 213.792 262.817 213.932 262.553 214.036C262.289 214.14 262.001 214.192 261.689 214.192ZM269.691 214.12C269.235 214.12 268.831 214.02 268.479 213.82C268.135 213.62 267.859 213.368 267.651 213.064L267.783 212.716V214H266.667V204.712H267.771V210.172L267.735 209.752C267.935 209.48 268.219 209.26 268.587 209.092C268.963 208.916 269.379 208.828 269.835 208.828C270.283 208.828 270.691 208.936 271.059 209.152C271.427 209.368 271.719 209.672 271.935 210.064C272.159 210.448 272.271 210.908 272.271 211.444C272.271 212.004 272.151 212.484 271.911 212.884C271.679 213.284 271.367 213.592 270.975 213.808C270.583 214.016 270.155 214.12 269.691 214.12ZM269.463 213.172C269.783 213.172 270.071 213.096 270.327 212.944C270.583 212.792 270.783 212.588 270.927 212.332C271.071 212.068 271.143 211.768 271.143 211.432C271.143 211.112 271.067 210.824 270.915 210.568C270.771 210.304 270.571 210.096 270.315 209.944C270.067 209.792 269.783 209.716 269.463 209.716C269.191 209.716 268.939 209.768 268.707 209.872C268.475 209.976 268.279 210.12 268.119 210.304C267.959 210.48 267.847 210.688 267.783 210.928V211.924C267.847 212.164 267.955 212.38 268.107 212.572C268.259 212.756 268.451 212.904 268.683 213.016C268.915 213.12 269.175 213.172 269.463 213.172ZM276.085 214.12C275.517 214.12 275.029 214.008 274.621 213.784C274.213 213.552 273.897 213.24 273.673 212.848C273.457 212.448 273.349 211.992 273.349 211.48C273.349 210.992 273.473 210.548 273.721 210.148C273.969 209.748 274.301 209.428 274.717 209.188C275.133 208.948 275.597 208.828 276.109 208.828C276.765 208.828 277.309 209.02 277.741 209.404C278.173 209.788 278.465 210.316 278.617 210.988L274.525 212.428L274.261 211.768L277.621 210.544L277.381 210.7C277.285 210.436 277.125 210.208 276.901 210.016C276.677 209.816 276.385 209.716 276.025 209.716C275.721 209.716 275.449 209.792 275.209 209.944C274.969 210.088 274.781 210.288 274.645 210.544C274.509 210.8 274.441 211.092 274.441 211.42C274.441 211.764 274.513 212.068 274.657 212.332C274.801 212.588 274.997 212.792 275.245 212.944C275.501 213.088 275.789 213.16 276.109 213.16C276.325 213.16 276.533 213.12 276.733 213.04C276.941 212.96 277.133 212.856 277.309 212.728L277.825 213.556C277.577 213.724 277.297 213.86 276.985 213.964C276.681 214.068 276.381 214.12 276.085 214.12ZM281.011 209.032L281.119 210.472L281.059 210.28C281.187 209.976 281.371 209.72 281.611 209.512C281.859 209.296 282.115 209.132 282.379 209.02C282.651 208.9 282.887 208.84 283.087 208.84L283.027 209.944C282.651 209.92 282.319 209.992 282.031 210.16C281.751 210.328 281.527 210.552 281.359 210.832C281.199 211.112 281.119 211.412 281.119 211.732V214H280.015V209.032H281.011ZM285.523 209.032L285.619 210.244L285.571 210.052C285.731 209.684 285.991 209.392 286.351 209.176C286.711 208.952 287.127 208.84 287.599 208.84C288.071 208.84 288.455 208.98 288.751 209.26C289.055 209.532 289.211 209.888 289.219 210.328V214H288.091V210.724C288.083 210.452 288.003 210.232 287.851 210.064C287.707 209.888 287.479 209.8 287.167 209.8C286.879 209.8 286.619 209.88 286.387 210.04C286.155 210.2 285.971 210.42 285.835 210.7C285.707 210.98 285.643 211.304 285.643 211.672V214H284.527V209.032H285.523ZM293.464 214.12C292.896 214.12 292.408 214.008 292 213.784C291.592 213.552 291.276 213.24 291.052 212.848C290.836 212.448 290.728 211.992 290.728 211.48C290.728 210.992 290.852 210.548 291.1 210.148C291.348 209.748 291.68 209.428 292.096 209.188C292.512 208.948 292.976 208.828 293.488 208.828C294.144 208.828 294.688 209.02 295.12 209.404C295.552 209.788 295.844 210.316 295.996 210.988L291.904 212.428L291.64 211.768L295 210.544L294.76 210.7C294.664 210.436 294.504 210.208 294.28 210.016C294.056 209.816 293.764 209.716 293.404 209.716C293.1 209.716 292.828 209.792 292.588 209.944C292.348 210.088 292.16 210.288 292.024 210.544C291.888 210.8 291.82 211.092 291.82 211.42C291.82 211.764 291.892 212.068 292.036 212.332C292.18 212.588 292.376 212.792 292.624 212.944C292.88 213.088 293.168 213.16 293.488 213.16C293.704 213.16 293.912 213.12 294.112 213.04C294.32 212.96 294.512 212.856 294.688 212.728L295.204 213.556C294.956 213.724 294.676 213.86 294.364 213.964C294.06 214.068 293.76 214.12 293.464 214.12ZM297.874 206.848H298.99V209.056H300.358V209.932H298.99V214H297.874V209.932H296.962V209.056H297.874V206.848ZM304.01 214.12C303.442 214.12 302.954 214.008 302.546 213.784C302.138 213.552 301.822 213.24 301.598 212.848C301.382 212.448 301.274 211.992 301.274 211.48C301.274 210.992 301.398 210.548 301.646 210.148C301.894 209.748 302.226 209.428 302.642 209.188C303.058 208.948 303.522 208.828 304.034 208.828C304.69 208.828 305.234 209.02 305.666 209.404C306.098 209.788 306.39 210.316 306.542 210.988L302.45 212.428L302.186 211.768L305.546 210.544L305.306 210.7C305.21 210.436 305.05 210.208 304.826 210.016C304.602 209.816 304.31 209.716 303.95 209.716C303.646 209.716 303.374 209.792 303.134 209.944C302.894 210.088 302.706 210.288 302.57 210.544C302.434 210.8 302.366 211.092 302.366 211.42C302.366 211.764 302.438 212.068 302.582 212.332C302.726 212.588 302.922 212.792 303.17 212.944C303.426 213.088 303.714 213.16 304.034 213.16C304.25 213.16 304.458 213.12 304.658 213.04C304.866 212.96 305.058 212.856 305.234 212.728L305.75 213.556C305.502 213.724 305.222 213.86 304.91 213.964C304.606 214.068 304.306 214.12 304.01 214.12ZM309.333 214.096C308.981 214.096 308.637 214.036 308.301 213.916C307.973 213.788 307.701 213.6 307.485 213.352L307.953 212.704C308.161 212.904 308.373 213.056 308.589 213.16C308.813 213.256 309.033 213.304 309.249 213.304C309.409 213.304 309.557 213.284 309.693 213.244C309.829 213.204 309.937 213.14 310.017 213.052C310.105 212.956 310.149 212.828 310.149 212.668C310.149 212.492 310.089 212.352 309.969 212.248C309.857 212.144 309.709 212.06 309.525 211.996C309.349 211.932 309.161 211.872 308.961 211.816C308.553 211.68 308.241 211.492 308.025 211.252C307.809 211.012 307.701 210.72 307.701 210.376C307.701 210.112 307.765 209.868 307.893 209.644C308.029 209.412 308.225 209.224 308.481 209.08C308.745 208.936 309.069 208.864 309.453 208.864C309.797 208.864 310.105 208.908 310.377 208.996C310.649 209.076 310.905 209.212 311.145 209.404L310.701 210.1C310.557 209.948 310.385 209.836 310.185 209.764C309.985 209.692 309.805 209.652 309.645 209.644C309.509 209.636 309.377 209.656 309.249 209.704C309.129 209.752 309.029 209.82 308.949 209.908C308.869 209.996 308.829 210.1 308.829 210.22C308.829 210.388 308.885 210.524 308.997 210.628C309.109 210.732 309.253 210.816 309.429 210.88C309.613 210.936 309.793 210.996 309.969 211.06C310.217 211.132 310.437 211.228 310.629 211.348C310.821 211.468 310.973 211.616 311.085 211.792C311.205 211.968 311.265 212.188 311.265 212.452C311.265 212.748 311.193 213.024 311.049 213.28C310.913 213.528 310.701 213.728 310.413 213.88C310.133 214.024 309.773 214.096 309.333 214.096Z" fill="white"/>
<path d="M361.354 135.354C361.549 135.158 361.549 134.842 361.354 134.646L358.172 131.464C357.976 131.269 357.66 131.269 357.464 131.464C357.269 131.66 357.269 131.976 357.464 132.172L360.293 135L357.464 137.828C357.269 138.024 357.269 138.34 357.464 138.536C357.66 138.731 357.976 138.731 358.172 138.536L361.354 135.354ZM339 135.5H361V134.5H339V135.5Z" fill="black"/>
<path d="M280.646 164.354C280.842 164.549 281.158 164.549 281.354 164.354L284.536 161.172C284.731 160.976 284.731 160.66 284.536 160.464C284.34 160.269 284.024 160.269 283.828 160.464L281 163.293L278.172 160.464C277.976 160.269 277.66 160.269 277.464 160.464C277.269 160.66 277.269 160.976 277.464 161.172L280.646 164.354ZM280.5 142V164H281.5V142H280.5Z" fill="black"/>
<path d="M717 258C717 246.954 725.954 238 737 238H835C846.046 238 855 246.954 855 258V301C855 312.046 846.046 321 835 321H737C725.954 321 717 312.046 717 301V258Z" fill="#4285F4"/>
<path d="M427 278C427 266.954 435.954 258 447 258H545C556.046 258 565 266.954 565 278V321C565 332.046 556.046 341 545 341H447C435.954 341 427 332.046 427 321V278Z" fill="#844FBA"/>
<path d="M452.612 294.324H458.372V295.44H456.044V303H454.88V295.44H452.612V294.324ZM460.96 303.12C460.392 303.12 459.904 303.008 459.496 302.784C459.088 302.552 458.772 302.24 458.548 301.848C458.332 301.448 458.224 300.992 458.224 300.48C458.224 299.992 458.348 299.548 458.596 299.148C458.844 298.748 459.176 298.428 459.592 298.188C460.008 297.948 460.472 297.828 460.984 297.828C461.64 297.828 462.184 298.02 462.616 298.404C463.048 298.788 463.34 299.316 463.492 299.988L459.4 301.428L459.136 300.768L462.496 299.544L462.256 299.7C462.16 299.436 462 299.208 461.776 299.016C461.552 298.816 461.26 298.716 460.9 298.716C460.596 298.716 460.324 298.792 460.084 298.944C459.844 299.088 459.656 299.288 459.52 299.544C459.384 299.8 459.316 300.092 459.316 300.42C459.316 300.764 459.388 301.068 459.532 301.332C459.676 301.588 459.872 301.792 460.12 301.944C460.376 302.088 460.664 302.16 460.984 302.16C461.2 302.16 461.408 302.12 461.608 302.04C461.816 301.96 462.008 301.856 462.184 301.728L462.7 302.556C462.452 302.724 462.172 302.86 461.86 302.964C461.556 303.068 461.256 303.12 460.96 303.12ZM465.886 298.032L465.994 299.472L465.934 299.28C466.062 298.976 466.246 298.72 466.486 298.512C466.734 298.296 466.99 298.132 467.254 298.02C467.526 297.9 467.762 297.84 467.962 297.84L467.902 298.944C467.526 298.92 467.194 298.992 466.906 299.16C466.626 299.328 466.402 299.552 466.234 299.832C466.074 300.112 465.994 300.412 465.994 300.732V303H464.89V298.032H465.886ZM470.398 298.032L470.506 299.472L470.446 299.28C470.574 298.976 470.758 298.72 470.998 298.512C471.246 298.296 471.502 298.132 471.766 298.02C472.038 297.9 472.274 297.84 472.474 297.84L472.414 298.944C472.038 298.92 471.706 298.992 471.418 299.16C471.138 299.328 470.914 299.552 470.746 299.832C470.586 300.112 470.506 300.412 470.506 300.732V303H469.402V298.032H470.398ZM475.86 303.12C475.396 303.12 474.972 303.02 474.588 302.82C474.212 302.62 473.912 302.328 473.688 301.944C473.472 301.552 473.364 301.076 473.364 300.516C473.364 299.964 473.48 299.488 473.712 299.088C473.944 298.68 474.252 298.368 474.636 298.152C475.028 297.936 475.456 297.828 475.92 297.828C476.384 297.828 476.776 297.936 477.096 298.152C477.416 298.36 477.66 298.608 477.828 298.896L477.756 299.088L477.864 298.032H478.896V303H477.78V301.704L477.9 301.992C477.868 302.072 477.796 302.176 477.684 302.304C477.58 302.424 477.436 302.548 477.252 302.676C477.076 302.804 476.872 302.912 476.64 303C476.408 303.08 476.148 303.12 475.86 303.12ZM476.16 302.196C476.44 302.196 476.692 302.144 476.916 302.04C477.14 301.936 477.324 301.792 477.468 301.608C477.62 301.416 477.724 301.188 477.78 300.924V299.952C477.716 299.712 477.604 299.504 477.444 299.328C477.284 299.144 477.092 299.004 476.868 298.908C476.644 298.804 476.396 298.752 476.124 298.752C475.828 298.752 475.556 298.824 475.308 298.968C475.06 299.112 474.86 299.312 474.708 299.568C474.564 299.824 474.492 300.124 474.492 300.468C474.492 300.788 474.568 301.08 474.72 301.344C474.872 301.608 475.076 301.816 475.332 301.968C475.588 302.12 475.864 302.196 476.16 302.196ZM481.235 303V299.028H480.383V298.032H481.235V295.932C481.235 295.212 481.395 294.66 481.715 294.276C482.043 293.892 482.523 293.7 483.155 293.7C483.323 293.7 483.507 293.724 483.707 293.772C483.915 293.82 484.095 293.9 484.247 294.012L483.779 294.816C483.707 294.744 483.627 294.696 483.539 294.672C483.451 294.64 483.363 294.624 483.275 294.624C482.979 294.624 482.751 294.724 482.591 294.924C482.431 295.124 482.351 295.464 482.351 295.944V298.032H483.923V299.028H482.351V303H481.235ZM484.673 300.468C484.673 299.972 484.789 299.524 485.021 299.124C485.261 298.724 485.589 298.408 486.005 298.176C486.421 297.944 486.893 297.828 487.421 297.828C487.965 297.828 488.441 297.944 488.849 298.176C489.257 298.408 489.573 298.724 489.797 299.124C490.021 299.524 490.133 299.972 490.133 300.468C490.133 300.964 490.021 301.416 489.797 301.824C489.573 302.224 489.253 302.54 488.837 302.772C488.429 303.004 487.953 303.12 487.409 303.12C486.881 303.12 486.409 303.012 485.993 302.796C485.585 302.572 485.261 302.264 485.021 301.872C484.789 301.472 484.673 301.004 484.673 300.468ZM485.789 300.48C485.789 300.8 485.861 301.092 486.005 301.356C486.149 301.612 486.341 301.816 486.581 301.968C486.829 302.12 487.101 302.196 487.397 302.196C487.709 302.196 487.985 302.12 488.225 301.968C488.473 301.816 488.665 301.612 488.801 301.356C488.937 301.092 489.005 300.8 489.005 300.48C489.005 300.16 488.937 299.872 488.801 299.616C488.665 299.352 488.473 299.144 488.225 298.992C487.985 298.832 487.709 298.752 487.397 298.752C487.093 298.752 486.817 298.832 486.569 298.992C486.329 299.152 486.137 299.364 485.993 299.628C485.857 299.884 485.789 300.168 485.789 300.48ZM492.64 298.032L492.748 299.472L492.688 299.28C492.816 298.976 493 298.72 493.24 298.512C493.488 298.296 493.744 298.132 494.008 298.02C494.28 297.9 494.516 297.84 494.716 297.84L494.656 298.944C494.28 298.92 493.948 298.992 493.66 299.16C493.38 299.328 493.156 299.552 492.988 299.832C492.828 300.112 492.748 300.412 492.748 300.732V303H491.644V298.032H492.64ZM497.152 298.032L497.248 299.148L497.2 299.052C497.384 298.676 497.644 298.38 497.98 298.164C498.324 297.948 498.716 297.84 499.156 297.84C499.436 297.84 499.684 297.884 499.9 297.972C500.116 298.06 500.292 298.188 500.428 298.356C500.572 298.516 500.664 298.716 500.704 298.956L500.644 298.992C500.836 298.632 501.1 298.352 501.436 298.152C501.78 297.944 502.14 297.84 502.516 297.84C503.004 297.84 503.388 297.98 503.668 298.26C503.956 298.532 504.104 298.888 504.112 299.328V303H502.996V299.724C502.988 299.468 502.924 299.256 502.804 299.088C502.692 298.912 502.492 298.816 502.204 298.8C501.916 298.8 501.656 298.888 501.424 299.064C501.2 299.24 501.024 299.468 500.896 299.748C500.768 300.02 500.7 300.316 500.692 300.636V303H499.576V299.724C499.568 299.468 499.5 299.256 499.372 299.088C499.252 298.912 499.048 298.816 498.76 298.8C498.464 298.8 498.204 298.888 497.98 299.064C497.756 299.24 497.58 299.468 497.452 299.748C497.332 300.028 497.272 300.328 497.272 300.648V303H496.156V298.032H497.152ZM516.503 302.352C516.359 302.448 516.163 302.556 515.915 302.676C515.667 302.796 515.375 302.896 515.039 302.976C514.711 303.056 514.351 303.096 513.959 303.096C513.287 303.088 512.679 302.968 512.135 302.736C511.599 302.504 511.143 302.188 510.767 301.788C510.391 301.388 510.099 300.928 509.891 300.408C509.691 299.88 509.591 299.32 509.591 298.728C509.591 298.08 509.695 297.484 509.903 296.94C510.119 296.388 510.419 295.912 510.803 295.512C511.187 295.104 511.639 294.788 512.159 294.564C512.687 294.34 513.263 294.228 513.887 294.228C514.407 294.228 514.879 294.3 515.303 294.444C515.727 294.58 516.091 294.744 516.395 294.936L515.927 296.016C515.687 295.856 515.395 295.704 515.051 295.56C514.715 295.416 514.339 295.344 513.923 295.344C513.499 295.344 513.099 295.428 512.723 295.596C512.347 295.764 512.015 296 511.727 296.304C511.439 296.608 511.211 296.964 511.043 297.372C510.883 297.772 510.803 298.204 510.803 298.668C510.803 299.14 510.875 299.58 511.019 299.988C511.171 300.388 511.383 300.736 511.655 301.032C511.935 301.328 512.271 301.56 512.663 301.728C513.055 301.896 513.495 301.98 513.983 301.98C514.423 301.98 514.815 301.912 515.159 301.776C515.503 301.64 515.787 301.488 516.011 301.32L516.503 302.352ZM518.187 293.712H519.303V303H518.187V293.712ZM520.802 300.468C520.802 299.972 520.918 299.524 521.15 299.124C521.39 298.724 521.718 298.408 522.134 298.176C522.55 297.944 523.022 297.828 523.55 297.828C524.094 297.828 524.57 297.944 524.978 298.176C525.386 298.408 525.702 298.724 525.926 299.124C526.15 299.524 526.262 299.972 526.262 300.468C526.262 300.964 526.15 301.416 525.926 301.824C525.702 302.224 525.382 302.54 524.966 302.772C524.558 303.004 524.082 303.12 523.538 303.12C523.01 303.12 522.538 303.012 522.122 302.796C521.714 302.572 521.39 302.264 521.15 301.872C520.918 301.472 520.802 301.004 520.802 300.468ZM521.918 300.48C521.918 300.8 521.99 301.092 522.134 301.356C522.278 301.612 522.47 301.816 522.71 301.968C522.958 302.12 523.23 302.196 523.526 302.196C523.838 302.196 524.114 302.12 524.354 301.968C524.602 301.816 524.794 301.612 524.93 301.356C525.066 301.092 525.134 300.8 525.134 300.48C525.134 300.16 525.066 299.872 524.93 299.616C524.794 299.352 524.602 299.144 524.354 298.992C524.114 298.832 523.838 298.752 523.526 298.752C523.222 298.752 522.946 298.832 522.698 298.992C522.458 299.152 522.266 299.364 522.122 299.628C521.986 299.884 521.918 300.168 521.918 300.48ZM529.345 303.192C528.897 303.192 528.525 303.056 528.229 302.784C527.941 302.504 527.789 302.144 527.773 301.704V298.032H528.889V301.308C528.905 301.58 528.981 301.8 529.117 301.968C529.261 302.136 529.485 302.224 529.789 302.232C530.069 302.232 530.317 302.152 530.533 301.992C530.757 301.824 530.937 301.6 531.073 301.32C531.209 301.032 531.277 300.708 531.277 300.348V298.032H532.393V303H531.373L531.277 301.776L531.337 301.992C531.241 302.224 531.093 302.432 530.893 302.616C530.701 302.792 530.473 302.932 530.209 303.036C529.945 303.14 529.657 303.192 529.345 303.192ZM536.34 303.12C535.884 303.12 535.468 303.012 535.092 302.796C534.724 302.572 534.432 302.26 534.216 301.86C534 301.452 533.892 300.984 533.892 300.456C533.892 299.904 534.004 299.432 534.228 299.04C534.46 298.648 534.772 298.348 535.164 298.14C535.556 297.932 535.996 297.828 536.484 297.828C536.876 297.828 537.248 297.912 537.6 298.08C537.96 298.248 538.24 298.48 538.44 298.776L538.392 299.172V293.712H539.496V303H538.38V301.764L538.5 302.076C538.268 302.38 537.968 302.632 537.6 302.832C537.232 303.024 536.812 303.12 536.34 303.12ZM536.688 302.172C536.984 302.172 537.248 302.12 537.48 302.016C537.712 301.904 537.904 301.752 538.056 301.56C538.208 301.368 538.316 301.14 538.38 300.876V299.94C538.316 299.7 538.2 299.492 538.032 299.316C537.872 299.132 537.676 298.988 537.444 298.884C537.22 298.772 536.968 298.716 536.688 298.716C536.384 298.716 536.104 298.792 535.848 298.944C535.6 299.088 535.4 299.288 535.248 299.544C535.096 299.8 535.02 300.096 535.02 300.432C535.02 300.76 535.096 301.056 535.248 301.32C535.4 301.576 535.604 301.784 535.86 301.944C536.116 302.096 536.392 302.172 536.688 302.172Z" fill="white"/>
<path d="M143 281C143 269.954 151.954 261 163 261H261C272.046 261 281 269.954 281 281V324C281 335.046 272.046 344 261 344H163C151.954 344 143 335.046 143 324V281Z" fill="#333333"/>
<path d="M199.996 306.12C199.54 306.12 199.136 306.02 198.784 305.82C198.44 305.62 198.164 305.368 197.956 305.064L198.088 304.716V306H196.972V296.712H198.076V302.172L198.04 301.752C198.24 301.48 198.524 301.26 198.892 301.092C199.268 300.916 199.684 300.828 200.14 300.828C200.588 300.828 200.996 300.936 201.364 301.152C201.732 301.368 202.024 301.672 202.24 302.064C202.464 302.448 202.576 302.908 202.576 303.444C202.576 304.004 202.456 304.484 202.216 304.884C201.984 305.284 201.672 305.592 201.28 305.808C200.888 306.016 200.46 306.12 199.996 306.12ZM199.768 305.172C200.088 305.172 200.376 305.096 200.632 304.944C200.888 304.792 201.088 304.588 201.232 304.332C201.376 304.068 201.448 303.768 201.448 303.432C201.448 303.112 201.372 302.824 201.22 302.568C201.076 302.304 200.876 302.096 200.62 301.944C200.372 301.792 200.088 301.716 199.768 301.716C199.496 301.716 199.244 301.768 199.012 301.872C198.78 301.976 198.584 302.12 198.424 302.304C198.264 302.48 198.152 302.688 198.088 302.928V303.924C198.152 304.164 198.26 304.38 198.412 304.572C198.564 304.756 198.756 304.904 198.988 305.016C199.22 305.12 199.48 305.172 199.768 305.172ZM203.653 303.468C203.653 302.972 203.769 302.524 204.001 302.124C204.241 301.724 204.569 301.408 204.985 301.176C205.401 300.944 205.873 300.828 206.401 300.828C206.945 300.828 207.421 300.944 207.829 301.176C208.237 301.408 208.553 301.724 208.777 302.124C209.001 302.524 209.113 302.972 209.113 303.468C209.113 303.964 209.001 304.416 208.777 304.824C208.553 305.224 208.233 305.54 207.817 305.772C207.409 306.004 206.933 306.12 206.389 306.12C205.861 306.12 205.389 306.012 204.973 305.796C204.565 305.572 204.241 305.264 204.001 304.872C203.769 304.472 203.653 304.004 203.653 303.468ZM204.769 303.48C204.769 303.8 204.841 304.092 204.985 304.356C205.129 304.612 205.321 304.816 205.561 304.968C205.809 305.12 206.081 305.196 206.377 305.196C206.689 305.196 206.965 305.12 207.205 304.968C207.453 304.816 207.645 304.612 207.781 304.356C207.917 304.092 207.985 303.8 207.985 303.48C207.985 303.16 207.917 302.872 207.781 302.616C207.645 302.352 207.453 302.144 207.205 301.992C206.965 301.832 206.689 301.752 206.377 301.752C206.073 301.752 205.797 301.832 205.549 301.992C205.309 302.152 205.117 302.364 204.973 302.628C204.837 302.884 204.769 303.168 204.769 303.48ZM210.192 303.468C210.192 302.972 210.308 302.524 210.54 302.124C210.78 301.724 211.108 301.408 211.524 301.176C211.94 300.944 212.412 300.828 212.94 300.828C213.484 300.828 213.96 300.944 214.368 301.176C214.776 301.408 215.092 301.724 215.316 302.124C215.54 302.524 215.652 302.972 215.652 303.468C215.652 303.964 215.54 304.416 215.316 304.824C215.092 305.224 214.772 305.54 214.356 305.772C213.948 306.004 213.472 306.12 212.928 306.12C212.4 306.12 211.928 306.012 211.512 305.796C211.104 305.572 210.78 305.264 210.54 304.872C210.308 304.472 210.192 304.004 210.192 303.468ZM211.308 303.48C211.308 303.8 211.38 304.092 211.524 304.356C211.668 304.612 211.86 304.816 212.1 304.968C212.348 305.12 212.62 305.196 212.916 305.196C213.228 305.196 213.504 305.12 213.744 304.968C213.992 304.816 214.184 304.612 214.32 304.356C214.456 304.092 214.524 303.8 214.524 303.48C214.524 303.16 214.456 302.872 214.32 302.616C214.184 302.352 213.992 302.144 213.744 301.992C213.504 301.832 213.228 301.752 212.916 301.752C212.612 301.752 212.336 301.832 212.088 301.992C211.848 302.152 211.656 302.364 211.512 302.628C211.376 302.884 211.308 303.168 211.308 303.48ZM217.163 306V296.712H218.279V306H217.163ZM219.479 302.7L221.759 306H220.451L218.735 303.324L219.479 302.7ZM217.931 304.416L217.823 303.348L220.835 300.924L221.519 301.512L217.931 304.416ZM223.14 301.032H224.256V306H223.14V301.032ZM223.056 299.232C223.056 299.056 223.124 298.908 223.26 298.788C223.404 298.668 223.56 298.608 223.728 298.608C223.896 298.608 224.044 298.668 224.172 298.788C224.308 298.908 224.376 299.056 224.376 299.232C224.376 299.416 224.308 299.568 224.172 299.688C224.044 299.8 223.896 299.856 223.728 299.856C223.56 299.856 223.404 299.796 223.26 299.676C223.124 299.556 223.056 299.408 223.056 299.232ZM228.491 306.12C227.923 306.12 227.435 306.008 227.027 305.784C226.619 305.552 226.303 305.24 226.079 304.848C225.863 304.448 225.755 303.992 225.755 303.48C225.755 302.992 225.879 302.548 226.127 302.148C226.375 301.748 226.707 301.428 227.123 301.188C227.539 300.948 228.003 300.828 228.515 300.828C229.171 300.828 229.715 301.02 230.147 301.404C230.579 301.788 230.871 302.316 231.023 302.988L226.931 304.428L226.667 303.768L230.027 302.544L229.787 302.7C229.691 302.436 229.531 302.208 229.307 302.016C229.083 301.816 228.791 301.716 228.431 301.716C228.127 301.716 227.855 301.792 227.615 301.944C227.375 302.088 227.187 302.288 227.051 302.544C226.915 302.8 226.847 303.092 226.847 303.42C226.847 303.764 226.919 304.068 227.063 304.332C227.207 304.588 227.403 304.792 227.651 304.944C227.907 305.088 228.195 305.16 228.515 305.16C228.731 305.16 228.939 305.12 229.139 305.04C229.347 304.96 229.539 304.856 229.715 304.728L230.231 305.556C229.983 305.724 229.703 305.86 229.391 305.964C229.087 306.068 228.787 306.12 228.491 306.12Z" fill="white"/>
<path d="M636.354 306.354C636.549 306.158 636.549 305.842 636.354 305.646L633.172 302.464C632.976 302.269 632.66 302.269 632.464 302.464C632.269 302.66 632.269 302.976 632.464 303.172L635.293 306L632.464 308.828C632.269 309.024 632.269 309.34 632.464 309.536C632.66 309.731 632.976 309.731 633.172 309.536L636.354 306.354ZM614 306.5H636V305.5H614V306.5Z" fill="black"/>
<path d="M418.354 303.354C418.549 303.158 418.549 302.842 418.354 302.646L415.172 299.464C414.976 299.269 414.66 299.269 414.464 299.464C414.269 299.66 414.269 299.976 414.464 300.172L417.293 303L414.464 305.828C414.269 306.024 414.269 306.34 414.464 306.536C414.66 306.731 414.976 306.731 415.172 306.536L418.354 303.354ZM289 303.5L418 303.5L418 302.5L289 302.5L289 303.5Z" fill="black"/>
<path d="M322.036 300.12C321.572 300.12 321.148 300.02 320.764 299.82C320.388 299.62 320.088 299.328 319.864 298.944C319.648 298.552 319.54 298.076 319.54 297.516C319.54 296.964 319.656 296.488 319.888 296.088C320.12 295.68 320.428 295.368 320.812 295.152C321.204 294.936 321.632 294.828 322.096 294.828C322.56 294.828 322.952 294.936 323.272 295.152C323.592 295.36 323.836 295.608 324.004 295.896L323.932 296.088L324.04 295.032H325.072V300H323.956V298.704L324.076 298.992C324.044 299.072 323.972 299.176 323.86 299.304C323.756 299.424 323.612 299.548 323.428 299.676C323.252 299.804 323.048 299.912 322.816 300C322.584 300.08 322.324 300.12 322.036 300.12ZM322.336 299.196C322.616 299.196 322.868 299.144 323.092 299.04C323.316 298.936 323.5 298.792 323.644 298.608C323.796 298.416 323.9 298.188 323.956 297.924V296.952C323.892 296.712 323.78 296.504 323.62 296.328C323.46 296.144 323.268 296.004 323.044 295.908C322.82 295.804 322.572 295.752 322.3 295.752C322.004 295.752 321.732 295.824 321.484 295.968C321.236 296.112 321.036 296.312 320.884 296.568C320.74 296.824 320.668 297.124 320.668 297.468C320.668 297.788 320.744 298.08 320.896 298.344C321.048 298.608 321.252 298.816 321.508 298.968C321.764 299.12 322.04 299.196 322.336 299.196ZM329.931 300.12C329.555 300.12 329.191 300.032 328.839 299.856C328.495 299.68 328.227 299.444 328.035 299.148L328.107 298.8V302.388H327.003V294.96H327.963L328.119 296.232L327.999 295.884C328.239 295.58 328.543 295.328 328.911 295.128C329.279 294.928 329.691 294.828 330.147 294.828C330.611 294.828 331.027 294.94 331.395 295.164C331.771 295.388 332.067 295.7 332.283 296.1C332.499 296.5 332.607 296.968 332.607 297.504C332.607 298.04 332.491 298.504 332.259 298.896C332.027 299.288 331.707 299.592 331.299 299.808C330.899 300.016 330.443 300.12 329.931 300.12ZM329.715 299.232C330.035 299.232 330.327 299.16 330.591 299.016C330.863 298.864 331.079 298.66 331.239 298.404C331.399 298.14 331.479 297.844 331.479 297.516C331.479 297.18 331.403 296.884 331.251 296.628C331.099 296.364 330.895 296.156 330.639 296.004C330.391 295.852 330.111 295.776 329.799 295.776C329.511 295.776 329.251 295.832 329.019 295.944C328.787 296.056 328.595 296.212 328.443 296.412C328.291 296.604 328.183 296.828 328.119 297.084V297.912C328.159 298.168 328.255 298.396 328.407 298.596C328.559 298.796 328.747 298.952 328.971 299.064C329.203 299.176 329.451 299.232 329.715 299.232ZM337.045 300.12C336.669 300.12 336.305 300.032 335.953 299.856C335.609 299.68 335.341 299.444 335.149 299.148L335.221 298.8V302.388H334.117V294.96H335.077L335.233 296.232L335.113 295.884C335.353 295.58 335.657 295.328 336.025 295.128C336.393 294.928 336.805 294.828 337.261 294.828C337.725 294.828 338.141 294.94 338.509 295.164C338.885 295.388 339.181 295.7 339.397 296.1C339.613 296.5 339.721 296.968 339.721 297.504C339.721 298.04 339.605 298.504 339.373 298.896C339.141 299.288 338.821 299.592 338.413 299.808C338.013 300.016 337.557 300.12 337.045 300.12ZM336.829 299.232C337.149 299.232 337.441 299.16 337.705 299.016C337.977 298.864 338.193 298.66 338.353 298.404C338.513 298.14 338.593 297.844 338.593 297.516C338.593 297.18 338.517 296.884 338.365 296.628C338.213 296.364 338.009 296.156 337.753 296.004C337.505 295.852 337.225 295.776 336.913 295.776C336.625 295.776 336.365 295.832 336.133 295.944C335.901 296.056 335.709 296.212 335.557 296.412C335.405 296.604 335.297 296.828 335.233 297.084V297.912C335.273 298.168 335.369 298.396 335.521 298.596C335.673 298.796 335.861 298.952 336.085 299.064C336.317 299.176 336.565 299.232 336.829 299.232ZM341.23 290.712H342.346V300H341.23V290.712ZM344.697 302.388L347.973 295.032H349.005L345.801 302.388H344.697ZM345.921 300.036L343.533 295.032H344.793L346.797 299.472L345.921 300.036ZM356.931 300.12C356.555 300.12 356.191 300.032 355.839 299.856C355.495 299.68 355.227 299.444 355.035 299.148L355.107 298.8V302.388H354.003V294.96H354.963L355.119 296.232L354.999 295.884C355.239 295.58 355.543 295.328 355.911 295.128C356.279 294.928 356.691 294.828 357.147 294.828C357.611 294.828 358.027 294.94 358.395 295.164C358.771 295.388 359.067 295.7 359.283 296.1C359.499 296.5 359.607 296.968 359.607 297.504C359.607 298.04 359.491 298.504 359.259 298.896C359.027 299.288 358.707 299.592 358.299 299.808C357.899 300.016 357.443 300.12 356.931 300.12ZM356.715 299.232C357.035 299.232 357.327 299.16 357.591 299.016C357.863 298.864 358.079 298.66 358.239 298.404C358.399 298.14 358.479 297.844 358.479 297.516C358.479 297.18 358.403 296.884 358.251 296.628C358.099 296.364 357.895 296.156 357.639 296.004C357.391 295.852 357.111 295.776 356.799 295.776C356.511 295.776 356.251 295.832 356.019 295.944C355.787 296.056 355.595 296.212 355.443 296.412C355.291 296.604 355.183 296.828 355.119 297.084V297.912C355.159 298.168 355.255 298.396 355.407 298.596C355.559 298.796 355.747 298.952 355.971 299.064C356.203 299.176 356.451 299.232 356.715 299.232ZM361.117 290.712H362.233V300H361.117V290.712ZM366.227 300.12C365.763 300.12 365.339 300.02 364.955 299.82C364.579 299.62 364.279 299.328 364.055 298.944C363.839 298.552 363.731 298.076 363.731 297.516C363.731 296.964 363.847 296.488 364.079 296.088C364.311 295.68 364.619 295.368 365.003 295.152C365.395 294.936 365.823 294.828 366.287 294.828C366.751 294.828 367.143 294.936 367.463 295.152C367.783 295.36 368.027 295.608 368.195 295.896L368.123 296.088L368.231 295.032H369.263V300H368.147V298.704L368.267 298.992C368.235 299.072 368.163 299.176 368.051 299.304C367.947 299.424 367.803 299.548 367.619 299.676C367.443 299.804 367.239 299.912 367.007 300C366.775 300.08 366.515 300.12 366.227 300.12ZM366.527 299.196C366.807 299.196 367.059 299.144 367.283 299.04C367.507 298.936 367.691 298.792 367.835 298.608C367.987 298.416 368.091 298.188 368.147 297.924V296.952C368.083 296.712 367.971 296.504 367.811 296.328C367.651 296.144 367.459 296.004 367.235 295.908C367.011 295.804 366.763 295.752 366.491 295.752C366.195 295.752 365.923 295.824 365.675 295.968C365.427 296.112 365.227 296.312 365.075 296.568C364.931 296.824 364.859 297.124 364.859 297.468C364.859 297.788 364.935 298.08 365.087 298.344C365.239 298.608 365.443 298.816 365.699 298.968C365.955 299.12 366.231 299.196 366.527 299.196ZM372.191 295.032L372.287 296.244L372.239 296.052C372.399 295.684 372.659 295.392 373.019 295.176C373.379 294.952 373.795 294.84 374.267 294.84C374.739 294.84 375.123 294.98 375.419 295.26C375.723 295.532 375.879 295.888 375.887 296.328V300H374.759V296.724C374.751 296.452 374.671 296.232 374.519 296.064C374.375 295.888 374.147 295.8 373.835 295.8C373.547 295.8 373.287 295.88 373.055 296.04C372.823 296.2 372.639 296.42 372.503 296.7C372.375 296.98 372.311 297.304 372.311 297.672V300H371.195V295.032H372.191Z" fill="black"/>
</svg>
