<svg width="585" height="391" viewBox="0 0 585 391" fill="none" xmlns="http://www.w3.org/2000/svg">
<path d="M129.354 79.3536C129.549 79.1583 129.549 78.8417 129.354 78.6465L126.172 75.4645C125.976 75.2692 125.66 75.2692 125.464 75.4645C125.269 75.6597 125.269 75.9763 125.464 76.1716L128.293 79L125.464 81.8284C125.269 82.0237 125.269 82.3403 125.464 82.5355C125.66 82.7308 125.976 82.7308 126.172 82.5355L129.354 79.3536ZM-4.37114e-08 79.5L129 79.5L129 78.5L4.37114e-08 78.5L-4.37114e-08 79.5Z" fill="black"/>
<path d="M49.132 74.428C49.132 75.132 48.996 75.732 48.724 76.228C48.46 76.724 48.096 77.1 47.632 77.356C47.168 77.62 46.636 77.764 46.036 77.788V76.66C46.596 76.628 47.056 76.428 47.416 76.06C47.784 75.7 47.968 75.144 47.968 74.392V67.324H49.132V74.428ZM50.9228 73.468C50.9228 72.972 51.0388 72.524 51.2708 72.124C51.5108 71.724 51.8388 71.408 52.2548 71.176C52.6708 70.944 53.1428 70.828 53.6708 70.828C54.2148 70.828 54.6908 70.944 55.0988 71.176C55.5068 71.408 55.8228 71.724 56.0468 72.124C56.2708 72.524 56.3828 72.972 56.3828 73.468C56.3828 73.964 56.2708 74.416 56.0468 74.824C55.8228 75.224 55.5028 75.54 55.0868 75.772C54.6788 76.004 54.2028 76.12 53.6588 76.12C53.1308 76.12 52.6588 76.012 52.2428 75.796C51.8348 75.572 51.5108 75.264 51.2708 74.872C51.0388 74.472 50.9228 74.004 50.9228 73.468ZM52.0388 73.48C52.0388 73.8 52.1108 74.092 52.2548 74.356C52.3988 74.612 52.5908 74.816 52.8308 74.968C53.0788 75.12 53.3508 75.196 53.6468 75.196C53.9588 75.196 54.2348 75.12 54.4748 74.968C54.7228 74.816 54.9148 74.612 55.0508 74.356C55.1868 74.092 55.2548 73.8 55.2548 73.48C55.2548 73.16 55.1868 72.872 55.0508 72.616C54.9148 72.352 54.7228 72.144 54.4748 71.992C54.2348 71.832 53.9588 71.752 53.6468 71.752C53.3428 71.752 53.0668 71.832 52.8188 71.992C52.5788 72.152 52.3868 72.364 52.2428 72.628C52.1068 72.884 52.0388 73.168 52.0388 73.48ZM60.9179 76.12C60.4619 76.12 60.0579 76.02 59.7059 75.82C59.3619 75.62 59.0859 75.368 58.8779 75.064L59.0099 74.716V76H57.8939V66.712H58.9979V72.172L58.9619 71.752C59.1619 71.48 59.4459 71.26 59.8139 71.092C60.1899 70.916 60.6059 70.828 61.0619 70.828C61.5099 70.828 61.9179 70.936 62.2859 71.152C62.6539 71.368 62.9459 71.672 63.1619 72.064C63.3859 72.448 63.4979 72.908 63.4979 73.444C63.4979 74.004 63.3779 74.484 63.1379 74.884C62.9059 75.284 62.5939 75.592 62.2019 75.808C61.8099 76.016 61.3819 76.12 60.9179 76.12ZM60.6899 75.172C61.0099 75.172 61.2979 75.096 61.5539 74.944C61.8099 74.792 62.0099 74.588 62.1539 74.332C62.2979 74.068 62.3699 73.768 62.3699 73.432C62.3699 73.112 62.2939 72.824 62.1419 72.568C61.9979 72.304 61.7979 72.096 61.5419 71.944C61.2939 71.792 61.0099 71.716 60.6899 71.716C60.4179 71.716 60.1659 71.768 59.9339 71.872C59.7019 71.976 59.5059 72.12 59.3459 72.304C59.1859 72.48 59.0739 72.688 59.0099 72.928V73.924C59.0739 74.164 59.1819 74.38 59.3339 74.572C59.4859 74.756 59.6779 74.904 59.9099 75.016C60.1419 75.12 60.4019 75.172 60.6899 75.172ZM66.3992 76.096C66.0472 76.096 65.7032 76.036 65.3672 75.916C65.0392 75.788 64.7672 75.6 64.5512 75.352L65.0192 74.704C65.2272 74.904 65.4392 75.056 65.6552 75.16C65.8792 75.256 66.0992 75.304 66.3152 75.304C66.4752 75.304 66.6232 75.284 66.7592 75.244C66.8952 75.204 67.0032 75.14 67.0832 75.052C67.1712 74.956 67.2152 74.828 67.2152 74.668C67.2152 74.492 67.1552 74.352 67.0352 74.248C66.9232 74.144 66.7752 74.06 66.5912 73.996C66.4152 73.932 66.2272 73.872 66.0272 73.816C65.6192 73.68 65.3072 73.492 65.0912 73.252C64.8752 73.012 64.7672 72.72 64.7672 72.376C64.7672 72.112 64.8312 71.868 64.9592 71.644C65.0952 71.412 65.2912 71.224 65.5472 71.08C65.8112 70.936 66.1352 70.864 66.5192 70.864C66.8632 70.864 67.1712 70.908 67.4432 70.996C67.7152 71.076 67.9712 71.212 68.2112 71.404L67.7672 72.1C67.6232 71.948 67.4512 71.836 67.2512 71.764C67.0512 71.692 66.8712 71.652 66.7112 71.644C66.5752 71.636 66.4432 71.656 66.3152 71.704C66.1952 71.752 66.0952 71.82 66.0152 71.908C65.9352 71.996 65.8952 72.1 65.8952 72.22C65.8952 72.388 65.9512 72.524 66.0632 72.628C66.1752 72.732 66.3192 72.816 66.4952 72.88C66.6792 72.936 66.8592 72.996 67.0352 73.06C67.2832 73.132 67.5032 73.228 67.6952 73.348C67.8872 73.468 68.0392 73.616 68.1512 73.792C68.2712 73.968 68.3312 74.188 68.3312 74.452C68.3312 74.748 68.2592 75.024 68.1152 75.28C67.9792 75.528 67.7672 75.728 67.4792 75.88C67.1992 76.024 66.8392 76.096 66.3992 76.096Z" fill="black"/>
<path d="M100 20C100 8.95431 108.954 0 120 0H461C472.046 0 481 8.95431 481 20V371C481 382.046 472.046 391 461 391H120C108.954 391 100 382.046 100 371V20Z" fill="#4285F4" fill-opacity="0.2"/>
<path d="M309.5 57C309.5 46.2304 318.23 37.5 329 37.5H427C437.77 37.5 446.5 46.2304 446.5 57V100C446.5 110.77 437.77 119.5 427 119.5H329C318.23 119.5 309.5 110.77 309.5 100V57Z" fill="#4285F4" stroke="#4285F4"/>
<path d="M137.5 58C137.5 47.2304 146.23 38.5 157 38.5H255C265.77 38.5 274.5 47.2304 274.5 58V101C274.5 111.77 265.77 120.5 255 120.5H157C146.23 120.5 137.5 111.77 137.5 101V58Z" fill="#E95224" stroke="#E95224"/>
<path d="M137.5 291C137.5 280.23 146.23 271.5 157 271.5H255C265.77 271.5 274.5 280.23 274.5 291V334C274.5 344.77 265.77 353.5 255 353.5H157C146.23 353.5 137.5 344.77 137.5 334V291Z" fill="#262628" stroke="#262628"/>
<path d="M309.5 291C309.5 280.23 318.23 271.5 329 271.5H427C437.77 271.5 446.5 280.23 446.5 291V334C446.5 344.77 437.77 353.5 427 353.5H329C318.23 353.5 309.5 344.77 309.5 334V291Z" fill="#E95224" stroke="#E95224"/>
<path d="M137.5 174C137.5 163.23 146.23 154.5 157 154.5H427C437.77 154.5 446.5 163.23 446.5 174V217C446.5 227.77 437.77 236.5 427 236.5H157C146.23 236.5 137.5 227.77 137.5 217V174Z" fill="#E95224" stroke="#E95224"/>
<path d="M344.384 82L348.176 72.964H348.248L352.028 82H350.696L347.864 74.788L348.692 74.248L345.524 82H344.384ZM346.604 78.712H349.832L350.216 79.72H346.268L346.604 78.712ZM356.314 82.12C355.938 82.12 355.574 82.032 355.222 81.856C354.878 81.68 354.61 81.444 354.418 81.148L354.49 80.8V84.388H353.386V76.96H354.346L354.502 78.232L354.382 77.884C354.622 77.58 354.926 77.328 355.294 77.128C355.662 76.928 356.074 76.828 356.53 76.828C356.994 76.828 357.41 76.94 357.778 77.164C358.154 77.388 358.45 77.7 358.666 78.1C358.882 78.5 358.99 78.968 358.99 79.504C358.99 80.04 358.874 80.504 358.642 80.896C358.41 81.288 358.09 81.592 357.682 81.808C357.282 82.016 356.826 82.12 356.314 82.12ZM356.098 81.232C356.418 81.232 356.71 81.16 356.974 81.016C357.246 80.864 357.462 80.66 357.622 80.404C357.782 80.14 357.862 79.844 357.862 79.516C357.862 79.18 357.786 78.884 357.634 78.628C357.482 78.364 357.278 78.156 357.022 78.004C356.774 77.852 356.494 77.776 356.182 77.776C355.894 77.776 355.634 77.832 355.402 77.944C355.17 78.056 354.978 78.212 354.826 78.412C354.674 78.604 354.566 78.828 354.502 79.084V79.912C354.542 80.168 354.638 80.396 354.79 80.596C354.942 80.796 355.13 80.952 355.354 81.064C355.586 81.176 355.834 81.232 356.098 81.232ZM363.427 82.12C363.051 82.12 362.687 82.032 362.335 81.856C361.991 81.68 361.723 81.444 361.531 81.148L361.603 80.8V84.388H360.499V76.96H361.459L361.615 78.232L361.495 77.884C361.735 77.58 362.039 77.328 362.407 77.128C362.775 76.928 363.187 76.828 363.643 76.828C364.107 76.828 364.523 76.94 364.891 77.164C365.267 77.388 365.563 77.7 365.779 78.1C365.995 78.5 366.103 78.968 366.103 79.504C366.103 80.04 365.987 80.504 365.755 80.896C365.523 81.288 365.203 81.592 364.795 81.808C364.395 82.016 363.939 82.12 363.427 82.12ZM363.211 81.232C363.531 81.232 363.823 81.16 364.087 81.016C364.359 80.864 364.575 80.66 364.735 80.404C364.895 80.14 364.975 79.844 364.975 79.516C364.975 79.18 364.899 78.884 364.747 78.628C364.595 78.364 364.391 78.156 364.135 78.004C363.887 77.852 363.607 77.776 363.295 77.776C363.007 77.776 362.747 77.832 362.515 77.944C362.283 78.056 362.091 78.212 361.939 78.412C361.787 78.604 361.679 78.828 361.615 79.084V79.912C361.655 80.168 361.751 80.396 361.903 80.596C362.055 80.796 362.243 80.952 362.467 81.064C362.699 81.176 362.947 81.232 363.211 81.232ZM367.613 72.712H368.729V82H367.613V72.712ZM370.66 77.032H371.776V82H370.66V77.032ZM370.576 75.232C370.576 75.056 370.644 74.908 370.78 74.788C370.924 74.668 371.08 74.608 371.248 74.608C371.416 74.608 371.564 74.668 371.692 74.788C371.828 74.908 371.896 75.056 371.896 75.232C371.896 75.416 371.828 75.568 371.692 75.688C371.564 75.8 371.416 75.856 371.248 75.856C371.08 75.856 370.924 75.796 370.78 75.676C370.644 75.556 370.576 75.408 370.576 75.232ZM377.738 81.544C377.514 81.72 377.246 81.86 376.934 81.964C376.622 82.068 376.31 82.12 375.998 82.12C375.454 82.12 374.978 82.012 374.57 81.796C374.162 81.58 373.842 81.28 373.61 80.896C373.386 80.504 373.274 80.044 373.274 79.516C373.274 78.988 373.394 78.528 373.634 78.136C373.882 77.744 374.202 77.444 374.594 77.236C374.994 77.02 375.422 76.912 375.878 76.912C376.278 76.912 376.634 76.968 376.946 77.08C377.266 77.192 377.538 77.344 377.762 77.536L377.21 78.256C377.066 78.144 376.89 78.044 376.682 77.956C376.474 77.868 376.238 77.824 375.974 77.824C375.686 77.824 375.418 77.9 375.17 78.052C374.93 78.196 374.738 78.396 374.594 78.652C374.458 78.908 374.39 79.196 374.39 79.516C374.39 79.82 374.462 80.104 374.606 80.368C374.75 80.624 374.95 80.828 375.206 80.98C375.462 81.124 375.754 81.196 376.082 81.196C376.298 81.196 376.494 81.164 376.67 81.1C376.854 81.036 377.018 80.948 377.162 80.836L377.738 81.544ZM381.243 82.12C380.779 82.12 380.355 82.02 379.971 81.82C379.595 81.62 379.295 81.328 379.071 80.944C378.855 80.552 378.747 80.076 378.747 79.516C378.747 78.964 378.863 78.488 379.095 78.088C379.327 77.68 379.635 77.368 380.019 77.152C380.411 76.936 380.839 76.828 381.303 76.828C381.767 76.828 382.159 76.936 382.479 77.152C382.799 77.36 383.043 77.608 383.211 77.896L383.139 78.088L383.247 77.032H384.279V82H383.163V80.704L383.283 80.992C383.251 81.072 383.179 81.176 383.067 81.304C382.963 81.424 382.819 81.548 382.635 81.676C382.459 81.804 382.255 81.912 382.023 82C381.791 82.08 381.531 82.12 381.243 82.12ZM381.543 81.196C381.823 81.196 382.075 81.144 382.299 81.04C382.523 80.936 382.707 80.792 382.851 80.608C383.003 80.416 383.107 80.188 383.163 79.924V78.952C383.099 78.712 382.987 78.504 382.827 78.328C382.667 78.144 382.475 78.004 382.251 77.908C382.027 77.804 381.779 77.752 381.507 77.752C381.211 77.752 380.939 77.824 380.691 77.968C380.443 78.112 380.243 78.312 380.091 78.568C379.947 78.824 379.875 79.124 379.875 79.468C379.875 79.788 379.951 80.08 380.103 80.344C380.255 80.608 380.459 80.816 380.715 80.968C380.971 81.12 381.247 81.196 381.543 81.196ZM386.69 74.848H387.806V77.056H389.174V77.932H387.806V82H386.69V77.932H385.778V77.056H386.69V74.848ZM390.523 77.032H391.639V82H390.523V77.032ZM390.439 75.232C390.439 75.056 390.507 74.908 390.643 74.788C390.787 74.668 390.943 74.608 391.111 74.608C391.279 74.608 391.427 74.668 391.555 74.788C391.691 74.908 391.759 75.056 391.759 75.232C391.759 75.416 391.691 75.568 391.555 75.688C391.427 75.8 391.279 75.856 391.111 75.856C390.943 75.856 390.787 75.796 390.643 75.676C390.507 75.556 390.439 75.408 390.439 75.232ZM393.138 79.468C393.138 78.972 393.254 78.524 393.486 78.124C393.726 77.724 394.054 77.408 394.47 77.176C394.886 76.944 395.358 76.828 395.886 76.828C396.43 76.828 396.906 76.944 397.314 77.176C397.722 77.408 398.038 77.724 398.262 78.124C398.486 78.524 398.598 78.972 398.598 79.468C398.598 79.964 398.486 80.416 398.262 80.824C398.038 81.224 397.718 81.54 397.302 81.772C396.894 82.004 396.418 82.12 395.874 82.12C395.346 82.12 394.874 82.012 394.458 81.796C394.05 81.572 393.726 81.264 393.486 80.872C393.254 80.472 393.138 80.004 393.138 79.468ZM394.254 79.48C394.254 79.8 394.326 80.092 394.47 80.356C394.614 80.612 394.806 80.816 395.046 80.968C395.294 81.12 395.566 81.196 395.862 81.196C396.174 81.196 396.45 81.12 396.69 80.968C396.938 80.816 397.13 80.612 397.266 80.356C397.402 80.092 397.47 79.8 397.47 79.48C397.47 79.16 397.402 78.872 397.266 78.616C397.13 78.352 396.938 78.144 396.69 77.992C396.45 77.832 396.174 77.752 395.862 77.752C395.558 77.752 395.282 77.832 395.034 77.992C394.794 78.152 394.602 78.364 394.458 78.628C394.322 78.884 394.254 79.168 394.254 79.48ZM401.105 77.032L401.201 78.244L401.153 78.052C401.313 77.684 401.573 77.392 401.933 77.176C402.293 76.952 402.709 76.84 403.181 76.84C403.653 76.84 404.037 76.98 404.333 77.26C404.637 77.532 404.793 77.888 404.801 78.328V82H403.673V78.724C403.665 78.452 403.585 78.232 403.433 78.064C403.289 77.888 403.061 77.8 402.749 77.8C402.461 77.8 402.201 77.88 401.969 78.04C401.737 78.2 401.553 78.42 401.417 78.7C401.289 78.98 401.225 79.304 401.225 79.672V82H400.109V77.032H401.105ZM408.134 82.096C407.782 82.096 407.438 82.036 407.102 81.916C406.774 81.788 406.502 81.6 406.286 81.352L406.754 80.704C406.962 80.904 407.174 81.056 407.39 81.16C407.614 81.256 407.834 81.304 408.05 81.304C408.21 81.304 408.358 81.284 408.494 81.244C408.63 81.204 408.738 81.14 408.818 81.052C408.906 80.956 408.95 80.828 408.95 80.668C408.95 80.492 408.89 80.352 408.77 80.248C408.658 80.144 408.51 80.06 408.326 79.996C408.15 79.932 407.962 79.872 407.762 79.816C407.354 79.68 407.042 79.492 406.826 79.252C406.61 79.012 406.502 78.72 406.502 78.376C406.502 78.112 406.566 77.868 406.694 77.644C406.83 77.412 407.026 77.224 407.282 77.08C407.546 76.936 407.87 76.864 408.254 76.864C408.598 76.864 408.906 76.908 409.178 76.996C409.45 77.076 409.706 77.212 409.946 77.404L409.502 78.1C409.358 77.948 409.186 77.836 408.986 77.764C408.786 77.692 408.606 77.652 408.446 77.644C408.31 77.636 408.178 77.656 408.05 77.704C407.93 77.752 407.83 77.82 407.75 77.908C407.67 77.996 407.63 78.1 407.63 78.22C407.63 78.388 407.686 78.524 407.798 78.628C407.91 78.732 408.054 78.816 408.23 78.88C408.414 78.936 408.594 78.996 408.77 79.06C409.018 79.132 409.238 79.228 409.43 79.348C409.622 79.468 409.774 79.616 409.886 79.792C410.006 79.968 410.066 80.188 410.066 80.452C410.066 80.748 409.994 81.024 409.85 81.28C409.714 81.528 409.502 81.728 409.214 81.88C408.934 82.024 408.574 82.096 408.134 82.096Z" fill="white"/>
<path d="M174.564 73.324C175.196 73.324 175.736 73.432 176.184 73.648C176.632 73.856 176.976 74.16 177.216 74.56C177.464 74.96 177.588 75.444 177.588 76.012C177.588 76.356 177.536 76.696 177.432 77.032C177.328 77.36 177.16 77.66 176.928 77.932C176.704 78.196 176.408 78.408 176.04 78.568C175.672 78.728 175.224 78.808 174.696 78.808H173.412V82H172.248V73.324H174.564ZM174.684 77.692C175.028 77.692 175.312 77.636 175.536 77.524C175.76 77.412 175.936 77.272 176.064 77.104C176.192 76.928 176.284 76.744 176.34 76.552C176.396 76.36 176.424 76.188 176.424 76.036C176.424 75.86 176.396 75.68 176.34 75.496C176.284 75.304 176.188 75.132 176.052 74.98C175.924 74.82 175.752 74.692 175.536 74.596C175.328 74.492 175.068 74.44 174.756 74.44H173.412V77.692H174.684ZM180.681 82.192C180.233 82.192 179.861 82.056 179.565 81.784C179.277 81.504 179.125 81.144 179.109 80.704V77.032H180.225V80.308C180.241 80.58 180.317 80.8 180.453 80.968C180.597 81.136 180.821 81.224 181.125 81.232C181.405 81.232 181.653 81.152 181.869 80.992C182.093 80.824 182.273 80.6 182.409 80.32C182.545 80.032 182.613 79.708 182.613 79.348V77.032H183.729V82H182.709L182.613 80.776L182.673 80.992C182.577 81.224 182.429 81.432 182.229 81.616C182.037 81.792 181.809 81.932 181.545 82.036C181.281 82.14 180.993 82.192 180.681 82.192ZM187.052 82.096C186.7 82.096 186.356 82.036 186.02 81.916C185.692 81.788 185.42 81.6 185.204 81.352L185.672 80.704C185.88 80.904 186.092 81.056 186.308 81.16C186.532 81.256 186.752 81.304 186.968 81.304C187.128 81.304 187.276 81.284 187.412 81.244C187.548 81.204 187.656 81.14 187.736 81.052C187.824 80.956 187.868 80.828 187.868 80.668C187.868 80.492 187.808 80.352 187.688 80.248C187.576 80.144 187.428 80.06 187.244 79.996C187.068 79.932 186.88 79.872 186.68 79.816C186.272 79.68 185.96 79.492 185.744 79.252C185.528 79.012 185.42 78.72 185.42 78.376C185.42 78.112 185.484 77.868 185.612 77.644C185.748 77.412 185.944 77.224 186.2 77.08C186.464 76.936 186.788 76.864 187.172 76.864C187.516 76.864 187.824 76.908 188.096 76.996C188.368 77.076 188.624 77.212 188.864 77.404L188.42 78.1C188.276 77.948 188.104 77.836 187.904 77.764C187.704 77.692 187.524 77.652 187.364 77.644C187.228 77.636 187.096 77.656 186.968 77.704C186.848 77.752 186.748 77.82 186.668 77.908C186.588 77.996 186.548 78.1 186.548 78.22C186.548 78.388 186.604 78.524 186.716 78.628C186.828 78.732 186.972 78.816 187.148 78.88C187.332 78.936 187.512 78.996 187.688 79.06C187.936 79.132 188.156 79.228 188.348 79.348C188.54 79.468 188.692 79.616 188.804 79.792C188.924 79.968 188.984 80.188 188.984 80.452C188.984 80.748 188.912 81.024 188.768 81.28C188.632 81.528 188.42 81.728 188.132 81.88C187.852 82.024 187.492 82.096 187.052 82.096ZM190.546 82V72.712H191.638V78.184L191.614 77.98C191.782 77.652 192.038 77.38 192.382 77.164C192.734 76.948 193.146 76.84 193.618 76.84C194.09 76.84 194.474 76.98 194.77 77.26C195.074 77.532 195.23 77.888 195.238 78.328V82H194.11V78.724C194.102 78.452 194.022 78.232 193.87 78.064C193.726 77.888 193.498 77.8 193.186 77.8C192.898 77.8 192.638 77.884 192.406 78.052C192.174 78.212 191.99 78.432 191.854 78.712C191.726 78.992 191.662 79.312 191.662 79.672V82H190.546ZM199.567 84.46C199.199 84.46 198.875 84.416 198.595 84.328C198.315 84.248 198.059 84.132 197.827 83.98C197.603 83.828 197.387 83.656 197.179 83.464L197.827 82.708C198.091 82.956 198.359 83.148 198.631 83.284C198.903 83.42 199.207 83.488 199.543 83.488C199.919 83.488 200.235 83.424 200.491 83.296C200.755 83.176 200.955 83.004 201.091 82.78C201.227 82.564 201.295 82.312 201.295 82.024L201.307 80.68L201.403 80.896C201.259 81.24 200.999 81.532 200.623 81.772C200.247 82.004 199.791 82.12 199.255 82.12C198.799 82.12 198.379 82.004 197.995 81.772C197.619 81.54 197.315 81.228 197.083 80.836C196.859 80.436 196.747 79.988 196.747 79.492C196.747 78.972 196.867 78.516 197.107 78.124C197.347 77.724 197.663 77.408 198.055 77.176C198.447 76.944 198.875 76.828 199.339 76.828C199.779 76.828 200.179 76.92 200.539 77.104C200.907 77.28 201.175 77.508 201.343 77.788L201.283 77.992L201.403 77.032H202.423V82.036C202.423 82.484 202.307 82.892 202.075 83.26C201.843 83.628 201.515 83.92 201.091 84.136C200.667 84.352 200.159 84.46 199.567 84.46ZM197.863 79.468C197.863 79.788 197.939 80.08 198.091 80.344C198.243 80.608 198.447 80.816 198.703 80.968C198.967 81.12 199.259 81.196 199.579 81.196C199.875 81.196 200.139 81.144 200.371 81.04C200.611 80.928 200.811 80.78 200.971 80.596C201.131 80.404 201.243 80.184 201.307 79.936V78.952C201.235 78.712 201.115 78.504 200.947 78.328C200.779 78.144 200.579 78.004 200.347 77.908C200.115 77.804 199.859 77.752 199.579 77.752C199.259 77.752 198.967 77.824 198.703 77.968C198.447 78.112 198.243 78.316 198.091 78.58C197.939 78.836 197.863 79.132 197.863 79.468ZM206.415 82.12C205.951 82.12 205.527 82.02 205.143 81.82C204.767 81.62 204.467 81.328 204.243 80.944C204.027 80.552 203.919 80.076 203.919 79.516C203.919 78.964 204.035 78.488 204.267 78.088C204.499 77.68 204.807 77.368 205.191 77.152C205.583 76.936 206.011 76.828 206.475 76.828C206.939 76.828 207.331 76.936 207.651 77.152C207.971 77.36 208.215 77.608 208.383 77.896L208.311 78.088L208.419 77.032H209.451V82H208.335V80.704L208.455 80.992C208.423 81.072 208.351 81.176 208.239 81.304C208.135 81.424 207.991 81.548 207.807 81.676C207.631 81.804 207.427 81.912 207.195 82C206.963 82.08 206.703 82.12 206.415 82.12ZM206.715 81.196C206.995 81.196 207.247 81.144 207.471 81.04C207.695 80.936 207.879 80.792 208.023 80.608C208.175 80.416 208.279 80.188 208.335 79.924V78.952C208.271 78.712 208.159 78.504 207.999 78.328C207.839 78.144 207.647 78.004 207.423 77.908C207.199 77.804 206.951 77.752 206.679 77.752C206.383 77.752 206.111 77.824 205.863 77.968C205.615 78.112 205.415 78.312 205.263 78.568C205.119 78.824 205.047 79.124 205.047 79.468C205.047 79.788 205.123 80.08 205.275 80.344C205.427 80.608 205.631 80.816 205.887 80.968C206.143 81.12 206.419 81.196 206.715 81.196ZM211.862 74.848H212.978V77.056H214.346V77.932H212.978V82H211.862V77.932H210.95V77.056H211.862V74.848ZM217.999 82.12C217.431 82.12 216.943 82.008 216.535 81.784C216.127 81.552 215.811 81.24 215.587 80.848C215.371 80.448 215.263 79.992 215.263 79.48C215.263 78.992 215.387 78.548 215.635 78.148C215.883 77.748 216.215 77.428 216.631 77.188C217.047 76.948 217.511 76.828 218.023 76.828C218.679 76.828 219.223 77.02 219.655 77.404C220.087 77.788 220.379 78.316 220.531 78.988L216.439 80.428L216.175 79.768L219.535 78.544L219.295 78.7C219.199 78.436 219.039 78.208 218.815 78.016C218.591 77.816 218.299 77.716 217.939 77.716C217.635 77.716 217.363 77.792 217.123 77.944C216.883 78.088 216.695 78.288 216.559 78.544C216.423 78.8 216.355 79.092 216.355 79.42C216.355 79.764 216.427 80.068 216.571 80.332C216.715 80.588 216.911 80.792 217.159 80.944C217.415 81.088 217.703 81.16 218.023 81.16C218.239 81.16 218.447 81.12 218.647 81.04C218.855 80.96 219.047 80.856 219.223 80.728L219.739 81.556C219.491 81.724 219.211 81.86 218.899 81.964C218.595 82.068 218.295 82.12 217.999 82.12ZM224.968 77.032L226.432 80.38L226.216 80.404L227.584 77.032H228.676L226.396 82.3L224.8 78.892L223.348 82.3L221.044 77.032H222.136L223.684 80.536L223.3 80.464L224.404 77.896L224.008 77.032H224.968ZM231.774 82.12C231.31 82.12 230.886 82.02 230.502 81.82C230.126 81.62 229.826 81.328 229.602 80.944C229.386 80.552 229.278 80.076 229.278 79.516C229.278 78.964 229.394 78.488 229.626 78.088C229.858 77.68 230.166 77.368 230.55 77.152C230.942 76.936 231.37 76.828 231.834 76.828C232.298 76.828 232.69 76.936 233.01 77.152C233.33 77.36 233.574 77.608 233.742 77.896L233.67 78.088L233.778 77.032H234.81V82H233.694V80.704L233.814 80.992C233.782 81.072 233.71 81.176 233.598 81.304C233.494 81.424 233.35 81.548 233.166 81.676C232.99 81.804 232.786 81.912 232.554 82C232.322 82.08 232.062 82.12 231.774 82.12ZM232.074 81.196C232.354 81.196 232.606 81.144 232.83 81.04C233.054 80.936 233.238 80.792 233.382 80.608C233.534 80.416 233.638 80.188 233.694 79.924V78.952C233.63 78.712 233.518 78.504 233.358 78.328C233.198 78.144 233.006 78.004 232.782 77.908C232.558 77.804 232.31 77.752 232.038 77.752C231.742 77.752 231.47 77.824 231.222 77.968C230.974 78.112 230.774 78.312 230.622 78.568C230.478 78.824 230.406 79.124 230.406 79.468C230.406 79.788 230.482 80.08 230.634 80.344C230.786 80.608 230.99 80.816 231.246 80.968C231.502 81.12 231.778 81.196 232.074 81.196ZM237.162 84.388L240.438 77.032H241.47L238.266 84.388H237.162ZM238.386 82.036L235.998 77.032H237.258L239.262 81.472L238.386 82.036Z" fill="white"/>
<path d="M344.384 316L348.176 306.964H348.248L352.028 316H350.696L347.864 308.788L348.692 308.248L345.524 316H344.384ZM346.604 312.712H349.832L350.216 313.72H346.268L346.604 312.712ZM353.386 306.712H354.502V316H353.386V306.712ZM358.737 316.12C358.169 316.12 357.681 316.008 357.273 315.784C356.865 315.552 356.549 315.24 356.325 314.848C356.109 314.448 356.001 313.992 356.001 313.48C356.001 312.992 356.125 312.548 356.373 312.148C356.621 311.748 356.953 311.428 357.369 311.188C357.785 310.948 358.249 310.828 358.761 310.828C359.417 310.828 359.961 311.02 360.393 311.404C360.825 311.788 361.117 312.316 361.269 312.988L357.177 314.428L356.913 313.768L360.273 312.544L360.033 312.7C359.937 312.436 359.777 312.208 359.553 312.016C359.329 311.816 359.037 311.716 358.677 311.716C358.373 311.716 358.101 311.792 357.861 311.944C357.621 312.088 357.433 312.288 357.297 312.544C357.161 312.8 357.093 313.092 357.093 313.42C357.093 313.764 357.165 314.068 357.309 314.332C357.453 314.588 357.649 314.792 357.897 314.944C358.153 315.088 358.441 315.16 358.761 315.16C358.977 315.16 359.185 315.12 359.385 315.04C359.593 314.96 359.785 314.856 359.961 314.728L360.477 315.556C360.229 315.724 359.949 315.86 359.637 315.964C359.333 316.068 359.033 316.12 358.737 316.12ZM363.663 311.032L363.771 312.472L363.711 312.28C363.839 311.976 364.023 311.72 364.263 311.512C364.511 311.296 364.767 311.132 365.031 311.02C365.303 310.9 365.539 310.84 365.739 310.84L365.679 311.944C365.303 311.92 364.971 311.992 364.683 312.16C364.403 312.328 364.179 312.552 364.011 312.832C363.851 313.112 363.771 313.412 363.771 313.732V316H362.667V311.032H363.663ZM367.659 308.848H368.775V311.056H370.143V311.932H368.775V316H367.659V311.932H366.747V311.056H367.659V308.848ZM372.488 311.032L372.584 312.148L372.536 312.052C372.72 311.676 372.98 311.38 373.316 311.164C373.66 310.948 374.052 310.84 374.492 310.84C374.772 310.84 375.02 310.884 375.236 310.972C375.452 311.06 375.628 311.188 375.764 311.356C375.908 311.516 376 311.716 376.04 311.956L375.98 311.992C376.172 311.632 376.436 311.352 376.772 311.152C377.116 310.944 377.476 310.84 377.852 310.84C378.34 310.84 378.724 310.98 379.004 311.26C379.292 311.532 379.44 311.888 379.448 312.328V316H378.332V312.724C378.324 312.468 378.26 312.256 378.14 312.088C378.028 311.912 377.828 311.816 377.54 311.8C377.252 311.8 376.992 311.888 376.76 312.064C376.536 312.24 376.36 312.468 376.232 312.748C376.104 313.02 376.036 313.316 376.028 313.636V316H374.912V312.724C374.904 312.468 374.836 312.256 374.708 312.088C374.588 311.912 374.384 311.816 374.096 311.8C373.8 311.8 373.54 311.888 373.316 312.064C373.092 312.24 372.916 312.468 372.788 312.748C372.668 313.028 372.608 313.328 372.608 313.648V316H371.492V311.032H372.488ZM383.458 316.12C382.994 316.12 382.57 316.02 382.186 315.82C381.81 315.62 381.51 315.328 381.286 314.944C381.07 314.552 380.962 314.076 380.962 313.516C380.962 312.964 381.078 312.488 381.31 312.088C381.542 311.68 381.85 311.368 382.234 311.152C382.626 310.936 383.054 310.828 383.518 310.828C383.982 310.828 384.374 310.936 384.694 311.152C385.014 311.36 385.258 311.608 385.426 311.896L385.354 312.088L385.462 311.032H386.494V316H385.378V314.704L385.498 314.992C385.466 315.072 385.394 315.176 385.282 315.304C385.178 315.424 385.034 315.548 384.85 315.676C384.674 315.804 384.47 315.912 384.238 316C384.006 316.08 383.746 316.12 383.458 316.12ZM383.758 315.196C384.038 315.196 384.29 315.144 384.514 315.04C384.738 314.936 384.922 314.792 385.066 314.608C385.218 314.416 385.322 314.188 385.378 313.924V312.952C385.314 312.712 385.202 312.504 385.042 312.328C384.882 312.144 384.69 312.004 384.466 311.908C384.242 311.804 383.994 311.752 383.722 311.752C383.426 311.752 383.154 311.824 382.906 311.968C382.658 312.112 382.458 312.312 382.306 312.568C382.162 312.824 382.09 313.124 382.09 313.468C382.09 313.788 382.166 314.08 382.318 314.344C382.47 314.608 382.674 314.816 382.93 314.968C383.186 315.12 383.462 315.196 383.758 315.196ZM389.421 311.032L389.517 312.244L389.469 312.052C389.629 311.684 389.889 311.392 390.249 311.176C390.609 310.952 391.025 310.84 391.497 310.84C391.969 310.84 392.353 310.98 392.649 311.26C392.953 311.532 393.109 311.888 393.117 312.328V316H391.989V312.724C391.981 312.452 391.901 312.232 391.749 312.064C391.605 311.888 391.377 311.8 391.065 311.8C390.777 311.8 390.517 311.88 390.285 312.04C390.053 312.2 389.869 312.42 389.733 312.7C389.605 312.98 389.541 313.304 389.541 313.672V316H388.425V311.032H389.421ZM397.122 316.12C396.658 316.12 396.234 316.02 395.85 315.82C395.474 315.62 395.174 315.328 394.95 314.944C394.734 314.552 394.626 314.076 394.626 313.516C394.626 312.964 394.742 312.488 394.974 312.088C395.206 311.68 395.514 311.368 395.898 311.152C396.29 310.936 396.718 310.828 397.182 310.828C397.646 310.828 398.038 310.936 398.358 311.152C398.678 311.36 398.922 311.608 399.09 311.896L399.018 312.088L399.126 311.032H400.158V316H399.042V314.704L399.162 314.992C399.13 315.072 399.058 315.176 398.946 315.304C398.842 315.424 398.698 315.548 398.514 315.676C398.338 315.804 398.134 315.912 397.902 316C397.67 316.08 397.41 316.12 397.122 316.12ZM397.422 315.196C397.702 315.196 397.954 315.144 398.178 315.04C398.402 314.936 398.586 314.792 398.73 314.608C398.882 314.416 398.986 314.188 399.042 313.924V312.952C398.978 312.712 398.866 312.504 398.706 312.328C398.546 312.144 398.354 312.004 398.13 311.908C397.906 311.804 397.658 311.752 397.386 311.752C397.09 311.752 396.818 311.824 396.57 311.968C396.322 312.112 396.122 312.312 395.97 312.568C395.826 312.824 395.754 313.124 395.754 313.468C395.754 313.788 395.83 314.08 395.982 314.344C396.134 314.608 396.338 314.816 396.594 314.968C396.85 315.12 397.126 315.196 397.422 315.196ZM404.477 318.46C404.109 318.46 403.785 318.416 403.505 318.328C403.225 318.248 402.969 318.132 402.737 317.98C402.513 317.828 402.297 317.656 402.089 317.464L402.737 316.708C403.001 316.956 403.269 317.148 403.541 317.284C403.813 317.42 404.117 317.488 404.453 317.488C404.829 317.488 405.145 317.424 405.401 317.296C405.665 317.176 405.865 317.004 406.001 316.78C406.137 316.564 406.205 316.312 406.205 316.024L406.217 314.68L406.313 314.896C406.169 315.24 405.909 315.532 405.533 315.772C405.157 316.004 404.701 316.12 404.165 316.12C403.709 316.12 403.289 316.004 402.905 315.772C402.529 315.54 402.225 315.228 401.993 314.836C401.769 314.436 401.657 313.988 401.657 313.492C401.657 312.972 401.777 312.516 402.017 312.124C402.257 311.724 402.573 311.408 402.965 311.176C403.357 310.944 403.785 310.828 404.249 310.828C404.689 310.828 405.089 310.92 405.449 311.104C405.817 311.28 406.085 311.508 406.253 311.788L406.193 311.992L406.313 311.032H407.333V316.036C407.333 316.484 407.217 316.892 406.985 317.26C406.753 317.628 406.425 317.92 406.001 318.136C405.577 318.352 405.069 318.46 404.477 318.46ZM402.773 313.468C402.773 313.788 402.849 314.08 403.001 314.344C403.153 314.608 403.357 314.816 403.613 314.968C403.877 315.12 404.169 315.196 404.489 315.196C404.785 315.196 405.049 315.144 405.281 315.04C405.521 314.928 405.721 314.78 405.881 314.596C406.041 314.404 406.153 314.184 406.217 313.936V312.952C406.145 312.712 406.025 312.504 405.857 312.328C405.689 312.144 405.489 312.004 405.257 311.908C405.025 311.804 404.769 311.752 404.489 311.752C404.169 311.752 403.877 311.824 403.613 311.968C403.357 312.112 403.153 312.316 403.001 312.58C402.849 312.836 402.773 313.132 402.773 313.468ZM411.565 316.12C410.997 316.12 410.509 316.008 410.101 315.784C409.693 315.552 409.377 315.24 409.153 314.848C408.937 314.448 408.829 313.992 408.829 313.48C408.829 312.992 408.953 312.548 409.201 312.148C409.449 311.748 409.781 311.428 410.197 311.188C410.613 310.948 411.077 310.828 411.589 310.828C412.245 310.828 412.789 311.02 413.221 311.404C413.653 311.788 413.945 312.316 414.097 312.988L410.005 314.428L409.741 313.768L413.101 312.544L412.861 312.7C412.765 312.436 412.605 312.208 412.381 312.016C412.157 311.816 411.865 311.716 411.505 311.716C411.201 311.716 410.929 311.792 410.689 311.944C410.449 312.088 410.261 312.288 410.125 312.544C409.989 312.8 409.921 313.092 409.921 313.42C409.921 313.764 409.993 314.068 410.137 314.332C410.281 314.588 410.477 314.792 410.725 314.944C410.981 315.088 411.269 315.16 411.589 315.16C411.805 315.16 412.013 315.12 412.213 315.04C412.421 314.96 412.613 314.856 412.789 314.728L413.305 315.556C413.057 315.724 412.777 315.86 412.465 315.964C412.161 316.068 411.861 316.12 411.565 316.12ZM416.491 311.032L416.599 312.472L416.539 312.28C416.667 311.976 416.851 311.72 417.091 311.512C417.339 311.296 417.595 311.132 417.859 311.02C418.131 310.9 418.367 310.84 418.567 310.84L418.507 311.944C418.131 311.92 417.799 311.992 417.511 312.16C417.231 312.328 417.007 312.552 416.839 312.832C416.679 313.112 416.599 313.412 416.599 313.732V316H415.495V311.032H416.491Z" fill="white"/>
<path d="M191.04 315.256C190.92 315.36 190.752 315.464 190.536 315.568C190.32 315.664 190.08 315.752 189.816 315.832C189.56 315.912 189.292 315.976 189.012 316.024C188.74 316.072 188.484 316.096 188.244 316.096C187.548 316.096 186.92 315.988 186.36 315.772C185.808 315.556 185.332 315.256 184.932 314.872C184.54 314.488 184.236 314.036 184.02 313.516C183.812 312.996 183.708 312.432 183.708 311.824C183.708 311.104 183.824 310.46 184.056 309.892C184.296 309.316 184.62 308.832 185.028 308.44C185.444 308.04 185.92 307.74 186.456 307.54C186.992 307.332 187.56 307.228 188.16 307.228C188.664 307.228 189.132 307.288 189.564 307.408C189.996 307.528 190.376 307.68 190.704 307.864L190.308 308.932C190.148 308.836 189.948 308.748 189.708 308.668C189.476 308.588 189.236 308.524 188.988 308.476C188.74 308.42 188.508 308.392 188.292 308.392C187.78 308.392 187.316 308.472 186.9 308.632C186.484 308.784 186.128 309.008 185.832 309.304C185.536 309.592 185.308 309.944 185.148 310.36C184.988 310.768 184.908 311.228 184.908 311.74C184.908 312.212 184.988 312.644 185.148 313.036C185.308 313.428 185.536 313.768 185.832 314.056C186.128 314.336 186.48 314.556 186.888 314.716C187.304 314.868 187.76 314.944 188.256 314.944C188.552 314.944 188.844 314.916 189.132 314.86C189.42 314.796 189.668 314.708 189.876 314.596V312.868H188.148V311.752H191.04V315.256ZM193.98 311.032L194.088 312.472L194.028 312.28C194.156 311.976 194.34 311.72 194.58 311.512C194.828 311.296 195.084 311.132 195.348 311.02C195.62 310.9 195.856 310.84 196.056 310.84L195.996 311.944C195.62 311.92 195.288 311.992 195 312.16C194.72 312.328 194.496 312.552 194.328 312.832C194.168 313.112 194.088 313.412 194.088 313.732V316H192.984V311.032H193.98ZM199.442 316.12C198.978 316.12 198.554 316.02 198.17 315.82C197.794 315.62 197.494 315.328 197.27 314.944C197.054 314.552 196.946 314.076 196.946 313.516C196.946 312.964 197.062 312.488 197.294 312.088C197.526 311.68 197.834 311.368 198.218 311.152C198.61 310.936 199.038 310.828 199.502 310.828C199.966 310.828 200.358 310.936 200.678 311.152C200.998 311.36 201.242 311.608 201.41 311.896L201.338 312.088L201.446 311.032H202.478V316H201.362V314.704L201.482 314.992C201.45 315.072 201.378 315.176 201.266 315.304C201.162 315.424 201.018 315.548 200.834 315.676C200.658 315.804 200.454 315.912 200.222 316C199.99 316.08 199.73 316.12 199.442 316.12ZM199.742 315.196C200.022 315.196 200.274 315.144 200.498 315.04C200.722 314.936 200.906 314.792 201.05 314.608C201.202 314.416 201.306 314.188 201.362 313.924V312.952C201.298 312.712 201.186 312.504 201.026 312.328C200.866 312.144 200.674 312.004 200.45 311.908C200.226 311.804 199.978 311.752 199.706 311.752C199.41 311.752 199.138 311.824 198.89 311.968C198.642 312.112 198.442 312.312 198.29 312.568C198.146 312.824 198.074 313.124 198.074 313.468C198.074 313.788 198.15 314.08 198.302 314.344C198.454 314.608 198.658 314.816 198.914 314.968C199.17 315.12 199.446 315.196 199.742 315.196ZM204.818 316V312.028H203.966V311.032H204.818V308.932C204.818 308.212 204.978 307.66 205.298 307.276C205.626 306.892 206.106 306.7 206.738 306.7C206.906 306.7 207.09 306.724 207.29 306.772C207.498 306.82 207.678 306.9 207.83 307.012L207.362 307.816C207.29 307.744 207.21 307.696 207.122 307.672C207.034 307.64 206.946 307.624 206.858 307.624C206.562 307.624 206.334 307.724 206.174 307.924C206.014 308.124 205.934 308.464 205.934 308.944V311.032H207.506V312.028H205.934V316H204.818ZM210.692 316.12C210.228 316.12 209.804 316.02 209.42 315.82C209.044 315.62 208.744 315.328 208.52 314.944C208.304 314.552 208.196 314.076 208.196 313.516C208.196 312.964 208.312 312.488 208.544 312.088C208.776 311.68 209.084 311.368 209.468 311.152C209.86 310.936 210.288 310.828 210.752 310.828C211.216 310.828 211.608 310.936 211.928 311.152C212.248 311.36 212.492 311.608 212.66 311.896L212.588 312.088L212.696 311.032H213.728V316H212.612V314.704L212.732 314.992C212.7 315.072 212.628 315.176 212.516 315.304C212.412 315.424 212.268 315.548 212.084 315.676C211.908 315.804 211.704 315.912 211.472 316C211.24 316.08 210.98 316.12 210.692 316.12ZM210.992 315.196C211.272 315.196 211.524 315.144 211.748 315.04C211.972 314.936 212.156 314.792 212.3 314.608C212.452 314.416 212.556 314.188 212.612 313.924V312.952C212.548 312.712 212.436 312.504 212.276 312.328C212.116 312.144 211.924 312.004 211.7 311.908C211.476 311.804 211.228 311.752 210.956 311.752C210.66 311.752 210.388 311.824 210.14 311.968C209.892 312.112 209.692 312.312 209.54 312.568C209.396 312.824 209.324 313.124 209.324 313.468C209.324 313.788 209.4 314.08 209.552 314.344C209.704 314.608 209.908 314.816 210.164 314.968C210.42 315.12 210.696 315.196 210.992 315.196ZM216.656 311.032L216.752 312.244L216.704 312.052C216.864 311.684 217.124 311.392 217.484 311.176C217.844 310.952 218.26 310.84 218.732 310.84C219.204 310.84 219.588 310.98 219.884 311.26C220.188 311.532 220.344 311.888 220.352 312.328V316H219.224V312.724C219.216 312.452 219.136 312.232 218.984 312.064C218.84 311.888 218.612 311.8 218.3 311.8C218.012 311.8 217.752 311.88 217.52 312.04C217.288 312.2 217.104 312.42 216.968 312.7C216.84 312.98 216.776 313.304 216.776 313.672V316H215.66V311.032H216.656ZM224.356 316.12C223.892 316.12 223.468 316.02 223.084 315.82C222.708 315.62 222.408 315.328 222.184 314.944C221.968 314.552 221.86 314.076 221.86 313.516C221.86 312.964 221.976 312.488 222.208 312.088C222.44 311.68 222.748 311.368 223.132 311.152C223.524 310.936 223.952 310.828 224.416 310.828C224.88 310.828 225.272 310.936 225.592 311.152C225.912 311.36 226.156 311.608 226.324 311.896L226.252 312.088L226.36 311.032H227.392V316H226.276V314.704L226.396 314.992C226.364 315.072 226.292 315.176 226.18 315.304C226.076 315.424 225.932 315.548 225.748 315.676C225.572 315.804 225.368 315.912 225.136 316C224.904 316.08 224.644 316.12 224.356 316.12ZM224.656 315.196C224.936 315.196 225.188 315.144 225.412 315.04C225.636 314.936 225.82 314.792 225.964 314.608C226.116 314.416 226.22 314.188 226.276 313.924V312.952C226.212 312.712 226.1 312.504 225.94 312.328C225.78 312.144 225.588 312.004 225.364 311.908C225.14 311.804 224.892 311.752 224.62 311.752C224.324 311.752 224.052 311.824 223.804 311.968C223.556 312.112 223.356 312.312 223.204 312.568C223.06 312.824 222.988 313.124 222.988 313.468C222.988 313.788 223.064 314.08 223.216 314.344C223.368 314.608 223.572 314.816 223.828 314.968C224.084 315.12 224.36 315.196 224.656 315.196Z" fill="white"/>
<path d="M263.564 190.324C264.196 190.324 264.736 190.432 265.184 190.648C265.632 190.856 265.976 191.16 266.216 191.56C266.464 191.96 266.588 192.444 266.588 193.012C266.588 193.356 266.536 193.696 266.432 194.032C266.328 194.36 266.16 194.66 265.928 194.932C265.704 195.196 265.408 195.408 265.04 195.568C264.672 195.728 264.224 195.808 263.696 195.808H262.412V199H261.248V190.324H263.564ZM263.684 194.692C264.028 194.692 264.312 194.636 264.536 194.524C264.76 194.412 264.936 194.272 265.064 194.104C265.192 193.928 265.284 193.744 265.34 193.552C265.396 193.36 265.424 193.188 265.424 193.036C265.424 192.86 265.396 192.68 265.34 192.496C265.284 192.304 265.188 192.132 265.052 191.98C264.924 191.82 264.752 191.692 264.536 191.596C264.328 191.492 264.068 191.44 263.756 191.44H262.412V194.692H263.684ZM269.105 194.032L269.213 195.472L269.153 195.28C269.281 194.976 269.465 194.72 269.705 194.512C269.953 194.296 270.209 194.132 270.473 194.02C270.745 193.9 270.981 193.84 271.181 193.84L271.121 194.944C270.745 194.92 270.413 194.992 270.125 195.16C269.845 195.328 269.621 195.552 269.453 195.832C269.293 196.112 269.213 196.412 269.213 196.732V199H268.109V194.032H269.105ZM271.978 196.468C271.978 195.972 272.094 195.524 272.326 195.124C272.566 194.724 272.894 194.408 273.31 194.176C273.726 193.944 274.198 193.828 274.726 193.828C275.27 193.828 275.746 193.944 276.154 194.176C276.562 194.408 276.878 194.724 277.102 195.124C277.326 195.524 277.438 195.972 277.438 196.468C277.438 196.964 277.326 197.416 277.102 197.824C276.878 198.224 276.558 198.54 276.142 198.772C275.734 199.004 275.258 199.12 274.714 199.12C274.186 199.12 273.714 199.012 273.298 198.796C272.89 198.572 272.566 198.264 272.326 197.872C272.094 197.472 271.978 197.004 271.978 196.468ZM273.094 196.48C273.094 196.8 273.166 197.092 273.31 197.356C273.454 197.612 273.646 197.816 273.886 197.968C274.134 198.12 274.406 198.196 274.702 198.196C275.014 198.196 275.29 198.12 275.53 197.968C275.778 197.816 275.97 197.612 276.106 197.356C276.242 197.092 276.31 196.8 276.31 196.48C276.31 196.16 276.242 195.872 276.106 195.616C275.97 195.352 275.778 195.144 275.53 194.992C275.29 194.832 275.014 194.752 274.702 194.752C274.398 194.752 274.122 194.832 273.874 194.992C273.634 195.152 273.442 195.364 273.298 195.628C273.162 195.884 273.094 196.168 273.094 196.48ZM279.945 194.032L280.041 195.148L279.993 195.052C280.177 194.676 280.437 194.38 280.773 194.164C281.117 193.948 281.509 193.84 281.949 193.84C282.229 193.84 282.477 193.884 282.693 193.972C282.909 194.06 283.085 194.188 283.221 194.356C283.365 194.516 283.457 194.716 283.497 194.956L283.437 194.992C283.629 194.632 283.893 194.352 284.229 194.152C284.573 193.944 284.933 193.84 285.309 193.84C285.797 193.84 286.181 193.98 286.461 194.26C286.749 194.532 286.897 194.888 286.905 195.328V199H285.789V195.724C285.781 195.468 285.717 195.256 285.597 195.088C285.485 194.912 285.285 194.816 284.997 194.8C284.709 194.8 284.449 194.888 284.217 195.064C283.993 195.24 283.817 195.468 283.689 195.748C283.561 196.02 283.493 196.316 283.485 196.636V199H282.369V195.724C282.361 195.468 282.293 195.256 282.165 195.088C282.045 194.912 281.841 194.816 281.553 194.8C281.257 194.8 280.997 194.888 280.773 195.064C280.549 195.24 280.373 195.468 280.245 195.748C280.125 196.028 280.065 196.328 280.065 196.648V199H278.949V194.032H279.945ZM291.155 199.12C290.587 199.12 290.099 199.008 289.691 198.784C289.283 198.552 288.967 198.24 288.743 197.848C288.527 197.448 288.419 196.992 288.419 196.48C288.419 195.992 288.543 195.548 288.791 195.148C289.039 194.748 289.371 194.428 289.787 194.188C290.203 193.948 290.667 193.828 291.179 193.828C291.835 193.828 292.379 194.02 292.811 194.404C293.243 194.788 293.535 195.316 293.687 195.988L289.595 197.428L289.331 196.768L292.691 195.544L292.451 195.7C292.355 195.436 292.195 195.208 291.971 195.016C291.747 194.816 291.455 194.716 291.095 194.716C290.791 194.716 290.519 194.792 290.279 194.944C290.039 195.088 289.851 195.288 289.715 195.544C289.579 195.8 289.511 196.092 289.511 196.42C289.511 196.764 289.583 197.068 289.727 197.332C289.871 197.588 290.067 197.792 290.315 197.944C290.571 198.088 290.859 198.16 291.179 198.16C291.395 198.16 291.603 198.12 291.803 198.04C292.011 197.96 292.203 197.856 292.379 197.728L292.895 198.556C292.647 198.724 292.367 198.86 292.055 198.964C291.751 199.068 291.451 199.12 291.155 199.12ZM295.565 191.848H296.681V194.056H298.049V194.932H296.681V199H295.565V194.932H294.653V194.056H295.565V191.848ZM299.398 199V189.712H300.49V195.184L300.466 194.98C300.634 194.652 300.89 194.38 301.234 194.164C301.586 193.948 301.998 193.84 302.47 193.84C302.942 193.84 303.326 193.98 303.622 194.26C303.926 194.532 304.082 194.888 304.09 195.328V199H302.962V195.724C302.954 195.452 302.874 195.232 302.722 195.064C302.578 194.888 302.35 194.8 302.038 194.8C301.75 194.8 301.49 194.884 301.258 195.052C301.026 195.212 300.842 195.432 300.706 195.712C300.578 195.992 300.514 196.312 300.514 196.672V199H299.398ZM308.335 199.12C307.767 199.12 307.279 199.008 306.871 198.784C306.463 198.552 306.147 198.24 305.923 197.848C305.707 197.448 305.599 196.992 305.599 196.48C305.599 195.992 305.723 195.548 305.971 195.148C306.219 194.748 306.551 194.428 306.967 194.188C307.383 193.948 307.847 193.828 308.359 193.828C309.015 193.828 309.559 194.02 309.991 194.404C310.423 194.788 310.715 195.316 310.867 195.988L306.775 197.428L306.511 196.768L309.871 195.544L309.631 195.7C309.535 195.436 309.375 195.208 309.151 195.016C308.927 194.816 308.635 194.716 308.275 194.716C307.971 194.716 307.699 194.792 307.459 194.944C307.219 195.088 307.031 195.288 306.895 195.544C306.759 195.8 306.691 196.092 306.691 196.42C306.691 196.764 306.763 197.068 306.907 197.332C307.051 197.588 307.247 197.792 307.495 197.944C307.751 198.088 308.039 198.16 308.359 198.16C308.575 198.16 308.783 198.12 308.983 198.04C309.191 197.96 309.383 197.856 309.559 197.728L310.075 198.556C309.827 198.724 309.547 198.86 309.235 198.964C308.931 199.068 308.631 199.12 308.335 199.12ZM313.837 199.192C313.389 199.192 313.017 199.056 312.721 198.784C312.433 198.504 312.281 198.144 312.265 197.704V194.032H313.381V197.308C313.397 197.58 313.473 197.8 313.609 197.968C313.753 198.136 313.977 198.224 314.281 198.232C314.561 198.232 314.809 198.152 315.025 197.992C315.249 197.824 315.429 197.6 315.565 197.32C315.701 197.032 315.769 196.708 315.769 196.348V194.032H316.885V199H315.865L315.769 197.776L315.829 197.992C315.733 198.224 315.585 198.432 315.385 198.616C315.193 198.792 314.965 198.932 314.701 199.036C314.437 199.14 314.149 199.192 313.837 199.192ZM320.208 199.096C319.856 199.096 319.512 199.036 319.176 198.916C318.848 198.788 318.576 198.6 318.36 198.352L318.828 197.704C319.036 197.904 319.248 198.056 319.464 198.16C319.688 198.256 319.908 198.304 320.124 198.304C320.284 198.304 320.432 198.284 320.568 198.244C320.704 198.204 320.812 198.14 320.892 198.052C320.98 197.956 321.024 197.828 321.024 197.668C321.024 197.492 320.964 197.352 320.844 197.248C320.732 197.144 320.584 197.06 320.4 196.996C320.224 196.932 320.036 196.872 319.836 196.816C319.428 196.68 319.116 196.492 318.9 196.252C318.684 196.012 318.576 195.72 318.576 195.376C318.576 195.112 318.64 194.868 318.768 194.644C318.904 194.412 319.1 194.224 319.356 194.08C319.62 193.936 319.944 193.864 320.328 193.864C320.672 193.864 320.98 193.908 321.252 193.996C321.524 194.076 321.78 194.212 322.02 194.404L321.576 195.1C321.432 194.948 321.26 194.836 321.06 194.764C320.86 194.692 320.68 194.652 320.52 194.644C320.384 194.636 320.252 194.656 320.124 194.704C320.004 194.752 319.904 194.82 319.824 194.908C319.744 194.996 319.704 195.1 319.704 195.22C319.704 195.388 319.76 195.524 319.872 195.628C319.984 195.732 320.128 195.816 320.304 195.88C320.488 195.936 320.668 195.996 320.844 196.06C321.092 196.132 321.312 196.228 321.504 196.348C321.696 196.468 321.848 196.616 321.96 196.792C322.08 196.968 322.14 197.188 322.14 197.452C322.14 197.748 322.068 198.024 321.924 198.28C321.788 198.528 321.576 198.728 321.288 198.88C321.008 199.024 320.648 199.096 320.208 199.096Z" fill="white"/>
<path d="M206.354 126.646C206.158 126.451 205.842 126.451 205.646 126.646L202.464 129.828C202.269 130.024 202.269 130.34 202.464 130.536C202.66 130.731 202.976 130.731 203.172 130.536L206 127.707L208.828 130.536C209.024 130.731 209.34 130.731 209.536 130.536C209.731 130.34 209.731 130.024 209.536 129.828L206.354 126.646ZM206.5 149V127H205.5V149H206.5Z" fill="black"/>
<path d="M377.646 265.354C377.842 265.549 378.158 265.549 378.354 265.354L381.536 262.172C381.731 261.976 381.731 261.66 381.536 261.464C381.34 261.269 381.024 261.269 380.828 261.464L378 264.293L375.172 261.464C374.976 261.269 374.66 261.269 374.464 261.464C374.269 261.66 374.269 261.976 374.464 262.172L377.646 265.354ZM377.5 243V265H378.5V243H377.5Z" fill="black"/>
<path d="M205.646 265.354C205.842 265.549 206.158 265.549 206.354 265.354L209.536 262.172C209.731 261.976 209.731 261.66 209.536 261.464C209.34 261.269 209.024 261.269 208.828 261.464L206 264.293L203.172 261.464C202.976 261.269 202.66 261.269 202.464 261.464C202.269 261.66 202.269 261.976 202.464 262.172L205.646 265.354ZM205.5 243V265H206.5V243H205.5Z" fill="black"/>
<path d="M378.354 125.646C378.158 125.451 377.842 125.451 377.646 125.646L374.464 128.828C374.269 129.024 374.269 129.34 374.464 129.536C374.66 129.731 374.976 129.731 375.172 129.536L378 126.707L380.828 129.536C381.024 129.731 381.34 129.731 381.536 129.536C381.731 129.34 381.731 129.024 381.536 128.828L378.354 125.646ZM378.5 148V126H377.5V148H378.5Z" fill="black"/>
<path d="M584.354 316.354C584.549 316.158 584.549 315.842 584.354 315.646L581.172 312.464C580.976 312.269 580.66 312.269 580.464 312.464C580.269 312.66 580.269 312.976 580.464 313.172L583.293 316L580.464 318.828C580.269 319.024 580.269 319.34 580.464 319.536C580.66 319.731 580.976 319.731 581.172 319.536L584.354 316.354ZM455 316.5L584 316.5L584 315.5L455 315.5L455 316.5Z" fill="black"/>
<path d="M494.564 304.324C495.196 304.324 495.736 304.432 496.184 304.648C496.632 304.856 496.976 305.16 497.216 305.56C497.464 305.96 497.588 306.444 497.588 307.012C497.588 307.356 497.536 307.696 497.432 308.032C497.328 308.36 497.16 308.66 496.928 308.932C496.704 309.196 496.408 309.408 496.04 309.568C495.672 309.728 495.224 309.808 494.696 309.808H493.412V313H492.248V304.324H494.564ZM494.684 308.692C495.028 308.692 495.312 308.636 495.536 308.524C495.76 308.412 495.936 308.272 496.064 308.104C496.192 307.928 496.284 307.744 496.34 307.552C496.396 307.36 496.424 307.188 496.424 307.036C496.424 306.86 496.396 306.68 496.34 306.496C496.284 306.304 496.188 306.132 496.052 305.98C495.924 305.82 495.752 305.692 495.536 305.596C495.328 305.492 495.068 305.44 494.756 305.44H493.412V308.692H494.684ZM501.173 313.12C500.709 313.12 500.285 313.02 499.901 312.82C499.525 312.62 499.225 312.328 499.001 311.944C498.785 311.552 498.677 311.076 498.677 310.516C498.677 309.964 498.793 309.488 499.025 309.088C499.257 308.68 499.565 308.368 499.949 308.152C500.341 307.936 500.769 307.828 501.233 307.828C501.697 307.828 502.089 307.936 502.409 308.152C502.729 308.36 502.973 308.608 503.141 308.896L503.069 309.088L503.177 308.032H504.209V313H503.093V311.704L503.213 311.992C503.181 312.072 503.109 312.176 502.997 312.304C502.893 312.424 502.749 312.548 502.565 312.676C502.389 312.804 502.185 312.912 501.953 313C501.721 313.08 501.461 313.12 501.173 313.12ZM501.473 312.196C501.753 312.196 502.005 312.144 502.229 312.04C502.453 311.936 502.637 311.792 502.781 311.608C502.933 311.416 503.037 311.188 503.093 310.924V309.952C503.029 309.712 502.917 309.504 502.757 309.328C502.597 309.144 502.405 309.004 502.181 308.908C501.957 308.804 501.709 308.752 501.437 308.752C501.141 308.752 500.869 308.824 500.621 308.968C500.373 309.112 500.173 309.312 500.021 309.568C499.877 309.824 499.805 310.124 499.805 310.468C499.805 310.788 499.881 311.08 500.033 311.344C500.185 311.608 500.389 311.816 500.645 311.968C500.901 312.12 501.177 312.196 501.473 312.196ZM508.528 315.46C508.16 315.46 507.836 315.416 507.556 315.328C507.276 315.248 507.02 315.132 506.788 314.98C506.564 314.828 506.348 314.656 506.14 314.464L506.788 313.708C507.052 313.956 507.32 314.148 507.592 314.284C507.864 314.42 508.168 314.488 508.504 314.488C508.88 314.488 509.196 314.424 509.452 314.296C509.716 314.176 509.916 314.004 510.052 313.78C510.188 313.564 510.256 313.312 510.256 313.024L510.268 311.68L510.364 311.896C510.22 312.24 509.96 312.532 509.584 312.772C509.208 313.004 508.752 313.12 508.216 313.12C507.76 313.12 507.34 313.004 506.956 312.772C506.58 312.54 506.276 312.228 506.044 311.836C505.82 311.436 505.708 310.988 505.708 310.492C505.708 309.972 505.828 309.516 506.068 309.124C506.308 308.724 506.624 308.408 507.016 308.176C507.408 307.944 507.836 307.828 508.3 307.828C508.74 307.828 509.14 307.92 509.5 308.104C509.868 308.28 510.136 308.508 510.304 308.788L510.244 308.992L510.364 308.032H511.384V313.036C511.384 313.484 511.268 313.892 511.036 314.26C510.804 314.628 510.476 314.92 510.052 315.136C509.628 315.352 509.12 315.46 508.528 315.46ZM506.824 310.468C506.824 310.788 506.9 311.08 507.052 311.344C507.204 311.608 507.408 311.816 507.664 311.968C507.928 312.12 508.22 312.196 508.54 312.196C508.836 312.196 509.1 312.144 509.332 312.04C509.572 311.928 509.772 311.78 509.932 311.596C510.092 311.404 510.204 311.184 510.268 310.936V309.952C510.196 309.712 510.076 309.504 509.908 309.328C509.74 309.144 509.54 309.004 509.308 308.908C509.076 308.804 508.82 308.752 508.54 308.752C508.22 308.752 507.928 308.824 507.664 308.968C507.408 309.112 507.204 309.316 507.052 309.58C506.9 309.836 506.824 310.132 506.824 310.468ZM515.616 313.12C515.048 313.12 514.56 313.008 514.152 312.784C513.744 312.552 513.428 312.24 513.204 311.848C512.988 311.448 512.88 310.992 512.88 310.48C512.88 309.992 513.004 309.548 513.252 309.148C513.5 308.748 513.832 308.428 514.248 308.188C514.664 307.948 515.128 307.828 515.64 307.828C516.296 307.828 516.84 308.02 517.272 308.404C517.704 308.788 517.996 309.316 518.148 309.988L514.056 311.428L513.792 310.768L517.152 309.544L516.912 309.7C516.816 309.436 516.656 309.208 516.432 309.016C516.208 308.816 515.916 308.716 515.556 308.716C515.252 308.716 514.98 308.792 514.74 308.944C514.5 309.088 514.312 309.288 514.176 309.544C514.04 309.8 513.972 310.092 513.972 310.42C513.972 310.764 514.044 311.068 514.188 311.332C514.332 311.588 514.528 311.792 514.776 311.944C515.032 312.088 515.32 312.16 515.64 312.16C515.856 312.16 516.064 312.12 516.264 312.04C516.472 311.96 516.664 311.856 516.84 311.728L517.356 312.556C517.108 312.724 516.828 312.86 516.516 312.964C516.212 313.068 515.912 313.12 515.616 313.12ZM520.542 308.032L520.65 309.472L520.59 309.28C520.718 308.976 520.902 308.72 521.142 308.512C521.39 308.296 521.646 308.132 521.91 308.02C522.182 307.9 522.418 307.84 522.618 307.84L522.558 308.944C522.182 308.92 521.85 308.992 521.562 309.16C521.282 309.328 521.058 309.552 520.89 309.832C520.73 310.112 520.65 310.412 520.65 310.732V313H519.546V308.032H520.542ZM524.334 313V304.324H526.698C527.554 304.324 528.282 304.456 528.882 304.72C529.49 304.984 529.978 305.332 530.346 305.764C530.714 306.196 530.982 306.676 531.15 307.204C531.326 307.724 531.414 308.244 531.414 308.764C531.414 309.42 531.298 310.008 531.066 310.528C530.842 311.048 530.53 311.492 530.13 311.86C529.73 312.228 529.27 312.512 528.75 312.712C528.238 312.904 527.694 313 527.118 313H524.334ZM525.498 311.884H526.89C527.37 311.884 527.81 311.812 528.21 311.668C528.618 311.524 528.97 311.316 529.266 311.044C529.57 310.772 529.806 310.44 529.974 310.048C530.142 309.648 530.226 309.196 530.226 308.692C530.226 308.156 530.138 307.688 529.962 307.288C529.786 306.88 529.546 306.54 529.242 306.268C528.938 305.996 528.594 305.792 528.21 305.656C527.826 305.512 527.422 305.44 526.998 305.44H525.498V311.884ZM534.665 313.192C534.217 313.192 533.845 313.056 533.549 312.784C533.261 312.504 533.109 312.144 533.093 311.704V308.032H534.209V311.308C534.225 311.58 534.301 311.8 534.437 311.968C534.581 312.136 534.805 312.224 535.109 312.232C535.389 312.232 535.637 312.152 535.853 311.992C536.077 311.824 536.257 311.6 536.393 311.32C536.529 311.032 536.597 310.708 536.597 310.348V308.032H537.713V313H536.693L536.597 311.776L536.657 311.992C536.561 312.224 536.413 312.432 536.213 312.616C536.021 312.792 535.793 312.932 535.529 313.036C535.265 313.14 534.977 313.192 534.665 313.192ZM540.124 305.848H541.24V308.056H542.608V308.932H541.24V313H540.124V308.932H539.212V308.056H540.124V305.848ZM544.376 315.388L547.652 308.032H548.684L545.48 315.388H544.376ZM545.6 313.036L543.212 308.032H544.472L546.476 312.472L545.6 313.036Z" fill="black"/>
</svg>
