<svg width="417" height="391" viewBox="0 0 417 391" fill="none" xmlns="http://www.w3.org/2000/svg">
<path d="M100 20C100 8.95431 108.954 0 120 0H296C307.046 0 316 8.9543 316 20V371C316 382.046 307.046 391 296 391H120C108.954 391 100 382.046 100 371V20Z" fill="#4285F4" fill-opacity="0.2"/>
<path d="M207.354 265.354C207.158 265.549 206.842 265.549 206.646 265.354L203.464 262.172C203.269 261.976 203.269 261.66 203.464 261.464C203.66 261.269 203.976 261.269 204.172 261.464L207 264.293L209.828 261.464C210.024 261.269 210.34 261.269 210.536 261.464C210.731 261.66 210.731 261.976 210.536 262.172L207.354 265.354ZM207.5 243V265H206.5V243H207.5Z" fill="black"/>
<path d="M141.5 291C141.5 280.23 150.23 271.5 161 271.5H259C269.77 271.5 278.5 280.23 278.5 291V334C278.5 344.77 269.77 353.5 259 353.5H161C150.23 353.5 141.5 344.77 141.5 334V291Z" fill="#4285F4" stroke="#4285F4"/>
<path d="M170.62 315.352C170.476 315.448 170.28 315.556 170.032 315.676C169.784 315.796 169.492 315.9 169.156 315.988C168.828 316.068 168.468 316.104 168.076 316.096C167.396 316.088 166.788 315.968 166.252 315.736C165.716 315.504 165.256 315.188 164.872 314.788C164.496 314.38 164.208 313.916 164.008 313.396C163.808 312.876 163.708 312.32 163.708 311.728C163.708 311.08 163.812 310.484 164.02 309.94C164.236 309.388 164.536 308.912 164.92 308.512C165.304 308.104 165.756 307.788 166.276 307.564C166.804 307.34 167.38 307.228 168.004 307.228C168.524 307.228 168.996 307.3 169.42 307.444C169.844 307.58 170.208 307.74 170.512 307.924L170.044 309.016C169.804 308.856 169.512 308.704 169.168 308.56C168.824 308.416 168.448 308.344 168.04 308.344C167.616 308.344 167.216 308.432 166.84 308.608C166.464 308.776 166.132 309.012 165.844 309.316C165.556 309.612 165.328 309.964 165.16 310.372C165 310.772 164.92 311.204 164.92 311.668C164.92 312.292 165.048 312.856 165.304 313.36C165.568 313.856 165.936 314.248 166.408 314.536C166.888 314.824 167.448 314.968 168.088 314.968C168.536 314.968 168.928 314.904 169.264 314.776C169.608 314.64 169.892 314.484 170.116 314.308L170.62 315.352ZM172.304 306.7H173.42V316H172.304V306.7ZM174.931 313.468C174.931 312.972 175.047 312.524 175.279 312.124C175.519 311.724 175.847 311.408 176.263 311.176C176.679 310.944 177.155 310.828 177.691 310.828C178.227 310.828 178.699 310.944 179.107 311.176C179.515 311.408 179.831 311.724 180.055 312.124C180.287 312.524 180.403 312.972 180.403 313.468C180.403 313.964 180.287 314.412 180.055 314.812C179.831 315.212 179.511 315.532 179.095 315.772C178.687 316.004 178.211 316.12 177.667 316.12C177.139 316.12 176.667 316.012 176.251 315.796C175.843 315.58 175.519 315.272 175.279 314.872C175.047 314.472 174.931 314.004 174.931 313.468ZM176.059 313.48C176.059 313.8 176.127 314.092 176.263 314.356C176.407 314.612 176.599 314.816 176.839 314.968C177.079 315.12 177.351 315.196 177.655 315.196C177.967 315.196 178.243 315.12 178.483 314.968C178.723 314.816 178.911 314.612 179.047 314.356C179.191 314.092 179.263 313.8 179.263 313.48C179.263 313.16 179.191 312.872 179.047 312.616C178.911 312.352 178.723 312.144 178.483 311.992C178.243 311.832 177.967 311.752 177.655 311.752C177.351 311.752 177.075 311.832 176.827 311.992C176.587 312.152 176.399 312.364 176.263 312.628C176.127 312.884 176.059 313.168 176.059 313.48ZM183.486 316.192C183.03 316.192 182.654 316.056 182.358 315.784C182.062 315.504 181.91 315.144 181.902 314.704V311.032H183.018V314.308C183.034 314.58 183.114 314.8 183.258 314.968C183.402 315.136 183.626 315.224 183.93 315.232C184.202 315.232 184.45 315.152 184.674 314.992C184.898 314.824 185.074 314.6 185.202 314.32C185.338 314.032 185.406 313.708 185.406 313.348V311.032H186.522V316H185.514L185.43 315.064C185.27 315.392 185.014 315.664 184.662 315.88C184.318 316.088 183.926 316.192 183.486 316.192ZM190.492 316.12C190.02 316.12 189.596 316.012 189.22 315.796C188.852 315.572 188.56 315.26 188.344 314.86C188.136 314.452 188.032 313.98 188.032 313.444C188.032 312.9 188.144 312.432 188.368 312.04C188.592 311.648 188.9 311.348 189.292 311.14C189.692 310.932 190.136 310.828 190.624 310.828C191 310.828 191.36 310.908 191.704 311.068C192.048 311.22 192.324 311.432 192.532 311.704V306.7H193.648V316H192.52V315.232C192.28 315.496 191.984 315.712 191.632 315.88C191.288 316.04 190.908 316.12 190.492 316.12ZM190.84 315.16C191.272 315.16 191.636 315.044 191.932 314.812C192.228 314.58 192.42 314.268 192.508 313.876V312.94C192.42 312.588 192.22 312.296 191.908 312.064C191.604 311.832 191.248 311.716 190.84 311.716C190.536 311.716 190.256 311.792 190 311.944C189.744 312.088 189.54 312.288 189.388 312.544C189.236 312.8 189.16 313.096 189.16 313.432C189.16 313.752 189.236 314.044 189.388 314.308C189.54 314.572 189.744 314.78 190 314.932C190.256 315.084 190.536 315.16 190.84 315.16ZM204.138 308.872C203.842 308.72 203.518 308.588 203.166 308.476C202.814 308.364 202.474 308.308 202.146 308.308C201.674 308.308 201.298 308.416 201.018 308.632C200.746 308.848 200.61 309.14 200.61 309.508C200.61 309.772 200.698 309.996 200.874 310.18C201.058 310.364 201.29 310.528 201.57 310.672C201.858 310.808 202.162 310.936 202.482 311.056C202.842 311.192 203.19 311.356 203.526 311.548C203.862 311.74 204.138 312 204.354 312.328C204.578 312.648 204.69 313.08 204.69 313.624C204.69 314.088 204.574 314.508 204.342 314.884C204.11 315.252 203.782 315.548 203.358 315.772C202.934 315.988 202.43 316.096 201.846 316.096C201.27 316.096 200.734 316.004 200.238 315.82C199.75 315.636 199.334 315.424 198.99 315.184L199.506 314.26C199.786 314.476 200.13 314.664 200.538 314.824C200.954 314.984 201.35 315.064 201.726 315.064C202.006 315.064 202.278 315.016 202.542 314.92C202.814 314.824 203.038 314.672 203.214 314.464C203.39 314.248 203.478 313.972 203.478 313.636C203.478 313.348 203.398 313.104 203.238 312.904C203.078 312.704 202.87 312.536 202.614 312.4C202.366 312.256 202.094 312.128 201.798 312.016C201.526 311.92 201.25 311.808 200.97 311.68C200.69 311.552 200.43 311.4 200.19 311.224C199.958 311.04 199.77 310.816 199.626 310.552C199.482 310.288 199.41 309.968 199.41 309.592C199.41 309.136 199.518 308.74 199.734 308.404C199.958 308.06 200.262 307.792 200.646 307.6C201.03 307.4 201.474 307.292 201.978 307.276C202.53 307.276 203.018 307.344 203.442 307.48C203.874 307.616 204.254 307.78 204.582 307.972L204.138 308.872ZM206.095 311.668C206.095 311.068 206.207 310.5 206.431 309.964C206.663 309.428 206.983 308.956 207.391 308.548C207.799 308.14 208.267 307.82 208.795 307.588C209.331 307.348 209.903 307.228 210.511 307.228C211.119 307.228 211.691 307.348 212.227 307.588C212.771 307.82 213.247 308.14 213.655 308.548C214.063 308.956 214.383 309.428 214.615 309.964C214.847 310.5 214.963 311.068 214.963 311.668C214.963 312.3 214.839 312.892 214.591 313.444C214.343 313.988 214.007 314.46 213.583 314.86H215.335V316H211.435C211.131 316.064 210.823 316.096 210.511 316.096C209.903 316.096 209.331 315.984 208.795 315.76C208.267 315.536 207.799 315.224 207.391 314.824C206.983 314.416 206.663 313.944 206.431 313.408C206.207 312.872 206.095 312.292 206.095 311.668ZM207.295 311.68C207.295 312.136 207.379 312.564 207.547 312.964C207.715 313.356 207.947 313.704 208.243 314.008C208.539 314.304 208.883 314.54 209.275 314.716C209.667 314.884 210.091 314.968 210.547 314.968C211.147 314.968 211.687 314.82 212.167 314.524C212.655 314.228 213.043 313.832 213.331 313.336C213.619 312.84 213.763 312.284 213.763 311.668C213.763 311.22 213.679 310.796 213.511 310.396C213.343 309.996 213.111 309.648 212.815 309.352C212.519 309.048 212.175 308.812 211.783 308.644C211.391 308.468 210.971 308.38 210.523 308.38C210.067 308.38 209.643 308.468 209.251 308.644C208.859 308.812 208.515 309.052 208.219 309.364C207.931 309.668 207.703 310.02 207.535 310.42C207.375 310.812 207.295 311.232 207.295 311.68ZM217.287 307.324H218.451V314.872H222.867V316H217.287V307.324ZM230.877 307.324C231.813 307.324 232.549 307.56 233.085 308.032C233.621 308.504 233.889 309.164 233.889 310.012C233.889 310.356 233.837 310.696 233.733 311.032C233.629 311.36 233.461 311.66 233.229 311.932C233.005 312.196 232.709 312.412 232.341 312.58C231.973 312.74 231.525 312.82 230.997 312.82H229.713V316H228.549V307.324H230.877ZM230.997 311.68C231.333 311.68 231.613 311.628 231.837 311.524C232.061 311.412 232.237 311.268 232.365 311.092C232.501 310.916 232.597 310.736 232.653 310.552C232.709 310.36 232.737 310.188 232.737 310.036C232.737 309.804 232.681 309.564 232.569 309.316C232.465 309.068 232.289 308.86 232.041 308.692C231.801 308.524 231.473 308.44 231.057 308.44H229.713V311.68H230.997ZM236.406 311.032L236.49 312.196C236.626 311.916 236.814 311.676 237.054 311.476C237.294 311.268 237.542 311.112 237.798 311.008C238.062 310.896 238.29 310.836 238.482 310.828L238.434 311.944C238.058 311.928 237.726 312.004 237.438 312.172C237.15 312.332 236.926 312.552 236.766 312.832C236.606 313.112 236.526 313.412 236.526 313.732V316H235.41V311.032H236.406ZM239.278 313.468C239.278 312.972 239.394 312.524 239.626 312.124C239.866 311.724 240.194 311.408 240.61 311.176C241.026 310.944 241.502 310.828 242.038 310.828C242.574 310.828 243.046 310.944 243.454 311.176C243.862 311.408 244.178 311.724 244.402 312.124C244.634 312.524 244.75 312.972 244.75 313.468C244.75 313.964 244.634 314.412 244.402 314.812C244.178 315.212 243.858 315.532 243.442 315.772C243.034 316.004 242.558 316.12 242.014 316.12C241.486 316.12 241.014 316.012 240.598 315.796C240.19 315.58 239.866 315.272 239.626 314.872C239.394 314.472 239.278 314.004 239.278 313.468ZM240.406 313.48C240.406 313.8 240.474 314.092 240.61 314.356C240.754 314.612 240.946 314.816 241.186 314.968C241.426 315.12 241.698 315.196 242.002 315.196C242.314 315.196 242.59 315.12 242.83 314.968C243.07 314.816 243.258 314.612 243.394 314.356C243.538 314.092 243.61 313.8 243.61 313.48C243.61 313.16 243.538 312.872 243.394 312.616C243.258 312.352 243.07 312.144 242.83 311.992C242.59 311.832 242.314 311.752 242.002 311.752C241.698 311.752 241.422 311.832 241.174 311.992C240.934 312.152 240.746 312.364 240.61 312.628C240.474 312.884 240.406 313.168 240.406 313.48ZM250.524 316H249.168L247.824 314.236L246.588 316H245.448L247.272 313.504L245.388 311.032H246.78L248.076 312.76L249.204 311.032H250.332L248.592 313.444L250.524 316ZM252.142 318.388L253.282 315.844L250.978 311.032H252.238L253.834 314.572L255.418 311.032H256.45L253.246 318.388H252.142Z" fill="white"/>
<path d="M129.354 73.3536C129.549 73.1583 129.549 72.8417 129.354 72.6465L126.172 69.4645C125.976 69.2692 125.66 69.2692 125.464 69.4645C125.269 69.6597 125.269 69.9763 125.464 70.1716L128.293 73L125.464 75.8284C125.269 76.0237 125.269 76.3403 125.464 76.5355C125.66 76.7308 125.976 76.7308 126.172 76.5355L129.354 73.3536ZM-4.37114e-08 73.5L129 73.5L129 72.5L4.37114e-08 72.5L-4.37114e-08 73.5Z" fill="black"/>
<path d="M53.62 69.352C53.476 69.448 53.28 69.556 53.032 69.676C52.784 69.796 52.492 69.9 52.156 69.988C51.828 70.068 51.468 70.104 51.076 70.096C50.396 70.088 49.788 69.968 49.252 69.736C48.716 69.504 48.256 69.188 47.872 68.788C47.496 68.38 47.208 67.916 47.008 67.396C46.808 66.876 46.708 66.32 46.708 65.728C46.708 65.08 46.812 64.484 47.02 63.94C47.236 63.388 47.536 62.912 47.92 62.512C48.304 62.104 48.756 61.788 49.276 61.564C49.804 61.34 50.38 61.228 51.004 61.228C51.524 61.228 51.996 61.3 52.42 61.444C52.844 61.58 53.208 61.74 53.512 61.924L53.044 63.016C52.804 62.856 52.512 62.704 52.168 62.56C51.824 62.416 51.448 62.344 51.04 62.344C50.616 62.344 50.216 62.432 49.84 62.608C49.464 62.776 49.132 63.012 48.844 63.316C48.556 63.612 48.328 63.964 48.16 64.372C48 64.772 47.92 65.204 47.92 65.668C47.92 66.292 48.048 66.856 48.304 67.36C48.568 67.856 48.936 68.248 49.408 68.536C49.888 68.824 50.448 68.968 51.088 68.968C51.536 68.968 51.928 68.904 52.264 68.776C52.608 68.64 52.892 68.484 53.116 68.308L53.62 69.352ZM55.304 60.7H56.42V70H55.304V60.7ZM58.3626 65.032H59.4786V70H58.3626V65.032ZM58.2786 63.244C58.2786 63.06 58.3466 62.912 58.4826 62.8C58.6266 62.68 58.7826 62.62 58.9506 62.62C59.1186 62.62 59.2706 62.68 59.4066 62.8C59.5426 62.912 59.6106 63.06 59.6106 63.244C59.6106 63.428 59.5426 63.58 59.4066 63.7C59.2706 63.812 59.1186 63.868 58.9506 63.868C58.7826 63.868 58.6266 63.812 58.4826 63.7C58.3466 63.58 58.2786 63.428 58.2786 63.244ZM63.7252 70.12C63.1652 70.12 62.6772 70.008 62.2612 69.784C61.8532 69.552 61.5372 69.236 61.3132 68.836C61.0972 68.436 60.9892 67.984 60.9892 67.48C60.9892 66.992 61.1092 66.548 61.3492 66.148C61.5972 65.74 61.9292 65.42 62.3452 65.188C62.7692 64.948 63.2372 64.828 63.7492 64.828C64.4052 64.828 64.9492 65.02 65.3812 65.404C65.8132 65.788 66.1092 66.316 66.2692 66.988L62.3332 68.368C62.4692 68.616 62.6612 68.812 62.9092 68.956C63.1572 69.092 63.4372 69.16 63.7492 69.16C63.9732 69.16 64.1852 69.12 64.3852 69.04C64.5852 68.96 64.7772 68.856 64.9612 68.728L65.4772 69.556C65.2212 69.724 64.9372 69.86 64.6252 69.964C64.3212 70.068 64.0212 70.12 63.7252 70.12ZM62.0932 67.42C62.0852 67.516 62.0892 67.608 62.1052 67.696L64.9972 66.628C64.8852 66.388 64.7212 66.176 64.5052 65.992C64.2972 65.808 64.0172 65.716 63.6652 65.716C63.2092 65.716 62.8332 65.876 62.5372 66.196C62.2412 66.516 62.0932 66.924 62.0932 67.42ZM68.6636 65.032L68.7356 65.992C68.9036 65.64 69.1636 65.36 69.5156 65.152C69.8676 64.944 70.2756 64.84 70.7396 64.84C71.2036 64.84 71.5836 64.98 71.8796 65.26C72.1836 65.532 72.3436 65.888 72.3596 66.328V70H71.2316V66.712C71.2156 66.448 71.1316 66.232 70.9796 66.064C70.8356 65.896 70.6076 65.808 70.2956 65.8C69.8636 65.8 69.4996 65.976 69.2036 66.328C68.9156 66.672 68.7716 67.12 68.7716 67.672V70H67.6556V65.032H68.6636ZM74.7684 62.848H75.8964V65.044H77.2524V65.932H75.8964V70H74.7684V65.932H73.8564V65.044H74.7684V62.848ZM80.0166 70.096C79.6566 70.096 79.3086 70.036 78.9726 69.916C78.6446 69.788 78.3726 69.6 78.1566 69.352L78.6366 68.704C78.8366 68.904 79.0486 69.056 79.2726 69.16C79.4966 69.256 79.7126 69.304 79.9206 69.304C80.1606 69.304 80.3686 69.256 80.5446 69.16C80.7286 69.064 80.8206 68.9 80.8206 68.668C80.8206 68.492 80.7606 68.352 80.6406 68.248C80.5286 68.144 80.3806 68.064 80.1966 68.008C80.0206 67.944 79.8366 67.88 79.6446 67.816C78.7966 67.544 78.3726 67.06 78.3726 66.364C78.3726 66.108 78.4366 65.864 78.5646 65.632C78.7006 65.4 78.8966 65.212 79.1526 65.068C79.4166 64.924 79.7406 64.852 80.1246 64.852C80.4686 64.852 80.7766 64.896 81.0486 64.984C81.3206 65.072 81.5766 65.212 81.8166 65.404L81.3726 66.088C81.2286 65.944 81.0566 65.836 80.8566 65.764C80.6646 65.684 80.4886 65.64 80.3286 65.632C80.1126 65.632 79.9206 65.684 79.7526 65.788C79.5926 65.892 79.5126 66.036 79.5126 66.22C79.5046 66.388 79.5566 66.524 79.6686 66.628C79.7806 66.724 79.9246 66.804 80.1006 66.868C80.2846 66.932 80.4686 66.992 80.6526 67.048C81.0126 67.168 81.3166 67.332 81.5646 67.54C81.8206 67.748 81.9486 68.052 81.9486 68.452C81.9486 68.9 81.7886 69.288 81.4686 69.616C81.1486 69.936 80.6646 70.096 80.0166 70.096Z" fill="black"/>
<path d="M416.354 296.354C416.549 296.158 416.549 295.842 416.354 295.646L413.172 292.464C412.976 292.269 412.66 292.269 412.464 292.464C412.269 292.66 412.269 292.976 412.464 293.172L415.293 296L412.464 298.828C412.269 299.024 412.269 299.34 412.464 299.536C412.66 299.731 412.976 299.731 413.172 299.536L416.354 296.354ZM287 296.5L416 296.5L416 295.5L287 295.5L287 296.5Z" fill="black"/>
<path d="M323.248 293V284.324H325.624C326.48 284.324 327.208 284.456 327.808 284.72C328.408 284.976 328.892 285.32 329.26 285.752C329.636 286.184 329.908 286.664 330.076 287.192C330.252 287.712 330.34 288.236 330.34 288.764C330.34 289.412 330.224 290 329.992 290.528C329.76 291.048 329.444 291.492 329.044 291.86C328.644 292.228 328.184 292.512 327.664 292.712C327.152 292.904 326.612 293 326.044 293H323.248ZM324.412 291.872H325.816C326.448 291.872 327.012 291.748 327.508 291.5C328.012 291.252 328.408 290.892 328.696 290.42C328.984 289.94 329.128 289.36 329.128 288.68C329.128 287.976 328.976 287.384 328.672 286.904C328.376 286.424 327.98 286.06 327.484 285.812C326.996 285.564 326.476 285.44 325.924 285.44H324.412V291.872ZM334.095 293.12C333.623 293.12 333.195 293.02 332.811 292.82C332.435 292.62 332.135 292.328 331.911 291.944C331.695 291.552 331.587 291.076 331.587 290.516C331.587 289.956 331.699 289.476 331.923 289.076C332.155 288.676 332.463 288.368 332.847 288.152C333.239 287.936 333.667 287.828 334.131 287.828C334.579 287.828 334.959 287.924 335.271 288.116C335.583 288.308 335.827 288.54 336.003 288.812L336.087 288.032H337.119V293H336.003V292.184C335.907 292.312 335.767 292.448 335.583 292.592C335.407 292.736 335.191 292.86 334.935 292.964C334.687 293.068 334.407 293.12 334.095 293.12ZM334.395 292.196C334.803 292.196 335.151 292.084 335.439 291.86C335.727 291.628 335.915 291.316 336.003 290.924V289.94C335.907 289.596 335.707 289.312 335.403 289.088C335.099 288.864 334.751 288.752 334.359 288.752C334.055 288.752 333.779 288.824 333.531 288.968C333.283 289.112 333.083 289.312 332.931 289.568C332.787 289.824 332.715 290.12 332.715 290.456C332.715 290.784 332.791 291.08 332.943 291.344C333.095 291.6 333.299 291.808 333.555 291.968C333.811 292.12 334.091 292.196 334.395 292.196ZM339.542 285.848H340.67V288.044H342.026V288.932H340.67V293H339.542V288.932H338.63V288.044H339.542V285.848ZM345.462 293.12C344.99 293.12 344.562 293.02 344.178 292.82C343.802 292.62 343.502 292.328 343.278 291.944C343.062 291.552 342.954 291.076 342.954 290.516C342.954 289.956 343.066 289.476 343.29 289.076C343.522 288.676 343.83 288.368 344.214 288.152C344.606 287.936 345.034 287.828 345.498 287.828C345.946 287.828 346.326 287.924 346.638 288.116C346.95 288.308 347.194 288.54 347.37 288.812L347.454 288.032H348.486V293H347.37V292.184C347.274 292.312 347.134 292.448 346.95 292.592C346.774 292.736 346.558 292.86 346.302 292.964C346.054 293.068 345.774 293.12 345.462 293.12ZM345.762 292.196C346.17 292.196 346.518 292.084 346.806 291.86C347.094 291.628 347.282 291.316 347.37 290.924V289.94C347.274 289.596 347.074 289.312 346.77 289.088C346.466 288.864 346.118 288.752 345.726 288.752C345.422 288.752 345.146 288.824 344.898 288.968C344.65 289.112 344.45 289.312 344.298 289.568C344.154 289.824 344.082 290.12 344.082 290.456C344.082 290.784 344.158 291.08 344.31 291.344C344.462 291.6 344.666 291.808 344.922 291.968C345.178 292.12 345.458 292.196 345.762 292.196ZM353.465 293.12C353.041 293.12 352.665 293.04 352.337 292.88C352.017 292.712 351.753 292.5 351.545 292.244V293H350.429V283.7H351.545V288.704C351.745 288.44 352.025 288.228 352.385 288.068C352.745 287.908 353.153 287.828 353.609 287.828C354.049 287.828 354.453 287.936 354.821 288.152C355.189 288.36 355.485 288.66 355.709 289.052C355.933 289.444 356.045 289.904 356.045 290.432C356.045 291 355.925 291.484 355.685 291.884C355.445 292.284 355.129 292.592 354.737 292.808C354.345 293.016 353.921 293.12 353.465 293.12ZM353.225 292.16C353.713 292.16 354.113 292 354.425 291.68C354.745 291.352 354.905 290.936 354.905 290.432C354.905 290.112 354.829 289.824 354.677 289.568C354.533 289.304 354.333 289.096 354.077 288.944C353.829 288.792 353.545 288.716 353.225 288.716C352.809 288.716 352.449 288.828 352.145 289.052C351.841 289.276 351.641 289.564 351.545 289.916V290.936C351.641 291.288 351.837 291.58 352.133 291.812C352.429 292.044 352.793 292.16 353.225 292.16ZM359.618 293.12C359.146 293.12 358.718 293.02 358.334 292.82C357.958 292.62 357.658 292.328 357.434 291.944C357.218 291.552 357.11 291.076 357.11 290.516C357.11 289.956 357.222 289.476 357.446 289.076C357.678 288.676 357.986 288.368 358.37 288.152C358.762 287.936 359.19 287.828 359.654 287.828C360.102 287.828 360.482 287.924 360.794 288.116C361.106 288.308 361.35 288.54 361.526 288.812L361.61 288.032H362.642V293H361.526V292.184C361.43 292.312 361.29 292.448 361.106 292.592C360.93 292.736 360.714 292.86 360.458 292.964C360.21 293.068 359.93 293.12 359.618 293.12ZM359.918 292.196C360.326 292.196 360.674 292.084 360.962 291.86C361.25 291.628 361.438 291.316 361.526 290.924V289.94C361.43 289.596 361.23 289.312 360.926 289.088C360.622 288.864 360.274 288.752 359.882 288.752C359.578 288.752 359.302 288.824 359.054 288.968C358.806 289.112 358.606 289.312 358.454 289.568C358.31 289.824 358.238 290.12 358.238 290.456C358.238 290.784 358.314 291.08 358.466 291.344C358.618 291.6 358.822 291.808 359.078 291.968C359.334 292.12 359.614 292.196 359.918 292.196ZM365.989 293.096C365.629 293.096 365.281 293.036 364.945 292.916C364.617 292.788 364.345 292.6 364.129 292.352L364.609 291.704C364.809 291.904 365.021 292.056 365.245 292.16C365.469 292.256 365.685 292.304 365.893 292.304C366.133 292.304 366.341 292.256 366.517 292.16C366.701 292.064 366.793 291.9 366.793 291.668C366.793 291.492 366.733 291.352 366.613 291.248C366.501 291.144 366.353 291.064 366.169 291.008C365.993 290.944 365.809 290.88 365.617 290.816C364.769 290.544 364.345 290.06 364.345 289.364C364.345 289.108 364.409 288.864 364.537 288.632C364.673 288.4 364.869 288.212 365.125 288.068C365.389 287.924 365.713 287.852 366.097 287.852C366.441 287.852 366.749 287.896 367.021 287.984C367.293 288.072 367.549 288.212 367.789 288.404L367.345 289.088C367.201 288.944 367.029 288.836 366.829 288.764C366.637 288.684 366.461 288.64 366.301 288.632C366.085 288.632 365.893 288.684 365.725 288.788C365.565 288.892 365.485 289.036 365.485 289.22C365.477 289.388 365.529 289.524 365.641 289.628C365.753 289.724 365.897 289.804 366.073 289.868C366.257 289.932 366.441 289.992 366.625 290.048C366.985 290.168 367.289 290.332 367.537 290.54C367.793 290.748 367.921 291.052 367.921 291.452C367.921 291.9 367.761 292.288 367.441 292.616C367.121 292.936 366.637 293.096 365.989 293.096ZM371.788 293.12C371.228 293.12 370.74 293.008 370.324 292.784C369.916 292.552 369.6 292.236 369.376 291.836C369.16 291.436 369.052 290.984 369.052 290.48C369.052 289.992 369.172 289.548 369.412 289.148C369.66 288.74 369.992 288.42 370.408 288.188C370.832 287.948 371.3 287.828 371.812 287.828C372.468 287.828 373.012 288.02 373.444 288.404C373.876 288.788 374.172 289.316 374.332 289.988L370.396 291.368C370.532 291.616 370.724 291.812 370.972 291.956C371.22 292.092 371.5 292.16 371.812 292.16C372.036 292.16 372.248 292.12 372.448 292.04C372.648 291.96 372.84 291.856 373.024 291.728L373.54 292.556C373.284 292.724 373 292.86 372.688 292.964C372.384 293.068 372.084 293.12 371.788 293.12ZM370.156 290.42C370.148 290.516 370.152 290.608 370.168 290.696L373.06 289.628C372.948 289.388 372.784 289.176 372.568 288.992C372.36 288.808 372.08 288.716 371.728 288.716C371.272 288.716 370.896 288.876 370.6 289.196C370.304 289.516 370.156 289.924 370.156 290.42ZM377.122 293.096C376.762 293.096 376.414 293.036 376.078 292.916C375.75 292.788 375.478 292.6 375.262 292.352L375.742 291.704C375.942 291.904 376.154 292.056 376.378 292.16C376.602 292.256 376.818 292.304 377.026 292.304C377.266 292.304 377.474 292.256 377.65 292.16C377.834 292.064 377.926 291.9 377.926 291.668C377.926 291.492 377.866 291.352 377.746 291.248C377.634 291.144 377.486 291.064 377.302 291.008C377.126 290.944 376.942 290.88 376.75 290.816C375.902 290.544 375.478 290.06 375.478 289.364C375.478 289.108 375.542 288.864 375.67 288.632C375.806 288.4 376.002 288.212 376.258 288.068C376.522 287.924 376.846 287.852 377.23 287.852C377.574 287.852 377.882 287.896 378.154 287.984C378.426 288.072 378.682 288.212 378.922 288.404L378.478 289.088C378.334 288.944 378.162 288.836 377.962 288.764C377.77 288.684 377.594 288.64 377.434 288.632C377.218 288.632 377.026 288.684 376.858 288.788C376.698 288.892 376.618 289.036 376.618 289.22C376.61 289.388 376.662 289.524 376.774 289.628C376.886 289.724 377.03 289.804 377.206 289.868C377.39 289.932 377.574 289.992 377.758 290.048C378.118 290.168 378.422 290.332 378.67 290.54C378.926 290.748 379.054 291.052 379.054 291.452C379.054 291.9 378.894 292.288 378.574 292.616C378.254 292.936 377.77 293.096 377.122 293.096Z" fill="black"/>
<path d="M286.646 183.646C286.451 183.842 286.451 184.158 286.646 184.354L289.828 187.536C290.024 187.731 290.34 187.731 290.536 187.536C290.731 187.34 290.731 187.024 290.536 186.828L287.707 184L290.536 181.172C290.731 180.976 290.731 180.66 290.536 180.464C290.34 180.269 290.024 180.269 289.828 180.464L286.646 183.646ZM287 184.5L416 184.5L416 183.5L287 183.5L287 184.5Z" fill="black"/>
<path d="M334.736 173.872C334.44 173.72 334.116 173.588 333.764 173.476C333.412 173.364 333.072 173.308 332.744 173.308C332.272 173.308 331.896 173.416 331.616 173.632C331.344 173.848 331.208 174.14 331.208 174.508C331.208 174.772 331.296 174.996 331.472 175.18C331.656 175.364 331.888 175.528 332.168 175.672C332.456 175.808 332.76 175.936 333.08 176.056C333.44 176.192 333.788 176.356 334.124 176.548C334.46 176.74 334.736 177 334.952 177.328C335.176 177.648 335.288 178.08 335.288 178.624C335.288 179.088 335.172 179.508 334.94 179.884C334.708 180.252 334.38 180.548 333.956 180.772C333.532 180.988 333.028 181.096 332.444 181.096C331.868 181.096 331.332 181.004 330.836 180.82C330.348 180.636 329.932 180.424 329.588 180.184L330.104 179.26C330.384 179.476 330.728 179.664 331.136 179.824C331.552 179.984 331.948 180.064 332.324 180.064C332.604 180.064 332.876 180.016 333.14 179.92C333.412 179.824 333.636 179.672 333.812 179.464C333.988 179.248 334.076 178.972 334.076 178.636C334.076 178.348 333.996 178.104 333.836 177.904C333.676 177.704 333.468 177.536 333.212 177.4C332.964 177.256 332.692 177.128 332.396 177.016C332.124 176.92 331.848 176.808 331.568 176.68C331.288 176.552 331.028 176.4 330.788 176.224C330.556 176.04 330.368 175.816 330.224 175.552C330.08 175.288 330.008 174.968 330.008 174.592C330.008 174.136 330.116 173.74 330.332 173.404C330.556 173.06 330.86 172.792 331.244 172.6C331.628 172.4 332.072 172.292 332.576 172.276C333.128 172.276 333.616 172.344 334.04 172.48C334.472 172.616 334.852 172.78 335.18 172.972L334.736 173.872ZM339.26 181.12C338.7 181.12 338.212 181.008 337.796 180.784C337.388 180.552 337.072 180.236 336.848 179.836C336.632 179.436 336.524 178.984 336.524 178.48C336.524 177.992 336.644 177.548 336.884 177.148C337.132 176.74 337.464 176.42 337.88 176.188C338.304 175.948 338.772 175.828 339.284 175.828C339.94 175.828 340.484 176.02 340.916 176.404C341.348 176.788 341.644 177.316 341.804 177.988L337.868 179.368C338.004 179.616 338.196 179.812 338.444 179.956C338.692 180.092 338.972 180.16 339.284 180.16C339.508 180.16 339.72 180.12 339.92 180.04C340.12 179.96 340.312 179.856 340.496 179.728L341.012 180.556C340.756 180.724 340.472 180.86 340.16 180.964C339.856 181.068 339.556 181.12 339.26 181.12ZM337.628 178.42C337.62 178.516 337.624 178.608 337.64 178.696L340.532 177.628C340.42 177.388 340.256 177.176 340.04 176.992C339.832 176.808 339.552 176.716 339.2 176.716C338.744 176.716 338.368 176.876 338.072 177.196C337.776 177.516 337.628 177.924 337.628 178.42ZM344.187 176.032L344.271 177.196C344.407 176.916 344.595 176.676 344.835 176.476C345.075 176.268 345.323 176.112 345.579 176.008C345.843 175.896 346.071 175.836 346.263 175.828L346.215 176.944C345.839 176.928 345.507 177.004 345.219 177.172C344.931 177.332 344.707 177.552 344.547 177.832C344.387 178.112 344.307 178.412 344.307 178.732V181H343.191V176.032H344.187ZM349.718 181.144L346.958 176.032H348.29L349.79 179.212L351.182 176.032H352.43L349.778 181.144H349.718ZM353.632 176.032H354.748V181H353.632V176.032ZM353.548 174.244C353.548 174.06 353.616 173.912 353.752 173.8C353.896 173.68 354.052 173.62 354.22 173.62C354.388 173.62 354.54 173.68 354.676 173.8C354.812 173.912 354.88 174.06 354.88 174.244C354.88 174.428 354.812 174.58 354.676 174.7C354.54 174.812 354.388 174.868 354.22 174.868C354.052 174.868 353.896 174.812 353.752 174.7C353.616 174.58 353.548 174.428 353.548 174.244ZM360.723 180.532C360.499 180.716 360.231 180.86 359.919 180.964C359.607 181.068 359.295 181.12 358.983 181.12C358.447 181.12 357.971 181.012 357.555 180.796C357.147 180.58 356.827 180.276 356.595 179.884C356.371 179.492 356.259 179.032 356.259 178.504C356.259 177.976 356.379 177.52 356.619 177.136C356.867 176.744 357.187 176.44 357.579 176.224C357.979 176.008 358.411 175.9 358.875 175.9C359.275 175.9 359.631 175.956 359.943 176.068C360.255 176.18 360.527 176.332 360.759 176.524L360.195 177.256C360.051 177.152 359.875 177.056 359.667 176.968C359.459 176.872 359.227 176.824 358.971 176.824C358.675 176.824 358.407 176.9 358.167 177.052C357.927 177.196 357.735 177.396 357.591 177.652C357.447 177.9 357.375 178.184 357.375 178.504C357.375 178.816 357.447 179.1 357.591 179.356C357.735 179.612 357.935 179.816 358.191 179.968C358.447 180.12 358.743 180.196 359.079 180.196C359.287 180.196 359.479 180.164 359.655 180.1C359.839 180.036 360.003 179.948 360.147 179.836L360.723 180.532ZM364.467 181.12C363.907 181.12 363.419 181.008 363.003 180.784C362.595 180.552 362.279 180.236 362.055 179.836C361.839 179.436 361.731 178.984 361.731 178.48C361.731 177.992 361.851 177.548 362.091 177.148C362.339 176.74 362.671 176.42 363.087 176.188C363.511 175.948 363.979 175.828 364.491 175.828C365.147 175.828 365.691 176.02 366.123 176.404C366.555 176.788 366.851 177.316 367.011 177.988L363.075 179.368C363.211 179.616 363.403 179.812 363.651 179.956C363.899 180.092 364.179 180.16 364.491 180.16C364.715 180.16 364.927 180.12 365.127 180.04C365.327 179.96 365.519 179.856 365.703 179.728L366.219 180.556C365.963 180.724 365.679 180.86 365.367 180.964C365.063 181.068 364.763 181.12 364.467 181.12ZM362.835 178.42C362.827 178.516 362.831 178.608 362.847 178.696L365.739 177.628C365.627 177.388 365.463 177.176 365.247 176.992C365.039 176.808 364.759 176.716 364.407 176.716C363.951 176.716 363.575 176.876 363.279 177.196C362.983 177.516 362.835 177.924 362.835 178.42ZM369.802 181.096C369.442 181.096 369.094 181.036 368.758 180.916C368.43 180.788 368.158 180.6 367.942 180.352L368.422 179.704C368.622 179.904 368.834 180.056 369.058 180.16C369.282 180.256 369.498 180.304 369.706 180.304C369.946 180.304 370.154 180.256 370.33 180.16C370.514 180.064 370.606 179.9 370.606 179.668C370.606 179.492 370.546 179.352 370.426 179.248C370.314 179.144 370.166 179.064 369.982 179.008C369.806 178.944 369.622 178.88 369.43 178.816C368.582 178.544 368.158 178.06 368.158 177.364C368.158 177.108 368.222 176.864 368.35 176.632C368.486 176.4 368.682 176.212 368.938 176.068C369.202 175.924 369.526 175.852 369.91 175.852C370.254 175.852 370.562 175.896 370.834 175.984C371.106 176.072 371.362 176.212 371.602 176.404L371.158 177.088C371.014 176.944 370.842 176.836 370.642 176.764C370.45 176.684 370.274 176.64 370.114 176.632C369.898 176.632 369.706 176.684 369.538 176.788C369.378 176.892 369.298 177.036 369.298 177.22C369.29 177.388 369.342 177.524 369.454 177.628C369.566 177.724 369.71 177.804 369.886 177.868C370.07 177.932 370.254 177.992 370.438 178.048C370.798 178.168 371.102 178.332 371.35 178.54C371.606 178.748 371.734 179.052 371.734 179.452C371.734 179.9 371.574 180.288 371.254 180.616C370.934 180.936 370.45 181.096 369.802 181.096Z" fill="black"/>
<path d="M286.646 54.6464C286.451 54.8417 286.451 55.1583 286.646 55.3536L289.828 58.5355C290.024 58.7308 290.34 58.7308 290.536 58.5355C290.731 58.3403 290.731 58.0237 290.536 57.8284L287.707 55L290.536 52.1716C290.731 51.9763 290.731 51.6597 290.536 51.4645C290.34 51.2692 290.024 51.2692 289.828 51.4645L286.646 54.6464ZM287 55.5L416 55.5L416 54.5L287 54.5L287 55.5Z" fill="black"/>
<path d="M286.646 89.6464C286.451 89.8417 286.451 90.1583 286.646 90.3536L289.828 93.5355C290.024 93.7308 290.34 93.7308 290.536 93.5355C290.731 93.3403 290.731 93.0237 290.536 92.8284L287.707 90L290.536 87.1716C290.731 86.9763 290.731 86.6597 290.536 86.4645C290.34 86.2692 290.024 86.2692 289.828 86.4645L286.646 89.6464ZM287 90.5L416 90.5L416 89.5L287 89.5L287 90.5Z" fill="black"/>
<path d="M336.608 43.048C336.04 44.584 335.476 46.116 334.916 47.644C334.356 49.172 333.792 50.7 333.224 52.228H332.204C332.772 50.7 333.336 49.172 333.896 47.644C334.456 46.116 335.02 44.584 335.588 43.048H336.608ZM337.589 52V42.7H338.681V47.932C338.857 47.612 339.117 47.352 339.461 47.152C339.805 46.944 340.209 46.84 340.673 46.84C341.137 46.84 341.517 46.98 341.813 47.26C342.117 47.532 342.277 47.888 342.293 48.328V52H341.165V48.712C341.149 48.448 341.065 48.232 340.913 48.064C340.769 47.896 340.541 47.808 340.229 47.8C339.941 47.8 339.681 47.884 339.449 48.052C339.225 48.212 339.045 48.432 338.909 48.712C338.773 48.992 338.705 49.312 338.705 49.672V52H337.589ZM346.526 52.12C345.966 52.12 345.478 52.008 345.062 51.784C344.654 51.552 344.338 51.236 344.114 50.836C343.898 50.436 343.79 49.984 343.79 49.48C343.79 48.992 343.91 48.548 344.15 48.148C344.398 47.74 344.73 47.42 345.146 47.188C345.57 46.948 346.038 46.828 346.55 46.828C347.206 46.828 347.75 47.02 348.182 47.404C348.614 47.788 348.91 48.316 349.07 48.988L345.134 50.368C345.27 50.616 345.462 50.812 345.71 50.956C345.958 51.092 346.238 51.16 346.55 51.16C346.774 51.16 346.986 51.12 347.186 51.04C347.386 50.96 347.578 50.856 347.762 50.728L348.278 51.556C348.022 51.724 347.738 51.86 347.426 51.964C347.122 52.068 346.822 52.12 346.526 52.12ZM344.894 49.42C344.886 49.516 344.89 49.608 344.906 49.696L347.798 48.628C347.686 48.388 347.522 48.176 347.306 47.992C347.098 47.808 346.818 47.716 346.466 47.716C346.01 47.716 345.634 47.876 345.338 48.196C345.042 48.516 344.894 48.924 344.894 49.42ZM352.532 52.12C352.06 52.12 351.632 52.02 351.248 51.82C350.872 51.62 350.572 51.328 350.348 50.944C350.132 50.552 350.024 50.076 350.024 49.516C350.024 48.956 350.136 48.476 350.36 48.076C350.592 47.676 350.9 47.368 351.284 47.152C351.676 46.936 352.104 46.828 352.568 46.828C353.016 46.828 353.396 46.924 353.708 47.116C354.02 47.308 354.264 47.54 354.44 47.812L354.524 47.032H355.556V52H354.44V51.184C354.344 51.312 354.204 51.448 354.02 51.592C353.844 51.736 353.628 51.86 353.372 51.964C353.124 52.068 352.844 52.12 352.532 52.12ZM352.832 51.196C353.24 51.196 353.588 51.084 353.876 50.86C354.164 50.628 354.352 50.316 354.44 49.924V48.94C354.344 48.596 354.144 48.312 353.84 48.088C353.536 47.864 353.188 47.752 352.796 47.752C352.492 47.752 352.216 47.824 351.968 47.968C351.72 48.112 351.52 48.312 351.368 48.568C351.224 48.824 351.152 49.12 351.152 49.456C351.152 49.784 351.228 50.08 351.38 50.344C351.532 50.6 351.736 50.808 351.992 50.968C352.248 51.12 352.528 51.196 352.832 51.196ZM357.499 42.7H358.615V52H357.499V42.7ZM361.038 44.848H362.166V47.044H363.522V47.932H362.166V52H361.038V47.932H360.126V47.044H361.038V44.848ZM364.882 52V42.7H365.974V47.932C366.15 47.612 366.41 47.352 366.754 47.152C367.098 46.944 367.502 46.84 367.966 46.84C368.43 46.84 368.81 46.98 369.106 47.26C369.41 47.532 369.57 47.888 369.586 48.328V52H368.458V48.712C368.442 48.448 368.358 48.232 368.206 48.064C368.062 47.896 367.834 47.808 367.522 47.8C367.234 47.8 366.974 47.884 366.742 48.052C366.518 48.212 366.338 48.432 366.202 48.712C366.066 48.992 365.998 49.312 365.998 49.672V52H364.882Z" fill="black"/>
<path d="M333.608 78.048C333.04 79.584 332.476 81.116 331.916 82.644C331.356 84.172 330.792 85.7 330.224 87.228H329.204C329.772 85.7 330.336 84.172 330.896 82.644C331.456 81.116 332.02 79.584 332.588 78.048H333.608ZM335.597 82.032L335.669 82.98C335.861 82.62 336.121 82.34 336.449 82.14C336.785 81.932 337.169 81.828 337.601 81.828C338.009 81.828 338.349 81.924 338.621 82.116C338.901 82.308 339.073 82.568 339.137 82.896C339.337 82.56 339.597 82.3 339.917 82.116C340.245 81.924 340.593 81.828 340.961 81.828C341.441 81.828 341.821 81.968 342.101 82.248C342.389 82.528 342.541 82.884 342.557 83.316V87H341.441V83.736C341.425 83.48 341.357 83.268 341.237 83.1C341.125 82.924 340.929 82.828 340.649 82.812C340.353 82.812 340.093 82.9 339.869 83.076C339.645 83.244 339.469 83.468 339.341 83.748C339.213 84.028 339.145 84.324 339.137 84.636V87H338.009V83.736C338.001 83.48 337.933 83.268 337.805 83.1C337.685 82.924 337.481 82.828 337.193 82.812C336.905 82.812 336.649 82.9 336.425 83.076C336.201 83.244 336.025 83.468 335.897 83.748C335.769 84.028 335.705 84.328 335.705 84.648V87H334.589V82.032H335.597ZM346.796 87.12C346.236 87.12 345.748 87.008 345.332 86.784C344.924 86.552 344.608 86.236 344.384 85.836C344.168 85.436 344.06 84.984 344.06 84.48C344.06 83.992 344.18 83.548 344.42 83.148C344.668 82.74 345 82.42 345.416 82.188C345.84 81.948 346.308 81.828 346.82 81.828C347.476 81.828 348.02 82.02 348.452 82.404C348.884 82.788 349.18 83.316 349.34 83.988L345.404 85.368C345.54 85.616 345.732 85.812 345.98 85.956C346.228 86.092 346.508 86.16 346.82 86.16C347.044 86.16 347.256 86.12 347.456 86.04C347.656 85.96 347.848 85.856 348.032 85.728L348.548 86.556C348.292 86.724 348.008 86.86 347.696 86.964C347.392 87.068 347.092 87.12 346.796 87.12ZM345.164 84.42C345.156 84.516 345.16 84.608 345.176 84.696L348.068 83.628C347.956 83.388 347.792 83.176 347.576 82.992C347.368 82.808 347.088 82.716 346.736 82.716C346.28 82.716 345.904 82.876 345.608 83.196C345.312 83.516 345.164 83.924 345.164 84.42ZM351.206 79.848H352.334V82.044H353.69V82.932H352.334V87H351.206V82.932H350.294V82.044H351.206V79.848ZM356.046 82.032L356.13 83.196C356.266 82.916 356.454 82.676 356.694 82.476C356.934 82.268 357.182 82.112 357.438 82.008C357.702 81.896 357.93 81.836 358.122 81.828L358.074 82.944C357.698 82.928 357.366 83.004 357.078 83.172C356.79 83.332 356.566 83.552 356.406 83.832C356.246 84.112 356.166 84.412 356.166 84.732V87H355.05V82.032H356.046ZM359.562 82.032H360.678V87H359.562V82.032ZM359.478 80.244C359.478 80.06 359.546 79.912 359.682 79.8C359.826 79.68 359.982 79.62 360.15 79.62C360.318 79.62 360.47 79.68 360.606 79.8C360.742 79.912 360.81 80.06 360.81 80.244C360.81 80.428 360.742 80.58 360.606 80.7C360.47 80.812 360.318 80.868 360.15 80.868C359.982 80.868 359.826 80.812 359.682 80.7C359.546 80.58 359.478 80.428 359.478 80.244ZM366.652 86.532C366.428 86.716 366.16 86.86 365.848 86.964C365.536 87.068 365.224 87.12 364.912 87.12C364.376 87.12 363.9 87.012 363.484 86.796C363.076 86.58 362.756 86.276 362.524 85.884C362.3 85.492 362.188 85.032 362.188 84.504C362.188 83.976 362.308 83.52 362.548 83.136C362.796 82.744 363.116 82.44 363.508 82.224C363.908 82.008 364.34 81.9 364.804 81.9C365.204 81.9 365.56 81.956 365.872 82.068C366.184 82.18 366.456 82.332 366.688 82.524L366.124 83.256C365.98 83.152 365.804 83.056 365.596 82.968C365.388 82.872 365.156 82.824 364.9 82.824C364.604 82.824 364.336 82.9 364.096 83.052C363.856 83.196 363.664 83.396 363.52 83.652C363.376 83.9 363.304 84.184 363.304 84.504C363.304 84.816 363.376 85.1 363.52 85.356C363.664 85.612 363.864 85.816 364.12 85.968C364.376 86.12 364.672 86.196 365.008 86.196C365.216 86.196 365.408 86.164 365.584 86.1C365.768 86.036 365.932 85.948 366.076 85.836L366.652 86.532ZM369.497 87.096C369.137 87.096 368.789 87.036 368.453 86.916C368.125 86.788 367.853 86.6 367.637 86.352L368.117 85.704C368.317 85.904 368.529 86.056 368.753 86.16C368.977 86.256 369.193 86.304 369.401 86.304C369.641 86.304 369.849 86.256 370.025 86.16C370.209 86.064 370.301 85.9 370.301 85.668C370.301 85.492 370.241 85.352 370.121 85.248C370.009 85.144 369.861 85.064 369.677 85.008C369.501 84.944 369.317 84.88 369.125 84.816C368.277 84.544 367.853 84.06 367.853 83.364C367.853 83.108 367.917 82.864 368.045 82.632C368.181 82.4 368.377 82.212 368.633 82.068C368.897 81.924 369.221 81.852 369.605 81.852C369.949 81.852 370.257 81.896 370.529 81.984C370.801 82.072 371.057 82.212 371.297 82.404L370.853 83.088C370.709 82.944 370.537 82.836 370.337 82.764C370.145 82.684 369.969 82.64 369.809 82.632C369.593 82.632 369.401 82.684 369.233 82.788C369.073 82.892 368.993 83.036 368.993 83.22C368.985 83.388 369.037 83.524 369.149 83.628C369.261 83.724 369.405 83.804 369.581 83.868C369.765 83.932 369.949 83.992 370.133 84.048C370.493 84.168 370.797 84.332 371.045 84.54C371.301 84.748 371.429 85.052 371.429 85.452C371.429 85.9 371.269 86.288 370.949 86.616C370.629 86.936 370.145 87.096 369.497 87.096Z" fill="black"/>
<path d="M207.354 149.354C207.158 149.549 206.842 149.549 206.646 149.354L203.464 146.172C203.269 145.976 203.269 145.66 203.464 145.464C203.66 145.269 203.976 145.269 204.172 145.464L207 148.293L209.828 145.464C210.024 145.269 210.34 145.269 210.536 145.464C210.731 145.66 210.731 145.976 210.536 146.172L207.354 149.354ZM207.5 127V149H206.5V127H207.5Z" fill="black"/>
<path d="M139.5 58C139.5 47.2304 148.23 38.5 159 38.5H257C267.77 38.5 276.5 47.2304 276.5 58V101C276.5 111.77 267.77 120.5 257 120.5H159C148.23 120.5 139.5 111.77 139.5 101V58Z" fill="#4285F4" stroke="#4285F4"/>
<path d="M170.36 85.46C169.992 85.46 169.668 85.416 169.388 85.328C169.108 85.248 168.852 85.132 168.62 84.98C168.396 84.828 168.18 84.656 167.972 84.464L168.62 83.708C168.884 83.956 169.152 84.148 169.424 84.284C169.696 84.42 170 84.488 170.336 84.488C170.712 84.488 171.028 84.424 171.284 84.296C171.548 84.176 171.748 84.004 171.884 83.78C172.02 83.564 172.088 83.312 172.088 83.024L172.1 81.68L172.196 81.896C172.052 82.24 171.792 82.532 171.416 82.772C171.04 83.004 170.584 83.12 170.048 83.12C169.592 83.12 169.172 83.004 168.788 82.772C168.412 82.54 168.108 82.228 167.876 81.836C167.652 81.436 167.54 80.988 167.54 80.492C167.54 79.972 167.66 79.516 167.9 79.124C168.14 78.724 168.456 78.408 168.848 78.176C169.24 77.944 169.668 77.828 170.132 77.828C170.572 77.828 170.972 77.92 171.332 78.104C171.7 78.28 171.968 78.508 172.136 78.788L172.076 78.992L172.196 78.032H173.216V83.036C173.216 83.484 173.1 83.892 172.868 84.26C172.636 84.628 172.308 84.92 171.884 85.136C171.46 85.352 170.952 85.46 170.36 85.46ZM168.656 80.468C168.656 80.788 168.732 81.08 168.884 81.344C169.036 81.608 169.24 81.816 169.496 81.968C169.76 82.12 170.052 82.196 170.372 82.196C170.668 82.196 170.932 82.144 171.164 82.04C171.404 81.928 171.604 81.78 171.764 81.596C171.924 81.404 172.036 81.184 172.1 80.936V79.952C172.028 79.712 171.908 79.504 171.74 79.328C171.572 79.144 171.372 79.004 171.14 78.908C170.908 78.804 170.652 78.752 170.372 78.752C170.052 78.752 169.76 78.824 169.496 78.968C169.24 79.112 169.036 79.316 168.884 79.58C168.732 79.836 168.656 80.132 168.656 80.468ZM177.724 74.324C178.164 74.324 178.568 74.384 178.936 74.504C179.312 74.616 179.636 74.788 179.908 75.02C180.188 75.244 180.404 75.524 180.556 75.86C180.716 76.188 180.796 76.572 180.796 77.012C180.796 77.356 180.744 77.692 180.64 78.02C180.544 78.348 180.38 78.648 180.148 78.92C179.916 79.184 179.612 79.4 179.236 79.568C178.868 79.728 178.412 79.808 177.868 79.808H176.584V83H175.42V74.324H177.724ZM177.844 78.692C178.188 78.692 178.472 78.64 178.696 78.536C178.928 78.432 179.108 78.3 179.236 78.14C179.364 77.972 179.456 77.792 179.512 77.6C179.568 77.408 179.596 77.228 179.596 77.06C179.596 76.884 179.564 76.704 179.5 76.52C179.444 76.328 179.348 76.152 179.212 75.992C179.084 75.832 178.912 75.7 178.696 75.596C178.488 75.492 178.232 75.44 177.928 75.44H176.584V78.692H177.844ZM179.272 79.352L181.54 83H180.196L177.892 79.388L179.272 79.352ZM185.646 74.324C186.278 74.324 186.818 74.432 187.266 74.648C187.714 74.856 188.058 75.16 188.298 75.56C188.546 75.96 188.67 76.444 188.67 77.012C188.67 77.356 188.618 77.696 188.514 78.032C188.41 78.36 188.242 78.66 188.01 78.932C187.786 79.196 187.49 79.408 187.122 79.568C186.754 79.728 186.306 79.808 185.778 79.808H184.494V83H183.33V74.324H185.646ZM185.766 78.692C186.11 78.692 186.394 78.636 186.618 78.524C186.842 78.412 187.018 78.272 187.146 78.104C187.274 77.928 187.366 77.744 187.422 77.552C187.478 77.36 187.506 77.188 187.506 77.036C187.506 76.86 187.478 76.68 187.422 76.496C187.366 76.304 187.27 76.132 187.134 75.98C187.006 75.82 186.834 75.692 186.618 75.596C186.41 75.492 186.15 75.44 185.838 75.44H184.494V78.692H185.766ZM196.839 82.352C196.695 82.448 196.499 82.556 196.251 82.676C196.003 82.796 195.711 82.896 195.375 82.976C195.047 83.056 194.687 83.096 194.295 83.096C193.623 83.088 193.015 82.968 192.471 82.736C191.935 82.504 191.479 82.188 191.103 81.788C190.727 81.388 190.435 80.928 190.227 80.408C190.027 79.88 189.927 79.32 189.927 78.728C189.927 78.08 190.031 77.484 190.239 76.94C190.455 76.388 190.755 75.912 191.139 75.512C191.523 75.104 191.975 74.788 192.495 74.564C193.023 74.34 193.599 74.228 194.223 74.228C194.743 74.228 195.215 74.3 195.639 74.444C196.063 74.58 196.427 74.744 196.731 74.936L196.263 76.016C196.023 75.856 195.731 75.704 195.387 75.56C195.051 75.416 194.675 75.344 194.259 75.344C193.835 75.344 193.435 75.428 193.059 75.596C192.683 75.764 192.351 76 192.063 76.304C191.775 76.608 191.547 76.964 191.379 77.372C191.219 77.772 191.139 78.204 191.139 78.668C191.139 79.14 191.211 79.58 191.355 79.988C191.507 80.388 191.719 80.736 191.991 81.032C192.271 81.328 192.607 81.56 192.999 81.728C193.391 81.896 193.831 81.98 194.319 81.98C194.759 81.98 195.151 81.912 195.495 81.776C195.839 81.64 196.123 81.488 196.347 81.32L196.839 82.352ZM209.388 82.256C209.268 82.36 209.1 82.464 208.884 82.568C208.668 82.664 208.428 82.752 208.164 82.832C207.908 82.912 207.64 82.976 207.36 83.024C207.088 83.072 206.832 83.096 206.592 83.096C205.896 83.096 205.268 82.988 204.708 82.772C204.156 82.556 203.68 82.256 203.28 81.872C202.888 81.488 202.584 81.036 202.368 80.516C202.16 79.996 202.056 79.432 202.056 78.824C202.056 78.104 202.172 77.46 202.404 76.892C202.644 76.316 202.968 75.832 203.376 75.44C203.792 75.04 204.268 74.74 204.804 74.54C205.34 74.332 205.908 74.228 206.508 74.228C207.012 74.228 207.48 74.288 207.912 74.408C208.344 74.528 208.724 74.68 209.052 74.864L208.656 75.932C208.496 75.836 208.296 75.748 208.056 75.668C207.824 75.588 207.584 75.524 207.336 75.476C207.088 75.42 206.856 75.392 206.64 75.392C206.128 75.392 205.664 75.472 205.248 75.632C204.832 75.784 204.476 76.008 204.18 76.304C203.884 76.592 203.656 76.944 203.496 77.36C203.336 77.768 203.256 78.228 203.256 78.74C203.256 79.212 203.336 79.644 203.496 80.036C203.656 80.428 203.884 80.768 204.18 81.056C204.476 81.336 204.828 81.556 205.236 81.716C205.652 81.868 206.108 81.944 206.604 81.944C206.9 81.944 207.192 81.916 207.48 81.86C207.768 81.796 208.016 81.708 208.224 81.596V79.868H206.496V78.752H209.388V82.256ZM213.395 83.12C212.931 83.12 212.507 83.02 212.123 82.82C211.747 82.62 211.447 82.328 211.223 81.944C211.007 81.552 210.899 81.076 210.899 80.516C210.899 79.964 211.015 79.488 211.247 79.088C211.479 78.68 211.787 78.368 212.171 78.152C212.563 77.936 212.991 77.828 213.455 77.828C213.919 77.828 214.311 77.936 214.631 78.152C214.951 78.36 215.195 78.608 215.363 78.896L215.291 79.088L215.399 78.032H216.431V83H215.315V81.704L215.435 81.992C215.403 82.072 215.331 82.176 215.219 82.304C215.115 82.424 214.971 82.548 214.787 82.676C214.611 82.804 214.407 82.912 214.175 83C213.943 83.08 213.683 83.12 213.395 83.12ZM213.695 82.196C213.975 82.196 214.227 82.144 214.451 82.04C214.675 81.936 214.859 81.792 215.003 81.608C215.155 81.416 215.259 81.188 215.315 80.924V79.952C215.251 79.712 215.139 79.504 214.979 79.328C214.819 79.144 214.627 79.004 214.403 78.908C214.179 78.804 213.931 78.752 213.659 78.752C213.363 78.752 213.091 78.824 212.843 78.968C212.595 79.112 212.395 79.312 212.243 79.568C212.099 79.824 212.027 80.124 212.027 80.468C212.027 80.788 212.103 81.08 212.255 81.344C212.407 81.608 212.611 81.816 212.867 81.968C213.123 82.12 213.399 82.196 213.695 82.196ZM218.843 75.848H219.959V78.056H221.327V78.932H219.959V83H218.843V78.932H217.931V78.056H218.843V75.848ZM224.979 83.12C224.411 83.12 223.923 83.008 223.515 82.784C223.107 82.552 222.791 82.24 222.567 81.848C222.351 81.448 222.243 80.992 222.243 80.48C222.243 79.992 222.367 79.548 222.615 79.148C222.863 78.748 223.195 78.428 223.611 78.188C224.027 77.948 224.491 77.828 225.003 77.828C225.659 77.828 226.203 78.02 226.635 78.404C227.067 78.788 227.359 79.316 227.511 79.988L223.419 81.428L223.155 80.768L226.515 79.544L226.275 79.7C226.179 79.436 226.019 79.208 225.795 79.016C225.571 78.816 225.279 78.716 224.919 78.716C224.615 78.716 224.343 78.792 224.103 78.944C223.863 79.088 223.675 79.288 223.539 79.544C223.403 79.8 223.335 80.092 223.335 80.42C223.335 80.764 223.407 81.068 223.551 81.332C223.695 81.588 223.891 81.792 224.139 81.944C224.395 82.088 224.683 82.16 225.003 82.16C225.219 82.16 225.427 82.12 225.627 82.04C225.835 81.96 226.027 81.856 226.203 81.728L226.719 82.556C226.471 82.724 226.191 82.86 225.879 82.964C225.575 83.068 225.275 83.12 224.979 83.12ZM231.949 78.032L233.413 81.38L233.197 81.404L234.565 78.032H235.657L233.377 83.3L231.781 79.892L230.329 83.3L228.025 78.032H229.117L230.665 81.536L230.281 81.464L231.385 78.896L230.989 78.032H231.949ZM238.755 83.12C238.291 83.12 237.867 83.02 237.483 82.82C237.107 82.62 236.807 82.328 236.583 81.944C236.367 81.552 236.259 81.076 236.259 80.516C236.259 79.964 236.375 79.488 236.607 79.088C236.839 78.68 237.147 78.368 237.531 78.152C237.923 77.936 238.351 77.828 238.815 77.828C239.279 77.828 239.671 77.936 239.991 78.152C240.311 78.36 240.555 78.608 240.723 78.896L240.651 79.088L240.759 78.032H241.791V83H240.675V81.704L240.795 81.992C240.763 82.072 240.691 82.176 240.579 82.304C240.475 82.424 240.331 82.548 240.147 82.676C239.971 82.804 239.767 82.912 239.535 83C239.303 83.08 239.043 83.12 238.755 83.12ZM239.055 82.196C239.335 82.196 239.587 82.144 239.811 82.04C240.035 81.936 240.219 81.792 240.363 81.608C240.515 81.416 240.619 81.188 240.675 80.924V79.952C240.611 79.712 240.499 79.504 240.339 79.328C240.179 79.144 239.987 79.004 239.763 78.908C239.539 78.804 239.291 78.752 239.019 78.752C238.723 78.752 238.451 78.824 238.203 78.968C237.955 79.112 237.755 79.312 237.603 79.568C237.459 79.824 237.387 80.124 237.387 80.468C237.387 80.788 237.463 81.08 237.615 81.344C237.767 81.608 237.971 81.816 238.227 81.968C238.483 82.12 238.759 82.196 239.055 82.196ZM244.142 85.388L247.418 78.032H248.45L245.246 85.388H244.142ZM245.366 83.036L242.978 78.032H244.238L246.242 82.472L245.366 83.036Z" fill="white"/>
<path d="M139.5 174C139.5 163.23 148.23 154.5 159 154.5H257C267.77 154.5 276.5 163.23 276.5 174V217C276.5 227.77 267.77 236.5 257 236.5H159C148.23 236.5 139.5 227.77 139.5 217V174Z" fill="#4285F4" stroke="#4285F4"/>
<path d="M175.36 201.46C174.992 201.46 174.668 201.416 174.388 201.328C174.108 201.248 173.852 201.132 173.62 200.98C173.396 200.828 173.18 200.656 172.972 200.464L173.62 199.708C173.884 199.956 174.152 200.148 174.424 200.284C174.696 200.42 175 200.488 175.336 200.488C175.712 200.488 176.028 200.424 176.284 200.296C176.548 200.176 176.748 200.004 176.884 199.78C177.02 199.564 177.088 199.312 177.088 199.024L177.1 197.68L177.196 197.896C177.052 198.24 176.792 198.532 176.416 198.772C176.04 199.004 175.584 199.12 175.048 199.12C174.592 199.12 174.172 199.004 173.788 198.772C173.412 198.54 173.108 198.228 172.876 197.836C172.652 197.436 172.54 196.988 172.54 196.492C172.54 195.972 172.66 195.516 172.9 195.124C173.14 194.724 173.456 194.408 173.848 194.176C174.24 193.944 174.668 193.828 175.132 193.828C175.572 193.828 175.972 193.92 176.332 194.104C176.7 194.28 176.968 194.508 177.136 194.788L177.076 194.992L177.196 194.032H178.216V199.036C178.216 199.484 178.1 199.892 177.868 200.26C177.636 200.628 177.308 200.92 176.884 201.136C176.46 201.352 175.952 201.46 175.36 201.46ZM173.656 196.468C173.656 196.788 173.732 197.08 173.884 197.344C174.036 197.608 174.24 197.816 174.496 197.968C174.76 198.12 175.052 198.196 175.372 198.196C175.668 198.196 175.932 198.144 176.164 198.04C176.404 197.928 176.604 197.78 176.764 197.596C176.924 197.404 177.036 197.184 177.1 196.936V195.952C177.028 195.712 176.908 195.504 176.74 195.328C176.572 195.144 176.372 195.004 176.14 194.908C175.908 194.804 175.652 194.752 175.372 194.752C175.052 194.752 174.76 194.824 174.496 194.968C174.24 195.112 174.036 195.316 173.884 195.58C173.732 195.836 173.656 196.132 173.656 196.468ZM182.724 190.324C183.164 190.324 183.568 190.384 183.936 190.504C184.312 190.616 184.636 190.788 184.908 191.02C185.188 191.244 185.404 191.524 185.556 191.86C185.716 192.188 185.796 192.572 185.796 193.012C185.796 193.356 185.744 193.692 185.64 194.02C185.544 194.348 185.38 194.648 185.148 194.92C184.916 195.184 184.612 195.4 184.236 195.568C183.868 195.728 183.412 195.808 182.868 195.808H181.584V199H180.42V190.324H182.724ZM182.844 194.692C183.188 194.692 183.472 194.64 183.696 194.536C183.928 194.432 184.108 194.3 184.236 194.14C184.364 193.972 184.456 193.792 184.512 193.6C184.568 193.408 184.596 193.228 184.596 193.06C184.596 192.884 184.564 192.704 184.5 192.52C184.444 192.328 184.348 192.152 184.212 191.992C184.084 191.832 183.912 191.7 183.696 191.596C183.488 191.492 183.232 191.44 182.928 191.44H181.584V194.692H182.844ZM184.272 195.352L186.54 199H185.196L182.892 195.388L184.272 195.352ZM190.646 190.324C191.278 190.324 191.818 190.432 192.266 190.648C192.714 190.856 193.058 191.16 193.298 191.56C193.546 191.96 193.67 192.444 193.67 193.012C193.67 193.356 193.618 193.696 193.514 194.032C193.41 194.36 193.242 194.66 193.01 194.932C192.786 195.196 192.49 195.408 192.122 195.568C191.754 195.728 191.306 195.808 190.778 195.808H189.494V199H188.33V190.324H190.646ZM190.766 194.692C191.11 194.692 191.394 194.636 191.618 194.524C191.842 194.412 192.018 194.272 192.146 194.104C192.274 193.928 192.366 193.744 192.422 193.552C192.478 193.36 192.506 193.188 192.506 193.036C192.506 192.86 192.478 192.68 192.422 192.496C192.366 192.304 192.27 192.132 192.134 191.98C192.006 191.82 191.834 191.692 191.618 191.596C191.41 191.492 191.15 191.44 190.838 191.44H189.494V194.692H190.766ZM201.839 198.352C201.695 198.448 201.499 198.556 201.251 198.676C201.003 198.796 200.711 198.896 200.375 198.976C200.047 199.056 199.687 199.096 199.295 199.096C198.623 199.088 198.015 198.968 197.471 198.736C196.935 198.504 196.479 198.188 196.103 197.788C195.727 197.388 195.435 196.928 195.227 196.408C195.027 195.88 194.927 195.32 194.927 194.728C194.927 194.08 195.031 193.484 195.239 192.94C195.455 192.388 195.755 191.912 196.139 191.512C196.523 191.104 196.975 190.788 197.495 190.564C198.023 190.34 198.599 190.228 199.223 190.228C199.743 190.228 200.215 190.3 200.639 190.444C201.063 190.58 201.427 190.744 201.731 190.936L201.263 192.016C201.023 191.856 200.731 191.704 200.387 191.56C200.051 191.416 199.675 191.344 199.259 191.344C198.835 191.344 198.435 191.428 198.059 191.596C197.683 191.764 197.351 192 197.063 192.304C196.775 192.608 196.547 192.964 196.379 193.372C196.219 193.772 196.139 194.204 196.139 194.668C196.139 195.14 196.211 195.58 196.355 195.988C196.507 196.388 196.719 196.736 196.991 197.032C197.271 197.328 197.607 197.56 197.999 197.728C198.391 197.896 198.831 197.98 199.319 197.98C199.759 197.98 200.151 197.912 200.495 197.776C200.839 197.64 201.123 197.488 201.347 197.32L201.839 198.352ZM212.084 191.872C211.788 191.72 211.464 191.588 211.112 191.476C210.76 191.364 210.416 191.308 210.08 191.308C209.616 191.308 209.244 191.416 208.964 191.632C208.692 191.848 208.556 192.136 208.556 192.496C208.556 192.768 208.644 193 208.82 193.192C208.996 193.376 209.228 193.536 209.516 193.672C209.804 193.808 210.104 193.936 210.416 194.056C210.688 194.16 210.956 194.276 211.22 194.404C211.484 194.532 211.72 194.692 211.928 194.884C212.144 195.076 212.312 195.312 212.432 195.592C212.56 195.872 212.624 196.22 212.624 196.636C212.624 197.092 212.508 197.508 212.276 197.884C212.052 198.26 211.728 198.556 211.304 198.772C210.88 198.988 210.376 199.096 209.792 199.096C209.408 199.096 209.04 199.052 208.688 198.964C208.344 198.876 208.024 198.764 207.728 198.628C207.432 198.484 207.168 198.336 206.936 198.184L207.452 197.272C207.644 197.408 207.864 197.54 208.112 197.668C208.36 197.788 208.62 197.888 208.892 197.968C209.164 198.04 209.428 198.076 209.684 198.076C209.956 198.076 210.224 198.028 210.488 197.932C210.76 197.828 210.984 197.672 211.16 197.464C211.336 197.256 211.424 196.98 211.424 196.636C211.424 196.34 211.344 196.096 211.184 195.904C211.032 195.704 210.828 195.536 210.572 195.4C210.316 195.256 210.044 195.128 209.756 195.016C209.484 194.912 209.208 194.8 208.928 194.68C208.648 194.552 208.388 194.4 208.148 194.224C207.908 194.04 207.716 193.816 207.572 193.552C207.428 193.288 207.356 192.968 207.356 192.592C207.356 192.136 207.464 191.74 207.68 191.404C207.904 191.06 208.208 190.792 208.592 190.6C208.976 190.4 209.416 190.292 209.912 190.276C210.472 190.276 210.964 190.344 211.388 190.48C211.82 190.616 212.2 190.784 212.528 190.984L212.084 191.872ZM216.608 199.12C216.04 199.12 215.552 199.008 215.144 198.784C214.736 198.552 214.42 198.24 214.196 197.848C213.98 197.448 213.872 196.992 213.872 196.48C213.872 195.992 213.996 195.548 214.244 195.148C214.492 194.748 214.824 194.428 215.24 194.188C215.656 193.948 216.12 193.828 216.632 193.828C217.288 193.828 217.832 194.02 218.264 194.404C218.696 194.788 218.988 195.316 219.14 195.988L215.048 197.428L214.784 196.768L218.144 195.544L217.904 195.7C217.808 195.436 217.648 195.208 217.424 195.016C217.2 194.816 216.908 194.716 216.548 194.716C216.244 194.716 215.972 194.792 215.732 194.944C215.492 195.088 215.304 195.288 215.168 195.544C215.032 195.8 214.964 196.092 214.964 196.42C214.964 196.764 215.036 197.068 215.18 197.332C215.324 197.588 215.52 197.792 215.768 197.944C216.024 198.088 216.312 198.16 216.632 198.16C216.848 198.16 217.056 198.12 217.256 198.04C217.464 197.96 217.656 197.856 217.832 197.728L218.348 198.556C218.1 198.724 217.82 198.86 217.508 198.964C217.204 199.068 216.904 199.12 216.608 199.12ZM221.534 194.032L221.642 195.472L221.582 195.28C221.71 194.976 221.894 194.72 222.134 194.512C222.382 194.296 222.638 194.132 222.902 194.02C223.174 193.9 223.41 193.84 223.61 193.84L223.55 194.944C223.174 194.92 222.842 194.992 222.554 195.16C222.274 195.328 222.05 195.552 221.882 195.832C221.722 196.112 221.642 196.412 221.642 196.732V199H220.538V194.032H221.534ZM227.066 199.144L224.306 194.032H225.626L227.498 197.98L226.814 197.956L228.53 194.032H229.778L227.126 199.144H227.066ZM230.98 194.032H232.096V199H230.98V194.032ZM230.896 192.232C230.896 192.056 230.964 191.908 231.1 191.788C231.244 191.668 231.4 191.608 231.568 191.608C231.736 191.608 231.884 191.668 232.012 191.788C232.148 191.908 232.216 192.056 232.216 192.232C232.216 192.416 232.148 192.568 232.012 192.688C231.884 192.8 231.736 192.856 231.568 192.856C231.4 192.856 231.244 192.796 231.1 192.676C230.964 192.556 230.896 192.408 230.896 192.232ZM238.059 198.544C237.835 198.72 237.567 198.86 237.255 198.964C236.943 199.068 236.631 199.12 236.319 199.12C235.775 199.12 235.299 199.012 234.891 198.796C234.483 198.58 234.163 198.28 233.931 197.896C233.707 197.504 233.595 197.044 233.595 196.516C233.595 195.988 233.715 195.528 233.955 195.136C234.203 194.744 234.523 194.444 234.915 194.236C235.315 194.02 235.743 193.912 236.199 193.912C236.599 193.912 236.955 193.968 237.267 194.08C237.587 194.192 237.859 194.344 238.083 194.536L237.531 195.256C237.387 195.144 237.211 195.044 237.003 194.956C236.795 194.868 236.559 194.824 236.295 194.824C236.007 194.824 235.739 194.9 235.491 195.052C235.251 195.196 235.059 195.396 234.915 195.652C234.779 195.908 234.711 196.196 234.711 196.516C234.711 196.82 234.783 197.104 234.927 197.368C235.071 197.624 235.271 197.828 235.527 197.98C235.783 198.124 236.075 198.196 236.403 198.196C236.619 198.196 236.815 198.164 236.991 198.1C237.175 198.036 237.339 197.948 237.483 197.836L238.059 198.544ZM241.803 199.12C241.235 199.12 240.747 199.008 240.339 198.784C239.931 198.552 239.615 198.24 239.391 197.848C239.175 197.448 239.067 196.992 239.067 196.48C239.067 195.992 239.191 195.548 239.439 195.148C239.687 194.748 240.019 194.428 240.435 194.188C240.851 193.948 241.315 193.828 241.827 193.828C242.483 193.828 243.027 194.02 243.459 194.404C243.891 194.788 244.183 195.316 244.335 195.988L240.243 197.428L239.979 196.768L243.339 195.544L243.099 195.7C243.003 195.436 242.843 195.208 242.619 195.016C242.395 194.816 242.103 194.716 241.743 194.716C241.439 194.716 241.167 194.792 240.927 194.944C240.687 195.088 240.499 195.288 240.363 195.544C240.227 195.8 240.159 196.092 240.159 196.42C240.159 196.764 240.231 197.068 240.375 197.332C240.519 197.588 240.715 197.792 240.963 197.944C241.219 198.088 241.507 198.16 241.827 198.16C242.043 198.16 242.251 198.12 242.451 198.04C242.659 197.96 242.851 197.856 243.027 197.728L243.543 198.556C243.295 198.724 243.015 198.86 242.703 198.964C242.399 199.068 242.099 199.12 241.803 199.12Z" fill="white"/>
</svg>
