<svg width="448" height="449" viewBox="0 0 448 449" fill="none" xmlns="http://www.w3.org/2000/svg">
<path d="M223.646 181.556C223.842 181.751 224.158 181.751 224.354 181.556L227.536 178.374C227.731 178.178 227.731 177.862 227.536 177.666C227.34 177.471 227.024 177.471 226.828 177.666L224 180.495L221.172 177.666C220.976 177.471 220.66 177.471 220.464 177.666C220.269 177.862 220.269 178.178 220.464 178.374L223.646 181.556ZM223.5 149.202L223.5 181.202L224.5 181.202L224.5 149.202L223.5 149.202Z" fill="black"/>
<path d="M223.646 321.556C223.842 321.751 224.158 321.751 224.354 321.556L227.536 318.374C227.731 318.178 227.731 317.862 227.536 317.666C227.34 317.471 227.024 317.471 226.828 317.666L224 320.495L221.172 317.666C220.976 317.471 220.66 317.471 220.464 317.666C220.269 317.862 220.269 318.178 220.464 318.374L223.646 321.556ZM223.5 289.202L223.5 321.202L224.5 321.202L224.5 289.202L223.5 289.202Z" fill="black"/>
<path d="M114 41.202C114 30.1563 122.954 21.202 134 21.202H315C326.046 21.202 335 30.1563 335 41.202V428.202C335 439.248 326.046 448.202 315 448.202H134C122.954 448.202 114 439.248 114 428.202V41.202Z" fill="#4285F4" fill-opacity="0.2"/>
<path d="M139.5 204.202C139.5 193.432 148.23 184.702 159 184.702H289C299.77 184.702 308.5 193.432 308.5 204.202V266.202C308.5 276.972 299.77 285.702 289 285.702H159C148.23 285.702 139.5 276.972 139.5 266.202V204.202Z" fill="#4285F4" stroke="#4285F4"/>
<path d="M139.5 64.202C139.5 53.4324 148.23 44.702 159 44.702H289C299.77 44.702 308.5 53.4324 308.5 64.202V126.202C308.5 136.972 299.77 145.702 289 145.702H159C148.23 145.702 139.5 136.972 139.5 126.202V64.202Z" fill="#4285F4" stroke="#4285F4"/>
<path d="M139.5 344.202C139.5 333.432 148.23 324.702 159 324.702H289C299.77 324.702 308.5 333.432 308.5 344.202V406.202C308.5 416.972 299.77 425.702 289 425.702H159C148.23 425.702 139.5 416.972 139.5 406.202V344.202Z" fill="#4285F4" stroke="#4285F4"/>
<path d="M186.372 99.662C185.82 99.662 185.36 99.566 184.992 99.374C184.624 99.19 184.284 98.954 183.972 98.666L184.632 97.898C184.888 98.154 185.152 98.346 185.424 98.474C185.696 98.61 186.004 98.678 186.348 98.678C186.908 98.678 187.336 98.542 187.632 98.27C187.928 98.006 188.08 97.654 188.088 97.214V96.302C187.92 96.598 187.66 96.842 187.308 97.034C186.956 97.226 186.54 97.322 186.06 97.322C185.596 97.322 185.172 97.206 184.788 96.974C184.412 96.742 184.108 96.43 183.876 96.038C183.652 95.638 183.54 95.19 183.54 94.694C183.54 94.174 183.66 93.714 183.9 93.314C184.14 92.914 184.456 92.602 184.848 92.378C185.24 92.146 185.668 92.03 186.132 92.03C186.564 92.03 186.956 92.114 187.308 92.282C187.66 92.45 187.924 92.666 188.1 92.93L188.196 92.234H189.216V97.238C189.216 97.686 189.1 98.094 188.868 98.462C188.636 98.83 188.308 99.122 187.884 99.338C187.46 99.554 186.956 99.662 186.372 99.662ZM184.668 94.658C184.668 94.986 184.744 95.282 184.896 95.546C185.048 95.802 185.252 96.01 185.508 96.17C185.772 96.322 186.064 96.398 186.384 96.398C186.816 96.398 187.184 96.282 187.488 96.05C187.8 95.81 188 95.506 188.088 95.138V94.154C187.984 93.802 187.776 93.514 187.464 93.29C187.152 93.066 186.792 92.954 186.384 92.954C186.056 92.954 185.76 93.026 185.496 93.17C185.24 93.314 185.036 93.514 184.884 93.77C184.74 94.026 184.668 94.322 184.668 94.658ZM193.748 88.526C194.324 88.526 194.844 88.63 195.308 88.838C195.772 89.038 196.14 89.342 196.412 89.75C196.684 90.15 196.82 90.638 196.82 91.214C196.82 91.71 196.708 92.19 196.484 92.654C196.268 93.118 195.9 93.47 195.38 93.71L197.564 97.202H196.208L194.156 93.998C194.068 94.006 193.976 94.01 193.88 94.01H192.596V97.202H191.432V88.526H193.748ZM193.856 92.882C194.32 92.882 194.676 92.798 194.924 92.63C195.18 92.454 195.36 92.242 195.464 91.994C195.568 91.738 195.62 91.494 195.62 91.262C195.62 91.03 195.564 90.79 195.452 90.542C195.34 90.294 195.16 90.082 194.912 89.906C194.672 89.73 194.348 89.642 193.94 89.642H192.596V92.882H193.856ZM201.681 88.526C202.617 88.526 203.353 88.762 203.889 89.234C204.425 89.706 204.693 90.366 204.693 91.214C204.693 91.558 204.641 91.898 204.537 92.234C204.433 92.562 204.265 92.862 204.033 93.134C203.809 93.398 203.513 93.614 203.145 93.782C202.777 93.942 202.329 94.022 201.801 94.022H200.517V97.202H199.353V88.526H201.681ZM201.801 92.882C202.137 92.882 202.417 92.83 202.641 92.726C202.865 92.614 203.041 92.47 203.169 92.294C203.305 92.118 203.401 91.938 203.457 91.754C203.513 91.562 203.541 91.39 203.541 91.238C203.541 91.006 203.485 90.766 203.373 90.518C203.269 90.27 203.093 90.062 202.845 89.894C202.605 89.726 202.277 89.642 201.861 89.642H200.517V92.882H201.801ZM212.862 96.554C212.718 96.65 212.522 96.758 212.274 96.878C212.026 96.998 211.734 97.102 211.398 97.19C211.07 97.27 210.71 97.306 210.318 97.298C209.638 97.29 209.03 97.17 208.494 96.938C207.958 96.706 207.498 96.39 207.114 95.99C206.738 95.582 206.45 95.118 206.25 94.598C206.05 94.078 205.95 93.522 205.95 92.93C205.95 92.282 206.054 91.686 206.262 91.142C206.478 90.59 206.778 90.114 207.162 89.714C207.546 89.306 207.998 88.99 208.518 88.766C209.046 88.542 209.622 88.43 210.246 88.43C210.766 88.43 211.238 88.502 211.662 88.646C212.086 88.782 212.45 88.942 212.754 89.126L212.286 90.218C212.046 90.058 211.754 89.906 211.41 89.762C211.066 89.618 210.69 89.546 210.282 89.546C209.858 89.546 209.458 89.634 209.082 89.81C208.706 89.978 208.374 90.214 208.086 90.518C207.798 90.814 207.57 91.166 207.402 91.574C207.242 91.974 207.162 92.406 207.162 92.87C207.162 93.494 207.29 94.058 207.546 94.562C207.81 95.058 208.178 95.45 208.65 95.738C209.13 96.026 209.69 96.17 210.33 96.17C210.778 96.17 211.17 96.106 211.506 95.978C211.85 95.842 212.134 95.686 212.358 95.51L212.862 96.554ZM225.423 96.458C225.255 96.594 225.011 96.726 224.691 96.854C224.371 96.982 224.027 97.09 223.659 97.178C223.291 97.258 222.943 97.298 222.615 97.298C221.695 97.298 220.895 97.114 220.215 96.746C219.535 96.37 219.007 95.862 218.631 95.222C218.263 94.574 218.079 93.842 218.079 93.026C218.079 92.298 218.195 91.65 218.427 91.082C218.667 90.514 218.991 90.034 219.399 89.642C219.815 89.242 220.291 88.942 220.827 88.742C221.363 88.534 221.931 88.43 222.531 88.43C223.035 88.43 223.503 88.49 223.935 88.61C224.367 88.73 224.747 88.882 225.075 89.066L224.691 90.134C224.523 90.038 224.319 89.95 224.079 89.87C223.847 89.79 223.607 89.726 223.359 89.678C223.111 89.63 222.883 89.606 222.675 89.606C221.995 89.606 221.399 89.742 220.887 90.014C220.375 90.286 219.979 90.67 219.699 91.166C219.419 91.662 219.279 92.25 219.279 92.93C219.279 93.562 219.419 94.122 219.699 94.61C219.979 95.09 220.371 95.466 220.875 95.738C221.379 96.002 221.967 96.134 222.639 96.134C222.927 96.134 223.215 96.106 223.503 96.05C223.791 95.994 224.035 95.906 224.235 95.786V94.082H222.519V92.954H225.423V96.458ZM229.443 97.322C228.971 97.322 228.543 97.222 228.159 97.022C227.783 96.822 227.483 96.53 227.259 96.146C227.043 95.754 226.935 95.278 226.935 94.718C226.935 94.158 227.047 93.678 227.271 93.278C227.503 92.878 227.811 92.57 228.195 92.354C228.587 92.138 229.015 92.03 229.479 92.03C229.927 92.03 230.307 92.126 230.619 92.318C230.931 92.51 231.175 92.742 231.351 93.014L231.435 92.234H232.467V97.202H231.351V96.386C231.255 96.514 231.115 96.65 230.931 96.794C230.755 96.938 230.539 97.062 230.283 97.166C230.035 97.27 229.755 97.322 229.443 97.322ZM229.743 96.398C230.151 96.398 230.499 96.286 230.787 96.062C231.075 95.83 231.263 95.518 231.351 95.126V94.142C231.255 93.798 231.055 93.514 230.751 93.29C230.447 93.066 230.099 92.954 229.707 92.954C229.403 92.954 229.127 93.026 228.879 93.17C228.631 93.314 228.431 93.514 228.279 93.77C228.135 94.026 228.063 94.322 228.063 94.658C228.063 94.986 228.139 95.282 228.291 95.546C228.443 95.802 228.647 96.01 228.903 96.17C229.159 96.322 229.439 96.398 229.743 96.398ZM234.89 90.05H236.018V92.246H237.374V93.134H236.018V97.202H234.89V93.134H233.978V92.246H234.89V90.05ZM241.038 97.322C240.478 97.322 239.99 97.21 239.574 96.986C239.166 96.754 238.85 96.438 238.626 96.038C238.41 95.638 238.302 95.186 238.302 94.682C238.302 94.194 238.422 93.75 238.662 93.35C238.91 92.942 239.242 92.622 239.658 92.39C240.082 92.15 240.55 92.03 241.062 92.03C241.718 92.03 242.262 92.222 242.694 92.606C243.126 92.99 243.422 93.518 243.582 94.19L239.646 95.57C239.782 95.818 239.974 96.014 240.222 96.158C240.47 96.294 240.75 96.362 241.062 96.362C241.286 96.362 241.498 96.322 241.698 96.242C241.898 96.162 242.09 96.058 242.274 95.93L242.79 96.758C242.534 96.926 242.25 97.062 241.938 97.166C241.634 97.27 241.334 97.322 241.038 97.322ZM239.406 94.622C239.398 94.718 239.402 94.81 239.418 94.898L242.31 93.83C242.198 93.59 242.034 93.378 241.818 93.194C241.61 93.01 241.33 92.918 240.978 92.918C240.522 92.918 240.146 93.078 239.85 93.398C239.554 93.718 239.406 94.126 239.406 94.622ZM248.031 92.234L249.375 95.33L250.635 92.234H251.739L249.447 97.502L247.851 94.094L246.399 97.502L244.095 92.234H245.199L246.519 95.246L247.455 93.086L247.059 92.234H248.031ZM254.861 97.322C254.389 97.322 253.961 97.222 253.576 97.022C253.201 96.822 252.901 96.53 252.677 96.146C252.461 95.754 252.353 95.278 252.353 94.718C252.353 94.158 252.465 93.678 252.689 93.278C252.921 92.878 253.229 92.57 253.613 92.354C254.005 92.138 254.433 92.03 254.896 92.03C255.345 92.03 255.725 92.126 256.037 92.318C256.349 92.51 256.593 92.742 256.769 93.014L256.853 92.234H257.885V97.202H256.769V96.386C256.673 96.514 256.533 96.65 256.349 96.794C256.173 96.938 255.957 97.062 255.701 97.166C255.453 97.27 255.173 97.322 254.861 97.322ZM255.161 96.398C255.569 96.398 255.917 96.286 256.205 96.062C256.493 95.83 256.681 95.518 256.769 95.126V94.142C256.673 93.798 256.473 93.514 256.169 93.29C255.865 93.066 255.517 92.954 255.125 92.954C254.821 92.954 254.545 93.026 254.297 93.17C254.049 93.314 253.849 93.514 253.697 93.77C253.553 94.026 253.481 94.322 253.481 94.658C253.481 94.986 253.557 95.282 253.709 95.546C253.861 95.802 254.065 96.01 254.321 96.17C254.577 96.322 254.857 96.398 255.161 96.398ZM260.247 99.59L261.387 97.046L259.083 92.234H260.343L261.939 95.774L263.523 92.234H264.555L261.351 99.59H260.247Z" fill="white"/>
<path d="M184.62 376.554C184.476 376.65 184.28 376.758 184.032 376.878C183.784 376.998 183.492 377.102 183.156 377.19C182.828 377.27 182.468 377.306 182.076 377.298C181.396 377.29 180.788 377.17 180.252 376.938C179.716 376.706 179.256 376.39 178.872 375.99C178.496 375.582 178.208 375.118 178.008 374.598C177.808 374.078 177.708 373.522 177.708 372.93C177.708 372.282 177.812 371.686 178.02 371.142C178.236 370.59 178.536 370.114 178.92 369.714C179.304 369.306 179.756 368.99 180.276 368.766C180.804 368.542 181.38 368.43 182.004 368.43C182.524 368.43 182.996 368.502 183.42 368.646C183.844 368.782 184.208 368.942 184.512 369.126L184.044 370.218C183.804 370.058 183.512 369.906 183.168 369.762C182.824 369.618 182.448 369.546 182.04 369.546C181.616 369.546 181.216 369.634 180.84 369.81C180.464 369.978 180.132 370.214 179.844 370.518C179.556 370.814 179.328 371.166 179.16 371.574C179 371.974 178.92 372.406 178.92 372.87C178.92 373.494 179.048 374.058 179.304 374.562C179.568 375.058 179.936 375.45 180.408 375.738C180.888 376.026 181.448 376.17 182.088 376.17C182.536 376.17 182.928 376.106 183.264 375.978C183.608 375.842 183.892 375.686 184.116 375.51L184.62 376.554ZM186.304 367.902H187.42V377.202H186.304V367.902ZM188.931 374.67C188.931 374.174 189.047 373.726 189.279 373.326C189.519 372.926 189.847 372.61 190.263 372.378C190.679 372.146 191.155 372.03 191.691 372.03C192.227 372.03 192.699 372.146 193.107 372.378C193.515 372.61 193.831 372.926 194.055 373.326C194.287 373.726 194.403 374.174 194.403 374.67C194.403 375.166 194.287 375.614 194.055 376.014C193.831 376.414 193.511 376.734 193.095 376.974C192.687 377.206 192.211 377.322 191.667 377.322C191.139 377.322 190.667 377.214 190.251 376.998C189.843 376.782 189.519 376.474 189.279 376.074C189.047 375.674 188.931 375.206 188.931 374.67ZM190.059 374.682C190.059 375.002 190.127 375.294 190.263 375.558C190.407 375.814 190.599 376.018 190.839 376.17C191.079 376.322 191.351 376.398 191.655 376.398C191.967 376.398 192.243 376.322 192.483 376.17C192.723 376.018 192.911 375.814 193.047 375.558C193.191 375.294 193.263 375.002 193.263 374.682C193.263 374.362 193.191 374.074 193.047 373.818C192.911 373.554 192.723 373.346 192.483 373.194C192.243 373.034 191.967 372.954 191.655 372.954C191.351 372.954 191.075 373.034 190.827 373.194C190.587 373.354 190.399 373.566 190.263 373.83C190.127 374.086 190.059 374.37 190.059 374.682ZM197.486 377.394C197.03 377.394 196.654 377.258 196.358 376.986C196.062 376.706 195.91 376.346 195.902 375.906V372.234H197.018V375.51C197.034 375.782 197.114 376.002 197.258 376.17C197.402 376.338 197.626 376.426 197.93 376.434C198.202 376.434 198.45 376.354 198.674 376.194C198.898 376.026 199.074 375.802 199.202 375.522C199.338 375.234 199.406 374.91 199.406 374.55V372.234H200.522V377.202H199.514L199.43 376.266C199.27 376.594 199.014 376.866 198.662 377.082C198.318 377.29 197.926 377.394 197.486 377.394ZM204.492 377.322C204.02 377.322 203.596 377.214 203.22 376.998C202.852 376.774 202.56 376.462 202.344 376.062C202.136 375.654 202.032 375.182 202.032 374.646C202.032 374.102 202.144 373.634 202.368 373.242C202.592 372.85 202.9 372.55 203.292 372.342C203.692 372.134 204.136 372.03 204.624 372.03C205 372.03 205.36 372.11 205.704 372.27C206.048 372.422 206.324 372.634 206.532 372.906V367.902H207.648V377.202H206.52V376.434C206.28 376.698 205.984 376.914 205.632 377.082C205.288 377.242 204.908 377.322 204.492 377.322ZM204.84 376.362C205.272 376.362 205.636 376.246 205.932 376.014C206.228 375.782 206.42 375.47 206.508 375.078V374.142C206.42 373.79 206.22 373.498 205.908 373.266C205.604 373.034 205.248 372.918 204.84 372.918C204.536 372.918 204.256 372.994 204 373.146C203.744 373.29 203.54 373.49 203.388 373.746C203.236 374.002 203.16 374.298 203.16 374.634C203.16 374.954 203.236 375.246 203.388 375.51C203.54 375.774 203.744 375.982 204 376.134C204.256 376.286 204.536 376.362 204.84 376.362ZM218.138 370.074C217.842 369.922 217.518 369.79 217.166 369.678C216.814 369.566 216.474 369.51 216.146 369.51C215.674 369.51 215.298 369.618 215.018 369.834C214.746 370.05 214.61 370.342 214.61 370.71C214.61 370.974 214.698 371.198 214.874 371.382C215.058 371.566 215.29 371.73 215.57 371.874C215.858 372.01 216.162 372.138 216.482 372.258C216.842 372.394 217.19 372.558 217.526 372.75C217.862 372.942 218.138 373.202 218.354 373.53C218.578 373.85 218.69 374.282 218.69 374.826C218.69 375.29 218.574 375.71 218.342 376.086C218.11 376.454 217.782 376.75 217.358 376.974C216.934 377.19 216.43 377.298 215.846 377.298C215.27 377.298 214.734 377.206 214.238 377.022C213.75 376.838 213.334 376.626 212.99 376.386L213.506 375.462C213.786 375.678 214.13 375.866 214.538 376.026C214.954 376.186 215.35 376.266 215.726 376.266C216.006 376.266 216.278 376.218 216.542 376.122C216.814 376.026 217.038 375.874 217.214 375.666C217.39 375.45 217.478 375.174 217.478 374.838C217.478 374.55 217.398 374.306 217.238 374.106C217.078 373.906 216.87 373.738 216.614 373.602C216.366 373.458 216.094 373.33 215.798 373.218C215.526 373.122 215.25 373.01 214.97 372.882C214.69 372.754 214.43 372.602 214.19 372.426C213.958 372.242 213.77 372.018 213.626 371.754C213.482 371.49 213.41 371.17 213.41 370.794C213.41 370.338 213.518 369.942 213.734 369.606C213.958 369.262 214.262 368.994 214.646 368.802C215.03 368.602 215.474 368.494 215.978 368.478C216.53 368.478 217.018 368.546 217.442 368.682C217.874 368.818 218.254 368.982 218.582 369.174L218.138 370.074ZM220.095 372.87C220.095 372.27 220.207 371.702 220.431 371.166C220.663 370.63 220.983 370.158 221.391 369.75C221.799 369.342 222.267 369.022 222.795 368.79C223.331 368.55 223.903 368.43 224.511 368.43C225.119 368.43 225.691 368.55 226.227 368.79C226.771 369.022 227.247 369.342 227.655 369.75C228.063 370.158 228.383 370.63 228.615 371.166C228.847 371.702 228.963 372.27 228.963 372.87C228.963 373.502 228.839 374.094 228.591 374.646C228.343 375.19 228.007 375.662 227.583 376.062H229.335V377.202H225.435C225.131 377.266 224.823 377.298 224.511 377.298C223.903 377.298 223.331 377.186 222.795 376.962C222.267 376.738 221.799 376.426 221.391 376.026C220.983 375.618 220.663 375.146 220.431 374.61C220.207 374.074 220.095 373.494 220.095 372.87ZM221.295 372.882C221.295 373.338 221.379 373.766 221.547 374.166C221.715 374.558 221.947 374.906 222.243 375.21C222.539 375.506 222.883 375.742 223.275 375.918C223.667 376.086 224.091 376.17 224.547 376.17C225.147 376.17 225.687 376.022 226.167 375.726C226.655 375.43 227.043 375.034 227.331 374.538C227.619 374.042 227.763 373.486 227.763 372.87C227.763 372.422 227.679 371.998 227.511 371.598C227.343 371.198 227.111 370.85 226.815 370.554C226.519 370.25 226.175 370.014 225.783 369.846C225.391 369.67 224.971 369.582 224.523 369.582C224.067 369.582 223.643 369.67 223.251 369.846C222.859 370.014 222.515 370.254 222.219 370.566C221.931 370.87 221.703 371.222 221.535 371.622C221.375 372.014 221.295 372.434 221.295 372.882ZM231.287 368.526H232.451V376.074H236.867V377.202H231.287V368.526ZM244.877 368.526C245.813 368.526 246.549 368.762 247.085 369.234C247.621 369.706 247.889 370.366 247.889 371.214C247.889 371.558 247.837 371.898 247.733 372.234C247.629 372.562 247.461 372.862 247.229 373.134C247.005 373.398 246.709 373.614 246.341 373.782C245.973 373.942 245.525 374.022 244.997 374.022H243.713V377.202H242.549V368.526H244.877ZM244.997 372.882C245.333 372.882 245.613 372.83 245.837 372.726C246.061 372.614 246.237 372.47 246.365 372.294C246.501 372.118 246.597 371.938 246.653 371.754C246.709 371.562 246.737 371.39 246.737 371.238C246.737 371.006 246.681 370.766 246.569 370.518C246.465 370.27 246.289 370.062 246.041 369.894C245.801 369.726 245.473 369.642 245.057 369.642H243.713V372.882H244.997ZM250.406 372.234L250.49 373.398C250.626 373.118 250.814 372.878 251.054 372.678C251.294 372.47 251.542 372.314 251.798 372.21C252.062 372.098 252.29 372.038 252.482 372.03L252.434 373.146C252.058 373.13 251.726 373.206 251.438 373.374C251.15 373.534 250.926 373.754 250.766 374.034C250.606 374.314 250.526 374.614 250.526 374.934V377.202H249.41V372.234H250.406ZM253.278 374.67C253.278 374.174 253.394 373.726 253.626 373.326C253.866 372.926 254.194 372.61 254.61 372.378C255.026 372.146 255.502 372.03 256.038 372.03C256.574 372.03 257.046 372.146 257.454 372.378C257.862 372.61 258.178 372.926 258.402 373.326C258.634 373.726 258.75 374.174 258.75 374.67C258.75 375.166 258.634 375.614 258.402 376.014C258.178 376.414 257.858 376.734 257.442 376.974C257.034 377.206 256.558 377.322 256.014 377.322C255.486 377.322 255.014 377.214 254.598 376.998C254.19 376.782 253.866 376.474 253.626 376.074C253.394 375.674 253.278 375.206 253.278 374.67ZM254.406 374.682C254.406 375.002 254.474 375.294 254.61 375.558C254.754 375.814 254.946 376.018 255.186 376.17C255.426 376.322 255.698 376.398 256.002 376.398C256.314 376.398 256.59 376.322 256.83 376.17C257.07 376.018 257.258 375.814 257.394 375.558C257.538 375.294 257.61 375.002 257.61 374.682C257.61 374.362 257.538 374.074 257.394 373.818C257.258 373.554 257.07 373.346 256.83 373.194C256.59 373.034 256.314 372.954 256.002 372.954C255.698 372.954 255.422 373.034 255.174 373.194C254.934 373.354 254.746 373.566 254.61 373.83C254.474 374.086 254.406 374.37 254.406 374.682ZM264.524 377.202H263.168L261.824 375.438L260.588 377.202H259.448L261.272 374.706L259.388 372.234H260.78L262.076 373.962L263.204 372.234H264.332L262.592 374.646L264.524 377.202ZM266.142 379.59L267.282 377.046L264.978 372.234H266.238L267.834 375.774L269.418 372.234H270.45L267.246 379.59H266.142Z" fill="white"/>
<path d="M212.372 239.662C211.82 239.662 211.36 239.566 210.992 239.374C210.624 239.19 210.284 238.954 209.972 238.666L210.632 237.898C210.888 238.154 211.152 238.346 211.424 238.474C211.696 238.61 212.004 238.678 212.348 238.678C212.908 238.678 213.336 238.542 213.632 238.27C213.928 238.006 214.08 237.654 214.088 237.214V236.302C213.92 236.598 213.66 236.842 213.308 237.034C212.956 237.226 212.54 237.322 212.06 237.322C211.596 237.322 211.172 237.206 210.788 236.974C210.412 236.742 210.108 236.43 209.876 236.038C209.652 235.638 209.54 235.19 209.54 234.694C209.54 234.174 209.66 233.714 209.9 233.314C210.14 232.914 210.456 232.602 210.848 232.378C211.24 232.146 211.668 232.03 212.132 232.03C212.564 232.03 212.956 232.114 213.308 232.282C213.66 232.45 213.924 232.666 214.1 232.93L214.196 232.234H215.216V237.238C215.216 237.686 215.1 238.094 214.868 238.462C214.636 238.83 214.308 239.122 213.884 239.338C213.46 239.554 212.956 239.662 212.372 239.662ZM210.668 234.658C210.668 234.986 210.744 235.282 210.896 235.546C211.048 235.802 211.252 236.01 211.508 236.17C211.772 236.322 212.064 236.398 212.384 236.398C212.816 236.398 213.184 236.282 213.488 236.05C213.8 235.81 214 235.506 214.088 235.138V234.154C213.984 233.802 213.776 233.514 213.464 233.29C213.152 233.066 212.792 232.954 212.384 232.954C212.056 232.954 211.76 233.026 211.496 233.17C211.24 233.314 211.036 233.514 210.884 233.77C210.74 234.026 210.668 234.322 210.668 234.658ZM219.748 228.526C220.324 228.526 220.844 228.63 221.308 228.838C221.772 229.038 222.14 229.342 222.412 229.75C222.684 230.15 222.82 230.638 222.82 231.214C222.82 231.71 222.708 232.19 222.484 232.654C222.268 233.118 221.9 233.47 221.38 233.71L223.564 237.202H222.208L220.156 233.998C220.068 234.006 219.976 234.01 219.88 234.01H218.596V237.202H217.432V228.526H219.748ZM219.856 232.882C220.32 232.882 220.676 232.798 220.924 232.63C221.18 232.454 221.36 232.242 221.464 231.994C221.568 231.738 221.62 231.494 221.62 231.262C221.62 231.03 221.564 230.79 221.452 230.542C221.34 230.294 221.16 230.082 220.912 229.906C220.672 229.73 220.348 229.642 219.94 229.642H218.596V232.882H219.856ZM227.681 228.526C228.617 228.526 229.353 228.762 229.889 229.234C230.425 229.706 230.693 230.366 230.693 231.214C230.693 231.558 230.641 231.898 230.537 232.234C230.433 232.562 230.265 232.862 230.033 233.134C229.809 233.398 229.513 233.614 229.145 233.782C228.777 233.942 228.329 234.022 227.801 234.022H226.517V237.202H225.353V228.526H227.681ZM227.801 232.882C228.137 232.882 228.417 232.83 228.641 232.726C228.865 232.614 229.041 232.47 229.169 232.294C229.305 232.118 229.401 231.938 229.457 231.754C229.513 231.562 229.541 231.39 229.541 231.238C229.541 231.006 229.485 230.766 229.373 230.518C229.269 230.27 229.093 230.062 228.845 229.894C228.605 229.726 228.277 229.642 227.861 229.642H226.517V232.882H227.801ZM238.862 236.554C238.718 236.65 238.522 236.758 238.274 236.878C238.026 236.998 237.734 237.102 237.398 237.19C237.07 237.27 236.71 237.306 236.318 237.298C235.638 237.29 235.03 237.17 234.494 236.938C233.958 236.706 233.498 236.39 233.114 235.99C232.738 235.582 232.45 235.118 232.25 234.598C232.05 234.078 231.95 233.522 231.95 232.93C231.95 232.282 232.054 231.686 232.262 231.142C232.478 230.59 232.778 230.114 233.162 229.714C233.546 229.306 233.998 228.99 234.518 228.766C235.046 228.542 235.622 228.43 236.246 228.43C236.766 228.43 237.238 228.502 237.662 228.646C238.086 228.782 238.45 228.942 238.754 229.126L238.286 230.218C238.046 230.058 237.754 229.906 237.41 229.762C237.066 229.618 236.69 229.546 236.282 229.546C235.858 229.546 235.458 229.634 235.082 229.81C234.706 229.978 234.374 230.214 234.086 230.518C233.798 230.814 233.57 231.166 233.402 231.574C233.242 231.974 233.162 232.406 233.162 232.87C233.162 233.494 233.29 234.058 233.546 234.562C233.81 235.058 234.178 235.45 234.65 235.738C235.13 236.026 235.69 236.17 236.33 236.17C236.778 236.17 237.17 236.106 237.506 235.978C237.85 235.842 238.134 235.686 238.358 235.51L238.862 236.554Z" fill="white"/>
<path d="M366.608 58.25C366.04 59.786 365.476 61.318 364.916 62.846C364.356 64.374 363.792 65.902 363.224 67.43H362.204C362.772 65.902 363.336 64.374 363.896 62.846C364.456 61.318 365.02 59.786 365.588 58.25H366.608ZM367.589 67.202V57.902H368.681V63.134C368.857 62.814 369.117 62.554 369.461 62.354C369.805 62.146 370.209 62.042 370.673 62.042C371.137 62.042 371.517 62.182 371.813 62.462C372.117 62.734 372.277 63.09 372.293 63.53V67.202H371.165V63.914C371.149 63.65 371.065 63.434 370.913 63.266C370.769 63.098 370.541 63.01 370.229 63.002C369.941 63.002 369.681 63.086 369.449 63.254C369.225 63.414 369.045 63.634 368.909 63.914C368.773 64.194 368.705 64.514 368.705 64.874V67.202H367.589ZM376.526 67.322C375.966 67.322 375.478 67.21 375.062 66.986C374.654 66.754 374.338 66.438 374.114 66.038C373.898 65.638 373.79 65.186 373.79 64.682C373.79 64.194 373.91 63.75 374.15 63.35C374.398 62.942 374.73 62.622 375.146 62.39C375.57 62.15 376.038 62.03 376.55 62.03C377.206 62.03 377.75 62.222 378.182 62.606C378.614 62.99 378.91 63.518 379.07 64.19L375.134 65.57C375.27 65.818 375.462 66.014 375.71 66.158C375.958 66.294 376.238 66.362 376.55 66.362C376.774 66.362 376.986 66.322 377.186 66.242C377.386 66.162 377.578 66.058 377.762 65.93L378.278 66.758C378.022 66.926 377.738 67.062 377.426 67.166C377.122 67.27 376.822 67.322 376.526 67.322ZM374.894 64.622C374.886 64.718 374.89 64.81 374.906 64.898L377.798 63.83C377.686 63.59 377.522 63.378 377.306 63.194C377.098 63.01 376.818 62.918 376.466 62.918C376.01 62.918 375.634 63.078 375.338 63.398C375.042 63.718 374.894 64.126 374.894 64.622ZM382.532 67.322C382.06 67.322 381.632 67.222 381.248 67.022C380.872 66.822 380.572 66.53 380.348 66.146C380.132 65.754 380.024 65.278 380.024 64.718C380.024 64.158 380.136 63.678 380.36 63.278C380.592 62.878 380.9 62.57 381.284 62.354C381.676 62.138 382.104 62.03 382.568 62.03C383.016 62.03 383.396 62.126 383.708 62.318C384.02 62.51 384.264 62.742 384.44 63.014L384.524 62.234H385.556V67.202H384.44V66.386C384.344 66.514 384.204 66.65 384.02 66.794C383.844 66.938 383.628 67.062 383.372 67.166C383.124 67.27 382.844 67.322 382.532 67.322ZM382.832 66.398C383.24 66.398 383.588 66.286 383.876 66.062C384.164 65.83 384.352 65.518 384.44 65.126V64.142C384.344 63.798 384.144 63.514 383.84 63.29C383.536 63.066 383.188 62.954 382.796 62.954C382.492 62.954 382.216 63.026 381.968 63.17C381.72 63.314 381.52 63.514 381.368 63.77C381.224 64.026 381.152 64.322 381.152 64.658C381.152 64.986 381.228 65.282 381.38 65.546C381.532 65.802 381.736 66.01 381.992 66.17C382.248 66.322 382.528 66.398 382.832 66.398ZM387.499 57.902H388.615V67.202H387.499V57.902ZM391.038 60.05H392.166V62.246H393.522V63.134H392.166V67.202H391.038V63.134H390.126V62.246H391.038V60.05ZM394.882 67.202V57.902H395.974V63.134C396.15 62.814 396.41 62.554 396.754 62.354C397.098 62.146 397.502 62.042 397.966 62.042C398.43 62.042 398.81 62.182 399.106 62.462C399.41 62.734 399.57 63.09 399.586 63.53V67.202H398.458V63.914C398.442 63.65 398.358 63.434 398.206 63.266C398.062 63.098 397.834 63.01 397.522 63.002C397.234 63.002 396.974 63.086 396.742 63.254C396.518 63.414 396.338 63.634 396.202 63.914C396.066 64.194 395.998 64.514 395.998 64.874V67.202H394.882Z" fill="black"/>
<path d="M52.62 85.554C52.476 85.65 52.28 85.758 52.032 85.878C51.784 85.998 51.492 86.102 51.156 86.19C50.828 86.27 50.468 86.306 50.076 86.298C49.396 86.29 48.788 86.17 48.252 85.938C47.716 85.706 47.256 85.39 46.872 84.99C46.496 84.582 46.208 84.118 46.008 83.598C45.808 83.078 45.708 82.522 45.708 81.93C45.708 81.282 45.812 80.686 46.02 80.142C46.236 79.59 46.536 79.114 46.92 78.714C47.304 78.306 47.756 77.99 48.276 77.766C48.804 77.542 49.38 77.43 50.004 77.43C50.524 77.43 50.996 77.502 51.42 77.646C51.844 77.782 52.208 77.942 52.512 78.126L52.044 79.218C51.804 79.058 51.512 78.906 51.168 78.762C50.824 78.618 50.448 78.546 50.04 78.546C49.616 78.546 49.216 78.634 48.84 78.81C48.464 78.978 48.132 79.214 47.844 79.518C47.556 79.814 47.328 80.166 47.16 80.574C47 80.974 46.92 81.406 46.92 81.87C46.92 82.494 47.048 83.058 47.304 83.562C47.568 84.058 47.936 84.45 48.408 84.738C48.888 85.026 49.448 85.17 50.088 85.17C50.536 85.17 50.928 85.106 51.264 84.978C51.608 84.842 51.892 84.686 52.116 84.51L52.62 85.554ZM54.304 76.902H55.42V86.202H54.304V76.902ZM57.3626 81.234H58.4786V86.202H57.3626V81.234ZM57.2786 79.446C57.2786 79.262 57.3466 79.114 57.4826 79.002C57.6266 78.882 57.7826 78.822 57.9506 78.822C58.1186 78.822 58.2706 78.882 58.4066 79.002C58.5426 79.114 58.6106 79.262 58.6106 79.446C58.6106 79.63 58.5426 79.782 58.4066 79.902C58.2706 80.014 58.1186 80.07 57.9506 80.07C57.7826 80.07 57.6266 80.014 57.4826 79.902C57.3466 79.782 57.2786 79.63 57.2786 79.446ZM62.7252 86.322C62.1652 86.322 61.6772 86.21 61.2612 85.986C60.8532 85.754 60.5372 85.438 60.3132 85.038C60.0972 84.638 59.9892 84.186 59.9892 83.682C59.9892 83.194 60.1092 82.75 60.3492 82.35C60.5972 81.942 60.9292 81.622 61.3452 81.39C61.7692 81.15 62.2372 81.03 62.7492 81.03C63.4052 81.03 63.9492 81.222 64.3812 81.606C64.8132 81.99 65.1092 82.518 65.2692 83.19L61.3332 84.57C61.4692 84.818 61.6612 85.014 61.9092 85.158C62.1572 85.294 62.4372 85.362 62.7492 85.362C62.9732 85.362 63.1852 85.322 63.3852 85.242C63.5852 85.162 63.7772 85.058 63.9612 84.93L64.4772 85.758C64.2212 85.926 63.9372 86.062 63.6252 86.166C63.3212 86.27 63.0212 86.322 62.7252 86.322ZM61.0932 83.622C61.0852 83.718 61.0892 83.81 61.1052 83.898L63.9972 82.83C63.8852 82.59 63.7212 82.378 63.5052 82.194C63.2972 82.01 63.0172 81.918 62.6652 81.918C62.2092 81.918 61.8332 82.078 61.5372 82.398C61.2412 82.718 61.0932 83.126 61.0932 83.622ZM67.6636 81.234L67.7356 82.194C67.9036 81.842 68.1636 81.562 68.5156 81.354C68.8676 81.146 69.2756 81.042 69.7396 81.042C70.2036 81.042 70.5836 81.182 70.8796 81.462C71.1836 81.734 71.3436 82.09 71.3596 82.53V86.202H70.2316V82.914C70.2156 82.65 70.1316 82.434 69.9796 82.266C69.8356 82.098 69.6076 82.01 69.2956 82.002C68.8636 82.002 68.4996 82.178 68.2036 82.53C67.9156 82.874 67.7716 83.322 67.7716 83.874V86.202H66.6556V81.234H67.6636ZM73.7684 79.05H74.8964V81.246H76.2524V82.134H74.8964V86.202H73.7684V82.134H72.8564V81.246H73.7684V79.05ZM79.0166 86.298C78.6566 86.298 78.3086 86.238 77.9726 86.118C77.6446 85.99 77.3726 85.802 77.1566 85.554L77.6366 84.906C77.8366 85.106 78.0486 85.258 78.2726 85.362C78.4966 85.458 78.7126 85.506 78.9206 85.506C79.1606 85.506 79.3686 85.458 79.5446 85.362C79.7286 85.266 79.8206 85.102 79.8206 84.87C79.8206 84.694 79.7606 84.554 79.6406 84.45C79.5286 84.346 79.3806 84.266 79.1966 84.21C79.0206 84.146 78.8366 84.082 78.6446 84.018C77.7966 83.746 77.3726 83.262 77.3726 82.566C77.3726 82.31 77.4366 82.066 77.5646 81.834C77.7006 81.602 77.8966 81.414 78.1526 81.27C78.4166 81.126 78.7406 81.054 79.1246 81.054C79.4686 81.054 79.7766 81.098 80.0486 81.186C80.3206 81.274 80.5766 81.414 80.8166 81.606L80.3726 82.29C80.2286 82.146 80.0566 82.038 79.8566 81.966C79.6646 81.886 79.4886 81.842 79.3286 81.834C79.1126 81.834 78.9206 81.886 78.7526 81.99C78.5926 82.094 78.5126 82.238 78.5126 82.422C78.5046 82.59 78.5566 82.726 78.6686 82.83C78.7806 82.926 78.9246 83.006 79.1006 83.07C79.2846 83.134 79.4686 83.194 79.6526 83.25C80.0126 83.37 80.3166 83.534 80.5646 83.742C80.8206 83.95 80.9486 84.254 80.9486 84.654C80.9486 85.102 80.7886 85.49 80.4686 85.818C80.1486 86.138 79.6646 86.298 79.0166 86.298Z" fill="black"/>
<path d="M28.71 0.953995H37.746V3.474H31.32V6.3H37.008V8.82H31.32V11.682H37.998V14.202H28.71V0.953995ZM48.2763 14.202H45.2343L43.4163 11.844L41.7603 14.202H39.2583L42.1743 10.242L39.1683 6.336H42.2643L43.9923 8.604L45.3423 6.336H47.8443L45.1443 10.098L48.2763 14.202ZM50.4969 2.88H53.0169V6.3H54.9249V8.262H53.0169V14.202H50.4969V8.262H49.2729V6.3H50.4969V2.88ZM60.7129 14.418C59.7529 14.418 58.9369 14.238 58.2649 13.878C57.6049 13.518 57.1009 13.02 56.7529 12.384C56.4049 11.748 56.2309 11.016 56.2309 10.188C56.2309 9.396 56.4349 8.682 56.8429 8.046C57.2509 7.41 57.7969 6.906 58.4809 6.534C59.1649 6.15 59.9269 5.958 60.7669 5.958C61.8949 5.958 62.8189 6.288 63.5389 6.948C64.2709 7.596 64.7449 8.538 64.9609 9.774L59.2009 11.61C59.5849 12.054 60.1069 12.276 60.7669 12.276C61.0429 12.276 61.3069 12.228 61.5589 12.132C61.8229 12.036 62.0809 11.91 62.3329 11.754L63.4489 13.626C63.0289 13.866 62.5729 14.058 62.0809 14.202C61.6009 14.346 61.1449 14.418 60.7129 14.418ZM58.7149 10.044C58.7149 10.104 58.7149 10.158 58.7149 10.206L62.1709 9.036C62.0629 8.736 61.8889 8.478 61.6489 8.262C61.4089 8.034 61.0489 7.92 60.5689 7.92C60.0049 7.92 59.5549 8.112 59.2189 8.496C58.8829 8.88 58.7149 9.396 58.7149 10.044ZM69.0601 6.336L69.2581 8.136C69.4861 7.68 69.7981 7.29 70.1941 6.966C70.5901 6.63 70.9801 6.378 71.3641 6.21C71.7481 6.03 72.0421 5.94 72.2461 5.94L72.1201 8.46C71.5321 8.388 71.0281 8.484 70.6081 8.748C70.1881 9.012 69.8641 9.36 69.6361 9.792C69.4081 10.224 69.2941 10.668 69.2941 11.124V14.202H66.7921V6.336H69.0601ZM76.4609 6.336L76.6409 7.596C76.9169 7.104 77.3069 6.708 77.8109 6.408C78.3149 6.108 78.9269 5.958 79.6469 5.958C80.3909 5.958 81.0089 6.18 81.5009 6.624C82.0049 7.056 82.2629 7.62 82.2749 8.316V14.202H79.7549V9.252C79.7429 8.904 79.6469 8.628 79.4669 8.424C79.2989 8.208 79.0109 8.1 78.6029 8.1C78.0149 8.1 77.5469 8.376 77.1989 8.928C76.8629 9.468 76.6949 10.158 76.6949 10.998V14.202H74.1749V6.336H76.4609ZM88.1744 14.418C87.4424 14.418 86.7764 14.274 86.1764 13.986C85.5884 13.686 85.1204 13.23 84.7724 12.618C84.4244 12.006 84.2504 11.226 84.2504 10.278C84.2504 9.39 84.4304 8.622 84.7904 7.974C85.1504 7.326 85.6244 6.828 86.2124 6.48C86.8004 6.12 87.4244 5.94 88.0844 5.94C88.8644 5.94 89.4524 6.066 89.8484 6.318C90.2564 6.57 90.5804 6.846 90.8204 7.146L90.9824 6.336H93.3224V14.202H90.8024V13.23C90.6824 13.35 90.5024 13.506 90.2624 13.698C90.0344 13.89 89.7464 14.058 89.3984 14.202C89.0504 14.346 88.6424 14.418 88.1744 14.418ZM88.8944 12.366C89.7704 12.366 90.4064 11.97 90.8024 11.178V9.252C90.6584 8.868 90.4064 8.562 90.0464 8.334C89.6984 8.106 89.2844 7.992 88.8044 7.992C88.2644 7.992 87.7964 8.196 87.4004 8.604C87.0044 9 86.8064 9.516 86.8064 10.152C86.8064 10.572 86.9024 10.95 87.0944 11.286C87.2864 11.622 87.5384 11.886 87.8504 12.078C88.1744 12.27 88.5224 12.366 88.8944 12.366ZM95.919 -4.76837e-06H98.439V14.202H95.919V-4.76837e-06Z" fill="black"/>
<path d="M349.71 0.953995H352.32V14.202H349.71V0.953995ZM357.611 6.336L357.791 7.596C358.067 7.104 358.457 6.708 358.961 6.408C359.465 6.108 360.077 5.958 360.797 5.958C361.541 5.958 362.159 6.18 362.651 6.624C363.155 7.056 363.413 7.62 363.425 8.316V14.202H360.905V9.252C360.893 8.904 360.797 8.628 360.617 8.424C360.449 8.208 360.161 8.1 359.753 8.1C359.165 8.1 358.697 8.376 358.349 8.928C358.013 9.468 357.845 10.158 357.845 10.998V14.202H355.325V6.336H357.611ZM366.751 2.88H369.271V6.3H371.179V8.262H369.271V14.202H366.751V8.262H365.527V6.3H366.751V2.88ZM376.967 14.418C376.007 14.418 375.191 14.238 374.519 13.878C373.859 13.518 373.355 13.02 373.007 12.384C372.659 11.748 372.485 11.016 372.485 10.188C372.485 9.396 372.689 8.682 373.097 8.046C373.505 7.41 374.051 6.906 374.735 6.534C375.419 6.15 376.181 5.958 377.021 5.958C378.149 5.958 379.073 6.288 379.793 6.948C380.525 7.596 380.999 8.538 381.215 9.774L375.455 11.61C375.839 12.054 376.361 12.276 377.021 12.276C377.297 12.276 377.561 12.228 377.813 12.132C378.077 12.036 378.335 11.91 378.587 11.754L379.703 13.626C379.283 13.866 378.827 14.058 378.335 14.202C377.855 14.346 377.399 14.418 376.967 14.418ZM374.969 10.044C374.969 10.104 374.969 10.158 374.969 10.206L378.425 9.036C378.317 8.736 378.143 8.478 377.903 8.262C377.663 8.034 377.303 7.92 376.823 7.92C376.259 7.92 375.809 8.112 375.473 8.496C375.137 8.88 374.969 9.396 374.969 10.044ZM385.314 6.336L385.512 8.136C385.74 7.68 386.052 7.29 386.448 6.966C386.844 6.63 387.234 6.378 387.618 6.21C388.002 6.03 388.296 5.94 388.5 5.94L388.374 8.46C387.786 8.388 387.282 8.484 386.862 8.748C386.442 9.012 386.118 9.36 385.89 9.792C385.662 10.224 385.548 10.668 385.548 11.124V14.202H383.046V6.336H385.314ZM392.715 6.336L392.895 7.596C393.171 7.104 393.561 6.708 394.065 6.408C394.569 6.108 395.181 5.958 395.901 5.958C396.645 5.958 397.263 6.18 397.755 6.624C398.259 7.056 398.517 7.62 398.529 8.316V14.202H396.009V9.252C395.997 8.904 395.901 8.628 395.721 8.424C395.553 8.208 395.265 8.1 394.857 8.1C394.269 8.1 393.801 8.376 393.453 8.928C393.117 9.468 392.949 10.158 392.949 10.998V14.202H390.429V6.336H392.715ZM404.428 14.418C403.696 14.418 403.03 14.274 402.43 13.986C401.842 13.686 401.374 13.23 401.026 12.618C400.678 12.006 400.504 11.226 400.504 10.278C400.504 9.39 400.684 8.622 401.044 7.974C401.404 7.326 401.878 6.828 402.466 6.48C403.054 6.12 403.678 5.94 404.338 5.94C405.118 5.94 405.706 6.066 406.102 6.318C406.51 6.57 406.834 6.846 407.074 7.146L407.236 6.336H409.576V14.202H407.056V13.23C406.936 13.35 406.756 13.506 406.516 13.698C406.288 13.89 406 14.058 405.652 14.202C405.304 14.346 404.896 14.418 404.428 14.418ZM405.148 12.366C406.024 12.366 406.66 11.97 407.056 11.178V9.252C406.912 8.868 406.66 8.562 406.3 8.334C405.952 8.106 405.538 7.992 405.058 7.992C404.518 7.992 404.05 8.196 403.654 8.604C403.258 9 403.06 9.516 403.06 10.152C403.06 10.572 403.156 10.95 403.348 11.286C403.54 11.622 403.792 11.886 404.104 12.078C404.428 12.27 404.776 12.366 405.148 12.366ZM412.173 -4.76837e-06H414.693V14.202H412.173V-4.76837e-06Z" fill="black"/>
<path d="M365.736 219.074C365.44 218.922 365.116 218.79 364.764 218.678C364.412 218.566 364.072 218.51 363.744 218.51C363.272 218.51 362.896 218.618 362.616 218.834C362.344 219.05 362.208 219.342 362.208 219.71C362.208 219.974 362.296 220.198 362.472 220.382C362.656 220.566 362.888 220.73 363.168 220.874C363.456 221.01 363.76 221.138 364.08 221.258C364.44 221.394 364.788 221.558 365.124 221.75C365.46 221.942 365.736 222.202 365.952 222.53C366.176 222.85 366.288 223.282 366.288 223.826C366.288 224.29 366.172 224.71 365.94 225.086C365.708 225.454 365.38 225.75 364.956 225.974C364.532 226.19 364.028 226.298 363.444 226.298C362.868 226.298 362.332 226.206 361.836 226.022C361.348 225.838 360.932 225.626 360.588 225.386L361.104 224.462C361.384 224.678 361.728 224.866 362.136 225.026C362.552 225.186 362.948 225.266 363.324 225.266C363.604 225.266 363.876 225.218 364.14 225.122C364.412 225.026 364.636 224.874 364.812 224.666C364.988 224.45 365.076 224.174 365.076 223.838C365.076 223.55 364.996 223.306 364.836 223.106C364.676 222.906 364.468 222.738 364.212 222.602C363.964 222.458 363.692 222.33 363.396 222.218C363.124 222.122 362.848 222.01 362.568 221.882C362.288 221.754 362.028 221.602 361.788 221.426C361.556 221.242 361.368 221.018 361.224 220.754C361.08 220.49 361.008 220.17 361.008 219.794C361.008 219.338 361.116 218.942 361.332 218.606C361.556 218.262 361.86 217.994 362.244 217.802C362.628 217.602 363.072 217.494 363.576 217.478C364.128 217.478 364.616 217.546 365.04 217.682C365.472 217.818 365.852 217.982 366.18 218.174L365.736 219.074ZM370.26 226.322C369.7 226.322 369.212 226.21 368.796 225.986C368.388 225.754 368.072 225.438 367.848 225.038C367.632 224.638 367.524 224.186 367.524 223.682C367.524 223.194 367.644 222.75 367.884 222.35C368.132 221.942 368.464 221.622 368.88 221.39C369.304 221.15 369.772 221.03 370.284 221.03C370.94 221.03 371.484 221.222 371.916 221.606C372.348 221.99 372.644 222.518 372.804 223.19L368.868 224.57C369.004 224.818 369.196 225.014 369.444 225.158C369.692 225.294 369.972 225.362 370.284 225.362C370.508 225.362 370.72 225.322 370.92 225.242C371.12 225.162 371.312 225.058 371.496 224.93L372.012 225.758C371.756 225.926 371.472 226.062 371.16 226.166C370.856 226.27 370.556 226.322 370.26 226.322ZM368.628 223.622C368.62 223.718 368.624 223.81 368.64 223.898L371.532 222.83C371.42 222.59 371.256 222.378 371.04 222.194C370.832 222.01 370.552 221.918 370.2 221.918C369.744 221.918 369.368 222.078 369.072 222.398C368.776 222.718 368.628 223.126 368.628 223.622ZM375.187 221.234L375.271 222.398C375.407 222.118 375.595 221.878 375.835 221.678C376.075 221.47 376.323 221.314 376.579 221.21C376.843 221.098 377.071 221.038 377.263 221.03L377.215 222.146C376.839 222.13 376.507 222.206 376.219 222.374C375.931 222.534 375.707 222.754 375.547 223.034C375.387 223.314 375.307 223.614 375.307 223.934V226.202H374.191V221.234H375.187ZM380.718 226.346L377.958 221.234H379.29L380.79 224.414L382.182 221.234H383.43L380.778 226.346H380.718ZM384.632 221.234H385.748V226.202H384.632V221.234ZM384.548 219.446C384.548 219.262 384.616 219.114 384.752 219.002C384.896 218.882 385.052 218.822 385.22 218.822C385.388 218.822 385.54 218.882 385.676 219.002C385.812 219.114 385.88 219.262 385.88 219.446C385.88 219.63 385.812 219.782 385.676 219.902C385.54 220.014 385.388 220.07 385.22 220.07C385.052 220.07 384.896 220.014 384.752 219.902C384.616 219.782 384.548 219.63 384.548 219.446ZM391.723 225.734C391.499 225.918 391.231 226.062 390.919 226.166C390.607 226.27 390.295 226.322 389.983 226.322C389.447 226.322 388.971 226.214 388.555 225.998C388.147 225.782 387.827 225.478 387.595 225.086C387.371 224.694 387.259 224.234 387.259 223.706C387.259 223.178 387.379 222.722 387.619 222.338C387.867 221.946 388.187 221.642 388.579 221.426C388.979 221.21 389.411 221.102 389.875 221.102C390.275 221.102 390.631 221.158 390.943 221.27C391.255 221.382 391.527 221.534 391.759 221.726L391.195 222.458C391.051 222.354 390.875 222.258 390.667 222.17C390.459 222.074 390.227 222.026 389.971 222.026C389.675 222.026 389.407 222.102 389.167 222.254C388.927 222.398 388.735 222.598 388.591 222.854C388.447 223.102 388.375 223.386 388.375 223.706C388.375 224.018 388.447 224.302 388.591 224.558C388.735 224.814 388.935 225.018 389.191 225.17C389.447 225.322 389.743 225.398 390.079 225.398C390.287 225.398 390.479 225.366 390.655 225.302C390.839 225.238 391.003 225.15 391.147 225.038L391.723 225.734ZM395.467 226.322C394.907 226.322 394.419 226.21 394.003 225.986C393.595 225.754 393.279 225.438 393.055 225.038C392.839 224.638 392.731 224.186 392.731 223.682C392.731 223.194 392.851 222.75 393.091 222.35C393.339 221.942 393.671 221.622 394.087 221.39C394.511 221.15 394.979 221.03 395.491 221.03C396.147 221.03 396.691 221.222 397.123 221.606C397.555 221.99 397.851 222.518 398.011 223.19L394.075 224.57C394.211 224.818 394.403 225.014 394.651 225.158C394.899 225.294 395.179 225.362 395.491 225.362C395.715 225.362 395.927 225.322 396.127 225.242C396.327 225.162 396.519 225.058 396.703 224.93L397.219 225.758C396.963 225.926 396.679 226.062 396.367 226.166C396.063 226.27 395.763 226.322 395.467 226.322ZM393.835 223.622C393.827 223.718 393.831 223.81 393.847 223.898L396.739 222.83C396.627 222.59 396.463 222.378 396.247 222.194C396.039 222.01 395.759 221.918 395.407 221.918C394.951 221.918 394.575 222.078 394.279 222.398C393.983 222.718 393.835 223.126 393.835 223.622ZM400.802 226.298C400.442 226.298 400.094 226.238 399.758 226.118C399.43 225.99 399.158 225.802 398.942 225.554L399.422 224.906C399.622 225.106 399.834 225.258 400.058 225.362C400.282 225.458 400.498 225.506 400.706 225.506C400.946 225.506 401.154 225.458 401.33 225.362C401.514 225.266 401.606 225.102 401.606 224.87C401.606 224.694 401.546 224.554 401.426 224.45C401.314 224.346 401.166 224.266 400.982 224.21C400.806 224.146 400.622 224.082 400.43 224.018C399.582 223.746 399.158 223.262 399.158 222.566C399.158 222.31 399.222 222.066 399.35 221.834C399.486 221.602 399.682 221.414 399.938 221.27C400.202 221.126 400.526 221.054 400.91 221.054C401.254 221.054 401.562 221.098 401.834 221.186C402.106 221.274 402.362 221.414 402.602 221.606L402.158 222.29C402.014 222.146 401.842 222.038 401.642 221.966C401.45 221.886 401.274 221.842 401.114 221.834C400.898 221.834 400.706 221.886 400.538 221.99C400.378 222.094 400.298 222.238 400.298 222.422C400.29 222.59 400.342 222.726 400.454 222.83C400.566 222.926 400.71 223.006 400.886 223.07C401.07 223.134 401.254 223.194 401.438 223.25C401.798 223.37 402.102 223.534 402.35 223.742C402.606 223.95 402.734 224.254 402.734 224.654C402.734 225.102 402.574 225.49 402.254 225.818C401.934 226.138 401.45 226.298 400.802 226.298Z" fill="black"/>
<path d="M363.608 95.25C363.04 96.786 362.476 98.318 361.916 99.846C361.356 101.374 360.792 102.902 360.224 104.43H359.204C359.772 102.902 360.336 101.374 360.896 99.846C361.456 98.318 362.02 96.786 362.588 95.25H363.608ZM365.597 99.234L365.669 100.182C365.861 99.822 366.121 99.542 366.449 99.342C366.785 99.134 367.169 99.03 367.601 99.03C368.009 99.03 368.349 99.126 368.621 99.318C368.901 99.51 369.073 99.77 369.137 100.098C369.337 99.762 369.597 99.502 369.917 99.318C370.245 99.126 370.593 99.03 370.961 99.03C371.441 99.03 371.821 99.17 372.101 99.45C372.389 99.73 372.541 100.086 372.557 100.518V104.202H371.441V100.938C371.425 100.682 371.357 100.47 371.237 100.302C371.125 100.126 370.929 100.03 370.649 100.014C370.353 100.014 370.093 100.102 369.869 100.278C369.645 100.446 369.469 100.67 369.341 100.95C369.213 101.23 369.145 101.526 369.137 101.838V104.202H368.009V100.938C368.001 100.682 367.933 100.47 367.805 100.302C367.685 100.126 367.481 100.03 367.193 100.014C366.905 100.014 366.649 100.102 366.425 100.278C366.201 100.446 366.025 100.67 365.897 100.95C365.769 101.23 365.705 101.53 365.705 101.85V104.202H364.589V99.234H365.597ZM376.796 104.322C376.236 104.322 375.748 104.21 375.332 103.986C374.924 103.754 374.608 103.438 374.384 103.038C374.168 102.638 374.06 102.186 374.06 101.682C374.06 101.194 374.18 100.75 374.42 100.35C374.668 99.942 375 99.622 375.416 99.39C375.84 99.15 376.308 99.03 376.82 99.03C377.476 99.03 378.02 99.222 378.452 99.606C378.884 99.99 379.18 100.518 379.34 101.19L375.404 102.57C375.54 102.818 375.732 103.014 375.98 103.158C376.228 103.294 376.508 103.362 376.82 103.362C377.044 103.362 377.256 103.322 377.456 103.242C377.656 103.162 377.848 103.058 378.032 102.93L378.548 103.758C378.292 103.926 378.008 104.062 377.696 104.166C377.392 104.27 377.092 104.322 376.796 104.322ZM375.164 101.622C375.156 101.718 375.16 101.81 375.176 101.898L378.068 100.83C377.956 100.59 377.792 100.378 377.576 100.194C377.368 100.01 377.088 99.918 376.736 99.918C376.28 99.918 375.904 100.078 375.608 100.398C375.312 100.718 375.164 101.126 375.164 101.622ZM381.206 97.05H382.334V99.246H383.69V100.134H382.334V104.202H381.206V100.134H380.294V99.246H381.206V97.05ZM386.046 99.234L386.13 100.398C386.266 100.118 386.454 99.878 386.694 99.678C386.934 99.47 387.182 99.314 387.438 99.21C387.702 99.098 387.93 99.038 388.122 99.03L388.074 100.146C387.698 100.13 387.366 100.206 387.078 100.374C386.79 100.534 386.566 100.754 386.406 101.034C386.246 101.314 386.166 101.614 386.166 101.934V104.202H385.05V99.234H386.046ZM389.562 99.234H390.678V104.202H389.562V99.234ZM389.478 97.446C389.478 97.262 389.546 97.114 389.682 97.002C389.826 96.882 389.982 96.822 390.15 96.822C390.318 96.822 390.47 96.882 390.606 97.002C390.742 97.114 390.81 97.262 390.81 97.446C390.81 97.63 390.742 97.782 390.606 97.902C390.47 98.014 390.318 98.07 390.15 98.07C389.982 98.07 389.826 98.014 389.682 97.902C389.546 97.782 389.478 97.63 389.478 97.446ZM396.652 103.734C396.428 103.918 396.16 104.062 395.848 104.166C395.536 104.27 395.224 104.322 394.912 104.322C394.376 104.322 393.9 104.214 393.484 103.998C393.076 103.782 392.756 103.478 392.524 103.086C392.3 102.694 392.188 102.234 392.188 101.706C392.188 101.178 392.308 100.722 392.548 100.338C392.796 99.946 393.116 99.642 393.508 99.426C393.908 99.21 394.34 99.102 394.804 99.102C395.204 99.102 395.56 99.158 395.872 99.27C396.184 99.382 396.456 99.534 396.688 99.726L396.124 100.458C395.98 100.354 395.804 100.258 395.596 100.17C395.388 100.074 395.156 100.026 394.9 100.026C394.604 100.026 394.336 100.102 394.096 100.254C393.856 100.398 393.664 100.598 393.52 100.854C393.376 101.102 393.304 101.386 393.304 101.706C393.304 102.018 393.376 102.302 393.52 102.558C393.664 102.814 393.864 103.018 394.12 103.17C394.376 103.322 394.672 103.398 395.008 103.398C395.216 103.398 395.408 103.366 395.584 103.302C395.768 103.238 395.932 103.15 396.076 103.038L396.652 103.734ZM399.497 104.298C399.137 104.298 398.789 104.238 398.453 104.118C398.125 103.99 397.853 103.802 397.637 103.554L398.117 102.906C398.317 103.106 398.529 103.258 398.753 103.362C398.977 103.458 399.193 103.506 399.401 103.506C399.641 103.506 399.849 103.458 400.025 103.362C400.209 103.266 400.301 103.102 400.301 102.87C400.301 102.694 400.241 102.554 400.121 102.45C400.009 102.346 399.861 102.266 399.677 102.21C399.501 102.146 399.317 102.082 399.125 102.018C398.277 101.746 397.853 101.262 397.853 100.566C397.853 100.31 397.917 100.066 398.045 99.834C398.181 99.602 398.377 99.414 398.633 99.27C398.897 99.126 399.221 99.054 399.605 99.054C399.949 99.054 400.257 99.098 400.529 99.186C400.801 99.274 401.057 99.414 401.297 99.606L400.853 100.29C400.709 100.146 400.537 100.038 400.337 99.966C400.145 99.886 399.969 99.842 399.809 99.834C399.593 99.834 399.401 99.886 399.233 99.99C399.073 100.094 398.993 100.238 398.993 100.422C398.985 100.59 399.037 100.726 399.149 100.83C399.261 100.926 399.405 101.006 399.581 101.07C399.765 101.134 399.949 101.194 400.133 101.25C400.493 101.37 400.797 101.534 401.045 101.742C401.301 101.95 401.429 102.254 401.429 102.654C401.429 103.102 401.269 103.49 400.949 103.818C400.629 104.138 400.145 104.298 399.497 104.298Z" fill="black"/>
<path d="M129.354 95.5556C129.549 95.3603 129.549 95.0437 129.354 94.8485L126.172 91.6665C125.976 91.4712 125.66 91.4712 125.464 91.6665C125.269 91.8617 125.269 92.1783 125.464 92.3736L128.293 95.202L125.464 98.0304C125.269 98.2257 125.269 98.5423 125.464 98.7375C125.66 98.9328 125.976 98.9328 126.172 98.7375L129.354 95.5556ZM-4.37114e-08 95.702L129 95.702L129 94.702L4.37114e-08 94.702L-4.37114e-08 95.702Z" fill="black"/>
<path d="M354.248 365.202V356.526H356.624C357.48 356.526 358.208 356.658 358.808 356.922C359.408 357.178 359.892 357.522 360.26 357.954C360.636 358.386 360.908 358.866 361.076 359.394C361.252 359.914 361.34 360.438 361.34 360.966C361.34 361.614 361.224 362.202 360.992 362.73C360.76 363.25 360.444 363.694 360.044 364.062C359.644 364.43 359.184 364.714 358.664 364.914C358.152 365.106 357.612 365.202 357.044 365.202H354.248ZM355.412 364.074H356.816C357.448 364.074 358.012 363.95 358.508 363.702C359.012 363.454 359.408 363.094 359.696 362.622C359.984 362.142 360.128 361.562 360.128 360.882C360.128 360.178 359.976 359.586 359.672 359.106C359.376 358.626 358.98 358.262 358.484 358.014C357.996 357.766 357.476 357.642 356.924 357.642H355.412V364.074ZM365.095 365.322C364.623 365.322 364.195 365.222 363.811 365.022C363.435 364.822 363.135 364.53 362.911 364.146C362.695 363.754 362.587 363.278 362.587 362.718C362.587 362.158 362.699 361.678 362.923 361.278C363.155 360.878 363.463 360.57 363.847 360.354C364.239 360.138 364.667 360.03 365.131 360.03C365.579 360.03 365.959 360.126 366.271 360.318C366.583 360.51 366.827 360.742 367.003 361.014L367.087 360.234H368.119V365.202H367.003V364.386C366.907 364.514 366.767 364.65 366.583 364.794C366.407 364.938 366.191 365.062 365.935 365.166C365.687 365.27 365.407 365.322 365.095 365.322ZM365.395 364.398C365.803 364.398 366.151 364.286 366.439 364.062C366.727 363.83 366.915 363.518 367.003 363.126V362.142C366.907 361.798 366.707 361.514 366.403 361.29C366.099 361.066 365.751 360.954 365.359 360.954C365.055 360.954 364.779 361.026 364.531 361.17C364.283 361.314 364.083 361.514 363.931 361.77C363.787 362.026 363.715 362.322 363.715 362.658C363.715 362.986 363.791 363.282 363.943 363.546C364.095 363.802 364.299 364.01 364.555 364.17C364.811 364.322 365.091 364.398 365.395 364.398ZM370.542 358.05H371.67V360.246H373.026V361.134H371.67V365.202H370.542V361.134H369.63V360.246H370.542V358.05ZM376.462 365.322C375.99 365.322 375.562 365.222 375.178 365.022C374.802 364.822 374.502 364.53 374.278 364.146C374.062 363.754 373.954 363.278 373.954 362.718C373.954 362.158 374.066 361.678 374.29 361.278C374.522 360.878 374.83 360.57 375.214 360.354C375.606 360.138 376.034 360.03 376.498 360.03C376.946 360.03 377.326 360.126 377.638 360.318C377.95 360.51 378.194 360.742 378.37 361.014L378.454 360.234H379.486V365.202H378.37V364.386C378.274 364.514 378.134 364.65 377.95 364.794C377.774 364.938 377.558 365.062 377.302 365.166C377.054 365.27 376.774 365.322 376.462 365.322ZM376.762 364.398C377.17 364.398 377.518 364.286 377.806 364.062C378.094 363.83 378.282 363.518 378.37 363.126V362.142C378.274 361.798 378.074 361.514 377.77 361.29C377.466 361.066 377.118 360.954 376.726 360.954C376.422 360.954 376.146 361.026 375.898 361.17C375.65 361.314 375.45 361.514 375.298 361.77C375.154 362.026 375.082 362.322 375.082 362.658C375.082 362.986 375.158 363.282 375.31 363.546C375.462 363.802 375.666 364.01 375.922 364.17C376.178 364.322 376.458 364.398 376.762 364.398ZM384.465 365.322C384.041 365.322 383.665 365.242 383.337 365.082C383.017 364.914 382.753 364.702 382.545 364.446V365.202H381.429V355.902H382.545V360.906C382.745 360.642 383.025 360.43 383.385 360.27C383.745 360.11 384.153 360.03 384.609 360.03C385.049 360.03 385.453 360.138 385.821 360.354C386.189 360.562 386.485 360.862 386.709 361.254C386.933 361.646 387.045 362.106 387.045 362.634C387.045 363.202 386.925 363.686 386.685 364.086C386.445 364.486 386.129 364.794 385.737 365.01C385.345 365.218 384.921 365.322 384.465 365.322ZM384.225 364.362C384.713 364.362 385.113 364.202 385.425 363.882C385.745 363.554 385.905 363.138 385.905 362.634C385.905 362.314 385.829 362.026 385.677 361.77C385.533 361.506 385.333 361.298 385.077 361.146C384.829 360.994 384.545 360.918 384.225 360.918C383.809 360.918 383.449 361.03 383.145 361.254C382.841 361.478 382.641 361.766 382.545 362.118V363.138C382.641 363.49 382.837 363.782 383.133 364.014C383.429 364.246 383.793 364.362 384.225 364.362ZM390.618 365.322C390.146 365.322 389.718 365.222 389.334 365.022C388.958 364.822 388.658 364.53 388.434 364.146C388.218 363.754 388.11 363.278 388.11 362.718C388.11 362.158 388.222 361.678 388.446 361.278C388.678 360.878 388.986 360.57 389.37 360.354C389.762 360.138 390.19 360.03 390.654 360.03C391.102 360.03 391.482 360.126 391.794 360.318C392.106 360.51 392.35 360.742 392.526 361.014L392.61 360.234H393.642V365.202H392.526V364.386C392.43 364.514 392.29 364.65 392.106 364.794C391.93 364.938 391.714 365.062 391.458 365.166C391.21 365.27 390.93 365.322 390.618 365.322ZM390.918 364.398C391.326 364.398 391.674 364.286 391.962 364.062C392.25 363.83 392.438 363.518 392.526 363.126V362.142C392.43 361.798 392.23 361.514 391.926 361.29C391.622 361.066 391.274 360.954 390.882 360.954C390.578 360.954 390.302 361.026 390.054 361.17C389.806 361.314 389.606 361.514 389.454 361.77C389.31 362.026 389.238 362.322 389.238 362.658C389.238 362.986 389.314 363.282 389.466 363.546C389.618 363.802 389.822 364.01 390.078 364.17C390.334 364.322 390.614 364.398 390.918 364.398ZM396.989 365.298C396.629 365.298 396.281 365.238 395.945 365.118C395.617 364.99 395.345 364.802 395.129 364.554L395.609 363.906C395.809 364.106 396.021 364.258 396.245 364.362C396.469 364.458 396.685 364.506 396.893 364.506C397.133 364.506 397.341 364.458 397.517 364.362C397.701 364.266 397.793 364.102 397.793 363.87C397.793 363.694 397.733 363.554 397.613 363.45C397.501 363.346 397.353 363.266 397.169 363.21C396.993 363.146 396.809 363.082 396.617 363.018C395.769 362.746 395.345 362.262 395.345 361.566C395.345 361.31 395.409 361.066 395.537 360.834C395.673 360.602 395.869 360.414 396.125 360.27C396.389 360.126 396.713 360.054 397.097 360.054C397.441 360.054 397.749 360.098 398.021 360.186C398.293 360.274 398.549 360.414 398.789 360.606L398.345 361.29C398.201 361.146 398.029 361.038 397.829 360.966C397.637 360.886 397.461 360.842 397.301 360.834C397.085 360.834 396.893 360.886 396.725 360.99C396.565 361.094 396.485 361.238 396.485 361.422C396.477 361.59 396.529 361.726 396.641 361.83C396.753 361.926 396.897 362.006 397.073 362.07C397.257 362.134 397.441 362.194 397.625 362.25C397.985 362.37 398.289 362.534 398.537 362.742C398.793 362.95 398.921 363.254 398.921 363.654C398.921 364.102 398.761 364.49 398.441 364.818C398.121 365.138 397.637 365.298 396.989 365.298ZM402.788 365.322C402.228 365.322 401.74 365.21 401.324 364.986C400.916 364.754 400.6 364.438 400.376 364.038C400.16 363.638 400.052 363.186 400.052 362.682C400.052 362.194 400.172 361.75 400.412 361.35C400.66 360.942 400.992 360.622 401.408 360.39C401.832 360.15 402.3 360.03 402.812 360.03C403.468 360.03 404.012 360.222 404.444 360.606C404.876 360.99 405.172 361.518 405.332 362.19L401.396 363.57C401.532 363.818 401.724 364.014 401.972 364.158C402.22 364.294 402.5 364.362 402.812 364.362C403.036 364.362 403.248 364.322 403.448 364.242C403.648 364.162 403.84 364.058 404.024 363.93L404.54 364.758C404.284 364.926 404 365.062 403.688 365.166C403.384 365.27 403.084 365.322 402.788 365.322ZM401.156 362.622C401.148 362.718 401.152 362.81 401.168 362.898L404.06 361.83C403.948 361.59 403.784 361.378 403.568 361.194C403.36 361.01 403.08 360.918 402.728 360.918C402.272 360.918 401.896 361.078 401.6 361.398C401.304 361.718 401.156 362.126 401.156 362.622ZM408.122 365.298C407.762 365.298 407.414 365.238 407.078 365.118C406.75 364.99 406.478 364.802 406.262 364.554L406.742 363.906C406.942 364.106 407.154 364.258 407.378 364.362C407.602 364.458 407.818 364.506 408.026 364.506C408.266 364.506 408.474 364.458 408.65 364.362C408.834 364.266 408.926 364.102 408.926 363.87C408.926 363.694 408.866 363.554 408.746 363.45C408.634 363.346 408.486 363.266 408.302 363.21C408.126 363.146 407.942 363.082 407.75 363.018C406.902 362.746 406.478 362.262 406.478 361.566C406.478 361.31 406.542 361.066 406.67 360.834C406.806 360.602 407.002 360.414 407.258 360.27C407.522 360.126 407.846 360.054 408.23 360.054C408.574 360.054 408.882 360.098 409.154 360.186C409.426 360.274 409.682 360.414 409.922 360.606L409.478 361.29C409.334 361.146 409.162 361.038 408.962 360.966C408.77 360.886 408.594 360.842 408.434 360.834C408.218 360.834 408.026 360.886 407.858 360.99C407.698 361.094 407.618 361.238 407.618 361.422C407.61 361.59 407.662 361.726 407.774 361.83C407.886 361.926 408.03 362.006 408.206 362.07C408.39 362.134 408.574 362.194 408.758 362.25C409.118 362.37 409.422 362.534 409.67 362.742C409.926 362.95 410.054 363.254 410.054 363.654C410.054 364.102 409.894 364.49 409.574 364.818C409.254 365.138 408.77 365.298 408.122 365.298Z" fill="black"/>
<path d="M446.354 374.556C446.549 374.36 446.549 374.044 446.354 373.848L443.172 370.666C442.976 370.471 442.66 370.471 442.464 370.666C442.269 370.862 442.269 371.178 442.464 371.374L445.293 374.202L442.464 377.03C442.269 377.226 442.269 377.542 442.464 377.738C442.66 377.933 442.976 377.933 443.172 377.738L446.354 374.556ZM317 374.702L446 374.702L446 373.702L317 373.702L317 374.702Z" fill="black"/>
<path d="M318.646 76.8484C318.451 77.0437 318.451 77.3603 318.646 77.5555L321.828 80.7375C322.024 80.9328 322.34 80.9328 322.536 80.7375C322.731 80.5423 322.731 80.2257 322.536 80.0304L319.707 77.202L322.536 74.3736C322.731 74.1783 322.731 73.8617 322.536 73.6665C322.34 73.4712 322.024 73.4712 321.828 73.6665L318.646 76.8484ZM319 77.702L448 77.702L448 76.702L319 76.702L319 77.702Z" fill="black"/>
<path d="M318.646 234.848C318.451 235.044 318.451 235.36 318.646 235.556L321.828 238.738C322.024 238.933 322.34 238.933 322.536 238.738C322.731 238.542 322.731 238.226 322.536 238.03L319.707 235.202L322.536 232.374C322.731 232.178 322.731 231.862 322.536 231.666C322.34 231.471 322.024 231.471 321.828 231.666L318.646 234.848ZM319 235.702L448 235.702L448 234.702L319 234.702L319 235.702Z" fill="black"/>
<path d="M318.646 111.848C318.451 112.044 318.451 112.36 318.646 112.556L321.828 115.738C322.024 115.933 322.34 115.933 322.536 115.738C322.731 115.542 322.731 115.226 322.536 115.03L319.707 112.202L322.536 109.374C322.731 109.178 322.731 108.862 322.536 108.666C322.34 108.471 322.024 108.471 321.828 108.666L318.646 111.848ZM319 112.702L448 112.702L448 111.702L319 111.702L319 112.702Z" fill="black"/>
</svg>
