<svg width="417" height="368" viewBox="0 0 417 368" fill="none" xmlns="http://www.w3.org/2000/svg">
<path d="M100 20C100 8.9543 108.954 0 120 0H296C307.046 0 316 8.95431 316 20V348C316 359.046 307.046 368 296 368H120C108.954 368 100 359.046 100 348V20Z" fill="#4285F4" fill-opacity="0.2"/>
<path d="M207.354 251.354C207.158 251.549 206.842 251.549 206.646 251.354L203.464 248.172C203.269 247.976 203.269 247.66 203.464 247.464C203.66 247.269 203.976 247.269 204.172 247.464L207 250.293L209.828 247.464C210.024 247.269 210.34 247.269 210.536 247.464C210.731 247.66 210.731 247.976 210.536 248.172L207.354 251.354ZM207.5 229V251H206.5V229H207.5Z" fill="black"/>
<path d="M141.5 274C141.5 263.23 150.23 254.5 161 254.5H259C269.77 254.5 278.5 263.23 278.5 274V317C278.5 327.77 269.77 336.5 259 336.5H161C150.23 336.5 141.5 327.77 141.5 317V274Z" fill="#4285F4" stroke="#4285F4"/>
<path d="M170.62 298.352C170.476 298.448 170.28 298.556 170.032 298.676C169.784 298.796 169.492 298.9 169.156 298.988C168.828 299.068 168.468 299.104 168.076 299.096C167.396 299.088 166.788 298.968 166.252 298.736C165.716 298.504 165.256 298.188 164.872 297.788C164.496 297.38 164.208 296.916 164.008 296.396C163.808 295.876 163.708 295.32 163.708 294.728C163.708 294.08 163.812 293.484 164.02 292.94C164.236 292.388 164.536 291.912 164.92 291.512C165.304 291.104 165.756 290.788 166.276 290.564C166.804 290.34 167.38 290.228 168.004 290.228C168.524 290.228 168.996 290.3 169.42 290.444C169.844 290.58 170.208 290.74 170.512 290.924L170.044 292.016C169.804 291.856 169.512 291.704 169.168 291.56C168.824 291.416 168.448 291.344 168.04 291.344C167.616 291.344 167.216 291.432 166.84 291.608C166.464 291.776 166.132 292.012 165.844 292.316C165.556 292.612 165.328 292.964 165.16 293.372C165 293.772 164.92 294.204 164.92 294.668C164.92 295.292 165.048 295.856 165.304 296.36C165.568 296.856 165.936 297.248 166.408 297.536C166.888 297.824 167.448 297.968 168.088 297.968C168.536 297.968 168.928 297.904 169.264 297.776C169.608 297.64 169.892 297.484 170.116 297.308L170.62 298.352ZM172.304 289.7H173.42V299H172.304V289.7ZM174.931 296.468C174.931 295.972 175.047 295.524 175.279 295.124C175.519 294.724 175.847 294.408 176.263 294.176C176.679 293.944 177.155 293.828 177.691 293.828C178.227 293.828 178.699 293.944 179.107 294.176C179.515 294.408 179.831 294.724 180.055 295.124C180.287 295.524 180.403 295.972 180.403 296.468C180.403 296.964 180.287 297.412 180.055 297.812C179.831 298.212 179.511 298.532 179.095 298.772C178.687 299.004 178.211 299.12 177.667 299.12C177.139 299.12 176.667 299.012 176.251 298.796C175.843 298.58 175.519 298.272 175.279 297.872C175.047 297.472 174.931 297.004 174.931 296.468ZM176.059 296.48C176.059 296.8 176.127 297.092 176.263 297.356C176.407 297.612 176.599 297.816 176.839 297.968C177.079 298.12 177.351 298.196 177.655 298.196C177.967 298.196 178.243 298.12 178.483 297.968C178.723 297.816 178.911 297.612 179.047 297.356C179.191 297.092 179.263 296.8 179.263 296.48C179.263 296.16 179.191 295.872 179.047 295.616C178.911 295.352 178.723 295.144 178.483 294.992C178.243 294.832 177.967 294.752 177.655 294.752C177.351 294.752 177.075 294.832 176.827 294.992C176.587 295.152 176.399 295.364 176.263 295.628C176.127 295.884 176.059 296.168 176.059 296.48ZM183.486 299.192C183.03 299.192 182.654 299.056 182.358 298.784C182.062 298.504 181.91 298.144 181.902 297.704V294.032H183.018V297.308C183.034 297.58 183.114 297.8 183.258 297.968C183.402 298.136 183.626 298.224 183.93 298.232C184.202 298.232 184.45 298.152 184.674 297.992C184.898 297.824 185.074 297.6 185.202 297.32C185.338 297.032 185.406 296.708 185.406 296.348V294.032H186.522V299H185.514L185.43 298.064C185.27 298.392 185.014 298.664 184.662 298.88C184.318 299.088 183.926 299.192 183.486 299.192ZM190.492 299.12C190.02 299.12 189.596 299.012 189.22 298.796C188.852 298.572 188.56 298.26 188.344 297.86C188.136 297.452 188.032 296.98 188.032 296.444C188.032 295.9 188.144 295.432 188.368 295.04C188.592 294.648 188.9 294.348 189.292 294.14C189.692 293.932 190.136 293.828 190.624 293.828C191 293.828 191.36 293.908 191.704 294.068C192.048 294.22 192.324 294.432 192.532 294.704V289.7H193.648V299H192.52V298.232C192.28 298.496 191.984 298.712 191.632 298.88C191.288 299.04 190.908 299.12 190.492 299.12ZM190.84 298.16C191.272 298.16 191.636 298.044 191.932 297.812C192.228 297.58 192.42 297.268 192.508 296.876V295.94C192.42 295.588 192.22 295.296 191.908 295.064C191.604 294.832 191.248 294.716 190.84 294.716C190.536 294.716 190.256 294.792 190 294.944C189.744 295.088 189.54 295.288 189.388 295.544C189.236 295.8 189.16 296.096 189.16 296.432C189.16 296.752 189.236 297.044 189.388 297.308C189.54 297.572 189.744 297.78 190 297.932C190.256 298.084 190.536 298.16 190.84 298.16ZM204.138 291.872C203.842 291.72 203.518 291.588 203.166 291.476C202.814 291.364 202.474 291.308 202.146 291.308C201.674 291.308 201.298 291.416 201.018 291.632C200.746 291.848 200.61 292.14 200.61 292.508C200.61 292.772 200.698 292.996 200.874 293.18C201.058 293.364 201.29 293.528 201.57 293.672C201.858 293.808 202.162 293.936 202.482 294.056C202.842 294.192 203.19 294.356 203.526 294.548C203.862 294.74 204.138 295 204.354 295.328C204.578 295.648 204.69 296.08 204.69 296.624C204.69 297.088 204.574 297.508 204.342 297.884C204.11 298.252 203.782 298.548 203.358 298.772C202.934 298.988 202.43 299.096 201.846 299.096C201.27 299.096 200.734 299.004 200.238 298.82C199.75 298.636 199.334 298.424 198.99 298.184L199.506 297.26C199.786 297.476 200.13 297.664 200.538 297.824C200.954 297.984 201.35 298.064 201.726 298.064C202.006 298.064 202.278 298.016 202.542 297.92C202.814 297.824 203.038 297.672 203.214 297.464C203.39 297.248 203.478 296.972 203.478 296.636C203.478 296.348 203.398 296.104 203.238 295.904C203.078 295.704 202.87 295.536 202.614 295.4C202.366 295.256 202.094 295.128 201.798 295.016C201.526 294.92 201.25 294.808 200.97 294.68C200.69 294.552 200.43 294.4 200.19 294.224C199.958 294.04 199.77 293.816 199.626 293.552C199.482 293.288 199.41 292.968 199.41 292.592C199.41 292.136 199.518 291.74 199.734 291.404C199.958 291.06 200.262 290.792 200.646 290.6C201.03 290.4 201.474 290.292 201.978 290.276C202.53 290.276 203.018 290.344 203.442 290.48C203.874 290.616 204.254 290.78 204.582 290.972L204.138 291.872ZM206.095 294.668C206.095 294.068 206.207 293.5 206.431 292.964C206.663 292.428 206.983 291.956 207.391 291.548C207.799 291.14 208.267 290.82 208.795 290.588C209.331 290.348 209.903 290.228 210.511 290.228C211.119 290.228 211.691 290.348 212.227 290.588C212.771 290.82 213.247 291.14 213.655 291.548C214.063 291.956 214.383 292.428 214.615 292.964C214.847 293.5 214.963 294.068 214.963 294.668C214.963 295.3 214.839 295.892 214.591 296.444C214.343 296.988 214.007 297.46 213.583 297.86H215.335V299H211.435C211.131 299.064 210.823 299.096 210.511 299.096C209.903 299.096 209.331 298.984 208.795 298.76C208.267 298.536 207.799 298.224 207.391 297.824C206.983 297.416 206.663 296.944 206.431 296.408C206.207 295.872 206.095 295.292 206.095 294.668ZM207.295 294.68C207.295 295.136 207.379 295.564 207.547 295.964C207.715 296.356 207.947 296.704 208.243 297.008C208.539 297.304 208.883 297.54 209.275 297.716C209.667 297.884 210.091 297.968 210.547 297.968C211.147 297.968 211.687 297.82 212.167 297.524C212.655 297.228 213.043 296.832 213.331 296.336C213.619 295.84 213.763 295.284 213.763 294.668C213.763 294.22 213.679 293.796 213.511 293.396C213.343 292.996 213.111 292.648 212.815 292.352C212.519 292.048 212.175 291.812 211.783 291.644C211.391 291.468 210.971 291.38 210.523 291.38C210.067 291.38 209.643 291.468 209.251 291.644C208.859 291.812 208.515 292.052 208.219 292.364C207.931 292.668 207.703 293.02 207.535 293.42C207.375 293.812 207.295 294.232 207.295 294.68ZM217.287 290.324H218.451V297.872H222.867V299H217.287V290.324ZM230.877 290.324C231.813 290.324 232.549 290.56 233.085 291.032C233.621 291.504 233.889 292.164 233.889 293.012C233.889 293.356 233.837 293.696 233.733 294.032C233.629 294.36 233.461 294.66 233.229 294.932C233.005 295.196 232.709 295.412 232.341 295.58C231.973 295.74 231.525 295.82 230.997 295.82H229.713V299H228.549V290.324H230.877ZM230.997 294.68C231.333 294.68 231.613 294.628 231.837 294.524C232.061 294.412 232.237 294.268 232.365 294.092C232.501 293.916 232.597 293.736 232.653 293.552C232.709 293.36 232.737 293.188 232.737 293.036C232.737 292.804 232.681 292.564 232.569 292.316C232.465 292.068 232.289 291.86 232.041 291.692C231.801 291.524 231.473 291.44 231.057 291.44H229.713V294.68H230.997ZM236.406 294.032L236.49 295.196C236.626 294.916 236.814 294.676 237.054 294.476C237.294 294.268 237.542 294.112 237.798 294.008C238.062 293.896 238.29 293.836 238.482 293.828L238.434 294.944C238.058 294.928 237.726 295.004 237.438 295.172C237.15 295.332 236.926 295.552 236.766 295.832C236.606 296.112 236.526 296.412 236.526 296.732V299H235.41V294.032H236.406ZM239.278 296.468C239.278 295.972 239.394 295.524 239.626 295.124C239.866 294.724 240.194 294.408 240.61 294.176C241.026 293.944 241.502 293.828 242.038 293.828C242.574 293.828 243.046 293.944 243.454 294.176C243.862 294.408 244.178 294.724 244.402 295.124C244.634 295.524 244.75 295.972 244.75 296.468C244.75 296.964 244.634 297.412 244.402 297.812C244.178 298.212 243.858 298.532 243.442 298.772C243.034 299.004 242.558 299.12 242.014 299.12C241.486 299.12 241.014 299.012 240.598 298.796C240.19 298.58 239.866 298.272 239.626 297.872C239.394 297.472 239.278 297.004 239.278 296.468ZM240.406 296.48C240.406 296.8 240.474 297.092 240.61 297.356C240.754 297.612 240.946 297.816 241.186 297.968C241.426 298.12 241.698 298.196 242.002 298.196C242.314 298.196 242.59 298.12 242.83 297.968C243.07 297.816 243.258 297.612 243.394 297.356C243.538 297.092 243.61 296.8 243.61 296.48C243.61 296.16 243.538 295.872 243.394 295.616C243.258 295.352 243.07 295.144 242.83 294.992C242.59 294.832 242.314 294.752 242.002 294.752C241.698 294.752 241.422 294.832 241.174 294.992C240.934 295.152 240.746 295.364 240.61 295.628C240.474 295.884 240.406 296.168 240.406 296.48ZM250.524 299H249.168L247.824 297.236L246.588 299H245.448L247.272 296.504L245.388 294.032H246.78L248.076 295.76L249.204 294.032H250.332L248.592 296.444L250.524 299ZM252.142 301.388L253.282 298.844L250.978 294.032H252.238L253.834 297.572L255.418 294.032H256.45L253.246 301.388H252.142Z" fill="white"/>
<path d="M129.354 73.3536C129.549 73.1583 129.549 72.8417 129.354 72.6465L126.172 69.4645C125.976 69.2692 125.66 69.2692 125.464 69.4645C125.269 69.6597 125.269 69.9763 125.464 70.1716L128.293 73L125.464 75.8284C125.269 76.0237 125.269 76.3403 125.464 76.5355C125.66 76.7308 125.976 76.7308 126.172 76.5355L129.354 73.3536ZM-4.37114e-08 73.5L129 73.5L129 72.5L4.37114e-08 72.5L-4.37114e-08 73.5Z" fill="black"/>
<path d="M53.62 69.352C53.476 69.448 53.28 69.556 53.032 69.676C52.784 69.796 52.492 69.9 52.156 69.988C51.828 70.068 51.468 70.104 51.076 70.096C50.396 70.088 49.788 69.968 49.252 69.736C48.716 69.504 48.256 69.188 47.872 68.788C47.496 68.38 47.208 67.916 47.008 67.396C46.808 66.876 46.708 66.32 46.708 65.728C46.708 65.08 46.812 64.484 47.02 63.94C47.236 63.388 47.536 62.912 47.92 62.512C48.304 62.104 48.756 61.788 49.276 61.564C49.804 61.34 50.38 61.228 51.004 61.228C51.524 61.228 51.996 61.3 52.42 61.444C52.844 61.58 53.208 61.74 53.512 61.924L53.044 63.016C52.804 62.856 52.512 62.704 52.168 62.56C51.824 62.416 51.448 62.344 51.04 62.344C50.616 62.344 50.216 62.432 49.84 62.608C49.464 62.776 49.132 63.012 48.844 63.316C48.556 63.612 48.328 63.964 48.16 64.372C48 64.772 47.92 65.204 47.92 65.668C47.92 66.292 48.048 66.856 48.304 67.36C48.568 67.856 48.936 68.248 49.408 68.536C49.888 68.824 50.448 68.968 51.088 68.968C51.536 68.968 51.928 68.904 52.264 68.776C52.608 68.64 52.892 68.484 53.116 68.308L53.62 69.352ZM55.304 60.7H56.42V70H55.304V60.7ZM58.3626 65.032H59.4786V70H58.3626V65.032ZM58.2786 63.244C58.2786 63.06 58.3466 62.912 58.4826 62.8C58.6266 62.68 58.7826 62.62 58.9506 62.62C59.1186 62.62 59.2706 62.68 59.4066 62.8C59.5426 62.912 59.6106 63.06 59.6106 63.244C59.6106 63.428 59.5426 63.58 59.4066 63.7C59.2706 63.812 59.1186 63.868 58.9506 63.868C58.7826 63.868 58.6266 63.812 58.4826 63.7C58.3466 63.58 58.2786 63.428 58.2786 63.244ZM63.7252 70.12C63.1652 70.12 62.6772 70.008 62.2612 69.784C61.8532 69.552 61.5372 69.236 61.3132 68.836C61.0972 68.436 60.9892 67.984 60.9892 67.48C60.9892 66.992 61.1092 66.548 61.3492 66.148C61.5972 65.74 61.9292 65.42 62.3452 65.188C62.7692 64.948 63.2372 64.828 63.7492 64.828C64.4052 64.828 64.9492 65.02 65.3812 65.404C65.8132 65.788 66.1092 66.316 66.2692 66.988L62.3332 68.368C62.4692 68.616 62.6612 68.812 62.9092 68.956C63.1572 69.092 63.4372 69.16 63.7492 69.16C63.9732 69.16 64.1852 69.12 64.3852 69.04C64.5852 68.96 64.7772 68.856 64.9612 68.728L65.4772 69.556C65.2212 69.724 64.9372 69.86 64.6252 69.964C64.3212 70.068 64.0212 70.12 63.7252 70.12ZM62.0932 67.42C62.0852 67.516 62.0892 67.608 62.1052 67.696L64.9972 66.628C64.8852 66.388 64.7212 66.176 64.5052 65.992C64.2972 65.808 64.0172 65.716 63.6652 65.716C63.2092 65.716 62.8332 65.876 62.5372 66.196C62.2412 66.516 62.0932 66.924 62.0932 67.42ZM68.6636 65.032L68.7356 65.992C68.9036 65.64 69.1636 65.36 69.5156 65.152C69.8676 64.944 70.2756 64.84 70.7396 64.84C71.2036 64.84 71.5836 64.98 71.8796 65.26C72.1836 65.532 72.3436 65.888 72.3596 66.328V70H71.2316V66.712C71.2156 66.448 71.1316 66.232 70.9796 66.064C70.8356 65.896 70.6076 65.808 70.2956 65.8C69.8636 65.8 69.4996 65.976 69.2036 66.328C68.9156 66.672 68.7716 67.12 68.7716 67.672V70H67.6556V65.032H68.6636ZM74.7684 62.848H75.8964V65.044H77.2524V65.932H75.8964V70H74.7684V65.932H73.8564V65.044H74.7684V62.848ZM80.0166 70.096C79.6566 70.096 79.3086 70.036 78.9726 69.916C78.6446 69.788 78.3726 69.6 78.1566 69.352L78.6366 68.704C78.8366 68.904 79.0486 69.056 79.2726 69.16C79.4966 69.256 79.7126 69.304 79.9206 69.304C80.1606 69.304 80.3686 69.256 80.5446 69.16C80.7286 69.064 80.8206 68.9 80.8206 68.668C80.8206 68.492 80.7606 68.352 80.6406 68.248C80.5286 68.144 80.3806 68.064 80.1966 68.008C80.0206 67.944 79.8366 67.88 79.6446 67.816C78.7966 67.544 78.3726 67.06 78.3726 66.364C78.3726 66.108 78.4366 65.864 78.5646 65.632C78.7006 65.4 78.8966 65.212 79.1526 65.068C79.4166 64.924 79.7406 64.852 80.1246 64.852C80.4686 64.852 80.7766 64.896 81.0486 64.984C81.3206 65.072 81.5766 65.212 81.8166 65.404L81.3726 66.088C81.2286 65.944 81.0566 65.836 80.8566 65.764C80.6646 65.684 80.4886 65.64 80.3286 65.632C80.1126 65.632 79.9206 65.684 79.7526 65.788C79.5926 65.892 79.5126 66.036 79.5126 66.22C79.5046 66.388 79.5566 66.524 79.6686 66.628C79.7806 66.724 79.9246 66.804 80.1006 66.868C80.2846 66.932 80.4686 66.992 80.6526 67.048C81.0126 67.168 81.3166 67.332 81.5646 67.54C81.8206 67.748 81.9486 68.052 81.9486 68.452C81.9486 68.9 81.7886 69.288 81.4686 69.616C81.1486 69.936 80.6646 70.096 80.0166 70.096Z" fill="black"/>
<path d="M416.354 296.354C416.549 296.158 416.549 295.842 416.354 295.646L413.172 292.464C412.976 292.269 412.66 292.269 412.464 292.464C412.269 292.66 412.269 292.976 412.464 293.172L415.293 296L412.464 298.828C412.269 299.024 412.269 299.34 412.464 299.536C412.66 299.731 412.976 299.731 413.172 299.536L416.354 296.354ZM287 296.5L416 296.5L416 295.5L287 295.5L287 296.5Z" fill="black"/>
<path d="M323.248 293V284.324H325.624C326.48 284.324 327.208 284.456 327.808 284.72C328.408 284.976 328.892 285.32 329.26 285.752C329.636 286.184 329.908 286.664 330.076 287.192C330.252 287.712 330.34 288.236 330.34 288.764C330.34 289.412 330.224 290 329.992 290.528C329.76 291.048 329.444 291.492 329.044 291.86C328.644 292.228 328.184 292.512 327.664 292.712C327.152 292.904 326.612 293 326.044 293H323.248ZM324.412 291.872H325.816C326.448 291.872 327.012 291.748 327.508 291.5C328.012 291.252 328.408 290.892 328.696 290.42C328.984 289.94 329.128 289.36 329.128 288.68C329.128 287.976 328.976 287.384 328.672 286.904C328.376 286.424 327.98 286.06 327.484 285.812C326.996 285.564 326.476 285.44 325.924 285.44H324.412V291.872ZM334.095 293.12C333.623 293.12 333.195 293.02 332.811 292.82C332.435 292.62 332.135 292.328 331.911 291.944C331.695 291.552 331.587 291.076 331.587 290.516C331.587 289.956 331.699 289.476 331.923 289.076C332.155 288.676 332.463 288.368 332.847 288.152C333.239 287.936 333.667 287.828 334.131 287.828C334.579 287.828 334.959 287.924 335.271 288.116C335.583 288.308 335.827 288.54 336.003 288.812L336.087 288.032H337.119V293H336.003V292.184C335.907 292.312 335.767 292.448 335.583 292.592C335.407 292.736 335.191 292.86 334.935 292.964C334.687 293.068 334.407 293.12 334.095 293.12ZM334.395 292.196C334.803 292.196 335.151 292.084 335.439 291.86C335.727 291.628 335.915 291.316 336.003 290.924V289.94C335.907 289.596 335.707 289.312 335.403 289.088C335.099 288.864 334.751 288.752 334.359 288.752C334.055 288.752 333.779 288.824 333.531 288.968C333.283 289.112 333.083 289.312 332.931 289.568C332.787 289.824 332.715 290.12 332.715 290.456C332.715 290.784 332.791 291.08 332.943 291.344C333.095 291.6 333.299 291.808 333.555 291.968C333.811 292.12 334.091 292.196 334.395 292.196ZM339.542 285.848H340.67V288.044H342.026V288.932H340.67V293H339.542V288.932H338.63V288.044H339.542V285.848ZM345.462 293.12C344.99 293.12 344.562 293.02 344.178 292.82C343.802 292.62 343.502 292.328 343.278 291.944C343.062 291.552 342.954 291.076 342.954 290.516C342.954 289.956 343.066 289.476 343.29 289.076C343.522 288.676 343.83 288.368 344.214 288.152C344.606 287.936 345.034 287.828 345.498 287.828C345.946 287.828 346.326 287.924 346.638 288.116C346.95 288.308 347.194 288.54 347.37 288.812L347.454 288.032H348.486V293H347.37V292.184C347.274 292.312 347.134 292.448 346.95 292.592C346.774 292.736 346.558 292.86 346.302 292.964C346.054 293.068 345.774 293.12 345.462 293.12ZM345.762 292.196C346.17 292.196 346.518 292.084 346.806 291.86C347.094 291.628 347.282 291.316 347.37 290.924V289.94C347.274 289.596 347.074 289.312 346.77 289.088C346.466 288.864 346.118 288.752 345.726 288.752C345.422 288.752 345.146 288.824 344.898 288.968C344.65 289.112 344.45 289.312 344.298 289.568C344.154 289.824 344.082 290.12 344.082 290.456C344.082 290.784 344.158 291.08 344.31 291.344C344.462 291.6 344.666 291.808 344.922 291.968C345.178 292.12 345.458 292.196 345.762 292.196ZM353.465 293.12C353.041 293.12 352.665 293.04 352.337 292.88C352.017 292.712 351.753 292.5 351.545 292.244V293H350.429V283.7H351.545V288.704C351.745 288.44 352.025 288.228 352.385 288.068C352.745 287.908 353.153 287.828 353.609 287.828C354.049 287.828 354.453 287.936 354.821 288.152C355.189 288.36 355.485 288.66 355.709 289.052C355.933 289.444 356.045 289.904 356.045 290.432C356.045 291 355.925 291.484 355.685 291.884C355.445 292.284 355.129 292.592 354.737 292.808C354.345 293.016 353.921 293.12 353.465 293.12ZM353.225 292.16C353.713 292.16 354.113 292 354.425 291.68C354.745 291.352 354.905 290.936 354.905 290.432C354.905 290.112 354.829 289.824 354.677 289.568C354.533 289.304 354.333 289.096 354.077 288.944C353.829 288.792 353.545 288.716 353.225 288.716C352.809 288.716 352.449 288.828 352.145 289.052C351.841 289.276 351.641 289.564 351.545 289.916V290.936C351.641 291.288 351.837 291.58 352.133 291.812C352.429 292.044 352.793 292.16 353.225 292.16ZM359.618 293.12C359.146 293.12 358.718 293.02 358.334 292.82C357.958 292.62 357.658 292.328 357.434 291.944C357.218 291.552 357.11 291.076 357.11 290.516C357.11 289.956 357.222 289.476 357.446 289.076C357.678 288.676 357.986 288.368 358.37 288.152C358.762 287.936 359.19 287.828 359.654 287.828C360.102 287.828 360.482 287.924 360.794 288.116C361.106 288.308 361.35 288.54 361.526 288.812L361.61 288.032H362.642V293H361.526V292.184C361.43 292.312 361.29 292.448 361.106 292.592C360.93 292.736 360.714 292.86 360.458 292.964C360.21 293.068 359.93 293.12 359.618 293.12ZM359.918 292.196C360.326 292.196 360.674 292.084 360.962 291.86C361.25 291.628 361.438 291.316 361.526 290.924V289.94C361.43 289.596 361.23 289.312 360.926 289.088C360.622 288.864 360.274 288.752 359.882 288.752C359.578 288.752 359.302 288.824 359.054 288.968C358.806 289.112 358.606 289.312 358.454 289.568C358.31 289.824 358.238 290.12 358.238 290.456C358.238 290.784 358.314 291.08 358.466 291.344C358.618 291.6 358.822 291.808 359.078 291.968C359.334 292.12 359.614 292.196 359.918 292.196ZM365.989 293.096C365.629 293.096 365.281 293.036 364.945 292.916C364.617 292.788 364.345 292.6 364.129 292.352L364.609 291.704C364.809 291.904 365.021 292.056 365.245 292.16C365.469 292.256 365.685 292.304 365.893 292.304C366.133 292.304 366.341 292.256 366.517 292.16C366.701 292.064 366.793 291.9 366.793 291.668C366.793 291.492 366.733 291.352 366.613 291.248C366.501 291.144 366.353 291.064 366.169 291.008C365.993 290.944 365.809 290.88 365.617 290.816C364.769 290.544 364.345 290.06 364.345 289.364C364.345 289.108 364.409 288.864 364.537 288.632C364.673 288.4 364.869 288.212 365.125 288.068C365.389 287.924 365.713 287.852 366.097 287.852C366.441 287.852 366.749 287.896 367.021 287.984C367.293 288.072 367.549 288.212 367.789 288.404L367.345 289.088C367.201 288.944 367.029 288.836 366.829 288.764C366.637 288.684 366.461 288.64 366.301 288.632C366.085 288.632 365.893 288.684 365.725 288.788C365.565 288.892 365.485 289.036 365.485 289.22C365.477 289.388 365.529 289.524 365.641 289.628C365.753 289.724 365.897 289.804 366.073 289.868C366.257 289.932 366.441 289.992 366.625 290.048C366.985 290.168 367.289 290.332 367.537 290.54C367.793 290.748 367.921 291.052 367.921 291.452C367.921 291.9 367.761 292.288 367.441 292.616C367.121 292.936 366.637 293.096 365.989 293.096ZM371.788 293.12C371.228 293.12 370.74 293.008 370.324 292.784C369.916 292.552 369.6 292.236 369.376 291.836C369.16 291.436 369.052 290.984 369.052 290.48C369.052 289.992 369.172 289.548 369.412 289.148C369.66 288.74 369.992 288.42 370.408 288.188C370.832 287.948 371.3 287.828 371.812 287.828C372.468 287.828 373.012 288.02 373.444 288.404C373.876 288.788 374.172 289.316 374.332 289.988L370.396 291.368C370.532 291.616 370.724 291.812 370.972 291.956C371.22 292.092 371.5 292.16 371.812 292.16C372.036 292.16 372.248 292.12 372.448 292.04C372.648 291.96 372.84 291.856 373.024 291.728L373.54 292.556C373.284 292.724 373 292.86 372.688 292.964C372.384 293.068 372.084 293.12 371.788 293.12ZM370.156 290.42C370.148 290.516 370.152 290.608 370.168 290.696L373.06 289.628C372.948 289.388 372.784 289.176 372.568 288.992C372.36 288.808 372.08 288.716 371.728 288.716C371.272 288.716 370.896 288.876 370.6 289.196C370.304 289.516 370.156 289.924 370.156 290.42ZM377.122 293.096C376.762 293.096 376.414 293.036 376.078 292.916C375.75 292.788 375.478 292.6 375.262 292.352L375.742 291.704C375.942 291.904 376.154 292.056 376.378 292.16C376.602 292.256 376.818 292.304 377.026 292.304C377.266 292.304 377.474 292.256 377.65 292.16C377.834 292.064 377.926 291.9 377.926 291.668C377.926 291.492 377.866 291.352 377.746 291.248C377.634 291.144 377.486 291.064 377.302 291.008C377.126 290.944 376.942 290.88 376.75 290.816C375.902 290.544 375.478 290.06 375.478 289.364C375.478 289.108 375.542 288.864 375.67 288.632C375.806 288.4 376.002 288.212 376.258 288.068C376.522 287.924 376.846 287.852 377.23 287.852C377.574 287.852 377.882 287.896 378.154 287.984C378.426 288.072 378.682 288.212 378.922 288.404L378.478 289.088C378.334 288.944 378.162 288.836 377.962 288.764C377.77 288.684 377.594 288.64 377.434 288.632C377.218 288.632 377.026 288.684 376.858 288.788C376.698 288.892 376.618 289.036 376.618 289.22C376.61 289.388 376.662 289.524 376.774 289.628C376.886 289.724 377.03 289.804 377.206 289.868C377.39 289.932 377.574 289.992 377.758 290.048C378.118 290.168 378.422 290.332 378.67 290.54C378.926 290.748 379.054 291.052 379.054 291.452C379.054 291.9 378.894 292.288 378.574 292.616C378.254 292.936 377.77 293.096 377.122 293.096Z" fill="black"/>
<path d="M286.646 183.646C286.451 183.842 286.451 184.158 286.646 184.354L289.828 187.536C290.024 187.731 290.34 187.731 290.536 187.536C290.731 187.34 290.731 187.024 290.536 186.828L287.707 184L290.536 181.172C290.731 180.976 290.731 180.66 290.536 180.464C290.34 180.269 290.024 180.269 289.828 180.464L286.646 183.646ZM287 184.5L416 184.5L416 183.5L287 183.5L287 184.5Z" fill="black"/>
<path d="M334.736 173.872C334.44 173.72 334.116 173.588 333.764 173.476C333.412 173.364 333.072 173.308 332.744 173.308C332.272 173.308 331.896 173.416 331.616 173.632C331.344 173.848 331.208 174.14 331.208 174.508C331.208 174.772 331.296 174.996 331.472 175.18C331.656 175.364 331.888 175.528 332.168 175.672C332.456 175.808 332.76 175.936 333.08 176.056C333.44 176.192 333.788 176.356 334.124 176.548C334.46 176.74 334.736 177 334.952 177.328C335.176 177.648 335.288 178.08 335.288 178.624C335.288 179.088 335.172 179.508 334.94 179.884C334.708 180.252 334.38 180.548 333.956 180.772C333.532 180.988 333.028 181.096 332.444 181.096C331.868 181.096 331.332 181.004 330.836 180.82C330.348 180.636 329.932 180.424 329.588 180.184L330.104 179.26C330.384 179.476 330.728 179.664 331.136 179.824C331.552 179.984 331.948 180.064 332.324 180.064C332.604 180.064 332.876 180.016 333.14 179.92C333.412 179.824 333.636 179.672 333.812 179.464C333.988 179.248 334.076 178.972 334.076 178.636C334.076 178.348 333.996 178.104 333.836 177.904C333.676 177.704 333.468 177.536 333.212 177.4C332.964 177.256 332.692 177.128 332.396 177.016C332.124 176.92 331.848 176.808 331.568 176.68C331.288 176.552 331.028 176.4 330.788 176.224C330.556 176.04 330.368 175.816 330.224 175.552C330.08 175.288 330.008 174.968 330.008 174.592C330.008 174.136 330.116 173.74 330.332 173.404C330.556 173.06 330.86 172.792 331.244 172.6C331.628 172.4 332.072 172.292 332.576 172.276C333.128 172.276 333.616 172.344 334.04 172.48C334.472 172.616 334.852 172.78 335.18 172.972L334.736 173.872ZM339.26 181.12C338.7 181.12 338.212 181.008 337.796 180.784C337.388 180.552 337.072 180.236 336.848 179.836C336.632 179.436 336.524 178.984 336.524 178.48C336.524 177.992 336.644 177.548 336.884 177.148C337.132 176.74 337.464 176.42 337.88 176.188C338.304 175.948 338.772 175.828 339.284 175.828C339.94 175.828 340.484 176.02 340.916 176.404C341.348 176.788 341.644 177.316 341.804 177.988L337.868 179.368C338.004 179.616 338.196 179.812 338.444 179.956C338.692 180.092 338.972 180.16 339.284 180.16C339.508 180.16 339.72 180.12 339.92 180.04C340.12 179.96 340.312 179.856 340.496 179.728L341.012 180.556C340.756 180.724 340.472 180.86 340.16 180.964C339.856 181.068 339.556 181.12 339.26 181.12ZM337.628 178.42C337.62 178.516 337.624 178.608 337.64 178.696L340.532 177.628C340.42 177.388 340.256 177.176 340.04 176.992C339.832 176.808 339.552 176.716 339.2 176.716C338.744 176.716 338.368 176.876 338.072 177.196C337.776 177.516 337.628 177.924 337.628 178.42ZM344.187 176.032L344.271 177.196C344.407 176.916 344.595 176.676 344.835 176.476C345.075 176.268 345.323 176.112 345.579 176.008C345.843 175.896 346.071 175.836 346.263 175.828L346.215 176.944C345.839 176.928 345.507 177.004 345.219 177.172C344.931 177.332 344.707 177.552 344.547 177.832C344.387 178.112 344.307 178.412 344.307 178.732V181H343.191V176.032H344.187ZM349.718 181.144L346.958 176.032H348.29L349.79 179.212L351.182 176.032H352.43L349.778 181.144H349.718ZM353.632 176.032H354.748V181H353.632V176.032ZM353.548 174.244C353.548 174.06 353.616 173.912 353.752 173.8C353.896 173.68 354.052 173.62 354.22 173.62C354.388 173.62 354.54 173.68 354.676 173.8C354.812 173.912 354.88 174.06 354.88 174.244C354.88 174.428 354.812 174.58 354.676 174.7C354.54 174.812 354.388 174.868 354.22 174.868C354.052 174.868 353.896 174.812 353.752 174.7C353.616 174.58 353.548 174.428 353.548 174.244ZM360.723 180.532C360.499 180.716 360.231 180.86 359.919 180.964C359.607 181.068 359.295 181.12 358.983 181.12C358.447 181.12 357.971 181.012 357.555 180.796C357.147 180.58 356.827 180.276 356.595 179.884C356.371 179.492 356.259 179.032 356.259 178.504C356.259 177.976 356.379 177.52 356.619 177.136C356.867 176.744 357.187 176.44 357.579 176.224C357.979 176.008 358.411 175.9 358.875 175.9C359.275 175.9 359.631 175.956 359.943 176.068C360.255 176.18 360.527 176.332 360.759 176.524L360.195 177.256C360.051 177.152 359.875 177.056 359.667 176.968C359.459 176.872 359.227 176.824 358.971 176.824C358.675 176.824 358.407 176.9 358.167 177.052C357.927 177.196 357.735 177.396 357.591 177.652C357.447 177.9 357.375 178.184 357.375 178.504C357.375 178.816 357.447 179.1 357.591 179.356C357.735 179.612 357.935 179.816 358.191 179.968C358.447 180.12 358.743 180.196 359.079 180.196C359.287 180.196 359.479 180.164 359.655 180.1C359.839 180.036 360.003 179.948 360.147 179.836L360.723 180.532ZM364.467 181.12C363.907 181.12 363.419 181.008 363.003 180.784C362.595 180.552 362.279 180.236 362.055 179.836C361.839 179.436 361.731 178.984 361.731 178.48C361.731 177.992 361.851 177.548 362.091 177.148C362.339 176.74 362.671 176.42 363.087 176.188C363.511 175.948 363.979 175.828 364.491 175.828C365.147 175.828 365.691 176.02 366.123 176.404C366.555 176.788 366.851 177.316 367.011 177.988L363.075 179.368C363.211 179.616 363.403 179.812 363.651 179.956C363.899 180.092 364.179 180.16 364.491 180.16C364.715 180.16 364.927 180.12 365.127 180.04C365.327 179.96 365.519 179.856 365.703 179.728L366.219 180.556C365.963 180.724 365.679 180.86 365.367 180.964C365.063 181.068 364.763 181.12 364.467 181.12ZM362.835 178.42C362.827 178.516 362.831 178.608 362.847 178.696L365.739 177.628C365.627 177.388 365.463 177.176 365.247 176.992C365.039 176.808 364.759 176.716 364.407 176.716C363.951 176.716 363.575 176.876 363.279 177.196C362.983 177.516 362.835 177.924 362.835 178.42ZM369.802 181.096C369.442 181.096 369.094 181.036 368.758 180.916C368.43 180.788 368.158 180.6 367.942 180.352L368.422 179.704C368.622 179.904 368.834 180.056 369.058 180.16C369.282 180.256 369.498 180.304 369.706 180.304C369.946 180.304 370.154 180.256 370.33 180.16C370.514 180.064 370.606 179.9 370.606 179.668C370.606 179.492 370.546 179.352 370.426 179.248C370.314 179.144 370.166 179.064 369.982 179.008C369.806 178.944 369.622 178.88 369.43 178.816C368.582 178.544 368.158 178.06 368.158 177.364C368.158 177.108 368.222 176.864 368.35 176.632C368.486 176.4 368.682 176.212 368.938 176.068C369.202 175.924 369.526 175.852 369.91 175.852C370.254 175.852 370.562 175.896 370.834 175.984C371.106 176.072 371.362 176.212 371.602 176.404L371.158 177.088C371.014 176.944 370.842 176.836 370.642 176.764C370.45 176.684 370.274 176.64 370.114 176.632C369.898 176.632 369.706 176.684 369.538 176.788C369.378 176.892 369.298 177.036 369.298 177.22C369.29 177.388 369.342 177.524 369.454 177.628C369.566 177.724 369.71 177.804 369.886 177.868C370.07 177.932 370.254 177.992 370.438 178.048C370.798 178.168 371.102 178.332 371.35 178.54C371.606 178.748 371.734 179.052 371.734 179.452C371.734 179.9 371.574 180.288 371.254 180.616C370.934 180.936 370.45 181.096 369.802 181.096Z" fill="black"/>
<path d="M286.646 54.6464C286.451 54.8417 286.451 55.1583 286.646 55.3536L289.828 58.5355C290.024 58.7308 290.34 58.7308 290.536 58.5355C290.731 58.3403 290.731 58.0237 290.536 57.8284L287.707 55L290.536 52.1716C290.731 51.9763 290.731 51.6597 290.536 51.4645C290.34 51.2692 290.024 51.2692 289.828 51.4645L286.646 54.6464ZM287 55.5L416 55.5L416 54.5L287 54.5L287 55.5Z" fill="black"/>
<path d="M286.646 89.6464C286.451 89.8417 286.451 90.1583 286.646 90.3536L289.828 93.5355C290.024 93.7308 290.34 93.7308 290.536 93.5355C290.731 93.3403 290.731 93.0237 290.536 92.8284L287.707 90L290.536 87.1716C290.731 86.9763 290.731 86.6597 290.536 86.4645C290.34 86.2692 290.024 86.2692 289.828 86.4645L286.646 89.6464ZM287 90.5L416 90.5L416 89.5L287 89.5L287 90.5Z" fill="black"/>
<path d="M336.608 43.048C336.04 44.584 335.476 46.116 334.916 47.644C334.356 49.172 333.792 50.7 333.224 52.228H332.204C332.772 50.7 333.336 49.172 333.896 47.644C334.456 46.116 335.02 44.584 335.588 43.048H336.608ZM337.589 52V42.7H338.681V47.932C338.857 47.612 339.117 47.352 339.461 47.152C339.805 46.944 340.209 46.84 340.673 46.84C341.137 46.84 341.517 46.98 341.813 47.26C342.117 47.532 342.277 47.888 342.293 48.328V52H341.165V48.712C341.149 48.448 341.065 48.232 340.913 48.064C340.769 47.896 340.541 47.808 340.229 47.8C339.941 47.8 339.681 47.884 339.449 48.052C339.225 48.212 339.045 48.432 338.909 48.712C338.773 48.992 338.705 49.312 338.705 49.672V52H337.589ZM346.526 52.12C345.966 52.12 345.478 52.008 345.062 51.784C344.654 51.552 344.338 51.236 344.114 50.836C343.898 50.436 343.79 49.984 343.79 49.48C343.79 48.992 343.91 48.548 344.15 48.148C344.398 47.74 344.73 47.42 345.146 47.188C345.57 46.948 346.038 46.828 346.55 46.828C347.206 46.828 347.75 47.02 348.182 47.404C348.614 47.788 348.91 48.316 349.07 48.988L345.134 50.368C345.27 50.616 345.462 50.812 345.71 50.956C345.958 51.092 346.238 51.16 346.55 51.16C346.774 51.16 346.986 51.12 347.186 51.04C347.386 50.96 347.578 50.856 347.762 50.728L348.278 51.556C348.022 51.724 347.738 51.86 347.426 51.964C347.122 52.068 346.822 52.12 346.526 52.12ZM344.894 49.42C344.886 49.516 344.89 49.608 344.906 49.696L347.798 48.628C347.686 48.388 347.522 48.176 347.306 47.992C347.098 47.808 346.818 47.716 346.466 47.716C346.01 47.716 345.634 47.876 345.338 48.196C345.042 48.516 344.894 48.924 344.894 49.42ZM352.532 52.12C352.06 52.12 351.632 52.02 351.248 51.82C350.872 51.62 350.572 51.328 350.348 50.944C350.132 50.552 350.024 50.076 350.024 49.516C350.024 48.956 350.136 48.476 350.36 48.076C350.592 47.676 350.9 47.368 351.284 47.152C351.676 46.936 352.104 46.828 352.568 46.828C353.016 46.828 353.396 46.924 353.708 47.116C354.02 47.308 354.264 47.54 354.44 47.812L354.524 47.032H355.556V52H354.44V51.184C354.344 51.312 354.204 51.448 354.02 51.592C353.844 51.736 353.628 51.86 353.372 51.964C353.124 52.068 352.844 52.12 352.532 52.12ZM352.832 51.196C353.24 51.196 353.588 51.084 353.876 50.86C354.164 50.628 354.352 50.316 354.44 49.924V48.94C354.344 48.596 354.144 48.312 353.84 48.088C353.536 47.864 353.188 47.752 352.796 47.752C352.492 47.752 352.216 47.824 351.968 47.968C351.72 48.112 351.52 48.312 351.368 48.568C351.224 48.824 351.152 49.12 351.152 49.456C351.152 49.784 351.228 50.08 351.38 50.344C351.532 50.6 351.736 50.808 351.992 50.968C352.248 51.12 352.528 51.196 352.832 51.196ZM357.499 42.7H358.615V52H357.499V42.7ZM361.038 44.848H362.166V47.044H363.522V47.932H362.166V52H361.038V47.932H360.126V47.044H361.038V44.848ZM364.882 52V42.7H365.974V47.932C366.15 47.612 366.41 47.352 366.754 47.152C367.098 46.944 367.502 46.84 367.966 46.84C368.43 46.84 368.81 46.98 369.106 47.26C369.41 47.532 369.57 47.888 369.586 48.328V52H368.458V48.712C368.442 48.448 368.358 48.232 368.206 48.064C368.062 47.896 367.834 47.808 367.522 47.8C367.234 47.8 366.974 47.884 366.742 48.052C366.518 48.212 366.338 48.432 366.202 48.712C366.066 48.992 365.998 49.312 365.998 49.672V52H364.882Z" fill="black"/>
<path d="M333.608 78.048C333.04 79.584 332.476 81.116 331.916 82.644C331.356 84.172 330.792 85.7 330.224 87.228H329.204C329.772 85.7 330.336 84.172 330.896 82.644C331.456 81.116 332.02 79.584 332.588 78.048H333.608ZM335.597 82.032L335.669 82.98C335.861 82.62 336.121 82.34 336.449 82.14C336.785 81.932 337.169 81.828 337.601 81.828C338.009 81.828 338.349 81.924 338.621 82.116C338.901 82.308 339.073 82.568 339.137 82.896C339.337 82.56 339.597 82.3 339.917 82.116C340.245 81.924 340.593 81.828 340.961 81.828C341.441 81.828 341.821 81.968 342.101 82.248C342.389 82.528 342.541 82.884 342.557 83.316V87H341.441V83.736C341.425 83.48 341.357 83.268 341.237 83.1C341.125 82.924 340.929 82.828 340.649 82.812C340.353 82.812 340.093 82.9 339.869 83.076C339.645 83.244 339.469 83.468 339.341 83.748C339.213 84.028 339.145 84.324 339.137 84.636V87H338.009V83.736C338.001 83.48 337.933 83.268 337.805 83.1C337.685 82.924 337.481 82.828 337.193 82.812C336.905 82.812 336.649 82.9 336.425 83.076C336.201 83.244 336.025 83.468 335.897 83.748C335.769 84.028 335.705 84.328 335.705 84.648V87H334.589V82.032H335.597ZM346.796 87.12C346.236 87.12 345.748 87.008 345.332 86.784C344.924 86.552 344.608 86.236 344.384 85.836C344.168 85.436 344.06 84.984 344.06 84.48C344.06 83.992 344.18 83.548 344.42 83.148C344.668 82.74 345 82.42 345.416 82.188C345.84 81.948 346.308 81.828 346.82 81.828C347.476 81.828 348.02 82.02 348.452 82.404C348.884 82.788 349.18 83.316 349.34 83.988L345.404 85.368C345.54 85.616 345.732 85.812 345.98 85.956C346.228 86.092 346.508 86.16 346.82 86.16C347.044 86.16 347.256 86.12 347.456 86.04C347.656 85.96 347.848 85.856 348.032 85.728L348.548 86.556C348.292 86.724 348.008 86.86 347.696 86.964C347.392 87.068 347.092 87.12 346.796 87.12ZM345.164 84.42C345.156 84.516 345.16 84.608 345.176 84.696L348.068 83.628C347.956 83.388 347.792 83.176 347.576 82.992C347.368 82.808 347.088 82.716 346.736 82.716C346.28 82.716 345.904 82.876 345.608 83.196C345.312 83.516 345.164 83.924 345.164 84.42ZM351.206 79.848H352.334V82.044H353.69V82.932H352.334V87H351.206V82.932H350.294V82.044H351.206V79.848ZM356.046 82.032L356.13 83.196C356.266 82.916 356.454 82.676 356.694 82.476C356.934 82.268 357.182 82.112 357.438 82.008C357.702 81.896 357.93 81.836 358.122 81.828L358.074 82.944C357.698 82.928 357.366 83.004 357.078 83.172C356.79 83.332 356.566 83.552 356.406 83.832C356.246 84.112 356.166 84.412 356.166 84.732V87H355.05V82.032H356.046ZM359.562 82.032H360.678V87H359.562V82.032ZM359.478 80.244C359.478 80.06 359.546 79.912 359.682 79.8C359.826 79.68 359.982 79.62 360.15 79.62C360.318 79.62 360.47 79.68 360.606 79.8C360.742 79.912 360.81 80.06 360.81 80.244C360.81 80.428 360.742 80.58 360.606 80.7C360.47 80.812 360.318 80.868 360.15 80.868C359.982 80.868 359.826 80.812 359.682 80.7C359.546 80.58 359.478 80.428 359.478 80.244ZM366.652 86.532C366.428 86.716 366.16 86.86 365.848 86.964C365.536 87.068 365.224 87.12 364.912 87.12C364.376 87.12 363.9 87.012 363.484 86.796C363.076 86.58 362.756 86.276 362.524 85.884C362.3 85.492 362.188 85.032 362.188 84.504C362.188 83.976 362.308 83.52 362.548 83.136C362.796 82.744 363.116 82.44 363.508 82.224C363.908 82.008 364.34 81.9 364.804 81.9C365.204 81.9 365.56 81.956 365.872 82.068C366.184 82.18 366.456 82.332 366.688 82.524L366.124 83.256C365.98 83.152 365.804 83.056 365.596 82.968C365.388 82.872 365.156 82.824 364.9 82.824C364.604 82.824 364.336 82.9 364.096 83.052C363.856 83.196 363.664 83.396 363.52 83.652C363.376 83.9 363.304 84.184 363.304 84.504C363.304 84.816 363.376 85.1 363.52 85.356C363.664 85.612 363.864 85.816 364.12 85.968C364.376 86.12 364.672 86.196 365.008 86.196C365.216 86.196 365.408 86.164 365.584 86.1C365.768 86.036 365.932 85.948 366.076 85.836L366.652 86.532ZM369.497 87.096C369.137 87.096 368.789 87.036 368.453 86.916C368.125 86.788 367.853 86.6 367.637 86.352L368.117 85.704C368.317 85.904 368.529 86.056 368.753 86.16C368.977 86.256 369.193 86.304 369.401 86.304C369.641 86.304 369.849 86.256 370.025 86.16C370.209 86.064 370.301 85.9 370.301 85.668C370.301 85.492 370.241 85.352 370.121 85.248C370.009 85.144 369.861 85.064 369.677 85.008C369.501 84.944 369.317 84.88 369.125 84.816C368.277 84.544 367.853 84.06 367.853 83.364C367.853 83.108 367.917 82.864 368.045 82.632C368.181 82.4 368.377 82.212 368.633 82.068C368.897 81.924 369.221 81.852 369.605 81.852C369.949 81.852 370.257 81.896 370.529 81.984C370.801 82.072 371.057 82.212 371.297 82.404L370.853 83.088C370.709 82.944 370.537 82.836 370.337 82.764C370.145 82.684 369.969 82.64 369.809 82.632C369.593 82.632 369.401 82.684 369.233 82.788C369.073 82.892 368.993 83.036 368.993 83.22C368.985 83.388 369.037 83.524 369.149 83.628C369.261 83.724 369.405 83.804 369.581 83.868C369.765 83.932 369.949 83.992 370.133 84.048C370.493 84.168 370.797 84.332 371.045 84.54C371.301 84.748 371.429 85.052 371.429 85.452C371.429 85.9 371.269 86.288 370.949 86.616C370.629 86.936 370.145 87.096 369.497 87.096Z" fill="black"/>
<path d="M207.354 139.354C207.158 139.549 206.842 139.549 206.646 139.354L203.464 136.172C203.269 135.976 203.269 135.66 203.464 135.464C203.66 135.269 203.976 135.269 204.172 135.464L207 138.293L209.828 135.464C210.024 135.269 210.34 135.269 210.536 135.464C210.731 135.66 210.731 135.976 210.536 136.172L207.354 139.354ZM207.5 117V139H206.5V117H207.5Z" fill="black"/>
<path d="M139.5 51C139.5 40.2304 148.23 31.5 159 31.5H257C267.77 31.5 276.5 40.2304 276.5 51V94C276.5 104.77 267.77 113.5 257 113.5H159C148.23 113.5 139.5 104.77 139.5 94V51Z" fill="#4285F4" stroke="#4285F4"/>
<path d="M170.372 78.46C169.82 78.46 169.36 78.364 168.992 78.172C168.624 77.988 168.284 77.752 167.972 77.464L168.632 76.696C168.888 76.952 169.152 77.144 169.424 77.272C169.696 77.408 170.004 77.476 170.348 77.476C170.908 77.476 171.336 77.34 171.632 77.068C171.928 76.804 172.08 76.452 172.088 76.012V75.1C171.92 75.396 171.66 75.64 171.308 75.832C170.956 76.024 170.54 76.12 170.06 76.12C169.596 76.12 169.172 76.004 168.788 75.772C168.412 75.54 168.108 75.228 167.876 74.836C167.652 74.436 167.54 73.988 167.54 73.492C167.54 72.972 167.66 72.512 167.9 72.112C168.14 71.712 168.456 71.4 168.848 71.176C169.24 70.944 169.668 70.828 170.132 70.828C170.564 70.828 170.956 70.912 171.308 71.08C171.66 71.248 171.924 71.464 172.1 71.728L172.196 71.032H173.216V76.036C173.216 76.484 173.1 76.892 172.868 77.26C172.636 77.628 172.308 77.92 171.884 78.136C171.46 78.352 170.956 78.46 170.372 78.46ZM168.668 73.456C168.668 73.784 168.744 74.08 168.896 74.344C169.048 74.6 169.252 74.808 169.508 74.968C169.772 75.12 170.064 75.196 170.384 75.196C170.816 75.196 171.184 75.08 171.488 74.848C171.8 74.608 172 74.304 172.088 73.936V72.952C171.984 72.6 171.776 72.312 171.464 72.088C171.152 71.864 170.792 71.752 170.384 71.752C170.056 71.752 169.76 71.824 169.496 71.968C169.24 72.112 169.036 72.312 168.884 72.568C168.74 72.824 168.668 73.12 168.668 73.456ZM177.748 67.324C178.324 67.324 178.844 67.428 179.308 67.636C179.772 67.836 180.14 68.14 180.412 68.548C180.684 68.948 180.82 69.436 180.82 70.012C180.82 70.508 180.708 70.988 180.484 71.452C180.268 71.916 179.9 72.268 179.38 72.508L181.564 76H180.208L178.156 72.796C178.068 72.804 177.976 72.808 177.88 72.808H176.596V76H175.432V67.324H177.748ZM177.856 71.68C178.32 71.68 178.676 71.596 178.924 71.428C179.18 71.252 179.36 71.04 179.464 70.792C179.568 70.536 179.62 70.292 179.62 70.06C179.62 69.828 179.564 69.588 179.452 69.34C179.34 69.092 179.16 68.88 178.912 68.704C178.672 68.528 178.348 68.44 177.94 68.44H176.596V71.68H177.856ZM185.681 67.324C186.617 67.324 187.353 67.56 187.889 68.032C188.425 68.504 188.693 69.164 188.693 70.012C188.693 70.356 188.641 70.696 188.537 71.032C188.433 71.36 188.265 71.66 188.033 71.932C187.809 72.196 187.513 72.412 187.145 72.58C186.777 72.74 186.329 72.82 185.801 72.82H184.517V76H183.353V67.324H185.681ZM185.801 71.68C186.137 71.68 186.417 71.628 186.641 71.524C186.865 71.412 187.041 71.268 187.169 71.092C187.305 70.916 187.401 70.736 187.457 70.552C187.513 70.36 187.541 70.188 187.541 70.036C187.541 69.804 187.485 69.564 187.373 69.316C187.269 69.068 187.093 68.86 186.845 68.692C186.605 68.524 186.277 68.44 185.861 68.44H184.517V71.68H185.801ZM196.862 75.352C196.718 75.448 196.522 75.556 196.274 75.676C196.026 75.796 195.734 75.9 195.398 75.988C195.07 76.068 194.71 76.104 194.318 76.096C193.638 76.088 193.03 75.968 192.494 75.736C191.958 75.504 191.498 75.188 191.114 74.788C190.738 74.38 190.45 73.916 190.25 73.396C190.05 72.876 189.95 72.32 189.95 71.728C189.95 71.08 190.054 70.484 190.262 69.94C190.478 69.388 190.778 68.912 191.162 68.512C191.546 68.104 191.998 67.788 192.518 67.564C193.046 67.34 193.622 67.228 194.246 67.228C194.766 67.228 195.238 67.3 195.662 67.444C196.086 67.58 196.45 67.74 196.754 67.924L196.286 69.016C196.046 68.856 195.754 68.704 195.41 68.56C195.066 68.416 194.69 68.344 194.282 68.344C193.858 68.344 193.458 68.432 193.082 68.608C192.706 68.776 192.374 69.012 192.086 69.316C191.798 69.612 191.57 69.964 191.402 70.372C191.242 70.772 191.162 71.204 191.162 71.668C191.162 72.292 191.29 72.856 191.546 73.36C191.81 73.856 192.178 74.248 192.65 74.536C193.13 74.824 193.69 74.968 194.33 74.968C194.778 74.968 195.17 74.904 195.506 74.776C195.85 74.64 196.134 74.484 196.358 74.308L196.862 75.352ZM209.423 75.256C209.255 75.392 209.011 75.524 208.691 75.652C208.371 75.78 208.027 75.888 207.659 75.976C207.291 76.056 206.943 76.096 206.615 76.096C205.695 76.096 204.895 75.912 204.215 75.544C203.535 75.168 203.007 74.66 202.631 74.02C202.263 73.372 202.079 72.64 202.079 71.824C202.079 71.096 202.195 70.448 202.427 69.88C202.667 69.312 202.991 68.832 203.399 68.44C203.815 68.04 204.291 67.74 204.827 67.54C205.363 67.332 205.931 67.228 206.531 67.228C207.035 67.228 207.503 67.288 207.935 67.408C208.367 67.528 208.747 67.68 209.075 67.864L208.691 68.932C208.523 68.836 208.319 68.748 208.079 68.668C207.847 68.588 207.607 68.524 207.359 68.476C207.111 68.428 206.883 68.404 206.675 68.404C205.995 68.404 205.399 68.54 204.887 68.812C204.375 69.084 203.979 69.468 203.699 69.964C203.419 70.46 203.279 71.048 203.279 71.728C203.279 72.36 203.419 72.92 203.699 73.408C203.979 73.888 204.371 74.264 204.875 74.536C205.379 74.8 205.967 74.932 206.639 74.932C206.927 74.932 207.215 74.904 207.503 74.848C207.791 74.792 208.035 74.704 208.235 74.584V72.88H206.519V71.752H209.423V75.256ZM213.443 76.12C212.971 76.12 212.543 76.02 212.159 75.82C211.783 75.62 211.483 75.328 211.259 74.944C211.043 74.552 210.935 74.076 210.935 73.516C210.935 72.956 211.047 72.476 211.271 72.076C211.503 71.676 211.811 71.368 212.195 71.152C212.587 70.936 213.015 70.828 213.479 70.828C213.927 70.828 214.307 70.924 214.619 71.116C214.931 71.308 215.175 71.54 215.351 71.812L215.435 71.032H216.467V76H215.351V75.184C215.255 75.312 215.115 75.448 214.931 75.592C214.755 75.736 214.539 75.86 214.283 75.964C214.035 76.068 213.755 76.12 213.443 76.12ZM213.743 75.196C214.151 75.196 214.499 75.084 214.787 74.86C215.075 74.628 215.263 74.316 215.351 73.924V72.94C215.255 72.596 215.055 72.312 214.751 72.088C214.447 71.864 214.099 71.752 213.707 71.752C213.403 71.752 213.127 71.824 212.879 71.968C212.631 72.112 212.431 72.312 212.279 72.568C212.135 72.824 212.063 73.12 212.063 73.456C212.063 73.784 212.139 74.08 212.291 74.344C212.443 74.6 212.647 74.808 212.903 74.968C213.159 75.12 213.439 75.196 213.743 75.196ZM218.89 68.848H220.018V71.044H221.374V71.932H220.018V76H218.89V71.932H217.978V71.044H218.89V68.848ZM225.038 76.12C224.478 76.12 223.99 76.008 223.574 75.784C223.166 75.552 222.85 75.236 222.626 74.836C222.41 74.436 222.302 73.984 222.302 73.48C222.302 72.992 222.422 72.548 222.662 72.148C222.91 71.74 223.242 71.42 223.658 71.188C224.082 70.948 224.55 70.828 225.062 70.828C225.718 70.828 226.262 71.02 226.694 71.404C227.126 71.788 227.422 72.316 227.582 72.988L223.646 74.368C223.782 74.616 223.974 74.812 224.222 74.956C224.47 75.092 224.75 75.16 225.062 75.16C225.286 75.16 225.498 75.12 225.698 75.04C225.898 74.96 226.09 74.856 226.274 74.728L226.79 75.556C226.534 75.724 226.25 75.86 225.938 75.964C225.634 76.068 225.334 76.12 225.038 76.12ZM223.406 73.42C223.398 73.516 223.402 73.608 223.418 73.696L226.31 72.628C226.198 72.388 226.034 72.176 225.818 71.992C225.61 71.808 225.33 71.716 224.978 71.716C224.522 71.716 224.146 71.876 223.85 72.196C223.554 72.516 223.406 72.924 223.406 73.42ZM232.031 71.032L233.375 74.128L234.635 71.032H235.739L233.447 76.3L231.851 72.892L230.399 76.3L228.095 71.032H229.199L230.519 74.044L231.455 71.884L231.059 71.032H232.031ZM238.861 76.12C238.389 76.12 237.961 76.02 237.576 75.82C237.201 75.62 236.901 75.328 236.677 74.944C236.461 74.552 236.353 74.076 236.353 73.516C236.353 72.956 236.465 72.476 236.689 72.076C236.921 71.676 237.229 71.368 237.613 71.152C238.005 70.936 238.433 70.828 238.896 70.828C239.345 70.828 239.725 70.924 240.037 71.116C240.349 71.308 240.593 71.54 240.769 71.812L240.853 71.032H241.885V76H240.769V75.184C240.673 75.312 240.533 75.448 240.349 75.592C240.173 75.736 239.957 75.86 239.701 75.964C239.453 76.068 239.173 76.12 238.861 76.12ZM239.161 75.196C239.569 75.196 239.917 75.084 240.205 74.86C240.493 74.628 240.681 74.316 240.769 73.924V72.94C240.673 72.596 240.473 72.312 240.169 72.088C239.865 71.864 239.517 71.752 239.125 71.752C238.821 71.752 238.545 71.824 238.297 71.968C238.049 72.112 237.849 72.312 237.697 72.568C237.553 72.824 237.481 73.12 237.481 73.456C237.481 73.784 237.557 74.08 237.709 74.344C237.861 74.6 238.065 74.808 238.321 74.968C238.577 75.12 238.857 75.196 239.161 75.196ZM244.247 78.388L245.387 75.844L243.083 71.032H244.343L245.939 74.572L247.523 71.032H248.555L245.351 78.388H244.247Z" fill="white"/>
<path d="M139.5 162C139.5 151.23 148.23 142.5 159 142.5H257C267.77 142.5 276.5 151.23 276.5 162V205C276.5 215.77 267.77 224.5 257 224.5H159C148.23 224.5 139.5 215.77 139.5 205V162Z" fill="#4285F4" stroke="#4285F4"/>
<path d="M175.372 189.46C174.82 189.46 174.36 189.364 173.992 189.172C173.624 188.988 173.284 188.752 172.972 188.464L173.632 187.696C173.888 187.952 174.152 188.144 174.424 188.272C174.696 188.408 175.004 188.476 175.348 188.476C175.908 188.476 176.336 188.34 176.632 188.068C176.928 187.804 177.08 187.452 177.088 187.012V186.1C176.92 186.396 176.66 186.64 176.308 186.832C175.956 187.024 175.54 187.12 175.06 187.12C174.596 187.12 174.172 187.004 173.788 186.772C173.412 186.54 173.108 186.228 172.876 185.836C172.652 185.436 172.54 184.988 172.54 184.492C172.54 183.972 172.66 183.512 172.9 183.112C173.14 182.712 173.456 182.4 173.848 182.176C174.24 181.944 174.668 181.828 175.132 181.828C175.564 181.828 175.956 181.912 176.308 182.08C176.66 182.248 176.924 182.464 177.1 182.728L177.196 182.032H178.216V187.036C178.216 187.484 178.1 187.892 177.868 188.26C177.636 188.628 177.308 188.92 176.884 189.136C176.46 189.352 175.956 189.46 175.372 189.46ZM173.668 184.456C173.668 184.784 173.744 185.08 173.896 185.344C174.048 185.6 174.252 185.808 174.508 185.968C174.772 186.12 175.064 186.196 175.384 186.196C175.816 186.196 176.184 186.08 176.488 185.848C176.8 185.608 177 185.304 177.088 184.936V183.952C176.984 183.6 176.776 183.312 176.464 183.088C176.152 182.864 175.792 182.752 175.384 182.752C175.056 182.752 174.76 182.824 174.496 182.968C174.24 183.112 174.036 183.312 173.884 183.568C173.74 183.824 173.668 184.12 173.668 184.456ZM182.748 178.324C183.324 178.324 183.844 178.428 184.308 178.636C184.772 178.836 185.14 179.14 185.412 179.548C185.684 179.948 185.82 180.436 185.82 181.012C185.82 181.508 185.708 181.988 185.484 182.452C185.268 182.916 184.9 183.268 184.38 183.508L186.564 187H185.208L183.156 183.796C183.068 183.804 182.976 183.808 182.88 183.808H181.596V187H180.432V178.324H182.748ZM182.856 182.68C183.32 182.68 183.676 182.596 183.924 182.428C184.18 182.252 184.36 182.04 184.464 181.792C184.568 181.536 184.62 181.292 184.62 181.06C184.62 180.828 184.564 180.588 184.452 180.34C184.34 180.092 184.16 179.88 183.912 179.704C183.672 179.528 183.348 179.44 182.94 179.44H181.596V182.68H182.856ZM190.681 178.324C191.617 178.324 192.353 178.56 192.889 179.032C193.425 179.504 193.693 180.164 193.693 181.012C193.693 181.356 193.641 181.696 193.537 182.032C193.433 182.36 193.265 182.66 193.033 182.932C192.809 183.196 192.513 183.412 192.145 183.58C191.777 183.74 191.329 183.82 190.801 183.82H189.517V187H188.353V178.324H190.681ZM190.801 182.68C191.137 182.68 191.417 182.628 191.641 182.524C191.865 182.412 192.041 182.268 192.169 182.092C192.305 181.916 192.401 181.736 192.457 181.552C192.513 181.36 192.541 181.188 192.541 181.036C192.541 180.804 192.485 180.564 192.373 180.316C192.269 180.068 192.093 179.86 191.845 179.692C191.605 179.524 191.277 179.44 190.861 179.44H189.517V182.68H190.801ZM201.862 186.352C201.718 186.448 201.522 186.556 201.274 186.676C201.026 186.796 200.734 186.9 200.398 186.988C200.07 187.068 199.71 187.104 199.318 187.096C198.638 187.088 198.03 186.968 197.494 186.736C196.958 186.504 196.498 186.188 196.114 185.788C195.738 185.38 195.45 184.916 195.25 184.396C195.05 183.876 194.95 183.32 194.95 182.728C194.95 182.08 195.054 181.484 195.262 180.94C195.478 180.388 195.778 179.912 196.162 179.512C196.546 179.104 196.998 178.788 197.518 178.564C198.046 178.34 198.622 178.228 199.246 178.228C199.766 178.228 200.238 178.3 200.662 178.444C201.086 178.58 201.45 178.74 201.754 178.924L201.286 180.016C201.046 179.856 200.754 179.704 200.41 179.56C200.066 179.416 199.69 179.344 199.282 179.344C198.858 179.344 198.458 179.432 198.082 179.608C197.706 179.776 197.374 180.012 197.086 180.316C196.798 180.612 196.57 180.964 196.402 181.372C196.242 181.772 196.162 182.204 196.162 182.668C196.162 183.292 196.29 183.856 196.546 184.36C196.81 184.856 197.178 185.248 197.65 185.536C198.13 185.824 198.69 185.968 199.33 185.968C199.778 185.968 200.17 185.904 200.506 185.776C200.85 185.64 201.134 185.484 201.358 185.308L201.862 186.352ZM212.107 179.872C211.811 179.72 211.487 179.588 211.135 179.476C210.783 179.364 210.443 179.308 210.115 179.308C209.643 179.308 209.267 179.416 208.987 179.632C208.715 179.848 208.579 180.14 208.579 180.508C208.579 180.772 208.667 180.996 208.843 181.18C209.027 181.364 209.259 181.528 209.539 181.672C209.827 181.808 210.131 181.936 210.451 182.056C210.811 182.192 211.159 182.356 211.495 182.548C211.831 182.74 212.107 183 212.323 183.328C212.547 183.648 212.659 184.08 212.659 184.624C212.659 185.088 212.543 185.508 212.311 185.884C212.079 186.252 211.751 186.548 211.327 186.772C210.903 186.988 210.399 187.096 209.815 187.096C209.239 187.096 208.703 187.004 208.207 186.82C207.719 186.636 207.303 186.424 206.959 186.184L207.475 185.26C207.755 185.476 208.099 185.664 208.507 185.824C208.923 185.984 209.319 186.064 209.695 186.064C209.975 186.064 210.247 186.016 210.511 185.92C210.783 185.824 211.007 185.672 211.183 185.464C211.359 185.248 211.447 184.972 211.447 184.636C211.447 184.348 211.367 184.104 211.207 183.904C211.047 183.704 210.839 183.536 210.583 183.4C210.335 183.256 210.063 183.128 209.767 183.016C209.495 182.92 209.219 182.808 208.939 182.68C208.659 182.552 208.399 182.4 208.159 182.224C207.927 182.04 207.739 181.816 207.595 181.552C207.451 181.288 207.379 180.968 207.379 180.592C207.379 180.136 207.487 179.74 207.703 179.404C207.927 179.06 208.231 178.792 208.615 178.6C208.999 178.4 209.443 178.292 209.947 178.276C210.499 178.276 210.987 178.344 211.411 178.48C211.843 178.616 212.223 178.78 212.551 178.972L212.107 179.872ZM216.631 187.12C216.071 187.12 215.583 187.008 215.167 186.784C214.759 186.552 214.443 186.236 214.219 185.836C214.003 185.436 213.895 184.984 213.895 184.48C213.895 183.992 214.015 183.548 214.255 183.148C214.503 182.74 214.835 182.42 215.251 182.188C215.675 181.948 216.143 181.828 216.655 181.828C217.311 181.828 217.855 182.02 218.287 182.404C218.719 182.788 219.015 183.316 219.175 183.988L215.239 185.368C215.375 185.616 215.567 185.812 215.815 185.956C216.063 186.092 216.343 186.16 216.655 186.16C216.879 186.16 217.091 186.12 217.291 186.04C217.491 185.96 217.683 185.856 217.867 185.728L218.383 186.556C218.127 186.724 217.843 186.86 217.531 186.964C217.227 187.068 216.927 187.12 216.631 187.12ZM214.999 184.42C214.991 184.516 214.995 184.608 215.011 184.696L217.903 183.628C217.791 183.388 217.627 183.176 217.411 182.992C217.203 182.808 216.923 182.716 216.571 182.716C216.115 182.716 215.739 182.876 215.443 183.196C215.147 183.516 214.999 183.924 214.999 184.42ZM221.558 182.032L221.642 183.196C221.778 182.916 221.966 182.676 222.206 182.476C222.446 182.268 222.694 182.112 222.95 182.008C223.214 181.896 223.442 181.836 223.634 181.828L223.586 182.944C223.21 182.928 222.878 183.004 222.59 183.172C222.302 183.332 222.078 183.552 221.918 183.832C221.758 184.112 221.678 184.412 221.678 184.732V187H220.562V182.032H221.558ZM227.09 187.144L224.33 182.032H225.662L227.162 185.212L228.554 182.032H229.802L227.15 187.144H227.09ZM231.003 182.032H232.119V187H231.003V182.032ZM230.919 180.244C230.919 180.06 230.987 179.912 231.123 179.8C231.267 179.68 231.423 179.62 231.591 179.62C231.759 179.62 231.911 179.68 232.047 179.8C232.183 179.912 232.251 180.06 232.251 180.244C232.251 180.428 232.183 180.58 232.047 180.7C231.911 180.812 231.759 180.868 231.591 180.868C231.423 180.868 231.267 180.812 231.123 180.7C230.987 180.58 230.919 180.428 230.919 180.244ZM238.094 186.532C237.87 186.716 237.602 186.86 237.29 186.964C236.978 187.068 236.666 187.12 236.354 187.12C235.818 187.12 235.342 187.012 234.926 186.796C234.518 186.58 234.198 186.276 233.966 185.884C233.742 185.492 233.63 185.032 233.63 184.504C233.63 183.976 233.75 183.52 233.99 183.136C234.238 182.744 234.558 182.44 234.95 182.224C235.35 182.008 235.782 181.9 236.246 181.9C236.646 181.9 237.002 181.956 237.314 182.068C237.626 182.18 237.898 182.332 238.13 182.524L237.566 183.256C237.422 183.152 237.246 183.056 237.038 182.968C236.83 182.872 236.598 182.824 236.342 182.824C236.046 182.824 235.778 182.9 235.538 183.052C235.298 183.196 235.106 183.396 234.962 183.652C234.818 183.9 234.746 184.184 234.746 184.504C234.746 184.816 234.818 185.1 234.962 185.356C235.106 185.612 235.306 185.816 235.562 185.968C235.818 186.12 236.114 186.196 236.45 186.196C236.658 186.196 236.85 186.164 237.026 186.1C237.21 186.036 237.374 185.948 237.518 185.836L238.094 186.532ZM241.839 187.12C241.279 187.12 240.791 187.008 240.375 186.784C239.967 186.552 239.651 186.236 239.427 185.836C239.211 185.436 239.103 184.984 239.103 184.48C239.103 183.992 239.223 183.548 239.463 183.148C239.711 182.74 240.043 182.42 240.459 182.188C240.883 181.948 241.351 181.828 241.863 181.828C242.519 181.828 243.063 182.02 243.495 182.404C243.927 182.788 244.223 183.316 244.383 183.988L240.447 185.368C240.583 185.616 240.775 185.812 241.023 185.956C241.271 186.092 241.551 186.16 241.863 186.16C242.087 186.16 242.299 186.12 242.499 186.04C242.699 185.96 242.891 185.856 243.075 185.728L243.591 186.556C243.335 186.724 243.051 186.86 242.739 186.964C242.435 187.068 242.135 187.12 241.839 187.12ZM240.207 184.42C240.199 184.516 240.203 184.608 240.219 184.696L243.111 183.628C242.999 183.388 242.835 183.176 242.619 182.992C242.411 182.808 242.131 182.716 241.779 182.716C241.323 182.716 240.947 182.876 240.651 183.196C240.355 183.516 240.207 183.924 240.207 184.42Z" fill="white"/>
</svg>
