<svg width="448" height="344" viewBox="0 0 448 344" fill="none" xmlns="http://www.w3.org/2000/svg">
<path d="M139.5 131C139.5 120.23 148.23 111.5 159 111.5H289C299.77 111.5 308.5 120.23 308.5 131V193C308.5 203.77 299.77 212.5 289 212.5H159C148.23 212.5 139.5 203.77 139.5 193V131Z" fill="#4285F4" stroke="#4285F4"/>
<path d="M139.5 262C139.5 251.23 148.23 242.5 159 242.5H289C299.77 242.5 308.5 251.23 308.5 262V324C308.5 334.77 299.77 343.5 289 343.5H159C148.23 343.5 139.5 334.77 139.5 324V262Z" fill="#4285F4" stroke="#4285F4"/>
<path d="M184.62 294.352C184.476 294.448 184.28 294.556 184.032 294.676C183.784 294.796 183.492 294.9 183.156 294.988C182.828 295.068 182.468 295.104 182.076 295.096C181.396 295.088 180.788 294.968 180.252 294.736C179.716 294.504 179.256 294.188 178.872 293.788C178.496 293.38 178.208 292.916 178.008 292.396C177.808 291.876 177.708 291.32 177.708 290.728C177.708 290.08 177.812 289.484 178.02 288.94C178.236 288.388 178.536 287.912 178.92 287.512C179.304 287.104 179.756 286.788 180.276 286.564C180.804 286.34 181.38 286.228 182.004 286.228C182.524 286.228 182.996 286.3 183.42 286.444C183.844 286.58 184.208 286.74 184.512 286.924L184.044 288.016C183.804 287.856 183.512 287.704 183.168 287.56C182.824 287.416 182.448 287.344 182.04 287.344C181.616 287.344 181.216 287.432 180.84 287.608C180.464 287.776 180.132 288.012 179.844 288.316C179.556 288.612 179.328 288.964 179.16 289.372C179 289.772 178.92 290.204 178.92 290.668C178.92 291.292 179.048 291.856 179.304 292.36C179.568 292.856 179.936 293.248 180.408 293.536C180.888 293.824 181.448 293.968 182.088 293.968C182.536 293.968 182.928 293.904 183.264 293.776C183.608 293.64 183.892 293.484 184.116 293.308L184.62 294.352ZM186.304 285.7H187.42V295H186.304V285.7ZM188.931 292.468C188.931 291.972 189.047 291.524 189.279 291.124C189.519 290.724 189.847 290.408 190.263 290.176C190.679 289.944 191.155 289.828 191.691 289.828C192.227 289.828 192.699 289.944 193.107 290.176C193.515 290.408 193.831 290.724 194.055 291.124C194.287 291.524 194.403 291.972 194.403 292.468C194.403 292.964 194.287 293.412 194.055 293.812C193.831 294.212 193.511 294.532 193.095 294.772C192.687 295.004 192.211 295.12 191.667 295.12C191.139 295.12 190.667 295.012 190.251 294.796C189.843 294.58 189.519 294.272 189.279 293.872C189.047 293.472 188.931 293.004 188.931 292.468ZM190.059 292.48C190.059 292.8 190.127 293.092 190.263 293.356C190.407 293.612 190.599 293.816 190.839 293.968C191.079 294.12 191.351 294.196 191.655 294.196C191.967 294.196 192.243 294.12 192.483 293.968C192.723 293.816 192.911 293.612 193.047 293.356C193.191 293.092 193.263 292.8 193.263 292.48C193.263 292.16 193.191 291.872 193.047 291.616C192.911 291.352 192.723 291.144 192.483 290.992C192.243 290.832 191.967 290.752 191.655 290.752C191.351 290.752 191.075 290.832 190.827 290.992C190.587 291.152 190.399 291.364 190.263 291.628C190.127 291.884 190.059 292.168 190.059 292.48ZM197.486 295.192C197.03 295.192 196.654 295.056 196.358 294.784C196.062 294.504 195.91 294.144 195.902 293.704V290.032H197.018V293.308C197.034 293.58 197.114 293.8 197.258 293.968C197.402 294.136 197.626 294.224 197.93 294.232C198.202 294.232 198.45 294.152 198.674 293.992C198.898 293.824 199.074 293.6 199.202 293.32C199.338 293.032 199.406 292.708 199.406 292.348V290.032H200.522V295H199.514L199.43 294.064C199.27 294.392 199.014 294.664 198.662 294.88C198.318 295.088 197.926 295.192 197.486 295.192ZM204.492 295.12C204.02 295.12 203.596 295.012 203.22 294.796C202.852 294.572 202.56 294.26 202.344 293.86C202.136 293.452 202.032 292.98 202.032 292.444C202.032 291.9 202.144 291.432 202.368 291.04C202.592 290.648 202.9 290.348 203.292 290.14C203.692 289.932 204.136 289.828 204.624 289.828C205 289.828 205.36 289.908 205.704 290.068C206.048 290.22 206.324 290.432 206.532 290.704V285.7H207.648V295H206.52V294.232C206.28 294.496 205.984 294.712 205.632 294.88C205.288 295.04 204.908 295.12 204.492 295.12ZM204.84 294.16C205.272 294.16 205.636 294.044 205.932 293.812C206.228 293.58 206.42 293.268 206.508 292.876V291.94C206.42 291.588 206.22 291.296 205.908 291.064C205.604 290.832 205.248 290.716 204.84 290.716C204.536 290.716 204.256 290.792 204 290.944C203.744 291.088 203.54 291.288 203.388 291.544C203.236 291.8 203.16 292.096 203.16 292.432C203.16 292.752 203.236 293.044 203.388 293.308C203.54 293.572 203.744 293.78 204 293.932C204.256 294.084 204.536 294.16 204.84 294.16ZM218.138 287.872C217.842 287.72 217.518 287.588 217.166 287.476C216.814 287.364 216.474 287.308 216.146 287.308C215.674 287.308 215.298 287.416 215.018 287.632C214.746 287.848 214.61 288.14 214.61 288.508C214.61 288.772 214.698 288.996 214.874 289.18C215.058 289.364 215.29 289.528 215.57 289.672C215.858 289.808 216.162 289.936 216.482 290.056C216.842 290.192 217.19 290.356 217.526 290.548C217.862 290.74 218.138 291 218.354 291.328C218.578 291.648 218.69 292.08 218.69 292.624C218.69 293.088 218.574 293.508 218.342 293.884C218.11 294.252 217.782 294.548 217.358 294.772C216.934 294.988 216.43 295.096 215.846 295.096C215.27 295.096 214.734 295.004 214.238 294.82C213.75 294.636 213.334 294.424 212.99 294.184L213.506 293.26C213.786 293.476 214.13 293.664 214.538 293.824C214.954 293.984 215.35 294.064 215.726 294.064C216.006 294.064 216.278 294.016 216.542 293.92C216.814 293.824 217.038 293.672 217.214 293.464C217.39 293.248 217.478 292.972 217.478 292.636C217.478 292.348 217.398 292.104 217.238 291.904C217.078 291.704 216.87 291.536 216.614 291.4C216.366 291.256 216.094 291.128 215.798 291.016C215.526 290.92 215.25 290.808 214.97 290.68C214.69 290.552 214.43 290.4 214.19 290.224C213.958 290.04 213.77 289.816 213.626 289.552C213.482 289.288 213.41 288.968 213.41 288.592C213.41 288.136 213.518 287.74 213.734 287.404C213.958 287.06 214.262 286.792 214.646 286.6C215.03 286.4 215.474 286.292 215.978 286.276C216.53 286.276 217.018 286.344 217.442 286.48C217.874 286.616 218.254 286.78 218.582 286.972L218.138 287.872ZM220.095 290.668C220.095 290.068 220.207 289.5 220.431 288.964C220.663 288.428 220.983 287.956 221.391 287.548C221.799 287.14 222.267 286.82 222.795 286.588C223.331 286.348 223.903 286.228 224.511 286.228C225.119 286.228 225.691 286.348 226.227 286.588C226.771 286.82 227.247 287.14 227.655 287.548C228.063 287.956 228.383 288.428 228.615 288.964C228.847 289.5 228.963 290.068 228.963 290.668C228.963 291.3 228.839 291.892 228.591 292.444C228.343 292.988 228.007 293.46 227.583 293.86H229.335V295H225.435C225.131 295.064 224.823 295.096 224.511 295.096C223.903 295.096 223.331 294.984 222.795 294.76C222.267 294.536 221.799 294.224 221.391 293.824C220.983 293.416 220.663 292.944 220.431 292.408C220.207 291.872 220.095 291.292 220.095 290.668ZM221.295 290.68C221.295 291.136 221.379 291.564 221.547 291.964C221.715 292.356 221.947 292.704 222.243 293.008C222.539 293.304 222.883 293.54 223.275 293.716C223.667 293.884 224.091 293.968 224.547 293.968C225.147 293.968 225.687 293.82 226.167 293.524C226.655 293.228 227.043 292.832 227.331 292.336C227.619 291.84 227.763 291.284 227.763 290.668C227.763 290.22 227.679 289.796 227.511 289.396C227.343 288.996 227.111 288.648 226.815 288.352C226.519 288.048 226.175 287.812 225.783 287.644C225.391 287.468 224.971 287.38 224.523 287.38C224.067 287.38 223.643 287.468 223.251 287.644C222.859 287.812 222.515 288.052 222.219 288.364C221.931 288.668 221.703 289.02 221.535 289.42C221.375 289.812 221.295 290.232 221.295 290.68ZM231.287 286.324H232.451V293.872H236.867V295H231.287V286.324ZM244.877 286.324C245.813 286.324 246.549 286.56 247.085 287.032C247.621 287.504 247.889 288.164 247.889 289.012C247.889 289.356 247.837 289.696 247.733 290.032C247.629 290.36 247.461 290.66 247.229 290.932C247.005 291.196 246.709 291.412 246.341 291.58C245.973 291.74 245.525 291.82 244.997 291.82H243.713V295H242.549V286.324H244.877ZM244.997 290.68C245.333 290.68 245.613 290.628 245.837 290.524C246.061 290.412 246.237 290.268 246.365 290.092C246.501 289.916 246.597 289.736 246.653 289.552C246.709 289.36 246.737 289.188 246.737 289.036C246.737 288.804 246.681 288.564 246.569 288.316C246.465 288.068 246.289 287.86 246.041 287.692C245.801 287.524 245.473 287.44 245.057 287.44H243.713V290.68H244.997ZM250.406 290.032L250.49 291.196C250.626 290.916 250.814 290.676 251.054 290.476C251.294 290.268 251.542 290.112 251.798 290.008C252.062 289.896 252.29 289.836 252.482 289.828L252.434 290.944C252.058 290.928 251.726 291.004 251.438 291.172C251.15 291.332 250.926 291.552 250.766 291.832C250.606 292.112 250.526 292.412 250.526 292.732V295H249.41V290.032H250.406ZM253.278 292.468C253.278 291.972 253.394 291.524 253.626 291.124C253.866 290.724 254.194 290.408 254.61 290.176C255.026 289.944 255.502 289.828 256.038 289.828C256.574 289.828 257.046 289.944 257.454 290.176C257.862 290.408 258.178 290.724 258.402 291.124C258.634 291.524 258.75 291.972 258.75 292.468C258.75 292.964 258.634 293.412 258.402 293.812C258.178 294.212 257.858 294.532 257.442 294.772C257.034 295.004 256.558 295.12 256.014 295.12C255.486 295.12 255.014 295.012 254.598 294.796C254.19 294.58 253.866 294.272 253.626 293.872C253.394 293.472 253.278 293.004 253.278 292.468ZM254.406 292.48C254.406 292.8 254.474 293.092 254.61 293.356C254.754 293.612 254.946 293.816 255.186 293.968C255.426 294.12 255.698 294.196 256.002 294.196C256.314 294.196 256.59 294.12 256.83 293.968C257.07 293.816 257.258 293.612 257.394 293.356C257.538 293.092 257.61 292.8 257.61 292.48C257.61 292.16 257.538 291.872 257.394 291.616C257.258 291.352 257.07 291.144 256.83 290.992C256.59 290.832 256.314 290.752 256.002 290.752C255.698 290.752 255.422 290.832 255.174 290.992C254.934 291.152 254.746 291.364 254.61 291.628C254.474 291.884 254.406 292.168 254.406 292.48ZM264.524 295H263.168L261.824 293.236L260.588 295H259.448L261.272 292.504L259.388 290.032H260.78L262.076 291.76L263.204 290.032H264.332L262.592 292.444L264.524 295ZM266.142 297.388L267.282 294.844L264.978 290.032H266.238L267.834 293.572L269.418 290.032H270.45L267.246 297.388H266.142Z" fill="white"/>
<path d="M191.372 167.46C190.82 167.46 190.36 167.364 189.992 167.172C189.624 166.988 189.284 166.752 188.972 166.464L189.632 165.696C189.888 165.952 190.152 166.144 190.424 166.272C190.696 166.408 191.004 166.476 191.348 166.476C191.908 166.476 192.336 166.34 192.632 166.068C192.928 165.804 193.08 165.452 193.088 165.012V164.1C192.92 164.396 192.66 164.64 192.308 164.832C191.956 165.024 191.54 165.12 191.06 165.12C190.596 165.12 190.172 165.004 189.788 164.772C189.412 164.54 189.108 164.228 188.876 163.836C188.652 163.436 188.54 162.988 188.54 162.492C188.54 161.972 188.66 161.512 188.9 161.112C189.14 160.712 189.456 160.4 189.848 160.176C190.24 159.944 190.668 159.828 191.132 159.828C191.564 159.828 191.956 159.912 192.308 160.08C192.66 160.248 192.924 160.464 193.1 160.728L193.196 160.032H194.216V165.036C194.216 165.484 194.1 165.892 193.868 166.26C193.636 166.628 193.308 166.92 192.884 167.136C192.46 167.352 191.956 167.46 191.372 167.46ZM189.668 162.456C189.668 162.784 189.744 163.08 189.896 163.344C190.048 163.6 190.252 163.808 190.508 163.968C190.772 164.12 191.064 164.196 191.384 164.196C191.816 164.196 192.184 164.08 192.488 163.848C192.8 163.608 193 163.304 193.088 162.936V161.952C192.984 161.6 192.776 161.312 192.464 161.088C192.152 160.864 191.792 160.752 191.384 160.752C191.056 160.752 190.76 160.824 190.496 160.968C190.24 161.112 190.036 161.312 189.884 161.568C189.74 161.824 189.668 162.12 189.668 162.456ZM198.748 156.324C199.324 156.324 199.844 156.428 200.308 156.636C200.772 156.836 201.14 157.14 201.412 157.548C201.684 157.948 201.82 158.436 201.82 159.012C201.82 159.508 201.708 159.988 201.484 160.452C201.268 160.916 200.9 161.268 200.38 161.508L202.564 165H201.208L199.156 161.796C199.068 161.804 198.976 161.808 198.88 161.808H197.596V165H196.432V156.324H198.748ZM198.856 160.68C199.32 160.68 199.676 160.596 199.924 160.428C200.18 160.252 200.36 160.04 200.464 159.792C200.568 159.536 200.62 159.292 200.62 159.06C200.62 158.828 200.564 158.588 200.452 158.34C200.34 158.092 200.16 157.88 199.912 157.704C199.672 157.528 199.348 157.44 198.94 157.44H197.596V160.68H198.856ZM206.681 156.324C207.617 156.324 208.353 156.56 208.889 157.032C209.425 157.504 209.693 158.164 209.693 159.012C209.693 159.356 209.641 159.696 209.537 160.032C209.433 160.36 209.265 160.66 209.033 160.932C208.809 161.196 208.513 161.412 208.145 161.58C207.777 161.74 207.329 161.82 206.801 161.82H205.517V165H204.353V156.324H206.681ZM206.801 160.68C207.137 160.68 207.417 160.628 207.641 160.524C207.865 160.412 208.041 160.268 208.169 160.092C208.305 159.916 208.401 159.736 208.457 159.552C208.513 159.36 208.541 159.188 208.541 159.036C208.541 158.804 208.485 158.564 208.373 158.316C208.269 158.068 208.093 157.86 207.845 157.692C207.605 157.524 207.277 157.44 206.861 157.44H205.517V160.68H206.801ZM217.862 164.352C217.718 164.448 217.522 164.556 217.274 164.676C217.026 164.796 216.734 164.9 216.398 164.988C216.07 165.068 215.71 165.104 215.318 165.096C214.638 165.088 214.03 164.968 213.494 164.736C212.958 164.504 212.498 164.188 212.114 163.788C211.738 163.38 211.45 162.916 211.25 162.396C211.05 161.876 210.95 161.32 210.95 160.728C210.95 160.08 211.054 159.484 211.262 158.94C211.478 158.388 211.778 157.912 212.162 157.512C212.546 157.104 212.998 156.788 213.518 156.564C214.046 156.34 214.622 156.228 215.246 156.228C215.766 156.228 216.238 156.3 216.662 156.444C217.086 156.58 217.45 156.74 217.754 156.924L217.286 158.016C217.046 157.856 216.754 157.704 216.41 157.56C216.066 157.416 215.69 157.344 215.282 157.344C214.858 157.344 214.458 157.432 214.082 157.608C213.706 157.776 213.374 158.012 213.086 158.316C212.798 158.612 212.57 158.964 212.402 159.372C212.242 159.772 212.162 160.204 212.162 160.668C212.162 161.292 212.29 161.856 212.546 162.36C212.81 162.856 213.178 163.248 213.65 163.536C214.13 163.824 214.69 163.968 215.33 163.968C215.778 163.968 216.17 163.904 216.506 163.776C216.85 163.64 217.134 163.484 217.358 163.308L217.862 164.352ZM228.107 157.872C227.811 157.72 227.487 157.588 227.135 157.476C226.783 157.364 226.443 157.308 226.115 157.308C225.643 157.308 225.267 157.416 224.987 157.632C224.715 157.848 224.579 158.14 224.579 158.508C224.579 158.772 224.667 158.996 224.843 159.18C225.027 159.364 225.259 159.528 225.539 159.672C225.827 159.808 226.131 159.936 226.451 160.056C226.811 160.192 227.159 160.356 227.495 160.548C227.831 160.74 228.107 161 228.323 161.328C228.547 161.648 228.659 162.08 228.659 162.624C228.659 163.088 228.543 163.508 228.311 163.884C228.079 164.252 227.751 164.548 227.327 164.772C226.903 164.988 226.399 165.096 225.815 165.096C225.239 165.096 224.703 165.004 224.207 164.82C223.719 164.636 223.303 164.424 222.959 164.184L223.475 163.26C223.755 163.476 224.099 163.664 224.507 163.824C224.923 163.984 225.319 164.064 225.695 164.064C225.975 164.064 226.247 164.016 226.511 163.92C226.783 163.824 227.007 163.672 227.183 163.464C227.359 163.248 227.447 162.972 227.447 162.636C227.447 162.348 227.367 162.104 227.207 161.904C227.047 161.704 226.839 161.536 226.583 161.4C226.335 161.256 226.063 161.128 225.767 161.016C225.495 160.92 225.219 160.808 224.939 160.68C224.659 160.552 224.399 160.4 224.159 160.224C223.927 160.04 223.739 159.816 223.595 159.552C223.451 159.288 223.379 158.968 223.379 158.592C223.379 158.136 223.487 157.74 223.703 157.404C223.927 157.06 224.231 156.792 224.615 156.6C224.999 156.4 225.443 156.292 225.947 156.276C226.499 156.276 226.987 156.344 227.411 156.48C227.843 156.616 228.223 156.78 228.551 156.972L228.107 157.872ZM232.631 165.12C232.071 165.12 231.583 165.008 231.167 164.784C230.759 164.552 230.443 164.236 230.219 163.836C230.003 163.436 229.895 162.984 229.895 162.48C229.895 161.992 230.015 161.548 230.255 161.148C230.503 160.74 230.835 160.42 231.251 160.188C231.675 159.948 232.143 159.828 232.655 159.828C233.311 159.828 233.855 160.02 234.287 160.404C234.719 160.788 235.015 161.316 235.175 161.988L231.239 163.368C231.375 163.616 231.567 163.812 231.815 163.956C232.063 164.092 232.343 164.16 232.655 164.16C232.879 164.16 233.091 164.12 233.291 164.04C233.491 163.96 233.683 163.856 233.867 163.728L234.383 164.556C234.127 164.724 233.843 164.86 233.531 164.964C233.227 165.068 232.927 165.12 232.631 165.12ZM230.999 162.42C230.991 162.516 230.995 162.608 231.011 162.696L233.903 161.628C233.791 161.388 233.627 161.176 233.411 160.992C233.203 160.808 232.923 160.716 232.571 160.716C232.115 160.716 231.739 160.876 231.443 161.196C231.147 161.516 230.999 161.924 230.999 162.42ZM237.558 160.032L237.642 161.196C237.778 160.916 237.966 160.676 238.206 160.476C238.446 160.268 238.694 160.112 238.95 160.008C239.214 159.896 239.442 159.836 239.634 159.828L239.586 160.944C239.21 160.928 238.878 161.004 238.59 161.172C238.302 161.332 238.078 161.552 237.918 161.832C237.758 162.112 237.678 162.412 237.678 162.732V165H236.562V160.032H237.558ZM243.09 165.144L240.33 160.032H241.662L243.162 163.212L244.554 160.032H245.802L243.15 165.144H243.09ZM247.003 160.032H248.119V165H247.003V160.032ZM246.919 158.244C246.919 158.06 246.987 157.912 247.123 157.8C247.267 157.68 247.423 157.62 247.591 157.62C247.759 157.62 247.911 157.68 248.047 157.8C248.183 157.912 248.251 158.06 248.251 158.244C248.251 158.428 248.183 158.58 248.047 158.7C247.911 158.812 247.759 158.868 247.591 158.868C247.423 158.868 247.267 158.812 247.123 158.7C246.987 158.58 246.919 158.428 246.919 158.244ZM254.094 164.532C253.87 164.716 253.602 164.86 253.29 164.964C252.978 165.068 252.666 165.12 252.354 165.12C251.818 165.12 251.342 165.012 250.926 164.796C250.518 164.58 250.198 164.276 249.966 163.884C249.742 163.492 249.63 163.032 249.63 162.504C249.63 161.976 249.75 161.52 249.99 161.136C250.238 160.744 250.558 160.44 250.95 160.224C251.35 160.008 251.782 159.9 252.246 159.9C252.646 159.9 253.002 159.956 253.314 160.068C253.626 160.18 253.898 160.332 254.13 160.524L253.566 161.256C253.422 161.152 253.246 161.056 253.038 160.968C252.83 160.872 252.598 160.824 252.342 160.824C252.046 160.824 251.778 160.9 251.538 161.052C251.298 161.196 251.106 161.396 250.962 161.652C250.818 161.9 250.746 162.184 250.746 162.504C250.746 162.816 250.818 163.1 250.962 163.356C251.106 163.612 251.306 163.816 251.562 163.968C251.818 164.12 252.114 164.196 252.45 164.196C252.658 164.196 252.85 164.164 253.026 164.1C253.21 164.036 253.374 163.948 253.518 163.836L254.094 164.532ZM257.839 165.12C257.279 165.12 256.791 165.008 256.375 164.784C255.967 164.552 255.651 164.236 255.427 163.836C255.211 163.436 255.103 162.984 255.103 162.48C255.103 161.992 255.223 161.548 255.463 161.148C255.711 160.74 256.043 160.42 256.459 160.188C256.883 159.948 257.351 159.828 257.863 159.828C258.519 159.828 259.063 160.02 259.495 160.404C259.927 160.788 260.223 161.316 260.383 161.988L256.447 163.368C256.583 163.616 256.775 163.812 257.023 163.956C257.271 164.092 257.551 164.16 257.863 164.16C258.087 164.16 258.299 164.12 258.499 164.04C258.699 163.96 258.891 163.856 259.075 163.728L259.591 164.556C259.335 164.724 259.051 164.86 258.739 164.964C258.435 165.068 258.135 165.12 257.839 165.12ZM256.207 162.42C256.199 162.516 256.203 162.608 256.219 162.696L259.111 161.628C258.999 161.388 258.835 161.176 258.619 160.992C258.411 160.808 258.131 160.716 257.779 160.716C257.323 160.716 256.947 160.876 256.651 161.196C256.355 161.516 256.207 161.924 256.207 162.42Z" fill="white"/>
<path d="M129.354 30.3536C129.549 30.1583 129.549 29.8417 129.354 29.6465L126.172 26.4645C125.976 26.2692 125.66 26.2692 125.464 26.4645C125.269 26.6597 125.269 26.9763 125.464 27.1716L128.293 30L125.464 32.8284C125.269 33.0237 125.269 33.3403 125.464 33.5355C125.66 33.7308 125.976 33.7308 126.172 33.5355L129.354 30.3536ZM-4.37114e-08 30.5L129 30.5L129 29.5L4.37114e-08 29.5L-4.37114e-08 30.5Z" fill="black"/>
<path d="M447.354 292.354C447.549 292.158 447.549 291.842 447.354 291.646L444.172 288.464C443.976 288.269 443.66 288.269 443.464 288.464C443.269 288.66 443.269 288.976 443.464 289.172L446.293 292L443.464 294.828C443.269 295.024 443.269 295.34 443.464 295.536C443.66 295.731 443.976 295.731 444.172 295.536L447.354 292.354ZM318 292.5L447 292.5L447 291.5L318 291.5L318 292.5Z" fill="black"/>
<path d="M317.646 12.6464C317.451 12.8417 317.451 13.1583 317.646 13.3536L320.828 16.5355C321.024 16.7308 321.34 16.7308 321.536 16.5355C321.731 16.3403 321.731 16.0237 321.536 15.8284L318.707 13L321.536 10.1716C321.731 9.97631 321.731 9.65973 321.536 9.46447C321.34 9.2692 321.024 9.2692 320.828 9.46447L317.646 12.6464ZM318 13.5L447 13.5L447 12.5L318 12.5L318 13.5Z" fill="black"/>
<path d="M318.646 161.646C318.451 161.842 318.451 162.158 318.646 162.354L321.828 165.536C322.024 165.731 322.34 165.731 322.536 165.536C322.731 165.34 322.731 165.024 322.536 164.828L319.707 162L322.536 159.172C322.731 158.976 322.731 158.66 322.536 158.464C322.34 158.269 322.024 158.269 321.828 158.464L318.646 161.646ZM319 162.5L448 162.5L448 161.5L319 161.5L319 162.5Z" fill="black"/>
<path d="M317.646 47.6464C317.451 47.8417 317.451 48.1583 317.646 48.3536L320.828 51.5355C321.024 51.7308 321.34 51.7308 321.536 51.5355C321.731 51.3403 321.731 51.0237 321.536 50.8284L318.707 48L321.536 45.1716C321.731 44.9763 321.731 44.6597 321.536 44.4645C321.34 44.2692 321.024 44.2692 320.828 44.4645L317.646 47.6464ZM318 48.5L447 48.5L447 47.5L318 47.5L318 48.5Z" fill="black"/>
<path d="M224.354 108.354C224.158 108.549 223.842 108.549 223.646 108.354L220.464 105.172C220.269 104.976 220.269 104.66 220.464 104.464C220.66 104.269 220.976 104.269 221.172 104.464L224 107.293L226.828 104.464C227.024 104.269 227.34 104.269 227.536 104.464C227.731 104.66 227.731 104.976 227.536 105.172L224.354 108.354ZM224.5 86V108H223.5V86H224.5Z" fill="black"/>
<path d="M224.354 238.354C224.158 238.549 223.842 238.549 223.646 238.354L220.464 235.172C220.269 234.976 220.269 234.66 220.464 234.464C220.66 234.269 220.976 234.269 221.172 234.464L224 237.293L226.828 234.464C227.024 234.269 227.34 234.269 227.536 234.464C227.731 234.66 227.731 234.976 227.536 235.172L224.354 238.354ZM224.5 216V238H223.5V216H224.5Z" fill="black"/>
<path d="M368.608 1.048C368.04 2.584 367.476 4.116 366.916 5.644C366.356 7.172 365.792 8.7 365.224 10.228H364.204C364.772 8.7 365.336 7.172 365.896 5.644C366.456 4.116 367.02 2.584 367.588 1.048H368.608ZM369.589 10V0.7H370.681V5.932C370.857 5.612 371.117 5.352 371.461 5.152C371.805 4.944 372.209 4.84 372.673 4.84C373.137 4.84 373.517 4.98 373.813 5.26C374.117 5.532 374.277 5.888 374.293 6.328V10H373.165V6.712C373.149 6.448 373.065 6.232 372.913 6.064C372.769 5.896 372.541 5.808 372.229 5.8C371.941 5.8 371.681 5.884 371.449 6.052C371.225 6.212 371.045 6.432 370.909 6.712C370.773 6.992 370.705 7.312 370.705 7.672V10H369.589ZM378.526 10.12C377.966 10.12 377.478 10.008 377.062 9.784C376.654 9.552 376.338 9.236 376.114 8.836C375.898 8.436 375.79 7.984 375.79 7.48C375.79 6.992 375.91 6.548 376.15 6.148C376.398 5.74 376.73 5.42 377.146 5.188C377.57 4.948 378.038 4.828 378.55 4.828C379.206 4.828 379.75 5.02 380.182 5.404C380.614 5.788 380.91 6.316 381.07 6.988L377.134 8.368C377.27 8.616 377.462 8.812 377.71 8.956C377.958 9.092 378.238 9.16 378.55 9.16C378.774 9.16 378.986 9.12 379.186 9.04C379.386 8.96 379.578 8.856 379.762 8.728L380.278 9.556C380.022 9.724 379.738 9.86 379.426 9.964C379.122 10.068 378.822 10.12 378.526 10.12ZM376.894 7.42C376.886 7.516 376.89 7.608 376.906 7.696L379.798 6.628C379.686 6.388 379.522 6.176 379.306 5.992C379.098 5.808 378.818 5.716 378.466 5.716C378.01 5.716 377.634 5.876 377.338 6.196C377.042 6.516 376.894 6.924 376.894 7.42ZM384.532 10.12C384.06 10.12 383.632 10.02 383.248 9.82C382.872 9.62 382.572 9.328 382.348 8.944C382.132 8.552 382.024 8.076 382.024 7.516C382.024 6.956 382.136 6.476 382.36 6.076C382.592 5.676 382.9 5.368 383.284 5.152C383.676 4.936 384.104 4.828 384.568 4.828C385.016 4.828 385.396 4.924 385.708 5.116C386.02 5.308 386.264 5.54 386.44 5.812L386.524 5.032H387.556V10H386.44V9.184C386.344 9.312 386.204 9.448 386.02 9.592C385.844 9.736 385.628 9.86 385.372 9.964C385.124 10.068 384.844 10.12 384.532 10.12ZM384.832 9.196C385.24 9.196 385.588 9.084 385.876 8.86C386.164 8.628 386.352 8.316 386.44 7.924V6.94C386.344 6.596 386.144 6.312 385.84 6.088C385.536 5.864 385.188 5.752 384.796 5.752C384.492 5.752 384.216 5.824 383.968 5.968C383.72 6.112 383.52 6.312 383.368 6.568C383.224 6.824 383.152 7.12 383.152 7.456C383.152 7.784 383.228 8.08 383.38 8.344C383.532 8.6 383.736 8.808 383.992 8.968C384.248 9.12 384.528 9.196 384.832 9.196ZM389.499 0.7H390.615V10H389.499V0.7ZM393.038 2.848H394.166V5.044H395.522V5.932H394.166V10H393.038V5.932H392.126V5.044H393.038V2.848ZM396.882 10V0.7H397.974V5.932C398.15 5.612 398.41 5.352 398.754 5.152C399.098 4.944 399.502 4.84 399.966 4.84C400.43 4.84 400.81 4.98 401.106 5.26C401.41 5.532 401.57 5.888 401.586 6.328V10H400.458V6.712C400.442 6.448 400.358 6.232 400.206 6.064C400.062 5.896 399.834 5.808 399.522 5.8C399.234 5.8 398.974 5.884 398.742 6.052C398.518 6.212 398.338 6.432 398.202 6.712C398.066 6.992 397.998 7.312 397.998 7.672V10H396.882Z" fill="black"/>
<path d="M365.608 36.048C365.04 37.584 364.476 39.116 363.916 40.644C363.356 42.172 362.792 43.7 362.224 45.228H361.204C361.772 43.7 362.336 42.172 362.896 40.644C363.456 39.116 364.02 37.584 364.588 36.048H365.608ZM367.597 40.032L367.669 40.98C367.861 40.62 368.121 40.34 368.449 40.14C368.785 39.932 369.169 39.828 369.601 39.828C370.009 39.828 370.349 39.924 370.621 40.116C370.901 40.308 371.073 40.568 371.137 40.896C371.337 40.56 371.597 40.3 371.917 40.116C372.245 39.924 372.593 39.828 372.961 39.828C373.441 39.828 373.821 39.968 374.101 40.248C374.389 40.528 374.541 40.884 374.557 41.316V45H373.441V41.736C373.425 41.48 373.357 41.268 373.237 41.1C373.125 40.924 372.929 40.828 372.649 40.812C372.353 40.812 372.093 40.9 371.869 41.076C371.645 41.244 371.469 41.468 371.341 41.748C371.213 42.028 371.145 42.324 371.137 42.636V45H370.009V41.736C370.001 41.48 369.933 41.268 369.805 41.1C369.685 40.924 369.481 40.828 369.193 40.812C368.905 40.812 368.649 40.9 368.425 41.076C368.201 41.244 368.025 41.468 367.897 41.748C367.769 42.028 367.705 42.328 367.705 42.648V45H366.589V40.032H367.597ZM378.796 45.12C378.236 45.12 377.748 45.008 377.332 44.784C376.924 44.552 376.608 44.236 376.384 43.836C376.168 43.436 376.06 42.984 376.06 42.48C376.06 41.992 376.18 41.548 376.42 41.148C376.668 40.74 377 40.42 377.416 40.188C377.84 39.948 378.308 39.828 378.82 39.828C379.476 39.828 380.02 40.02 380.452 40.404C380.884 40.788 381.18 41.316 381.34 41.988L377.404 43.368C377.54 43.616 377.732 43.812 377.98 43.956C378.228 44.092 378.508 44.16 378.82 44.16C379.044 44.16 379.256 44.12 379.456 44.04C379.656 43.96 379.848 43.856 380.032 43.728L380.548 44.556C380.292 44.724 380.008 44.86 379.696 44.964C379.392 45.068 379.092 45.12 378.796 45.12ZM377.164 42.42C377.156 42.516 377.16 42.608 377.176 42.696L380.068 41.628C379.956 41.388 379.792 41.176 379.576 40.992C379.368 40.808 379.088 40.716 378.736 40.716C378.28 40.716 377.904 40.876 377.608 41.196C377.312 41.516 377.164 41.924 377.164 42.42ZM383.206 37.848H384.334V40.044H385.69V40.932H384.334V45H383.206V40.932H382.294V40.044H383.206V37.848ZM388.046 40.032L388.13 41.196C388.266 40.916 388.454 40.676 388.694 40.476C388.934 40.268 389.182 40.112 389.438 40.008C389.702 39.896 389.93 39.836 390.122 39.828L390.074 40.944C389.698 40.928 389.366 41.004 389.078 41.172C388.79 41.332 388.566 41.552 388.406 41.832C388.246 42.112 388.166 42.412 388.166 42.732V45H387.05V40.032H388.046ZM391.562 40.032H392.678V45H391.562V40.032ZM391.478 38.244C391.478 38.06 391.546 37.912 391.682 37.8C391.826 37.68 391.982 37.62 392.15 37.62C392.318 37.62 392.47 37.68 392.606 37.8C392.742 37.912 392.81 38.06 392.81 38.244C392.81 38.428 392.742 38.58 392.606 38.7C392.47 38.812 392.318 38.868 392.15 38.868C391.982 38.868 391.826 38.812 391.682 38.7C391.546 38.58 391.478 38.428 391.478 38.244ZM398.652 44.532C398.428 44.716 398.16 44.86 397.848 44.964C397.536 45.068 397.224 45.12 396.912 45.12C396.376 45.12 395.9 45.012 395.484 44.796C395.076 44.58 394.756 44.276 394.524 43.884C394.3 43.492 394.188 43.032 394.188 42.504C394.188 41.976 394.308 41.52 394.548 41.136C394.796 40.744 395.116 40.44 395.508 40.224C395.908 40.008 396.34 39.9 396.804 39.9C397.204 39.9 397.56 39.956 397.872 40.068C398.184 40.18 398.456 40.332 398.688 40.524L398.124 41.256C397.98 41.152 397.804 41.056 397.596 40.968C397.388 40.872 397.156 40.824 396.9 40.824C396.604 40.824 396.336 40.9 396.096 41.052C395.856 41.196 395.664 41.396 395.52 41.652C395.376 41.9 395.304 42.184 395.304 42.504C395.304 42.816 395.376 43.1 395.52 43.356C395.664 43.612 395.864 43.816 396.12 43.968C396.376 44.12 396.672 44.196 397.008 44.196C397.216 44.196 397.408 44.164 397.584 44.1C397.768 44.036 397.932 43.948 398.076 43.836L398.652 44.532ZM401.497 45.096C401.137 45.096 400.789 45.036 400.453 44.916C400.125 44.788 399.853 44.6 399.637 44.352L400.117 43.704C400.317 43.904 400.529 44.056 400.753 44.16C400.977 44.256 401.193 44.304 401.401 44.304C401.641 44.304 401.849 44.256 402.025 44.16C402.209 44.064 402.301 43.9 402.301 43.668C402.301 43.492 402.241 43.352 402.121 43.248C402.009 43.144 401.861 43.064 401.677 43.008C401.501 42.944 401.317 42.88 401.125 42.816C400.277 42.544 399.853 42.06 399.853 41.364C399.853 41.108 399.917 40.864 400.045 40.632C400.181 40.4 400.377 40.212 400.633 40.068C400.897 39.924 401.221 39.852 401.605 39.852C401.949 39.852 402.257 39.896 402.529 39.984C402.801 40.072 403.057 40.212 403.297 40.404L402.853 41.088C402.709 40.944 402.537 40.836 402.337 40.764C402.145 40.684 401.969 40.64 401.809 40.632C401.593 40.632 401.401 40.684 401.233 40.788C401.073 40.892 400.993 41.036 400.993 41.22C400.985 41.388 401.037 41.524 401.149 41.628C401.261 41.724 401.405 41.804 401.581 41.868C401.765 41.932 401.949 41.992 402.133 42.048C402.493 42.168 402.797 42.332 403.045 42.54C403.301 42.748 403.429 43.052 403.429 43.452C403.429 43.9 403.269 44.288 402.949 44.616C402.629 44.936 402.145 45.096 401.497 45.096Z" fill="black"/>
<path d="M366.736 151.872C366.44 151.72 366.116 151.588 365.764 151.476C365.412 151.364 365.072 151.308 364.744 151.308C364.272 151.308 363.896 151.416 363.616 151.632C363.344 151.848 363.208 152.14 363.208 152.508C363.208 152.772 363.296 152.996 363.472 153.18C363.656 153.364 363.888 153.528 364.168 153.672C364.456 153.808 364.76 153.936 365.08 154.056C365.44 154.192 365.788 154.356 366.124 154.548C366.46 154.74 366.736 155 366.952 155.328C367.176 155.648 367.288 156.08 367.288 156.624C367.288 157.088 367.172 157.508 366.94 157.884C366.708 158.252 366.38 158.548 365.956 158.772C365.532 158.988 365.028 159.096 364.444 159.096C363.868 159.096 363.332 159.004 362.836 158.82C362.348 158.636 361.932 158.424 361.588 158.184L362.104 157.26C362.384 157.476 362.728 157.664 363.136 157.824C363.552 157.984 363.948 158.064 364.324 158.064C364.604 158.064 364.876 158.016 365.14 157.92C365.412 157.824 365.636 157.672 365.812 157.464C365.988 157.248 366.076 156.972 366.076 156.636C366.076 156.348 365.996 156.104 365.836 155.904C365.676 155.704 365.468 155.536 365.212 155.4C364.964 155.256 364.692 155.128 364.396 155.016C364.124 154.92 363.848 154.808 363.568 154.68C363.288 154.552 363.028 154.4 362.788 154.224C362.556 154.04 362.368 153.816 362.224 153.552C362.08 153.288 362.008 152.968 362.008 152.592C362.008 152.136 362.116 151.74 362.332 151.404C362.556 151.06 362.86 150.792 363.244 150.6C363.628 150.4 364.072 150.292 364.576 150.276C365.128 150.276 365.616 150.344 366.04 150.48C366.472 150.616 366.852 150.78 367.18 150.972L366.736 151.872ZM371.26 159.12C370.7 159.12 370.212 159.008 369.796 158.784C369.388 158.552 369.072 158.236 368.848 157.836C368.632 157.436 368.524 156.984 368.524 156.48C368.524 155.992 368.644 155.548 368.884 155.148C369.132 154.74 369.464 154.42 369.88 154.188C370.304 153.948 370.772 153.828 371.284 153.828C371.94 153.828 372.484 154.02 372.916 154.404C373.348 154.788 373.644 155.316 373.804 155.988L369.868 157.368C370.004 157.616 370.196 157.812 370.444 157.956C370.692 158.092 370.972 158.16 371.284 158.16C371.508 158.16 371.72 158.12 371.92 158.04C372.12 157.96 372.312 157.856 372.496 157.728L373.012 158.556C372.756 158.724 372.472 158.86 372.16 158.964C371.856 159.068 371.556 159.12 371.26 159.12ZM369.628 156.42C369.62 156.516 369.624 156.608 369.64 156.696L372.532 155.628C372.42 155.388 372.256 155.176 372.04 154.992C371.832 154.808 371.552 154.716 371.2 154.716C370.744 154.716 370.368 154.876 370.072 155.196C369.776 155.516 369.628 155.924 369.628 156.42ZM376.187 154.032L376.271 155.196C376.407 154.916 376.595 154.676 376.835 154.476C377.075 154.268 377.323 154.112 377.579 154.008C377.843 153.896 378.071 153.836 378.263 153.828L378.215 154.944C377.839 154.928 377.507 155.004 377.219 155.172C376.931 155.332 376.707 155.552 376.547 155.832C376.387 156.112 376.307 156.412 376.307 156.732V159H375.191V154.032H376.187ZM381.718 159.144L378.958 154.032H380.29L381.79 157.212L383.182 154.032H384.43L381.778 159.144H381.718ZM385.632 154.032H386.748V159H385.632V154.032ZM385.548 152.244C385.548 152.06 385.616 151.912 385.752 151.8C385.896 151.68 386.052 151.62 386.22 151.62C386.388 151.62 386.54 151.68 386.676 151.8C386.812 151.912 386.88 152.06 386.88 152.244C386.88 152.428 386.812 152.58 386.676 152.7C386.54 152.812 386.388 152.868 386.22 152.868C386.052 152.868 385.896 152.812 385.752 152.7C385.616 152.58 385.548 152.428 385.548 152.244ZM392.723 158.532C392.499 158.716 392.231 158.86 391.919 158.964C391.607 159.068 391.295 159.12 390.983 159.12C390.447 159.12 389.971 159.012 389.555 158.796C389.147 158.58 388.827 158.276 388.595 157.884C388.371 157.492 388.259 157.032 388.259 156.504C388.259 155.976 388.379 155.52 388.619 155.136C388.867 154.744 389.187 154.44 389.579 154.224C389.979 154.008 390.411 153.9 390.875 153.9C391.275 153.9 391.631 153.956 391.943 154.068C392.255 154.18 392.527 154.332 392.759 154.524L392.195 155.256C392.051 155.152 391.875 155.056 391.667 154.968C391.459 154.872 391.227 154.824 390.971 154.824C390.675 154.824 390.407 154.9 390.167 155.052C389.927 155.196 389.735 155.396 389.591 155.652C389.447 155.9 389.375 156.184 389.375 156.504C389.375 156.816 389.447 157.1 389.591 157.356C389.735 157.612 389.935 157.816 390.191 157.968C390.447 158.12 390.743 158.196 391.079 158.196C391.287 158.196 391.479 158.164 391.655 158.1C391.839 158.036 392.003 157.948 392.147 157.836L392.723 158.532ZM396.467 159.12C395.907 159.12 395.419 159.008 395.003 158.784C394.595 158.552 394.279 158.236 394.055 157.836C393.839 157.436 393.731 156.984 393.731 156.48C393.731 155.992 393.851 155.548 394.091 155.148C394.339 154.74 394.671 154.42 395.087 154.188C395.511 153.948 395.979 153.828 396.491 153.828C397.147 153.828 397.691 154.02 398.123 154.404C398.555 154.788 398.851 155.316 399.011 155.988L395.075 157.368C395.211 157.616 395.403 157.812 395.651 157.956C395.899 158.092 396.179 158.16 396.491 158.16C396.715 158.16 396.927 158.12 397.127 158.04C397.327 157.96 397.519 157.856 397.703 157.728L398.219 158.556C397.963 158.724 397.679 158.86 397.367 158.964C397.063 159.068 396.763 159.12 396.467 159.12ZM394.835 156.42C394.827 156.516 394.831 156.608 394.847 156.696L397.739 155.628C397.627 155.388 397.463 155.176 397.247 154.992C397.039 154.808 396.759 154.716 396.407 154.716C395.951 154.716 395.575 154.876 395.279 155.196C394.983 155.516 394.835 155.924 394.835 156.42ZM401.802 159.096C401.442 159.096 401.094 159.036 400.758 158.916C400.43 158.788 400.158 158.6 399.942 158.352L400.422 157.704C400.622 157.904 400.834 158.056 401.058 158.16C401.282 158.256 401.498 158.304 401.706 158.304C401.946 158.304 402.154 158.256 402.33 158.16C402.514 158.064 402.606 157.9 402.606 157.668C402.606 157.492 402.546 157.352 402.426 157.248C402.314 157.144 402.166 157.064 401.982 157.008C401.806 156.944 401.622 156.88 401.43 156.816C400.582 156.544 400.158 156.06 400.158 155.364C400.158 155.108 400.222 154.864 400.35 154.632C400.486 154.4 400.682 154.212 400.938 154.068C401.202 153.924 401.526 153.852 401.91 153.852C402.254 153.852 402.562 153.896 402.834 153.984C403.106 154.072 403.362 154.212 403.602 154.404L403.158 155.088C403.014 154.944 402.842 154.836 402.642 154.764C402.45 154.684 402.274 154.64 402.114 154.632C401.898 154.632 401.706 154.684 401.538 154.788C401.378 154.892 401.298 155.036 401.298 155.22C401.29 155.388 401.342 155.524 401.454 155.628C401.566 155.724 401.71 155.804 401.886 155.868C402.07 155.932 402.254 155.992 402.438 156.048C402.798 156.168 403.102 156.332 403.35 156.54C403.606 156.748 403.734 157.052 403.734 157.452C403.734 157.9 403.574 158.288 403.254 158.616C402.934 158.936 402.45 159.096 401.802 159.096Z" fill="black"/>
<path d="M354.248 289V280.324H356.624C357.48 280.324 358.208 280.456 358.808 280.72C359.408 280.976 359.892 281.32 360.26 281.752C360.636 282.184 360.908 282.664 361.076 283.192C361.252 283.712 361.34 284.236 361.34 284.764C361.34 285.412 361.224 286 360.992 286.528C360.76 287.048 360.444 287.492 360.044 287.86C359.644 288.228 359.184 288.512 358.664 288.712C358.152 288.904 357.612 289 357.044 289H354.248ZM355.412 287.872H356.816C357.448 287.872 358.012 287.748 358.508 287.5C359.012 287.252 359.408 286.892 359.696 286.42C359.984 285.94 360.128 285.36 360.128 284.68C360.128 283.976 359.976 283.384 359.672 282.904C359.376 282.424 358.98 282.06 358.484 281.812C357.996 281.564 357.476 281.44 356.924 281.44H355.412V287.872ZM365.095 289.12C364.623 289.12 364.195 289.02 363.811 288.82C363.435 288.62 363.135 288.328 362.911 287.944C362.695 287.552 362.587 287.076 362.587 286.516C362.587 285.956 362.699 285.476 362.923 285.076C363.155 284.676 363.463 284.368 363.847 284.152C364.239 283.936 364.667 283.828 365.131 283.828C365.579 283.828 365.959 283.924 366.271 284.116C366.583 284.308 366.827 284.54 367.003 284.812L367.087 284.032H368.119V289H367.003V288.184C366.907 288.312 366.767 288.448 366.583 288.592C366.407 288.736 366.191 288.86 365.935 288.964C365.687 289.068 365.407 289.12 365.095 289.12ZM365.395 288.196C365.803 288.196 366.151 288.084 366.439 287.86C366.727 287.628 366.915 287.316 367.003 286.924V285.94C366.907 285.596 366.707 285.312 366.403 285.088C366.099 284.864 365.751 284.752 365.359 284.752C365.055 284.752 364.779 284.824 364.531 284.968C364.283 285.112 364.083 285.312 363.931 285.568C363.787 285.824 363.715 286.12 363.715 286.456C363.715 286.784 363.791 287.08 363.943 287.344C364.095 287.6 364.299 287.808 364.555 287.968C364.811 288.12 365.091 288.196 365.395 288.196ZM370.542 281.848H371.67V284.044H373.026V284.932H371.67V289H370.542V284.932H369.63V284.044H370.542V281.848ZM376.462 289.12C375.99 289.12 375.562 289.02 375.178 288.82C374.802 288.62 374.502 288.328 374.278 287.944C374.062 287.552 373.954 287.076 373.954 286.516C373.954 285.956 374.066 285.476 374.29 285.076C374.522 284.676 374.83 284.368 375.214 284.152C375.606 283.936 376.034 283.828 376.498 283.828C376.946 283.828 377.326 283.924 377.638 284.116C377.95 284.308 378.194 284.54 378.37 284.812L378.454 284.032H379.486V289H378.37V288.184C378.274 288.312 378.134 288.448 377.95 288.592C377.774 288.736 377.558 288.86 377.302 288.964C377.054 289.068 376.774 289.12 376.462 289.12ZM376.762 288.196C377.17 288.196 377.518 288.084 377.806 287.86C378.094 287.628 378.282 287.316 378.37 286.924V285.94C378.274 285.596 378.074 285.312 377.77 285.088C377.466 284.864 377.118 284.752 376.726 284.752C376.422 284.752 376.146 284.824 375.898 284.968C375.65 285.112 375.45 285.312 375.298 285.568C375.154 285.824 375.082 286.12 375.082 286.456C375.082 286.784 375.158 287.08 375.31 287.344C375.462 287.6 375.666 287.808 375.922 287.968C376.178 288.12 376.458 288.196 376.762 288.196ZM384.465 289.12C384.041 289.12 383.665 289.04 383.337 288.88C383.017 288.712 382.753 288.5 382.545 288.244V289H381.429V279.7H382.545V284.704C382.745 284.44 383.025 284.228 383.385 284.068C383.745 283.908 384.153 283.828 384.609 283.828C385.049 283.828 385.453 283.936 385.821 284.152C386.189 284.36 386.485 284.66 386.709 285.052C386.933 285.444 387.045 285.904 387.045 286.432C387.045 287 386.925 287.484 386.685 287.884C386.445 288.284 386.129 288.592 385.737 288.808C385.345 289.016 384.921 289.12 384.465 289.12ZM384.225 288.16C384.713 288.16 385.113 288 385.425 287.68C385.745 287.352 385.905 286.936 385.905 286.432C385.905 286.112 385.829 285.824 385.677 285.568C385.533 285.304 385.333 285.096 385.077 284.944C384.829 284.792 384.545 284.716 384.225 284.716C383.809 284.716 383.449 284.828 383.145 285.052C382.841 285.276 382.641 285.564 382.545 285.916V286.936C382.641 287.288 382.837 287.58 383.133 287.812C383.429 288.044 383.793 288.16 384.225 288.16ZM390.618 289.12C390.146 289.12 389.718 289.02 389.334 288.82C388.958 288.62 388.658 288.328 388.434 287.944C388.218 287.552 388.11 287.076 388.11 286.516C388.11 285.956 388.222 285.476 388.446 285.076C388.678 284.676 388.986 284.368 389.37 284.152C389.762 283.936 390.19 283.828 390.654 283.828C391.102 283.828 391.482 283.924 391.794 284.116C392.106 284.308 392.35 284.54 392.526 284.812L392.61 284.032H393.642V289H392.526V288.184C392.43 288.312 392.29 288.448 392.106 288.592C391.93 288.736 391.714 288.86 391.458 288.964C391.21 289.068 390.93 289.12 390.618 289.12ZM390.918 288.196C391.326 288.196 391.674 288.084 391.962 287.86C392.25 287.628 392.438 287.316 392.526 286.924V285.94C392.43 285.596 392.23 285.312 391.926 285.088C391.622 284.864 391.274 284.752 390.882 284.752C390.578 284.752 390.302 284.824 390.054 284.968C389.806 285.112 389.606 285.312 389.454 285.568C389.31 285.824 389.238 286.12 389.238 286.456C389.238 286.784 389.314 287.08 389.466 287.344C389.618 287.6 389.822 287.808 390.078 287.968C390.334 288.12 390.614 288.196 390.918 288.196ZM396.989 289.096C396.629 289.096 396.281 289.036 395.945 288.916C395.617 288.788 395.345 288.6 395.129 288.352L395.609 287.704C395.809 287.904 396.021 288.056 396.245 288.16C396.469 288.256 396.685 288.304 396.893 288.304C397.133 288.304 397.341 288.256 397.517 288.16C397.701 288.064 397.793 287.9 397.793 287.668C397.793 287.492 397.733 287.352 397.613 287.248C397.501 287.144 397.353 287.064 397.169 287.008C396.993 286.944 396.809 286.88 396.617 286.816C395.769 286.544 395.345 286.06 395.345 285.364C395.345 285.108 395.409 284.864 395.537 284.632C395.673 284.4 395.869 284.212 396.125 284.068C396.389 283.924 396.713 283.852 397.097 283.852C397.441 283.852 397.749 283.896 398.021 283.984C398.293 284.072 398.549 284.212 398.789 284.404L398.345 285.088C398.201 284.944 398.029 284.836 397.829 284.764C397.637 284.684 397.461 284.64 397.301 284.632C397.085 284.632 396.893 284.684 396.725 284.788C396.565 284.892 396.485 285.036 396.485 285.22C396.477 285.388 396.529 285.524 396.641 285.628C396.753 285.724 396.897 285.804 397.073 285.868C397.257 285.932 397.441 285.992 397.625 286.048C397.985 286.168 398.289 286.332 398.537 286.54C398.793 286.748 398.921 287.052 398.921 287.452C398.921 287.9 398.761 288.288 398.441 288.616C398.121 288.936 397.637 289.096 396.989 289.096ZM402.788 289.12C402.228 289.12 401.74 289.008 401.324 288.784C400.916 288.552 400.6 288.236 400.376 287.836C400.16 287.436 400.052 286.984 400.052 286.48C400.052 285.992 400.172 285.548 400.412 285.148C400.66 284.74 400.992 284.42 401.408 284.188C401.832 283.948 402.3 283.828 402.812 283.828C403.468 283.828 404.012 284.02 404.444 284.404C404.876 284.788 405.172 285.316 405.332 285.988L401.396 287.368C401.532 287.616 401.724 287.812 401.972 287.956C402.22 288.092 402.5 288.16 402.812 288.16C403.036 288.16 403.248 288.12 403.448 288.04C403.648 287.96 403.84 287.856 404.024 287.728L404.54 288.556C404.284 288.724 404 288.86 403.688 288.964C403.384 289.068 403.084 289.12 402.788 289.12ZM401.156 286.42C401.148 286.516 401.152 286.608 401.168 286.696L404.06 285.628C403.948 285.388 403.784 285.176 403.568 284.992C403.36 284.808 403.08 284.716 402.728 284.716C402.272 284.716 401.896 284.876 401.6 285.196C401.304 285.516 401.156 285.924 401.156 286.42ZM408.122 289.096C407.762 289.096 407.414 289.036 407.078 288.916C406.75 288.788 406.478 288.6 406.262 288.352L406.742 287.704C406.942 287.904 407.154 288.056 407.378 288.16C407.602 288.256 407.818 288.304 408.026 288.304C408.266 288.304 408.474 288.256 408.65 288.16C408.834 288.064 408.926 287.9 408.926 287.668C408.926 287.492 408.866 287.352 408.746 287.248C408.634 287.144 408.486 287.064 408.302 287.008C408.126 286.944 407.942 286.88 407.75 286.816C406.902 286.544 406.478 286.06 406.478 285.364C406.478 285.108 406.542 284.864 406.67 284.632C406.806 284.4 407.002 284.212 407.258 284.068C407.522 283.924 407.846 283.852 408.23 283.852C408.574 283.852 408.882 283.896 409.154 283.984C409.426 284.072 409.682 284.212 409.922 284.404L409.478 285.088C409.334 284.944 409.162 284.836 408.962 284.764C408.77 284.684 408.594 284.64 408.434 284.632C408.218 284.632 408.026 284.684 407.858 284.788C407.698 284.892 407.618 285.036 407.618 285.22C407.61 285.388 407.662 285.524 407.774 285.628C407.886 285.724 408.03 285.804 408.206 285.868C408.39 285.932 408.574 285.992 408.758 286.048C409.118 286.168 409.422 286.332 409.67 286.54C409.926 286.748 410.054 287.052 410.054 287.452C410.054 287.9 409.894 288.288 409.574 288.616C409.254 288.936 408.77 289.096 408.122 289.096Z" fill="black"/>
<path d="M53.62 26.352C53.476 26.448 53.28 26.556 53.032 26.676C52.784 26.796 52.492 26.9 52.156 26.988C51.828 27.068 51.468 27.104 51.076 27.096C50.396 27.088 49.788 26.968 49.252 26.736C48.716 26.504 48.256 26.188 47.872 25.788C47.496 25.38 47.208 24.916 47.008 24.396C46.808 23.876 46.708 23.32 46.708 22.728C46.708 22.08 46.812 21.484 47.02 20.94C47.236 20.388 47.536 19.912 47.92 19.512C48.304 19.104 48.756 18.788 49.276 18.564C49.804 18.34 50.38 18.228 51.004 18.228C51.524 18.228 51.996 18.3 52.42 18.444C52.844 18.58 53.208 18.74 53.512 18.924L53.044 20.016C52.804 19.856 52.512 19.704 52.168 19.56C51.824 19.416 51.448 19.344 51.04 19.344C50.616 19.344 50.216 19.432 49.84 19.608C49.464 19.776 49.132 20.012 48.844 20.316C48.556 20.612 48.328 20.964 48.16 21.372C48 21.772 47.92 22.204 47.92 22.668C47.92 23.292 48.048 23.856 48.304 24.36C48.568 24.856 48.936 25.248 49.408 25.536C49.888 25.824 50.448 25.968 51.088 25.968C51.536 25.968 51.928 25.904 52.264 25.776C52.608 25.64 52.892 25.484 53.116 25.308L53.62 26.352ZM55.304 17.7H56.42V27H55.304V17.7ZM58.3626 22.032H59.4786V27H58.3626V22.032ZM58.2786 20.244C58.2786 20.06 58.3466 19.912 58.4826 19.8C58.6266 19.68 58.7826 19.62 58.9506 19.62C59.1186 19.62 59.2706 19.68 59.4066 19.8C59.5426 19.912 59.6106 20.06 59.6106 20.244C59.6106 20.428 59.5426 20.58 59.4066 20.7C59.2706 20.812 59.1186 20.868 58.9506 20.868C58.7826 20.868 58.6266 20.812 58.4826 20.7C58.3466 20.58 58.2786 20.428 58.2786 20.244ZM63.7252 27.12C63.1652 27.12 62.6772 27.008 62.2612 26.784C61.8532 26.552 61.5372 26.236 61.3132 25.836C61.0972 25.436 60.9892 24.984 60.9892 24.48C60.9892 23.992 61.1092 23.548 61.3492 23.148C61.5972 22.74 61.9292 22.42 62.3452 22.188C62.7692 21.948 63.2372 21.828 63.7492 21.828C64.4052 21.828 64.9492 22.02 65.3812 22.404C65.8132 22.788 66.1092 23.316 66.2692 23.988L62.3332 25.368C62.4692 25.616 62.6612 25.812 62.9092 25.956C63.1572 26.092 63.4372 26.16 63.7492 26.16C63.9732 26.16 64.1852 26.12 64.3852 26.04C64.5852 25.96 64.7772 25.856 64.9612 25.728L65.4772 26.556C65.2212 26.724 64.9372 26.86 64.6252 26.964C64.3212 27.068 64.0212 27.12 63.7252 27.12ZM62.0932 24.42C62.0852 24.516 62.0892 24.608 62.1052 24.696L64.9972 23.628C64.8852 23.388 64.7212 23.176 64.5052 22.992C64.2972 22.808 64.0172 22.716 63.6652 22.716C63.2092 22.716 62.8332 22.876 62.5372 23.196C62.2412 23.516 62.0932 23.924 62.0932 24.42ZM68.6636 22.032L68.7356 22.992C68.9036 22.64 69.1636 22.36 69.5156 22.152C69.8676 21.944 70.2756 21.84 70.7396 21.84C71.2036 21.84 71.5836 21.98 71.8796 22.26C72.1836 22.532 72.3436 22.888 72.3596 23.328V27H71.2316V23.712C71.2156 23.448 71.1316 23.232 70.9796 23.064C70.8356 22.896 70.6076 22.808 70.2956 22.8C69.8636 22.8 69.4996 22.976 69.2036 23.328C68.9156 23.672 68.7716 24.12 68.7716 24.672V27H67.6556V22.032H68.6636ZM74.7684 19.848H75.8964V22.044H77.2524V22.932H75.8964V27H74.7684V22.932H73.8564V22.044H74.7684V19.848ZM80.0166 27.096C79.6566 27.096 79.3086 27.036 78.9726 26.916C78.6446 26.788 78.3726 26.6 78.1566 26.352L78.6366 25.704C78.8366 25.904 79.0486 26.056 79.2726 26.16C79.4966 26.256 79.7126 26.304 79.9206 26.304C80.1606 26.304 80.3686 26.256 80.5446 26.16C80.7286 26.064 80.8206 25.9 80.8206 25.668C80.8206 25.492 80.7606 25.352 80.6406 25.248C80.5286 25.144 80.3806 25.064 80.1966 25.008C80.0206 24.944 79.8366 24.88 79.6446 24.816C78.7966 24.544 78.3726 24.06 78.3726 23.364C78.3726 23.108 78.4366 22.864 78.5646 22.632C78.7006 22.4 78.8966 22.212 79.1526 22.068C79.4166 21.924 79.7406 21.852 80.1246 21.852C80.4686 21.852 80.7766 21.896 81.0486 21.984C81.3206 22.072 81.5766 22.212 81.8166 22.404L81.3726 23.088C81.2286 22.944 81.0566 22.836 80.8566 22.764C80.6646 22.684 80.4886 22.64 80.3286 22.632C80.1126 22.632 79.9206 22.684 79.7526 22.788C79.5926 22.892 79.5126 23.036 79.5126 23.22C79.5046 23.388 79.5566 23.524 79.6686 23.628C79.7806 23.724 79.9246 23.804 80.1006 23.868C80.2846 23.932 80.4686 23.992 80.6526 24.048C81.0126 24.168 81.3166 24.332 81.5646 24.54C81.8206 24.748 81.9486 25.052 81.9486 25.452C81.9486 25.9 81.7886 26.288 81.4686 26.616C81.1486 26.936 80.6646 27.096 80.0166 27.096Z" fill="black"/>
</svg>
