<svg width="448" height="427" viewBox="0 0 448 427" fill="none" xmlns="http://www.w3.org/2000/svg">
<path d="M223.646 160.354C223.842 160.549 224.158 160.549 224.354 160.354L227.536 157.172C227.731 156.976 227.731 156.66 227.536 156.464C227.34 156.269 227.024 156.269 226.828 156.464L224 159.293L221.172 156.464C220.976 156.269 220.66 156.269 220.464 156.464C220.269 156.66 220.269 156.976 220.464 157.172L223.646 160.354ZM223.5 128L223.5 160L224.5 160L224.5 128L223.5 128Z" fill="black"/>
<path d="M223.646 300.354C223.842 300.549 224.158 300.549 224.354 300.354L227.536 297.172C227.731 296.976 227.731 296.66 227.536 296.464C227.34 296.269 227.024 296.269 226.828 296.464L224 299.293L221.172 296.464C220.976 296.269 220.66 296.269 220.464 296.464C220.269 296.66 220.269 296.976 220.464 297.172L223.646 300.354ZM223.5 268L223.5 300L224.5 300L224.5 268L223.5 268Z" fill="black"/>
<path d="M114 20C114 8.9543 122.954 0 134 0H315C326.046 0 335 8.9543 335 20V407C335 418.046 326.046 427 315 427H134C122.954 427 114 418.046 114 407V20Z" fill="#4285F4" fill-opacity="0.2"/>
<path d="M139.5 183C139.5 172.23 148.23 163.5 159 163.5H289C299.77 163.5 308.5 172.23 308.5 183V245C308.5 255.77 299.77 264.5 289 264.5H159C148.23 264.5 139.5 255.77 139.5 245V183Z" fill="#4285F4" stroke="#4285F4"/>
<path d="M139.5 43C139.5 32.2304 148.23 23.5 159 23.5H289C299.77 23.5 308.5 32.2304 308.5 43V105C308.5 115.77 299.77 124.5 289 124.5H159C148.23 124.5 139.5 115.77 139.5 105V43Z" fill="#4285F4" stroke="#4285F4"/>
<path d="M139.5 323C139.5 312.23 148.23 303.5 159 303.5H289C299.77 303.5 308.5 312.23 308.5 323V385C308.5 395.77 299.77 404.5 289 404.5H159C148.23 404.5 139.5 395.77 139.5 385V323Z" fill="#4285F4" stroke="#4285F4"/>
<path d="M186.372 78.46C185.82 78.46 185.36 78.364 184.992 78.172C184.624 77.988 184.284 77.752 183.972 77.464L184.632 76.696C184.888 76.952 185.152 77.144 185.424 77.272C185.696 77.408 186.004 77.476 186.348 77.476C186.908 77.476 187.336 77.34 187.632 77.068C187.928 76.804 188.08 76.452 188.088 76.012V75.1C187.92 75.396 187.66 75.64 187.308 75.832C186.956 76.024 186.54 76.12 186.06 76.12C185.596 76.12 185.172 76.004 184.788 75.772C184.412 75.54 184.108 75.228 183.876 74.836C183.652 74.436 183.54 73.988 183.54 73.492C183.54 72.972 183.66 72.512 183.9 72.112C184.14 71.712 184.456 71.4 184.848 71.176C185.24 70.944 185.668 70.828 186.132 70.828C186.564 70.828 186.956 70.912 187.308 71.08C187.66 71.248 187.924 71.464 188.1 71.728L188.196 71.032H189.216V76.036C189.216 76.484 189.1 76.892 188.868 77.26C188.636 77.628 188.308 77.92 187.884 78.136C187.46 78.352 186.956 78.46 186.372 78.46ZM184.668 73.456C184.668 73.784 184.744 74.08 184.896 74.344C185.048 74.6 185.252 74.808 185.508 74.968C185.772 75.12 186.064 75.196 186.384 75.196C186.816 75.196 187.184 75.08 187.488 74.848C187.8 74.608 188 74.304 188.088 73.936V72.952C187.984 72.6 187.776 72.312 187.464 72.088C187.152 71.864 186.792 71.752 186.384 71.752C186.056 71.752 185.76 71.824 185.496 71.968C185.24 72.112 185.036 72.312 184.884 72.568C184.74 72.824 184.668 73.12 184.668 73.456ZM193.748 67.324C194.324 67.324 194.844 67.428 195.308 67.636C195.772 67.836 196.14 68.14 196.412 68.548C196.684 68.948 196.82 69.436 196.82 70.012C196.82 70.508 196.708 70.988 196.484 71.452C196.268 71.916 195.9 72.268 195.38 72.508L197.564 76H196.208L194.156 72.796C194.068 72.804 193.976 72.808 193.88 72.808H192.596V76H191.432V67.324H193.748ZM193.856 71.68C194.32 71.68 194.676 71.596 194.924 71.428C195.18 71.252 195.36 71.04 195.464 70.792C195.568 70.536 195.62 70.292 195.62 70.06C195.62 69.828 195.564 69.588 195.452 69.34C195.34 69.092 195.16 68.88 194.912 68.704C194.672 68.528 194.348 68.44 193.94 68.44H192.596V71.68H193.856ZM201.681 67.324C202.617 67.324 203.353 67.56 203.889 68.032C204.425 68.504 204.693 69.164 204.693 70.012C204.693 70.356 204.641 70.696 204.537 71.032C204.433 71.36 204.265 71.66 204.033 71.932C203.809 72.196 203.513 72.412 203.145 72.58C202.777 72.74 202.329 72.82 201.801 72.82H200.517V76H199.353V67.324H201.681ZM201.801 71.68C202.137 71.68 202.417 71.628 202.641 71.524C202.865 71.412 203.041 71.268 203.169 71.092C203.305 70.916 203.401 70.736 203.457 70.552C203.513 70.36 203.541 70.188 203.541 70.036C203.541 69.804 203.485 69.564 203.373 69.316C203.269 69.068 203.093 68.86 202.845 68.692C202.605 68.524 202.277 68.44 201.861 68.44H200.517V71.68H201.801ZM212.862 75.352C212.718 75.448 212.522 75.556 212.274 75.676C212.026 75.796 211.734 75.9 211.398 75.988C211.07 76.068 210.71 76.104 210.318 76.096C209.638 76.088 209.03 75.968 208.494 75.736C207.958 75.504 207.498 75.188 207.114 74.788C206.738 74.38 206.45 73.916 206.25 73.396C206.05 72.876 205.95 72.32 205.95 71.728C205.95 71.08 206.054 70.484 206.262 69.94C206.478 69.388 206.778 68.912 207.162 68.512C207.546 68.104 207.998 67.788 208.518 67.564C209.046 67.34 209.622 67.228 210.246 67.228C210.766 67.228 211.238 67.3 211.662 67.444C212.086 67.58 212.45 67.74 212.754 67.924L212.286 69.016C212.046 68.856 211.754 68.704 211.41 68.56C211.066 68.416 210.69 68.344 210.282 68.344C209.858 68.344 209.458 68.432 209.082 68.608C208.706 68.776 208.374 69.012 208.086 69.316C207.798 69.612 207.57 69.964 207.402 70.372C207.242 70.772 207.162 71.204 207.162 71.668C207.162 72.292 207.29 72.856 207.546 73.36C207.81 73.856 208.178 74.248 208.65 74.536C209.13 74.824 209.69 74.968 210.33 74.968C210.778 74.968 211.17 74.904 211.506 74.776C211.85 74.64 212.134 74.484 212.358 74.308L212.862 75.352ZM225.423 75.256C225.255 75.392 225.011 75.524 224.691 75.652C224.371 75.78 224.027 75.888 223.659 75.976C223.291 76.056 222.943 76.096 222.615 76.096C221.695 76.096 220.895 75.912 220.215 75.544C219.535 75.168 219.007 74.66 218.631 74.02C218.263 73.372 218.079 72.64 218.079 71.824C218.079 71.096 218.195 70.448 218.427 69.88C218.667 69.312 218.991 68.832 219.399 68.44C219.815 68.04 220.291 67.74 220.827 67.54C221.363 67.332 221.931 67.228 222.531 67.228C223.035 67.228 223.503 67.288 223.935 67.408C224.367 67.528 224.747 67.68 225.075 67.864L224.691 68.932C224.523 68.836 224.319 68.748 224.079 68.668C223.847 68.588 223.607 68.524 223.359 68.476C223.111 68.428 222.883 68.404 222.675 68.404C221.995 68.404 221.399 68.54 220.887 68.812C220.375 69.084 219.979 69.468 219.699 69.964C219.419 70.46 219.279 71.048 219.279 71.728C219.279 72.36 219.419 72.92 219.699 73.408C219.979 73.888 220.371 74.264 220.875 74.536C221.379 74.8 221.967 74.932 222.639 74.932C222.927 74.932 223.215 74.904 223.503 74.848C223.791 74.792 224.035 74.704 224.235 74.584V72.88H222.519V71.752H225.423V75.256ZM229.443 76.12C228.971 76.12 228.543 76.02 228.159 75.82C227.783 75.62 227.483 75.328 227.259 74.944C227.043 74.552 226.935 74.076 226.935 73.516C226.935 72.956 227.047 72.476 227.271 72.076C227.503 71.676 227.811 71.368 228.195 71.152C228.587 70.936 229.015 70.828 229.479 70.828C229.927 70.828 230.307 70.924 230.619 71.116C230.931 71.308 231.175 71.54 231.351 71.812L231.435 71.032H232.467V76H231.351V75.184C231.255 75.312 231.115 75.448 230.931 75.592C230.755 75.736 230.539 75.86 230.283 75.964C230.035 76.068 229.755 76.12 229.443 76.12ZM229.743 75.196C230.151 75.196 230.499 75.084 230.787 74.86C231.075 74.628 231.263 74.316 231.351 73.924V72.94C231.255 72.596 231.055 72.312 230.751 72.088C230.447 71.864 230.099 71.752 229.707 71.752C229.403 71.752 229.127 71.824 228.879 71.968C228.631 72.112 228.431 72.312 228.279 72.568C228.135 72.824 228.063 73.12 228.063 73.456C228.063 73.784 228.139 74.08 228.291 74.344C228.443 74.6 228.647 74.808 228.903 74.968C229.159 75.12 229.439 75.196 229.743 75.196ZM234.89 68.848H236.018V71.044H237.374V71.932H236.018V76H234.89V71.932H233.978V71.044H234.89V68.848ZM241.038 76.12C240.478 76.12 239.99 76.008 239.574 75.784C239.166 75.552 238.85 75.236 238.626 74.836C238.41 74.436 238.302 73.984 238.302 73.48C238.302 72.992 238.422 72.548 238.662 72.148C238.91 71.74 239.242 71.42 239.658 71.188C240.082 70.948 240.55 70.828 241.062 70.828C241.718 70.828 242.262 71.02 242.694 71.404C243.126 71.788 243.422 72.316 243.582 72.988L239.646 74.368C239.782 74.616 239.974 74.812 240.222 74.956C240.47 75.092 240.75 75.16 241.062 75.16C241.286 75.16 241.498 75.12 241.698 75.04C241.898 74.96 242.09 74.856 242.274 74.728L242.79 75.556C242.534 75.724 242.25 75.86 241.938 75.964C241.634 76.068 241.334 76.12 241.038 76.12ZM239.406 73.42C239.398 73.516 239.402 73.608 239.418 73.696L242.31 72.628C242.198 72.388 242.034 72.176 241.818 71.992C241.61 71.808 241.33 71.716 240.978 71.716C240.522 71.716 240.146 71.876 239.85 72.196C239.554 72.516 239.406 72.924 239.406 73.42ZM248.031 71.032L249.375 74.128L250.635 71.032H251.739L249.447 76.3L247.851 72.892L246.399 76.3L244.095 71.032H245.199L246.519 74.044L247.455 71.884L247.059 71.032H248.031ZM254.861 76.12C254.389 76.12 253.961 76.02 253.576 75.82C253.201 75.62 252.901 75.328 252.677 74.944C252.461 74.552 252.353 74.076 252.353 73.516C252.353 72.956 252.465 72.476 252.689 72.076C252.921 71.676 253.229 71.368 253.613 71.152C254.005 70.936 254.433 70.828 254.896 70.828C255.345 70.828 255.725 70.924 256.037 71.116C256.349 71.308 256.593 71.54 256.769 71.812L256.853 71.032H257.885V76H256.769V75.184C256.673 75.312 256.533 75.448 256.349 75.592C256.173 75.736 255.957 75.86 255.701 75.964C255.453 76.068 255.173 76.12 254.861 76.12ZM255.161 75.196C255.569 75.196 255.917 75.084 256.205 74.86C256.493 74.628 256.681 74.316 256.769 73.924V72.94C256.673 72.596 256.473 72.312 256.169 72.088C255.865 71.864 255.517 71.752 255.125 71.752C254.821 71.752 254.545 71.824 254.297 71.968C254.049 72.112 253.849 72.312 253.697 72.568C253.553 72.824 253.481 73.12 253.481 73.456C253.481 73.784 253.557 74.08 253.709 74.344C253.861 74.6 254.065 74.808 254.321 74.968C254.577 75.12 254.857 75.196 255.161 75.196ZM260.247 78.388L261.387 75.844L259.083 71.032H260.343L261.939 74.572L263.523 71.032H264.555L261.351 78.388H260.247Z" fill="white"/>
<path d="M184.62 355.352C184.476 355.448 184.28 355.556 184.032 355.676C183.784 355.796 183.492 355.9 183.156 355.988C182.828 356.068 182.468 356.104 182.076 356.096C181.396 356.088 180.788 355.968 180.252 355.736C179.716 355.504 179.256 355.188 178.872 354.788C178.496 354.38 178.208 353.916 178.008 353.396C177.808 352.876 177.708 352.32 177.708 351.728C177.708 351.08 177.812 350.484 178.02 349.94C178.236 349.388 178.536 348.912 178.92 348.512C179.304 348.104 179.756 347.788 180.276 347.564C180.804 347.34 181.38 347.228 182.004 347.228C182.524 347.228 182.996 347.3 183.42 347.444C183.844 347.58 184.208 347.74 184.512 347.924L184.044 349.016C183.804 348.856 183.512 348.704 183.168 348.56C182.824 348.416 182.448 348.344 182.04 348.344C181.616 348.344 181.216 348.432 180.84 348.608C180.464 348.776 180.132 349.012 179.844 349.316C179.556 349.612 179.328 349.964 179.16 350.372C179 350.772 178.92 351.204 178.92 351.668C178.92 352.292 179.048 352.856 179.304 353.36C179.568 353.856 179.936 354.248 180.408 354.536C180.888 354.824 181.448 354.968 182.088 354.968C182.536 354.968 182.928 354.904 183.264 354.776C183.608 354.64 183.892 354.484 184.116 354.308L184.62 355.352ZM186.304 346.7H187.42V356H186.304V346.7ZM188.931 353.468C188.931 352.972 189.047 352.524 189.279 352.124C189.519 351.724 189.847 351.408 190.263 351.176C190.679 350.944 191.155 350.828 191.691 350.828C192.227 350.828 192.699 350.944 193.107 351.176C193.515 351.408 193.831 351.724 194.055 352.124C194.287 352.524 194.403 352.972 194.403 353.468C194.403 353.964 194.287 354.412 194.055 354.812C193.831 355.212 193.511 355.532 193.095 355.772C192.687 356.004 192.211 356.12 191.667 356.12C191.139 356.12 190.667 356.012 190.251 355.796C189.843 355.58 189.519 355.272 189.279 354.872C189.047 354.472 188.931 354.004 188.931 353.468ZM190.059 353.48C190.059 353.8 190.127 354.092 190.263 354.356C190.407 354.612 190.599 354.816 190.839 354.968C191.079 355.12 191.351 355.196 191.655 355.196C191.967 355.196 192.243 355.12 192.483 354.968C192.723 354.816 192.911 354.612 193.047 354.356C193.191 354.092 193.263 353.8 193.263 353.48C193.263 353.16 193.191 352.872 193.047 352.616C192.911 352.352 192.723 352.144 192.483 351.992C192.243 351.832 191.967 351.752 191.655 351.752C191.351 351.752 191.075 351.832 190.827 351.992C190.587 352.152 190.399 352.364 190.263 352.628C190.127 352.884 190.059 353.168 190.059 353.48ZM197.486 356.192C197.03 356.192 196.654 356.056 196.358 355.784C196.062 355.504 195.91 355.144 195.902 354.704V351.032H197.018V354.308C197.034 354.58 197.114 354.8 197.258 354.968C197.402 355.136 197.626 355.224 197.93 355.232C198.202 355.232 198.45 355.152 198.674 354.992C198.898 354.824 199.074 354.6 199.202 354.32C199.338 354.032 199.406 353.708 199.406 353.348V351.032H200.522V356H199.514L199.43 355.064C199.27 355.392 199.014 355.664 198.662 355.88C198.318 356.088 197.926 356.192 197.486 356.192ZM204.492 356.12C204.02 356.12 203.596 356.012 203.22 355.796C202.852 355.572 202.56 355.26 202.344 354.86C202.136 354.452 202.032 353.98 202.032 353.444C202.032 352.9 202.144 352.432 202.368 352.04C202.592 351.648 202.9 351.348 203.292 351.14C203.692 350.932 204.136 350.828 204.624 350.828C205 350.828 205.36 350.908 205.704 351.068C206.048 351.22 206.324 351.432 206.532 351.704V346.7H207.648V356H206.52V355.232C206.28 355.496 205.984 355.712 205.632 355.88C205.288 356.04 204.908 356.12 204.492 356.12ZM204.84 355.16C205.272 355.16 205.636 355.044 205.932 354.812C206.228 354.58 206.42 354.268 206.508 353.876V352.94C206.42 352.588 206.22 352.296 205.908 352.064C205.604 351.832 205.248 351.716 204.84 351.716C204.536 351.716 204.256 351.792 204 351.944C203.744 352.088 203.54 352.288 203.388 352.544C203.236 352.8 203.16 353.096 203.16 353.432C203.16 353.752 203.236 354.044 203.388 354.308C203.54 354.572 203.744 354.78 204 354.932C204.256 355.084 204.536 355.16 204.84 355.16ZM218.138 348.872C217.842 348.72 217.518 348.588 217.166 348.476C216.814 348.364 216.474 348.308 216.146 348.308C215.674 348.308 215.298 348.416 215.018 348.632C214.746 348.848 214.61 349.14 214.61 349.508C214.61 349.772 214.698 349.996 214.874 350.18C215.058 350.364 215.29 350.528 215.57 350.672C215.858 350.808 216.162 350.936 216.482 351.056C216.842 351.192 217.19 351.356 217.526 351.548C217.862 351.74 218.138 352 218.354 352.328C218.578 352.648 218.69 353.08 218.69 353.624C218.69 354.088 218.574 354.508 218.342 354.884C218.11 355.252 217.782 355.548 217.358 355.772C216.934 355.988 216.43 356.096 215.846 356.096C215.27 356.096 214.734 356.004 214.238 355.82C213.75 355.636 213.334 355.424 212.99 355.184L213.506 354.26C213.786 354.476 214.13 354.664 214.538 354.824C214.954 354.984 215.35 355.064 215.726 355.064C216.006 355.064 216.278 355.016 216.542 354.92C216.814 354.824 217.038 354.672 217.214 354.464C217.39 354.248 217.478 353.972 217.478 353.636C217.478 353.348 217.398 353.104 217.238 352.904C217.078 352.704 216.87 352.536 216.614 352.4C216.366 352.256 216.094 352.128 215.798 352.016C215.526 351.92 215.25 351.808 214.97 351.68C214.69 351.552 214.43 351.4 214.19 351.224C213.958 351.04 213.77 350.816 213.626 350.552C213.482 350.288 213.41 349.968 213.41 349.592C213.41 349.136 213.518 348.74 213.734 348.404C213.958 348.06 214.262 347.792 214.646 347.6C215.03 347.4 215.474 347.292 215.978 347.276C216.53 347.276 217.018 347.344 217.442 347.48C217.874 347.616 218.254 347.78 218.582 347.972L218.138 348.872ZM220.095 351.668C220.095 351.068 220.207 350.5 220.431 349.964C220.663 349.428 220.983 348.956 221.391 348.548C221.799 348.14 222.267 347.82 222.795 347.588C223.331 347.348 223.903 347.228 224.511 347.228C225.119 347.228 225.691 347.348 226.227 347.588C226.771 347.82 227.247 348.14 227.655 348.548C228.063 348.956 228.383 349.428 228.615 349.964C228.847 350.5 228.963 351.068 228.963 351.668C228.963 352.3 228.839 352.892 228.591 353.444C228.343 353.988 228.007 354.46 227.583 354.86H229.335V356H225.435C225.131 356.064 224.823 356.096 224.511 356.096C223.903 356.096 223.331 355.984 222.795 355.76C222.267 355.536 221.799 355.224 221.391 354.824C220.983 354.416 220.663 353.944 220.431 353.408C220.207 352.872 220.095 352.292 220.095 351.668ZM221.295 351.68C221.295 352.136 221.379 352.564 221.547 352.964C221.715 353.356 221.947 353.704 222.243 354.008C222.539 354.304 222.883 354.54 223.275 354.716C223.667 354.884 224.091 354.968 224.547 354.968C225.147 354.968 225.687 354.82 226.167 354.524C226.655 354.228 227.043 353.832 227.331 353.336C227.619 352.84 227.763 352.284 227.763 351.668C227.763 351.22 227.679 350.796 227.511 350.396C227.343 349.996 227.111 349.648 226.815 349.352C226.519 349.048 226.175 348.812 225.783 348.644C225.391 348.468 224.971 348.38 224.523 348.38C224.067 348.38 223.643 348.468 223.251 348.644C222.859 348.812 222.515 349.052 222.219 349.364C221.931 349.668 221.703 350.02 221.535 350.42C221.375 350.812 221.295 351.232 221.295 351.68ZM231.287 347.324H232.451V354.872H236.867V356H231.287V347.324ZM244.877 347.324C245.813 347.324 246.549 347.56 247.085 348.032C247.621 348.504 247.889 349.164 247.889 350.012C247.889 350.356 247.837 350.696 247.733 351.032C247.629 351.36 247.461 351.66 247.229 351.932C247.005 352.196 246.709 352.412 246.341 352.58C245.973 352.74 245.525 352.82 244.997 352.82H243.713V356H242.549V347.324H244.877ZM244.997 351.68C245.333 351.68 245.613 351.628 245.837 351.524C246.061 351.412 246.237 351.268 246.365 351.092C246.501 350.916 246.597 350.736 246.653 350.552C246.709 350.36 246.737 350.188 246.737 350.036C246.737 349.804 246.681 349.564 246.569 349.316C246.465 349.068 246.289 348.86 246.041 348.692C245.801 348.524 245.473 348.44 245.057 348.44H243.713V351.68H244.997ZM250.406 351.032L250.49 352.196C250.626 351.916 250.814 351.676 251.054 351.476C251.294 351.268 251.542 351.112 251.798 351.008C252.062 350.896 252.29 350.836 252.482 350.828L252.434 351.944C252.058 351.928 251.726 352.004 251.438 352.172C251.15 352.332 250.926 352.552 250.766 352.832C250.606 353.112 250.526 353.412 250.526 353.732V356H249.41V351.032H250.406ZM253.278 353.468C253.278 352.972 253.394 352.524 253.626 352.124C253.866 351.724 254.194 351.408 254.61 351.176C255.026 350.944 255.502 350.828 256.038 350.828C256.574 350.828 257.046 350.944 257.454 351.176C257.862 351.408 258.178 351.724 258.402 352.124C258.634 352.524 258.75 352.972 258.75 353.468C258.75 353.964 258.634 354.412 258.402 354.812C258.178 355.212 257.858 355.532 257.442 355.772C257.034 356.004 256.558 356.12 256.014 356.12C255.486 356.12 255.014 356.012 254.598 355.796C254.19 355.58 253.866 355.272 253.626 354.872C253.394 354.472 253.278 354.004 253.278 353.468ZM254.406 353.48C254.406 353.8 254.474 354.092 254.61 354.356C254.754 354.612 254.946 354.816 255.186 354.968C255.426 355.12 255.698 355.196 256.002 355.196C256.314 355.196 256.59 355.12 256.83 354.968C257.07 354.816 257.258 354.612 257.394 354.356C257.538 354.092 257.61 353.8 257.61 353.48C257.61 353.16 257.538 352.872 257.394 352.616C257.258 352.352 257.07 352.144 256.83 351.992C256.59 351.832 256.314 351.752 256.002 351.752C255.698 351.752 255.422 351.832 255.174 351.992C254.934 352.152 254.746 352.364 254.61 352.628C254.474 352.884 254.406 353.168 254.406 353.48ZM264.524 356H263.168L261.824 354.236L260.588 356H259.448L261.272 353.504L259.388 351.032H260.78L262.076 352.76L263.204 351.032H264.332L262.592 353.444L264.524 356ZM266.142 358.388L267.282 355.844L264.978 351.032H266.238L267.834 354.572L269.418 351.032H270.45L267.246 358.388H266.142Z" fill="white"/>
<path d="M212.372 218.46C211.82 218.46 211.36 218.364 210.992 218.172C210.624 217.988 210.284 217.752 209.972 217.464L210.632 216.696C210.888 216.952 211.152 217.144 211.424 217.272C211.696 217.408 212.004 217.476 212.348 217.476C212.908 217.476 213.336 217.34 213.632 217.068C213.928 216.804 214.08 216.452 214.088 216.012V215.1C213.92 215.396 213.66 215.64 213.308 215.832C212.956 216.024 212.54 216.12 212.06 216.12C211.596 216.12 211.172 216.004 210.788 215.772C210.412 215.54 210.108 215.228 209.876 214.836C209.652 214.436 209.54 213.988 209.54 213.492C209.54 212.972 209.66 212.512 209.9 212.112C210.14 211.712 210.456 211.4 210.848 211.176C211.24 210.944 211.668 210.828 212.132 210.828C212.564 210.828 212.956 210.912 213.308 211.08C213.66 211.248 213.924 211.464 214.1 211.728L214.196 211.032H215.216V216.036C215.216 216.484 215.1 216.892 214.868 217.26C214.636 217.628 214.308 217.92 213.884 218.136C213.46 218.352 212.956 218.46 212.372 218.46ZM210.668 213.456C210.668 213.784 210.744 214.08 210.896 214.344C211.048 214.6 211.252 214.808 211.508 214.968C211.772 215.12 212.064 215.196 212.384 215.196C212.816 215.196 213.184 215.08 213.488 214.848C213.8 214.608 214 214.304 214.088 213.936V212.952C213.984 212.6 213.776 212.312 213.464 212.088C213.152 211.864 212.792 211.752 212.384 211.752C212.056 211.752 211.76 211.824 211.496 211.968C211.24 212.112 211.036 212.312 210.884 212.568C210.74 212.824 210.668 213.12 210.668 213.456ZM219.748 207.324C220.324 207.324 220.844 207.428 221.308 207.636C221.772 207.836 222.14 208.14 222.412 208.548C222.684 208.948 222.82 209.436 222.82 210.012C222.82 210.508 222.708 210.988 222.484 211.452C222.268 211.916 221.9 212.268 221.38 212.508L223.564 216H222.208L220.156 212.796C220.068 212.804 219.976 212.808 219.88 212.808H218.596V216H217.432V207.324H219.748ZM219.856 211.68C220.32 211.68 220.676 211.596 220.924 211.428C221.18 211.252 221.36 211.04 221.464 210.792C221.568 210.536 221.62 210.292 221.62 210.06C221.62 209.828 221.564 209.588 221.452 209.34C221.34 209.092 221.16 208.88 220.912 208.704C220.672 208.528 220.348 208.44 219.94 208.44H218.596V211.68H219.856ZM227.681 207.324C228.617 207.324 229.353 207.56 229.889 208.032C230.425 208.504 230.693 209.164 230.693 210.012C230.693 210.356 230.641 210.696 230.537 211.032C230.433 211.36 230.265 211.66 230.033 211.932C229.809 212.196 229.513 212.412 229.145 212.58C228.777 212.74 228.329 212.82 227.801 212.82H226.517V216H225.353V207.324H227.681ZM227.801 211.68C228.137 211.68 228.417 211.628 228.641 211.524C228.865 211.412 229.041 211.268 229.169 211.092C229.305 210.916 229.401 210.736 229.457 210.552C229.513 210.36 229.541 210.188 229.541 210.036C229.541 209.804 229.485 209.564 229.373 209.316C229.269 209.068 229.093 208.86 228.845 208.692C228.605 208.524 228.277 208.44 227.861 208.44H226.517V211.68H227.801ZM238.862 215.352C238.718 215.448 238.522 215.556 238.274 215.676C238.026 215.796 237.734 215.9 237.398 215.988C237.07 216.068 236.71 216.104 236.318 216.096C235.638 216.088 235.03 215.968 234.494 215.736C233.958 215.504 233.498 215.188 233.114 214.788C232.738 214.38 232.45 213.916 232.25 213.396C232.05 212.876 231.95 212.32 231.95 211.728C231.95 211.08 232.054 210.484 232.262 209.94C232.478 209.388 232.778 208.912 233.162 208.512C233.546 208.104 233.998 207.788 234.518 207.564C235.046 207.34 235.622 207.228 236.246 207.228C236.766 207.228 237.238 207.3 237.662 207.444C238.086 207.58 238.45 207.74 238.754 207.924L238.286 209.016C238.046 208.856 237.754 208.704 237.41 208.56C237.066 208.416 236.69 208.344 236.282 208.344C235.858 208.344 235.458 208.432 235.082 208.608C234.706 208.776 234.374 209.012 234.086 209.316C233.798 209.612 233.57 209.964 233.402 210.372C233.242 210.772 233.162 211.204 233.162 211.668C233.162 212.292 233.29 212.856 233.546 213.36C233.81 213.856 234.178 214.248 234.65 214.536C235.13 214.824 235.69 214.968 236.33 214.968C236.778 214.968 237.17 214.904 237.506 214.776C237.85 214.64 238.134 214.484 238.358 214.308L238.862 215.352Z" fill="white"/>
<path d="M366.608 37.048C366.04 38.584 365.476 40.116 364.916 41.644C364.356 43.172 363.792 44.7 363.224 46.228H362.204C362.772 44.7 363.336 43.172 363.896 41.644C364.456 40.116 365.02 38.584 365.588 37.048H366.608ZM367.589 46V36.7H368.681V41.932C368.857 41.612 369.117 41.352 369.461 41.152C369.805 40.944 370.209 40.84 370.673 40.84C371.137 40.84 371.517 40.98 371.813 41.26C372.117 41.532 372.277 41.888 372.293 42.328V46H371.165V42.712C371.149 42.448 371.065 42.232 370.913 42.064C370.769 41.896 370.541 41.808 370.229 41.8C369.941 41.8 369.681 41.884 369.449 42.052C369.225 42.212 369.045 42.432 368.909 42.712C368.773 42.992 368.705 43.312 368.705 43.672V46H367.589ZM376.526 46.12C375.966 46.12 375.478 46.008 375.062 45.784C374.654 45.552 374.338 45.236 374.114 44.836C373.898 44.436 373.79 43.984 373.79 43.48C373.79 42.992 373.91 42.548 374.15 42.148C374.398 41.74 374.73 41.42 375.146 41.188C375.57 40.948 376.038 40.828 376.55 40.828C377.206 40.828 377.75 41.02 378.182 41.404C378.614 41.788 378.91 42.316 379.07 42.988L375.134 44.368C375.27 44.616 375.462 44.812 375.71 44.956C375.958 45.092 376.238 45.16 376.55 45.16C376.774 45.16 376.986 45.12 377.186 45.04C377.386 44.96 377.578 44.856 377.762 44.728L378.278 45.556C378.022 45.724 377.738 45.86 377.426 45.964C377.122 46.068 376.822 46.12 376.526 46.12ZM374.894 43.42C374.886 43.516 374.89 43.608 374.906 43.696L377.798 42.628C377.686 42.388 377.522 42.176 377.306 41.992C377.098 41.808 376.818 41.716 376.466 41.716C376.01 41.716 375.634 41.876 375.338 42.196C375.042 42.516 374.894 42.924 374.894 43.42ZM382.532 46.12C382.06 46.12 381.632 46.02 381.248 45.82C380.872 45.62 380.572 45.328 380.348 44.944C380.132 44.552 380.024 44.076 380.024 43.516C380.024 42.956 380.136 42.476 380.36 42.076C380.592 41.676 380.9 41.368 381.284 41.152C381.676 40.936 382.104 40.828 382.568 40.828C383.016 40.828 383.396 40.924 383.708 41.116C384.02 41.308 384.264 41.54 384.44 41.812L384.524 41.032H385.556V46H384.44V45.184C384.344 45.312 384.204 45.448 384.02 45.592C383.844 45.736 383.628 45.86 383.372 45.964C383.124 46.068 382.844 46.12 382.532 46.12ZM382.832 45.196C383.24 45.196 383.588 45.084 383.876 44.86C384.164 44.628 384.352 44.316 384.44 43.924V42.94C384.344 42.596 384.144 42.312 383.84 42.088C383.536 41.864 383.188 41.752 382.796 41.752C382.492 41.752 382.216 41.824 381.968 41.968C381.72 42.112 381.52 42.312 381.368 42.568C381.224 42.824 381.152 43.12 381.152 43.456C381.152 43.784 381.228 44.08 381.38 44.344C381.532 44.6 381.736 44.808 381.992 44.968C382.248 45.12 382.528 45.196 382.832 45.196ZM387.499 36.7H388.615V46H387.499V36.7ZM391.038 38.848H392.166V41.044H393.522V41.932H392.166V46H391.038V41.932H390.126V41.044H391.038V38.848ZM394.882 46V36.7H395.974V41.932C396.15 41.612 396.41 41.352 396.754 41.152C397.098 40.944 397.502 40.84 397.966 40.84C398.43 40.84 398.81 40.98 399.106 41.26C399.41 41.532 399.57 41.888 399.586 42.328V46H398.458V42.712C398.442 42.448 398.358 42.232 398.206 42.064C398.062 41.896 397.834 41.808 397.522 41.8C397.234 41.8 396.974 41.884 396.742 42.052C396.518 42.212 396.338 42.432 396.202 42.712C396.066 42.992 395.998 43.312 395.998 43.672V46H394.882Z" fill="black"/>
<path d="M52.62 64.352C52.476 64.448 52.28 64.556 52.032 64.676C51.784 64.796 51.492 64.9 51.156 64.988C50.828 65.068 50.468 65.104 50.076 65.096C49.396 65.088 48.788 64.968 48.252 64.736C47.716 64.504 47.256 64.188 46.872 63.788C46.496 63.38 46.208 62.916 46.008 62.396C45.808 61.876 45.708 61.32 45.708 60.728C45.708 60.08 45.812 59.484 46.02 58.94C46.236 58.388 46.536 57.912 46.92 57.512C47.304 57.104 47.756 56.788 48.276 56.564C48.804 56.34 49.38 56.228 50.004 56.228C50.524 56.228 50.996 56.3 51.42 56.444C51.844 56.58 52.208 56.74 52.512 56.924L52.044 58.016C51.804 57.856 51.512 57.704 51.168 57.56C50.824 57.416 50.448 57.344 50.04 57.344C49.616 57.344 49.216 57.432 48.84 57.608C48.464 57.776 48.132 58.012 47.844 58.316C47.556 58.612 47.328 58.964 47.16 59.372C47 59.772 46.92 60.204 46.92 60.668C46.92 61.292 47.048 61.856 47.304 62.36C47.568 62.856 47.936 63.248 48.408 63.536C48.888 63.824 49.448 63.968 50.088 63.968C50.536 63.968 50.928 63.904 51.264 63.776C51.608 63.64 51.892 63.484 52.116 63.308L52.62 64.352ZM54.304 55.7H55.42V65H54.304V55.7ZM57.3626 60.032H58.4786V65H57.3626V60.032ZM57.2786 58.244C57.2786 58.06 57.3466 57.912 57.4826 57.8C57.6266 57.68 57.7826 57.62 57.9506 57.62C58.1186 57.62 58.2706 57.68 58.4066 57.8C58.5426 57.912 58.6106 58.06 58.6106 58.244C58.6106 58.428 58.5426 58.58 58.4066 58.7C58.2706 58.812 58.1186 58.868 57.9506 58.868C57.7826 58.868 57.6266 58.812 57.4826 58.7C57.3466 58.58 57.2786 58.428 57.2786 58.244ZM62.7252 65.12C62.1652 65.12 61.6772 65.008 61.2612 64.784C60.8532 64.552 60.5372 64.236 60.3132 63.836C60.0972 63.436 59.9892 62.984 59.9892 62.48C59.9892 61.992 60.1092 61.548 60.3492 61.148C60.5972 60.74 60.9292 60.42 61.3452 60.188C61.7692 59.948 62.2372 59.828 62.7492 59.828C63.4052 59.828 63.9492 60.02 64.3812 60.404C64.8132 60.788 65.1092 61.316 65.2692 61.988L61.3332 63.368C61.4692 63.616 61.6612 63.812 61.9092 63.956C62.1572 64.092 62.4372 64.16 62.7492 64.16C62.9732 64.16 63.1852 64.12 63.3852 64.04C63.5852 63.96 63.7772 63.856 63.9612 63.728L64.4772 64.556C64.2212 64.724 63.9372 64.86 63.6252 64.964C63.3212 65.068 63.0212 65.12 62.7252 65.12ZM61.0932 62.42C61.0852 62.516 61.0892 62.608 61.1052 62.696L63.9972 61.628C63.8852 61.388 63.7212 61.176 63.5052 60.992C63.2972 60.808 63.0172 60.716 62.6652 60.716C62.2092 60.716 61.8332 60.876 61.5372 61.196C61.2412 61.516 61.0932 61.924 61.0932 62.42ZM67.6636 60.032L67.7356 60.992C67.9036 60.64 68.1636 60.36 68.5156 60.152C68.8676 59.944 69.2756 59.84 69.7396 59.84C70.2036 59.84 70.5836 59.98 70.8796 60.26C71.1836 60.532 71.3436 60.888 71.3596 61.328V65H70.2316V61.712C70.2156 61.448 70.1316 61.232 69.9796 61.064C69.8356 60.896 69.6076 60.808 69.2956 60.8C68.8636 60.8 68.4996 60.976 68.2036 61.328C67.9156 61.672 67.7716 62.12 67.7716 62.672V65H66.6556V60.032H67.6636ZM73.7684 57.848H74.8964V60.044H76.2524V60.932H74.8964V65H73.7684V60.932H72.8564V60.044H73.7684V57.848ZM79.0166 65.096C78.6566 65.096 78.3086 65.036 77.9726 64.916C77.6446 64.788 77.3726 64.6 77.1566 64.352L77.6366 63.704C77.8366 63.904 78.0486 64.056 78.2726 64.16C78.4966 64.256 78.7126 64.304 78.9206 64.304C79.1606 64.304 79.3686 64.256 79.5446 64.16C79.7286 64.064 79.8206 63.9 79.8206 63.668C79.8206 63.492 79.7606 63.352 79.6406 63.248C79.5286 63.144 79.3806 63.064 79.1966 63.008C79.0206 62.944 78.8366 62.88 78.6446 62.816C77.7966 62.544 77.3726 62.06 77.3726 61.364C77.3726 61.108 77.4366 60.864 77.5646 60.632C77.7006 60.4 77.8966 60.212 78.1526 60.068C78.4166 59.924 78.7406 59.852 79.1246 59.852C79.4686 59.852 79.7766 59.896 80.0486 59.984C80.3206 60.072 80.5766 60.212 80.8166 60.404L80.3726 61.088C80.2286 60.944 80.0566 60.836 79.8566 60.764C79.6646 60.684 79.4886 60.64 79.3286 60.632C79.1126 60.632 78.9206 60.684 78.7526 60.788C78.5926 60.892 78.5126 61.036 78.5126 61.22C78.5046 61.388 78.5566 61.524 78.6686 61.628C78.7806 61.724 78.9246 61.804 79.1006 61.868C79.2846 61.932 79.4686 61.992 79.6526 62.048C80.0126 62.168 80.3166 62.332 80.5646 62.54C80.8206 62.748 80.9486 63.052 80.9486 63.452C80.9486 63.9 80.7886 64.288 80.4686 64.616C80.1486 64.936 79.6646 65.096 79.0166 65.096Z" fill="black"/>
<path d="M365.736 197.872C365.44 197.72 365.116 197.588 364.764 197.476C364.412 197.364 364.072 197.308 363.744 197.308C363.272 197.308 362.896 197.416 362.616 197.632C362.344 197.848 362.208 198.14 362.208 198.508C362.208 198.772 362.296 198.996 362.472 199.18C362.656 199.364 362.888 199.528 363.168 199.672C363.456 199.808 363.76 199.936 364.08 200.056C364.44 200.192 364.788 200.356 365.124 200.548C365.46 200.74 365.736 201 365.952 201.328C366.176 201.648 366.288 202.08 366.288 202.624C366.288 203.088 366.172 203.508 365.94 203.884C365.708 204.252 365.38 204.548 364.956 204.772C364.532 204.988 364.028 205.096 363.444 205.096C362.868 205.096 362.332 205.004 361.836 204.82C361.348 204.636 360.932 204.424 360.588 204.184L361.104 203.26C361.384 203.476 361.728 203.664 362.136 203.824C362.552 203.984 362.948 204.064 363.324 204.064C363.604 204.064 363.876 204.016 364.14 203.92C364.412 203.824 364.636 203.672 364.812 203.464C364.988 203.248 365.076 202.972 365.076 202.636C365.076 202.348 364.996 202.104 364.836 201.904C364.676 201.704 364.468 201.536 364.212 201.4C363.964 201.256 363.692 201.128 363.396 201.016C363.124 200.92 362.848 200.808 362.568 200.68C362.288 200.552 362.028 200.4 361.788 200.224C361.556 200.04 361.368 199.816 361.224 199.552C361.08 199.288 361.008 198.968 361.008 198.592C361.008 198.136 361.116 197.74 361.332 197.404C361.556 197.06 361.86 196.792 362.244 196.6C362.628 196.4 363.072 196.292 363.576 196.276C364.128 196.276 364.616 196.344 365.04 196.48C365.472 196.616 365.852 196.78 366.18 196.972L365.736 197.872ZM370.26 205.12C369.7 205.12 369.212 205.008 368.796 204.784C368.388 204.552 368.072 204.236 367.848 203.836C367.632 203.436 367.524 202.984 367.524 202.48C367.524 201.992 367.644 201.548 367.884 201.148C368.132 200.74 368.464 200.42 368.88 200.188C369.304 199.948 369.772 199.828 370.284 199.828C370.94 199.828 371.484 200.02 371.916 200.404C372.348 200.788 372.644 201.316 372.804 201.988L368.868 203.368C369.004 203.616 369.196 203.812 369.444 203.956C369.692 204.092 369.972 204.16 370.284 204.16C370.508 204.16 370.72 204.12 370.92 204.04C371.12 203.96 371.312 203.856 371.496 203.728L372.012 204.556C371.756 204.724 371.472 204.86 371.16 204.964C370.856 205.068 370.556 205.12 370.26 205.12ZM368.628 202.42C368.62 202.516 368.624 202.608 368.64 202.696L371.532 201.628C371.42 201.388 371.256 201.176 371.04 200.992C370.832 200.808 370.552 200.716 370.2 200.716C369.744 200.716 369.368 200.876 369.072 201.196C368.776 201.516 368.628 201.924 368.628 202.42ZM375.187 200.032L375.271 201.196C375.407 200.916 375.595 200.676 375.835 200.476C376.075 200.268 376.323 200.112 376.579 200.008C376.843 199.896 377.071 199.836 377.263 199.828L377.215 200.944C376.839 200.928 376.507 201.004 376.219 201.172C375.931 201.332 375.707 201.552 375.547 201.832C375.387 202.112 375.307 202.412 375.307 202.732V205H374.191V200.032H375.187ZM380.718 205.144L377.958 200.032H379.29L380.79 203.212L382.182 200.032H383.43L380.778 205.144H380.718ZM384.632 200.032H385.748V205H384.632V200.032ZM384.548 198.244C384.548 198.06 384.616 197.912 384.752 197.8C384.896 197.68 385.052 197.62 385.22 197.62C385.388 197.62 385.54 197.68 385.676 197.8C385.812 197.912 385.88 198.06 385.88 198.244C385.88 198.428 385.812 198.58 385.676 198.7C385.54 198.812 385.388 198.868 385.22 198.868C385.052 198.868 384.896 198.812 384.752 198.7C384.616 198.58 384.548 198.428 384.548 198.244ZM391.723 204.532C391.499 204.716 391.231 204.86 390.919 204.964C390.607 205.068 390.295 205.12 389.983 205.12C389.447 205.12 388.971 205.012 388.555 204.796C388.147 204.58 387.827 204.276 387.595 203.884C387.371 203.492 387.259 203.032 387.259 202.504C387.259 201.976 387.379 201.52 387.619 201.136C387.867 200.744 388.187 200.44 388.579 200.224C388.979 200.008 389.411 199.9 389.875 199.9C390.275 199.9 390.631 199.956 390.943 200.068C391.255 200.18 391.527 200.332 391.759 200.524L391.195 201.256C391.051 201.152 390.875 201.056 390.667 200.968C390.459 200.872 390.227 200.824 389.971 200.824C389.675 200.824 389.407 200.9 389.167 201.052C388.927 201.196 388.735 201.396 388.591 201.652C388.447 201.9 388.375 202.184 388.375 202.504C388.375 202.816 388.447 203.1 388.591 203.356C388.735 203.612 388.935 203.816 389.191 203.968C389.447 204.12 389.743 204.196 390.079 204.196C390.287 204.196 390.479 204.164 390.655 204.1C390.839 204.036 391.003 203.948 391.147 203.836L391.723 204.532ZM395.467 205.12C394.907 205.12 394.419 205.008 394.003 204.784C393.595 204.552 393.279 204.236 393.055 203.836C392.839 203.436 392.731 202.984 392.731 202.48C392.731 201.992 392.851 201.548 393.091 201.148C393.339 200.74 393.671 200.42 394.087 200.188C394.511 199.948 394.979 199.828 395.491 199.828C396.147 199.828 396.691 200.02 397.123 200.404C397.555 200.788 397.851 201.316 398.011 201.988L394.075 203.368C394.211 203.616 394.403 203.812 394.651 203.956C394.899 204.092 395.179 204.16 395.491 204.16C395.715 204.16 395.927 204.12 396.127 204.04C396.327 203.96 396.519 203.856 396.703 203.728L397.219 204.556C396.963 204.724 396.679 204.86 396.367 204.964C396.063 205.068 395.763 205.12 395.467 205.12ZM393.835 202.42C393.827 202.516 393.831 202.608 393.847 202.696L396.739 201.628C396.627 201.388 396.463 201.176 396.247 200.992C396.039 200.808 395.759 200.716 395.407 200.716C394.951 200.716 394.575 200.876 394.279 201.196C393.983 201.516 393.835 201.924 393.835 202.42ZM400.802 205.096C400.442 205.096 400.094 205.036 399.758 204.916C399.43 204.788 399.158 204.6 398.942 204.352L399.422 203.704C399.622 203.904 399.834 204.056 400.058 204.16C400.282 204.256 400.498 204.304 400.706 204.304C400.946 204.304 401.154 204.256 401.33 204.16C401.514 204.064 401.606 203.9 401.606 203.668C401.606 203.492 401.546 203.352 401.426 203.248C401.314 203.144 401.166 203.064 400.982 203.008C400.806 202.944 400.622 202.88 400.43 202.816C399.582 202.544 399.158 202.06 399.158 201.364C399.158 201.108 399.222 200.864 399.35 200.632C399.486 200.4 399.682 200.212 399.938 200.068C400.202 199.924 400.526 199.852 400.91 199.852C401.254 199.852 401.562 199.896 401.834 199.984C402.106 200.072 402.362 200.212 402.602 200.404L402.158 201.088C402.014 200.944 401.842 200.836 401.642 200.764C401.45 200.684 401.274 200.64 401.114 200.632C400.898 200.632 400.706 200.684 400.538 200.788C400.378 200.892 400.298 201.036 400.298 201.22C400.29 201.388 400.342 201.524 400.454 201.628C400.566 201.724 400.71 201.804 400.886 201.868C401.07 201.932 401.254 201.992 401.438 202.048C401.798 202.168 402.102 202.332 402.35 202.54C402.606 202.748 402.734 203.052 402.734 203.452C402.734 203.9 402.574 204.288 402.254 204.616C401.934 204.936 401.45 205.096 400.802 205.096Z" fill="black"/>
<path d="M363.608 74.048C363.04 75.584 362.476 77.116 361.916 78.644C361.356 80.172 360.792 81.7 360.224 83.228H359.204C359.772 81.7 360.336 80.172 360.896 78.644C361.456 77.116 362.02 75.584 362.588 74.048H363.608ZM365.597 78.032L365.669 78.98C365.861 78.62 366.121 78.34 366.449 78.14C366.785 77.932 367.169 77.828 367.601 77.828C368.009 77.828 368.349 77.924 368.621 78.116C368.901 78.308 369.073 78.568 369.137 78.896C369.337 78.56 369.597 78.3 369.917 78.116C370.245 77.924 370.593 77.828 370.961 77.828C371.441 77.828 371.821 77.968 372.101 78.248C372.389 78.528 372.541 78.884 372.557 79.316V83H371.441V79.736C371.425 79.48 371.357 79.268 371.237 79.1C371.125 78.924 370.929 78.828 370.649 78.812C370.353 78.812 370.093 78.9 369.869 79.076C369.645 79.244 369.469 79.468 369.341 79.748C369.213 80.028 369.145 80.324 369.137 80.636V83H368.009V79.736C368.001 79.48 367.933 79.268 367.805 79.1C367.685 78.924 367.481 78.828 367.193 78.812C366.905 78.812 366.649 78.9 366.425 79.076C366.201 79.244 366.025 79.468 365.897 79.748C365.769 80.028 365.705 80.328 365.705 80.648V83H364.589V78.032H365.597ZM376.796 83.12C376.236 83.12 375.748 83.008 375.332 82.784C374.924 82.552 374.608 82.236 374.384 81.836C374.168 81.436 374.06 80.984 374.06 80.48C374.06 79.992 374.18 79.548 374.42 79.148C374.668 78.74 375 78.42 375.416 78.188C375.84 77.948 376.308 77.828 376.82 77.828C377.476 77.828 378.02 78.02 378.452 78.404C378.884 78.788 379.18 79.316 379.34 79.988L375.404 81.368C375.54 81.616 375.732 81.812 375.98 81.956C376.228 82.092 376.508 82.16 376.82 82.16C377.044 82.16 377.256 82.12 377.456 82.04C377.656 81.96 377.848 81.856 378.032 81.728L378.548 82.556C378.292 82.724 378.008 82.86 377.696 82.964C377.392 83.068 377.092 83.12 376.796 83.12ZM375.164 80.42C375.156 80.516 375.16 80.608 375.176 80.696L378.068 79.628C377.956 79.388 377.792 79.176 377.576 78.992C377.368 78.808 377.088 78.716 376.736 78.716C376.28 78.716 375.904 78.876 375.608 79.196C375.312 79.516 375.164 79.924 375.164 80.42ZM381.206 75.848H382.334V78.044H383.69V78.932H382.334V83H381.206V78.932H380.294V78.044H381.206V75.848ZM386.046 78.032L386.13 79.196C386.266 78.916 386.454 78.676 386.694 78.476C386.934 78.268 387.182 78.112 387.438 78.008C387.702 77.896 387.93 77.836 388.122 77.828L388.074 78.944C387.698 78.928 387.366 79.004 387.078 79.172C386.79 79.332 386.566 79.552 386.406 79.832C386.246 80.112 386.166 80.412 386.166 80.732V83H385.05V78.032H386.046ZM389.562 78.032H390.678V83H389.562V78.032ZM389.478 76.244C389.478 76.06 389.546 75.912 389.682 75.8C389.826 75.68 389.982 75.62 390.15 75.62C390.318 75.62 390.47 75.68 390.606 75.8C390.742 75.912 390.81 76.06 390.81 76.244C390.81 76.428 390.742 76.58 390.606 76.7C390.47 76.812 390.318 76.868 390.15 76.868C389.982 76.868 389.826 76.812 389.682 76.7C389.546 76.58 389.478 76.428 389.478 76.244ZM396.652 82.532C396.428 82.716 396.16 82.86 395.848 82.964C395.536 83.068 395.224 83.12 394.912 83.12C394.376 83.12 393.9 83.012 393.484 82.796C393.076 82.58 392.756 82.276 392.524 81.884C392.3 81.492 392.188 81.032 392.188 80.504C392.188 79.976 392.308 79.52 392.548 79.136C392.796 78.744 393.116 78.44 393.508 78.224C393.908 78.008 394.34 77.9 394.804 77.9C395.204 77.9 395.56 77.956 395.872 78.068C396.184 78.18 396.456 78.332 396.688 78.524L396.124 79.256C395.98 79.152 395.804 79.056 395.596 78.968C395.388 78.872 395.156 78.824 394.9 78.824C394.604 78.824 394.336 78.9 394.096 79.052C393.856 79.196 393.664 79.396 393.52 79.652C393.376 79.9 393.304 80.184 393.304 80.504C393.304 80.816 393.376 81.1 393.52 81.356C393.664 81.612 393.864 81.816 394.12 81.968C394.376 82.12 394.672 82.196 395.008 82.196C395.216 82.196 395.408 82.164 395.584 82.1C395.768 82.036 395.932 81.948 396.076 81.836L396.652 82.532ZM399.497 83.096C399.137 83.096 398.789 83.036 398.453 82.916C398.125 82.788 397.853 82.6 397.637 82.352L398.117 81.704C398.317 81.904 398.529 82.056 398.753 82.16C398.977 82.256 399.193 82.304 399.401 82.304C399.641 82.304 399.849 82.256 400.025 82.16C400.209 82.064 400.301 81.9 400.301 81.668C400.301 81.492 400.241 81.352 400.121 81.248C400.009 81.144 399.861 81.064 399.677 81.008C399.501 80.944 399.317 80.88 399.125 80.816C398.277 80.544 397.853 80.06 397.853 79.364C397.853 79.108 397.917 78.864 398.045 78.632C398.181 78.4 398.377 78.212 398.633 78.068C398.897 77.924 399.221 77.852 399.605 77.852C399.949 77.852 400.257 77.896 400.529 77.984C400.801 78.072 401.057 78.212 401.297 78.404L400.853 79.088C400.709 78.944 400.537 78.836 400.337 78.764C400.145 78.684 399.969 78.64 399.809 78.632C399.593 78.632 399.401 78.684 399.233 78.788C399.073 78.892 398.993 79.036 398.993 79.22C398.985 79.388 399.037 79.524 399.149 79.628C399.261 79.724 399.405 79.804 399.581 79.868C399.765 79.932 399.949 79.992 400.133 80.048C400.493 80.168 400.797 80.332 401.045 80.54C401.301 80.748 401.429 81.052 401.429 81.452C401.429 81.9 401.269 82.288 400.949 82.616C400.629 82.936 400.145 83.096 399.497 83.096Z" fill="black"/>
<path d="M129.354 74.3536C129.549 74.1583 129.549 73.8417 129.354 73.6465L126.172 70.4645C125.976 70.2692 125.66 70.2692 125.464 70.4645C125.269 70.6597 125.269 70.9763 125.464 71.1716L128.293 74L125.464 76.8284C125.269 77.0237 125.269 77.3403 125.464 77.5355C125.66 77.7308 125.976 77.7308 126.172 77.5355L129.354 74.3536ZM-4.37114e-08 74.5L129 74.5L129 73.5L4.37114e-08 73.5L-4.37114e-08 74.5Z" fill="black"/>
<path d="M354.248 344V335.324H356.624C357.48 335.324 358.208 335.456 358.808 335.72C359.408 335.976 359.892 336.32 360.26 336.752C360.636 337.184 360.908 337.664 361.076 338.192C361.252 338.712 361.34 339.236 361.34 339.764C361.34 340.412 361.224 341 360.992 341.528C360.76 342.048 360.444 342.492 360.044 342.86C359.644 343.228 359.184 343.512 358.664 343.712C358.152 343.904 357.612 344 357.044 344H354.248ZM355.412 342.872H356.816C357.448 342.872 358.012 342.748 358.508 342.5C359.012 342.252 359.408 341.892 359.696 341.42C359.984 340.94 360.128 340.36 360.128 339.68C360.128 338.976 359.976 338.384 359.672 337.904C359.376 337.424 358.98 337.06 358.484 336.812C357.996 336.564 357.476 336.44 356.924 336.44H355.412V342.872ZM365.095 344.12C364.623 344.12 364.195 344.02 363.811 343.82C363.435 343.62 363.135 343.328 362.911 342.944C362.695 342.552 362.587 342.076 362.587 341.516C362.587 340.956 362.699 340.476 362.923 340.076C363.155 339.676 363.463 339.368 363.847 339.152C364.239 338.936 364.667 338.828 365.131 338.828C365.579 338.828 365.959 338.924 366.271 339.116C366.583 339.308 366.827 339.54 367.003 339.812L367.087 339.032H368.119V344H367.003V343.184C366.907 343.312 366.767 343.448 366.583 343.592C366.407 343.736 366.191 343.86 365.935 343.964C365.687 344.068 365.407 344.12 365.095 344.12ZM365.395 343.196C365.803 343.196 366.151 343.084 366.439 342.86C366.727 342.628 366.915 342.316 367.003 341.924V340.94C366.907 340.596 366.707 340.312 366.403 340.088C366.099 339.864 365.751 339.752 365.359 339.752C365.055 339.752 364.779 339.824 364.531 339.968C364.283 340.112 364.083 340.312 363.931 340.568C363.787 340.824 363.715 341.12 363.715 341.456C363.715 341.784 363.791 342.08 363.943 342.344C364.095 342.6 364.299 342.808 364.555 342.968C364.811 343.12 365.091 343.196 365.395 343.196ZM370.542 336.848H371.67V339.044H373.026V339.932H371.67V344H370.542V339.932H369.63V339.044H370.542V336.848ZM376.462 344.12C375.99 344.12 375.562 344.02 375.178 343.82C374.802 343.62 374.502 343.328 374.278 342.944C374.062 342.552 373.954 342.076 373.954 341.516C373.954 340.956 374.066 340.476 374.29 340.076C374.522 339.676 374.83 339.368 375.214 339.152C375.606 338.936 376.034 338.828 376.498 338.828C376.946 338.828 377.326 338.924 377.638 339.116C377.95 339.308 378.194 339.54 378.37 339.812L378.454 339.032H379.486V344H378.37V343.184C378.274 343.312 378.134 343.448 377.95 343.592C377.774 343.736 377.558 343.86 377.302 343.964C377.054 344.068 376.774 344.12 376.462 344.12ZM376.762 343.196C377.17 343.196 377.518 343.084 377.806 342.86C378.094 342.628 378.282 342.316 378.37 341.924V340.94C378.274 340.596 378.074 340.312 377.77 340.088C377.466 339.864 377.118 339.752 376.726 339.752C376.422 339.752 376.146 339.824 375.898 339.968C375.65 340.112 375.45 340.312 375.298 340.568C375.154 340.824 375.082 341.12 375.082 341.456C375.082 341.784 375.158 342.08 375.31 342.344C375.462 342.6 375.666 342.808 375.922 342.968C376.178 343.12 376.458 343.196 376.762 343.196ZM384.465 344.12C384.041 344.12 383.665 344.04 383.337 343.88C383.017 343.712 382.753 343.5 382.545 343.244V344H381.429V334.7H382.545V339.704C382.745 339.44 383.025 339.228 383.385 339.068C383.745 338.908 384.153 338.828 384.609 338.828C385.049 338.828 385.453 338.936 385.821 339.152C386.189 339.36 386.485 339.66 386.709 340.052C386.933 340.444 387.045 340.904 387.045 341.432C387.045 342 386.925 342.484 386.685 342.884C386.445 343.284 386.129 343.592 385.737 343.808C385.345 344.016 384.921 344.12 384.465 344.12ZM384.225 343.16C384.713 343.16 385.113 343 385.425 342.68C385.745 342.352 385.905 341.936 385.905 341.432C385.905 341.112 385.829 340.824 385.677 340.568C385.533 340.304 385.333 340.096 385.077 339.944C384.829 339.792 384.545 339.716 384.225 339.716C383.809 339.716 383.449 339.828 383.145 340.052C382.841 340.276 382.641 340.564 382.545 340.916V341.936C382.641 342.288 382.837 342.58 383.133 342.812C383.429 343.044 383.793 343.16 384.225 343.16ZM390.618 344.12C390.146 344.12 389.718 344.02 389.334 343.82C388.958 343.62 388.658 343.328 388.434 342.944C388.218 342.552 388.11 342.076 388.11 341.516C388.11 340.956 388.222 340.476 388.446 340.076C388.678 339.676 388.986 339.368 389.37 339.152C389.762 338.936 390.19 338.828 390.654 338.828C391.102 338.828 391.482 338.924 391.794 339.116C392.106 339.308 392.35 339.54 392.526 339.812L392.61 339.032H393.642V344H392.526V343.184C392.43 343.312 392.29 343.448 392.106 343.592C391.93 343.736 391.714 343.86 391.458 343.964C391.21 344.068 390.93 344.12 390.618 344.12ZM390.918 343.196C391.326 343.196 391.674 343.084 391.962 342.86C392.25 342.628 392.438 342.316 392.526 341.924V340.94C392.43 340.596 392.23 340.312 391.926 340.088C391.622 339.864 391.274 339.752 390.882 339.752C390.578 339.752 390.302 339.824 390.054 339.968C389.806 340.112 389.606 340.312 389.454 340.568C389.31 340.824 389.238 341.12 389.238 341.456C389.238 341.784 389.314 342.08 389.466 342.344C389.618 342.6 389.822 342.808 390.078 342.968C390.334 343.12 390.614 343.196 390.918 343.196ZM396.989 344.096C396.629 344.096 396.281 344.036 395.945 343.916C395.617 343.788 395.345 343.6 395.129 343.352L395.609 342.704C395.809 342.904 396.021 343.056 396.245 343.16C396.469 343.256 396.685 343.304 396.893 343.304C397.133 343.304 397.341 343.256 397.517 343.16C397.701 343.064 397.793 342.9 397.793 342.668C397.793 342.492 397.733 342.352 397.613 342.248C397.501 342.144 397.353 342.064 397.169 342.008C396.993 341.944 396.809 341.88 396.617 341.816C395.769 341.544 395.345 341.06 395.345 340.364C395.345 340.108 395.409 339.864 395.537 339.632C395.673 339.4 395.869 339.212 396.125 339.068C396.389 338.924 396.713 338.852 397.097 338.852C397.441 338.852 397.749 338.896 398.021 338.984C398.293 339.072 398.549 339.212 398.789 339.404L398.345 340.088C398.201 339.944 398.029 339.836 397.829 339.764C397.637 339.684 397.461 339.64 397.301 339.632C397.085 339.632 396.893 339.684 396.725 339.788C396.565 339.892 396.485 340.036 396.485 340.22C396.477 340.388 396.529 340.524 396.641 340.628C396.753 340.724 396.897 340.804 397.073 340.868C397.257 340.932 397.441 340.992 397.625 341.048C397.985 341.168 398.289 341.332 398.537 341.54C398.793 341.748 398.921 342.052 398.921 342.452C398.921 342.9 398.761 343.288 398.441 343.616C398.121 343.936 397.637 344.096 396.989 344.096ZM402.788 344.12C402.228 344.12 401.74 344.008 401.324 343.784C400.916 343.552 400.6 343.236 400.376 342.836C400.16 342.436 400.052 341.984 400.052 341.48C400.052 340.992 400.172 340.548 400.412 340.148C400.66 339.74 400.992 339.42 401.408 339.188C401.832 338.948 402.3 338.828 402.812 338.828C403.468 338.828 404.012 339.02 404.444 339.404C404.876 339.788 405.172 340.316 405.332 340.988L401.396 342.368C401.532 342.616 401.724 342.812 401.972 342.956C402.22 343.092 402.5 343.16 402.812 343.16C403.036 343.16 403.248 343.12 403.448 343.04C403.648 342.96 403.84 342.856 404.024 342.728L404.54 343.556C404.284 343.724 404 343.86 403.688 343.964C403.384 344.068 403.084 344.12 402.788 344.12ZM401.156 341.42C401.148 341.516 401.152 341.608 401.168 341.696L404.06 340.628C403.948 340.388 403.784 340.176 403.568 339.992C403.36 339.808 403.08 339.716 402.728 339.716C402.272 339.716 401.896 339.876 401.6 340.196C401.304 340.516 401.156 340.924 401.156 341.42ZM408.122 344.096C407.762 344.096 407.414 344.036 407.078 343.916C406.75 343.788 406.478 343.6 406.262 343.352L406.742 342.704C406.942 342.904 407.154 343.056 407.378 343.16C407.602 343.256 407.818 343.304 408.026 343.304C408.266 343.304 408.474 343.256 408.65 343.16C408.834 343.064 408.926 342.9 408.926 342.668C408.926 342.492 408.866 342.352 408.746 342.248C408.634 342.144 408.486 342.064 408.302 342.008C408.126 341.944 407.942 341.88 407.75 341.816C406.902 341.544 406.478 341.06 406.478 340.364C406.478 340.108 406.542 339.864 406.67 339.632C406.806 339.4 407.002 339.212 407.258 339.068C407.522 338.924 407.846 338.852 408.23 338.852C408.574 338.852 408.882 338.896 409.154 338.984C409.426 339.072 409.682 339.212 409.922 339.404L409.478 340.088C409.334 339.944 409.162 339.836 408.962 339.764C408.77 339.684 408.594 339.64 408.434 339.632C408.218 339.632 408.026 339.684 407.858 339.788C407.698 339.892 407.618 340.036 407.618 340.22C407.61 340.388 407.662 340.524 407.774 340.628C407.886 340.724 408.03 340.804 408.206 340.868C408.39 340.932 408.574 340.992 408.758 341.048C409.118 341.168 409.422 341.332 409.67 341.54C409.926 341.748 410.054 342.052 410.054 342.452C410.054 342.9 409.894 343.288 409.574 343.616C409.254 343.936 408.77 344.096 408.122 344.096Z" fill="black"/>
<path d="M446.354 353.354C446.549 353.158 446.549 352.842 446.354 352.646L443.172 349.464C442.976 349.269 442.66 349.269 442.464 349.464C442.269 349.66 442.269 349.976 442.464 350.172L445.293 353L442.464 355.828C442.269 356.024 442.269 356.34 442.464 356.536C442.66 356.731 442.976 356.731 443.172 356.536L446.354 353.354ZM317 353.5L446 353.5L446 352.5L317 352.5L317 353.5Z" fill="black"/>
<path d="M318.646 55.6464C318.451 55.8417 318.451 56.1583 318.646 56.3536L321.828 59.5355C322.024 59.7308 322.34 59.7308 322.536 59.5355C322.731 59.3403 322.731 59.0237 322.536 58.8284L319.707 56L322.536 53.1716C322.731 52.9763 322.731 52.6597 322.536 52.4645C322.34 52.2692 322.024 52.2692 321.828 52.4645L318.646 55.6464ZM319 56.5L448 56.5L448 55.5L319 55.5L319 56.5Z" fill="black"/>
<path d="M318.646 213.646C318.451 213.842 318.451 214.158 318.646 214.354L321.828 217.536C322.024 217.731 322.34 217.731 322.536 217.536C322.731 217.34 322.731 217.024 322.536 216.828L319.707 214L322.536 211.172C322.731 210.976 322.731 210.66 322.536 210.464C322.34 210.269 322.024 210.269 321.828 210.464L318.646 213.646ZM319 214.5L448 214.5L448 213.5L319 213.5L319 214.5Z" fill="black"/>
<path d="M318.646 90.6464C318.451 90.8417 318.451 91.1583 318.646 91.3536L321.828 94.5355C322.024 94.7308 322.34 94.7308 322.536 94.5355C322.731 94.3403 322.731 94.0237 322.536 93.8284L319.707 91L322.536 88.1716C322.731 87.9763 322.731 87.6597 322.536 87.4645C322.34 87.2692 322.024 87.2692 321.828 87.4645L318.646 90.6464ZM319 91.5L448 91.5L448 90.5L319 90.5L319 91.5Z" fill="black"/>
</svg>
