<svg width="448" height="458" viewBox="0 0 448 458" fill="none" xmlns="http://www.w3.org/2000/svg">
<path d="M223.646 191.354C223.842 191.549 224.158 191.549 224.354 191.354L227.536 188.172C227.731 187.976 227.731 187.66 227.536 187.464C227.34 187.269 227.024 187.269 226.828 187.464L224 190.293L221.172 187.464C220.976 187.269 220.66 187.269 220.464 187.464C220.269 187.66 220.269 187.976 220.464 188.172L223.646 191.354ZM223.5 159L223.5 191L224.5 191L224.5 159L223.5 159Z" fill="black"/>
<path d="M223.646 331.354C223.842 331.549 224.158 331.549 224.354 331.354L227.536 328.172C227.731 327.976 227.731 327.66 227.536 327.464C227.34 327.269 227.024 327.269 226.828 327.464L224 330.293L221.172 327.464C220.976 327.269 220.66 327.269 220.464 327.464C220.269 327.66 220.269 327.976 220.464 328.172L223.646 331.354ZM223.5 299L223.5 331L224.5 331L224.5 299L223.5 299Z" fill="black"/>
<path d="M114 51C114 39.9543 122.954 31 134 31H315C326.046 31 335 39.9543 335 51V438C335 449.046 326.046 458 315 458H134C122.954 458 114 449.046 114 438V51Z" fill="#4285F4" fill-opacity="0.2"/>
<path d="M139.5 214C139.5 203.23 148.23 194.5 159 194.5H289C299.77 194.5 308.5 203.23 308.5 214V276C308.5 286.77 299.77 295.5 289 295.5H159C148.23 295.5 139.5 286.77 139.5 276V214Z" fill="#4285F4" stroke="#4285F4"/>
<path d="M139.5 74C139.5 63.2304 148.23 54.5 159 54.5H289C299.77 54.5 308.5 63.2304 308.5 74V136C308.5 146.77 299.77 155.5 289 155.5H159C148.23 155.5 139.5 146.77 139.5 136V74Z" fill="#4285F4" stroke="#4285F4"/>
<path d="M139.5 354C139.5 343.23 148.23 334.5 159 334.5H289C299.77 334.5 308.5 343.23 308.5 354V416C308.5 426.77 299.77 435.5 289 435.5H159C148.23 435.5 139.5 426.77 139.5 416V354Z" fill="#4285F4" stroke="#4285F4"/>
<path d="M186.372 109.46C185.82 109.46 185.36 109.364 184.992 109.172C184.624 108.988 184.284 108.752 183.972 108.464L184.632 107.696C184.888 107.952 185.152 108.144 185.424 108.272C185.696 108.408 186.004 108.476 186.348 108.476C186.908 108.476 187.336 108.34 187.632 108.068C187.928 107.804 188.08 107.452 188.088 107.012V106.1C187.92 106.396 187.66 106.64 187.308 106.832C186.956 107.024 186.54 107.12 186.06 107.12C185.596 107.12 185.172 107.004 184.788 106.772C184.412 106.54 184.108 106.228 183.876 105.836C183.652 105.436 183.54 104.988 183.54 104.492C183.54 103.972 183.66 103.512 183.9 103.112C184.14 102.712 184.456 102.4 184.848 102.176C185.24 101.944 185.668 101.828 186.132 101.828C186.564 101.828 186.956 101.912 187.308 102.08C187.66 102.248 187.924 102.464 188.1 102.728L188.196 102.032H189.216V107.036C189.216 107.484 189.1 107.892 188.868 108.26C188.636 108.628 188.308 108.92 187.884 109.136C187.46 109.352 186.956 109.46 186.372 109.46ZM184.668 104.456C184.668 104.784 184.744 105.08 184.896 105.344C185.048 105.6 185.252 105.808 185.508 105.968C185.772 106.12 186.064 106.196 186.384 106.196C186.816 106.196 187.184 106.08 187.488 105.848C187.8 105.608 188 105.304 188.088 104.936V103.952C187.984 103.6 187.776 103.312 187.464 103.088C187.152 102.864 186.792 102.752 186.384 102.752C186.056 102.752 185.76 102.824 185.496 102.968C185.24 103.112 185.036 103.312 184.884 103.568C184.74 103.824 184.668 104.12 184.668 104.456ZM193.748 98.324C194.324 98.324 194.844 98.428 195.308 98.636C195.772 98.836 196.14 99.14 196.412 99.548C196.684 99.948 196.82 100.436 196.82 101.012C196.82 101.508 196.708 101.988 196.484 102.452C196.268 102.916 195.9 103.268 195.38 103.508L197.564 107H196.208L194.156 103.796C194.068 103.804 193.976 103.808 193.88 103.808H192.596V107H191.432V98.324H193.748ZM193.856 102.68C194.32 102.68 194.676 102.596 194.924 102.428C195.18 102.252 195.36 102.04 195.464 101.792C195.568 101.536 195.62 101.292 195.62 101.06C195.62 100.828 195.564 100.588 195.452 100.34C195.34 100.092 195.16 99.88 194.912 99.704C194.672 99.528 194.348 99.44 193.94 99.44H192.596V102.68H193.856ZM201.681 98.324C202.617 98.324 203.353 98.56 203.889 99.032C204.425 99.504 204.693 100.164 204.693 101.012C204.693 101.356 204.641 101.696 204.537 102.032C204.433 102.36 204.265 102.66 204.033 102.932C203.809 103.196 203.513 103.412 203.145 103.58C202.777 103.74 202.329 103.82 201.801 103.82H200.517V107H199.353V98.324H201.681ZM201.801 102.68C202.137 102.68 202.417 102.628 202.641 102.524C202.865 102.412 203.041 102.268 203.169 102.092C203.305 101.916 203.401 101.736 203.457 101.552C203.513 101.36 203.541 101.188 203.541 101.036C203.541 100.804 203.485 100.564 203.373 100.316C203.269 100.068 203.093 99.86 202.845 99.692C202.605 99.524 202.277 99.44 201.861 99.44H200.517V102.68H201.801ZM212.862 106.352C212.718 106.448 212.522 106.556 212.274 106.676C212.026 106.796 211.734 106.9 211.398 106.988C211.07 107.068 210.71 107.104 210.318 107.096C209.638 107.088 209.03 106.968 208.494 106.736C207.958 106.504 207.498 106.188 207.114 105.788C206.738 105.38 206.45 104.916 206.25 104.396C206.05 103.876 205.95 103.32 205.95 102.728C205.95 102.08 206.054 101.484 206.262 100.94C206.478 100.388 206.778 99.912 207.162 99.512C207.546 99.104 207.998 98.788 208.518 98.564C209.046 98.34 209.622 98.228 210.246 98.228C210.766 98.228 211.238 98.3 211.662 98.444C212.086 98.58 212.45 98.74 212.754 98.924L212.286 100.016C212.046 99.856 211.754 99.704 211.41 99.56C211.066 99.416 210.69 99.344 210.282 99.344C209.858 99.344 209.458 99.432 209.082 99.608C208.706 99.776 208.374 100.012 208.086 100.316C207.798 100.612 207.57 100.964 207.402 101.372C207.242 101.772 207.162 102.204 207.162 102.668C207.162 103.292 207.29 103.856 207.546 104.36C207.81 104.856 208.178 105.248 208.65 105.536C209.13 105.824 209.69 105.968 210.33 105.968C210.778 105.968 211.17 105.904 211.506 105.776C211.85 105.64 212.134 105.484 212.358 105.308L212.862 106.352ZM225.423 106.256C225.255 106.392 225.011 106.524 224.691 106.652C224.371 106.78 224.027 106.888 223.659 106.976C223.291 107.056 222.943 107.096 222.615 107.096C221.695 107.096 220.895 106.912 220.215 106.544C219.535 106.168 219.007 105.66 218.631 105.02C218.263 104.372 218.079 103.64 218.079 102.824C218.079 102.096 218.195 101.448 218.427 100.88C218.667 100.312 218.991 99.832 219.399 99.44C219.815 99.04 220.291 98.74 220.827 98.54C221.363 98.332 221.931 98.228 222.531 98.228C223.035 98.228 223.503 98.288 223.935 98.408C224.367 98.528 224.747 98.68 225.075 98.864L224.691 99.932C224.523 99.836 224.319 99.748 224.079 99.668C223.847 99.588 223.607 99.524 223.359 99.476C223.111 99.428 222.883 99.404 222.675 99.404C221.995 99.404 221.399 99.54 220.887 99.812C220.375 100.084 219.979 100.468 219.699 100.964C219.419 101.46 219.279 102.048 219.279 102.728C219.279 103.36 219.419 103.92 219.699 104.408C219.979 104.888 220.371 105.264 220.875 105.536C221.379 105.8 221.967 105.932 222.639 105.932C222.927 105.932 223.215 105.904 223.503 105.848C223.791 105.792 224.035 105.704 224.235 105.584V103.88H222.519V102.752H225.423V106.256ZM229.443 107.12C228.971 107.12 228.543 107.02 228.159 106.82C227.783 106.62 227.483 106.328 227.259 105.944C227.043 105.552 226.935 105.076 226.935 104.516C226.935 103.956 227.047 103.476 227.271 103.076C227.503 102.676 227.811 102.368 228.195 102.152C228.587 101.936 229.015 101.828 229.479 101.828C229.927 101.828 230.307 101.924 230.619 102.116C230.931 102.308 231.175 102.54 231.351 102.812L231.435 102.032H232.467V107H231.351V106.184C231.255 106.312 231.115 106.448 230.931 106.592C230.755 106.736 230.539 106.86 230.283 106.964C230.035 107.068 229.755 107.12 229.443 107.12ZM229.743 106.196C230.151 106.196 230.499 106.084 230.787 105.86C231.075 105.628 231.263 105.316 231.351 104.924V103.94C231.255 103.596 231.055 103.312 230.751 103.088C230.447 102.864 230.099 102.752 229.707 102.752C229.403 102.752 229.127 102.824 228.879 102.968C228.631 103.112 228.431 103.312 228.279 103.568C228.135 103.824 228.063 104.12 228.063 104.456C228.063 104.784 228.139 105.08 228.291 105.344C228.443 105.6 228.647 105.808 228.903 105.968C229.159 106.12 229.439 106.196 229.743 106.196ZM234.89 99.848H236.018V102.044H237.374V102.932H236.018V107H234.89V102.932H233.978V102.044H234.89V99.848ZM241.038 107.12C240.478 107.12 239.99 107.008 239.574 106.784C239.166 106.552 238.85 106.236 238.626 105.836C238.41 105.436 238.302 104.984 238.302 104.48C238.302 103.992 238.422 103.548 238.662 103.148C238.91 102.74 239.242 102.42 239.658 102.188C240.082 101.948 240.55 101.828 241.062 101.828C241.718 101.828 242.262 102.02 242.694 102.404C243.126 102.788 243.422 103.316 243.582 103.988L239.646 105.368C239.782 105.616 239.974 105.812 240.222 105.956C240.47 106.092 240.75 106.16 241.062 106.16C241.286 106.16 241.498 106.12 241.698 106.04C241.898 105.96 242.09 105.856 242.274 105.728L242.79 106.556C242.534 106.724 242.25 106.86 241.938 106.964C241.634 107.068 241.334 107.12 241.038 107.12ZM239.406 104.42C239.398 104.516 239.402 104.608 239.418 104.696L242.31 103.628C242.198 103.388 242.034 103.176 241.818 102.992C241.61 102.808 241.33 102.716 240.978 102.716C240.522 102.716 240.146 102.876 239.85 103.196C239.554 103.516 239.406 103.924 239.406 104.42ZM248.031 102.032L249.375 105.128L250.635 102.032H251.739L249.447 107.3L247.851 103.892L246.399 107.3L244.095 102.032H245.199L246.519 105.044L247.455 102.884L247.059 102.032H248.031ZM254.861 107.12C254.389 107.12 253.961 107.02 253.576 106.82C253.201 106.62 252.901 106.328 252.677 105.944C252.461 105.552 252.353 105.076 252.353 104.516C252.353 103.956 252.465 103.476 252.689 103.076C252.921 102.676 253.229 102.368 253.613 102.152C254.005 101.936 254.433 101.828 254.896 101.828C255.345 101.828 255.725 101.924 256.037 102.116C256.349 102.308 256.593 102.54 256.769 102.812L256.853 102.032H257.885V107H256.769V106.184C256.673 106.312 256.533 106.448 256.349 106.592C256.173 106.736 255.957 106.86 255.701 106.964C255.453 107.068 255.173 107.12 254.861 107.12ZM255.161 106.196C255.569 106.196 255.917 106.084 256.205 105.86C256.493 105.628 256.681 105.316 256.769 104.924V103.94C256.673 103.596 256.473 103.312 256.169 103.088C255.865 102.864 255.517 102.752 255.125 102.752C254.821 102.752 254.545 102.824 254.297 102.968C254.049 103.112 253.849 103.312 253.697 103.568C253.553 103.824 253.481 104.12 253.481 104.456C253.481 104.784 253.557 105.08 253.709 105.344C253.861 105.6 254.065 105.808 254.321 105.968C254.577 106.12 254.857 106.196 255.161 106.196ZM260.247 109.388L261.387 106.844L259.083 102.032H260.343L261.939 105.572L263.523 102.032H264.555L261.351 109.388H260.247Z" fill="white"/>
<path d="M184.62 386.352C184.476 386.448 184.28 386.556 184.032 386.676C183.784 386.796 183.492 386.9 183.156 386.988C182.828 387.068 182.468 387.104 182.076 387.096C181.396 387.088 180.788 386.968 180.252 386.736C179.716 386.504 179.256 386.188 178.872 385.788C178.496 385.38 178.208 384.916 178.008 384.396C177.808 383.876 177.708 383.32 177.708 382.728C177.708 382.08 177.812 381.484 178.02 380.94C178.236 380.388 178.536 379.912 178.92 379.512C179.304 379.104 179.756 378.788 180.276 378.564C180.804 378.34 181.38 378.228 182.004 378.228C182.524 378.228 182.996 378.3 183.42 378.444C183.844 378.58 184.208 378.74 184.512 378.924L184.044 380.016C183.804 379.856 183.512 379.704 183.168 379.56C182.824 379.416 182.448 379.344 182.04 379.344C181.616 379.344 181.216 379.432 180.84 379.608C180.464 379.776 180.132 380.012 179.844 380.316C179.556 380.612 179.328 380.964 179.16 381.372C179 381.772 178.92 382.204 178.92 382.668C178.92 383.292 179.048 383.856 179.304 384.36C179.568 384.856 179.936 385.248 180.408 385.536C180.888 385.824 181.448 385.968 182.088 385.968C182.536 385.968 182.928 385.904 183.264 385.776C183.608 385.64 183.892 385.484 184.116 385.308L184.62 386.352ZM186.304 377.7H187.42V387H186.304V377.7ZM188.931 384.468C188.931 383.972 189.047 383.524 189.279 383.124C189.519 382.724 189.847 382.408 190.263 382.176C190.679 381.944 191.155 381.828 191.691 381.828C192.227 381.828 192.699 381.944 193.107 382.176C193.515 382.408 193.831 382.724 194.055 383.124C194.287 383.524 194.403 383.972 194.403 384.468C194.403 384.964 194.287 385.412 194.055 385.812C193.831 386.212 193.511 386.532 193.095 386.772C192.687 387.004 192.211 387.12 191.667 387.12C191.139 387.12 190.667 387.012 190.251 386.796C189.843 386.58 189.519 386.272 189.279 385.872C189.047 385.472 188.931 385.004 188.931 384.468ZM190.059 384.48C190.059 384.8 190.127 385.092 190.263 385.356C190.407 385.612 190.599 385.816 190.839 385.968C191.079 386.12 191.351 386.196 191.655 386.196C191.967 386.196 192.243 386.12 192.483 385.968C192.723 385.816 192.911 385.612 193.047 385.356C193.191 385.092 193.263 384.8 193.263 384.48C193.263 384.16 193.191 383.872 193.047 383.616C192.911 383.352 192.723 383.144 192.483 382.992C192.243 382.832 191.967 382.752 191.655 382.752C191.351 382.752 191.075 382.832 190.827 382.992C190.587 383.152 190.399 383.364 190.263 383.628C190.127 383.884 190.059 384.168 190.059 384.48ZM197.486 387.192C197.03 387.192 196.654 387.056 196.358 386.784C196.062 386.504 195.91 386.144 195.902 385.704V382.032H197.018V385.308C197.034 385.58 197.114 385.8 197.258 385.968C197.402 386.136 197.626 386.224 197.93 386.232C198.202 386.232 198.45 386.152 198.674 385.992C198.898 385.824 199.074 385.6 199.202 385.32C199.338 385.032 199.406 384.708 199.406 384.348V382.032H200.522V387H199.514L199.43 386.064C199.27 386.392 199.014 386.664 198.662 386.88C198.318 387.088 197.926 387.192 197.486 387.192ZM204.492 387.12C204.02 387.12 203.596 387.012 203.22 386.796C202.852 386.572 202.56 386.26 202.344 385.86C202.136 385.452 202.032 384.98 202.032 384.444C202.032 383.9 202.144 383.432 202.368 383.04C202.592 382.648 202.9 382.348 203.292 382.14C203.692 381.932 204.136 381.828 204.624 381.828C205 381.828 205.36 381.908 205.704 382.068C206.048 382.22 206.324 382.432 206.532 382.704V377.7H207.648V387H206.52V386.232C206.28 386.496 205.984 386.712 205.632 386.88C205.288 387.04 204.908 387.12 204.492 387.12ZM204.84 386.16C205.272 386.16 205.636 386.044 205.932 385.812C206.228 385.58 206.42 385.268 206.508 384.876V383.94C206.42 383.588 206.22 383.296 205.908 383.064C205.604 382.832 205.248 382.716 204.84 382.716C204.536 382.716 204.256 382.792 204 382.944C203.744 383.088 203.54 383.288 203.388 383.544C203.236 383.8 203.16 384.096 203.16 384.432C203.16 384.752 203.236 385.044 203.388 385.308C203.54 385.572 203.744 385.78 204 385.932C204.256 386.084 204.536 386.16 204.84 386.16ZM218.138 379.872C217.842 379.72 217.518 379.588 217.166 379.476C216.814 379.364 216.474 379.308 216.146 379.308C215.674 379.308 215.298 379.416 215.018 379.632C214.746 379.848 214.61 380.14 214.61 380.508C214.61 380.772 214.698 380.996 214.874 381.18C215.058 381.364 215.29 381.528 215.57 381.672C215.858 381.808 216.162 381.936 216.482 382.056C216.842 382.192 217.19 382.356 217.526 382.548C217.862 382.74 218.138 383 218.354 383.328C218.578 383.648 218.69 384.08 218.69 384.624C218.69 385.088 218.574 385.508 218.342 385.884C218.11 386.252 217.782 386.548 217.358 386.772C216.934 386.988 216.43 387.096 215.846 387.096C215.27 387.096 214.734 387.004 214.238 386.82C213.75 386.636 213.334 386.424 212.99 386.184L213.506 385.26C213.786 385.476 214.13 385.664 214.538 385.824C214.954 385.984 215.35 386.064 215.726 386.064C216.006 386.064 216.278 386.016 216.542 385.92C216.814 385.824 217.038 385.672 217.214 385.464C217.39 385.248 217.478 384.972 217.478 384.636C217.478 384.348 217.398 384.104 217.238 383.904C217.078 383.704 216.87 383.536 216.614 383.4C216.366 383.256 216.094 383.128 215.798 383.016C215.526 382.92 215.25 382.808 214.97 382.68C214.69 382.552 214.43 382.4 214.19 382.224C213.958 382.04 213.77 381.816 213.626 381.552C213.482 381.288 213.41 380.968 213.41 380.592C213.41 380.136 213.518 379.74 213.734 379.404C213.958 379.06 214.262 378.792 214.646 378.6C215.03 378.4 215.474 378.292 215.978 378.276C216.53 378.276 217.018 378.344 217.442 378.48C217.874 378.616 218.254 378.78 218.582 378.972L218.138 379.872ZM220.095 382.668C220.095 382.068 220.207 381.5 220.431 380.964C220.663 380.428 220.983 379.956 221.391 379.548C221.799 379.14 222.267 378.82 222.795 378.588C223.331 378.348 223.903 378.228 224.511 378.228C225.119 378.228 225.691 378.348 226.227 378.588C226.771 378.82 227.247 379.14 227.655 379.548C228.063 379.956 228.383 380.428 228.615 380.964C228.847 381.5 228.963 382.068 228.963 382.668C228.963 383.3 228.839 383.892 228.591 384.444C228.343 384.988 228.007 385.46 227.583 385.86H229.335V387H225.435C225.131 387.064 224.823 387.096 224.511 387.096C223.903 387.096 223.331 386.984 222.795 386.76C222.267 386.536 221.799 386.224 221.391 385.824C220.983 385.416 220.663 384.944 220.431 384.408C220.207 383.872 220.095 383.292 220.095 382.668ZM221.295 382.68C221.295 383.136 221.379 383.564 221.547 383.964C221.715 384.356 221.947 384.704 222.243 385.008C222.539 385.304 222.883 385.54 223.275 385.716C223.667 385.884 224.091 385.968 224.547 385.968C225.147 385.968 225.687 385.82 226.167 385.524C226.655 385.228 227.043 384.832 227.331 384.336C227.619 383.84 227.763 383.284 227.763 382.668C227.763 382.22 227.679 381.796 227.511 381.396C227.343 380.996 227.111 380.648 226.815 380.352C226.519 380.048 226.175 379.812 225.783 379.644C225.391 379.468 224.971 379.38 224.523 379.38C224.067 379.38 223.643 379.468 223.251 379.644C222.859 379.812 222.515 380.052 222.219 380.364C221.931 380.668 221.703 381.02 221.535 381.42C221.375 381.812 221.295 382.232 221.295 382.68ZM231.287 378.324H232.451V385.872H236.867V387H231.287V378.324ZM244.877 378.324C245.813 378.324 246.549 378.56 247.085 379.032C247.621 379.504 247.889 380.164 247.889 381.012C247.889 381.356 247.837 381.696 247.733 382.032C247.629 382.36 247.461 382.66 247.229 382.932C247.005 383.196 246.709 383.412 246.341 383.58C245.973 383.74 245.525 383.82 244.997 383.82H243.713V387H242.549V378.324H244.877ZM244.997 382.68C245.333 382.68 245.613 382.628 245.837 382.524C246.061 382.412 246.237 382.268 246.365 382.092C246.501 381.916 246.597 381.736 246.653 381.552C246.709 381.36 246.737 381.188 246.737 381.036C246.737 380.804 246.681 380.564 246.569 380.316C246.465 380.068 246.289 379.86 246.041 379.692C245.801 379.524 245.473 379.44 245.057 379.44H243.713V382.68H244.997ZM250.406 382.032L250.49 383.196C250.626 382.916 250.814 382.676 251.054 382.476C251.294 382.268 251.542 382.112 251.798 382.008C252.062 381.896 252.29 381.836 252.482 381.828L252.434 382.944C252.058 382.928 251.726 383.004 251.438 383.172C251.15 383.332 250.926 383.552 250.766 383.832C250.606 384.112 250.526 384.412 250.526 384.732V387H249.41V382.032H250.406ZM253.278 384.468C253.278 383.972 253.394 383.524 253.626 383.124C253.866 382.724 254.194 382.408 254.61 382.176C255.026 381.944 255.502 381.828 256.038 381.828C256.574 381.828 257.046 381.944 257.454 382.176C257.862 382.408 258.178 382.724 258.402 383.124C258.634 383.524 258.75 383.972 258.75 384.468C258.75 384.964 258.634 385.412 258.402 385.812C258.178 386.212 257.858 386.532 257.442 386.772C257.034 387.004 256.558 387.12 256.014 387.12C255.486 387.12 255.014 387.012 254.598 386.796C254.19 386.58 253.866 386.272 253.626 385.872C253.394 385.472 253.278 385.004 253.278 384.468ZM254.406 384.48C254.406 384.8 254.474 385.092 254.61 385.356C254.754 385.612 254.946 385.816 255.186 385.968C255.426 386.12 255.698 386.196 256.002 386.196C256.314 386.196 256.59 386.12 256.83 385.968C257.07 385.816 257.258 385.612 257.394 385.356C257.538 385.092 257.61 384.8 257.61 384.48C257.61 384.16 257.538 383.872 257.394 383.616C257.258 383.352 257.07 383.144 256.83 382.992C256.59 382.832 256.314 382.752 256.002 382.752C255.698 382.752 255.422 382.832 255.174 382.992C254.934 383.152 254.746 383.364 254.61 383.628C254.474 383.884 254.406 384.168 254.406 384.48ZM264.524 387H263.168L261.824 385.236L260.588 387H259.448L261.272 384.504L259.388 382.032H260.78L262.076 383.76L263.204 382.032H264.332L262.592 384.444L264.524 387ZM266.142 389.388L267.282 386.844L264.978 382.032H266.238L267.834 385.572L269.418 382.032H270.45L267.246 389.388H266.142Z" fill="white"/>
<path d="M212.372 249.46C211.82 249.46 211.36 249.364 210.992 249.172C210.624 248.988 210.284 248.752 209.972 248.464L210.632 247.696C210.888 247.952 211.152 248.144 211.424 248.272C211.696 248.408 212.004 248.476 212.348 248.476C212.908 248.476 213.336 248.34 213.632 248.068C213.928 247.804 214.08 247.452 214.088 247.012V246.1C213.92 246.396 213.66 246.64 213.308 246.832C212.956 247.024 212.54 247.12 212.06 247.12C211.596 247.12 211.172 247.004 210.788 246.772C210.412 246.54 210.108 246.228 209.876 245.836C209.652 245.436 209.54 244.988 209.54 244.492C209.54 243.972 209.66 243.512 209.9 243.112C210.14 242.712 210.456 242.4 210.848 242.176C211.24 241.944 211.668 241.828 212.132 241.828C212.564 241.828 212.956 241.912 213.308 242.08C213.66 242.248 213.924 242.464 214.1 242.728L214.196 242.032H215.216V247.036C215.216 247.484 215.1 247.892 214.868 248.26C214.636 248.628 214.308 248.92 213.884 249.136C213.46 249.352 212.956 249.46 212.372 249.46ZM210.668 244.456C210.668 244.784 210.744 245.08 210.896 245.344C211.048 245.6 211.252 245.808 211.508 245.968C211.772 246.12 212.064 246.196 212.384 246.196C212.816 246.196 213.184 246.08 213.488 245.848C213.8 245.608 214 245.304 214.088 244.936V243.952C213.984 243.6 213.776 243.312 213.464 243.088C213.152 242.864 212.792 242.752 212.384 242.752C212.056 242.752 211.76 242.824 211.496 242.968C211.24 243.112 211.036 243.312 210.884 243.568C210.74 243.824 210.668 244.12 210.668 244.456ZM219.748 238.324C220.324 238.324 220.844 238.428 221.308 238.636C221.772 238.836 222.14 239.14 222.412 239.548C222.684 239.948 222.82 240.436 222.82 241.012C222.82 241.508 222.708 241.988 222.484 242.452C222.268 242.916 221.9 243.268 221.38 243.508L223.564 247H222.208L220.156 243.796C220.068 243.804 219.976 243.808 219.88 243.808H218.596V247H217.432V238.324H219.748ZM219.856 242.68C220.32 242.68 220.676 242.596 220.924 242.428C221.18 242.252 221.36 242.04 221.464 241.792C221.568 241.536 221.62 241.292 221.62 241.06C221.62 240.828 221.564 240.588 221.452 240.34C221.34 240.092 221.16 239.88 220.912 239.704C220.672 239.528 220.348 239.44 219.94 239.44H218.596V242.68H219.856ZM227.681 238.324C228.617 238.324 229.353 238.56 229.889 239.032C230.425 239.504 230.693 240.164 230.693 241.012C230.693 241.356 230.641 241.696 230.537 242.032C230.433 242.36 230.265 242.66 230.033 242.932C229.809 243.196 229.513 243.412 229.145 243.58C228.777 243.74 228.329 243.82 227.801 243.82H226.517V247H225.353V238.324H227.681ZM227.801 242.68C228.137 242.68 228.417 242.628 228.641 242.524C228.865 242.412 229.041 242.268 229.169 242.092C229.305 241.916 229.401 241.736 229.457 241.552C229.513 241.36 229.541 241.188 229.541 241.036C229.541 240.804 229.485 240.564 229.373 240.316C229.269 240.068 229.093 239.86 228.845 239.692C228.605 239.524 228.277 239.44 227.861 239.44H226.517V242.68H227.801ZM238.862 246.352C238.718 246.448 238.522 246.556 238.274 246.676C238.026 246.796 237.734 246.9 237.398 246.988C237.07 247.068 236.71 247.104 236.318 247.096C235.638 247.088 235.03 246.968 234.494 246.736C233.958 246.504 233.498 246.188 233.114 245.788C232.738 245.38 232.45 244.916 232.25 244.396C232.05 243.876 231.95 243.32 231.95 242.728C231.95 242.08 232.054 241.484 232.262 240.94C232.478 240.388 232.778 239.912 233.162 239.512C233.546 239.104 233.998 238.788 234.518 238.564C235.046 238.34 235.622 238.228 236.246 238.228C236.766 238.228 237.238 238.3 237.662 238.444C238.086 238.58 238.45 238.74 238.754 238.924L238.286 240.016C238.046 239.856 237.754 239.704 237.41 239.56C237.066 239.416 236.69 239.344 236.282 239.344C235.858 239.344 235.458 239.432 235.082 239.608C234.706 239.776 234.374 240.012 234.086 240.316C233.798 240.612 233.57 240.964 233.402 241.372C233.242 241.772 233.162 242.204 233.162 242.668C233.162 243.292 233.29 243.856 233.546 244.36C233.81 244.856 234.178 245.248 234.65 245.536C235.13 245.824 235.69 245.968 236.33 245.968C236.778 245.968 237.17 245.904 237.506 245.776C237.85 245.64 238.134 245.484 238.358 245.308L238.862 246.352Z" fill="white"/>
<path d="M366.608 68.048C366.04 69.584 365.476 71.116 364.916 72.644C364.356 74.172 363.792 75.7 363.224 77.228H362.204C362.772 75.7 363.336 74.172 363.896 72.644C364.456 71.116 365.02 69.584 365.588 68.048H366.608ZM367.589 77V67.7H368.681V72.932C368.857 72.612 369.117 72.352 369.461 72.152C369.805 71.944 370.209 71.84 370.673 71.84C371.137 71.84 371.517 71.98 371.813 72.26C372.117 72.532 372.277 72.888 372.293 73.328V77H371.165V73.712C371.149 73.448 371.065 73.232 370.913 73.064C370.769 72.896 370.541 72.808 370.229 72.8C369.941 72.8 369.681 72.884 369.449 73.052C369.225 73.212 369.045 73.432 368.909 73.712C368.773 73.992 368.705 74.312 368.705 74.672V77H367.589ZM376.526 77.12C375.966 77.12 375.478 77.008 375.062 76.784C374.654 76.552 374.338 76.236 374.114 75.836C373.898 75.436 373.79 74.984 373.79 74.48C373.79 73.992 373.91 73.548 374.15 73.148C374.398 72.74 374.73 72.42 375.146 72.188C375.57 71.948 376.038 71.828 376.55 71.828C377.206 71.828 377.75 72.02 378.182 72.404C378.614 72.788 378.91 73.316 379.07 73.988L375.134 75.368C375.27 75.616 375.462 75.812 375.71 75.956C375.958 76.092 376.238 76.16 376.55 76.16C376.774 76.16 376.986 76.12 377.186 76.04C377.386 75.96 377.578 75.856 377.762 75.728L378.278 76.556C378.022 76.724 377.738 76.86 377.426 76.964C377.122 77.068 376.822 77.12 376.526 77.12ZM374.894 74.42C374.886 74.516 374.89 74.608 374.906 74.696L377.798 73.628C377.686 73.388 377.522 73.176 377.306 72.992C377.098 72.808 376.818 72.716 376.466 72.716C376.01 72.716 375.634 72.876 375.338 73.196C375.042 73.516 374.894 73.924 374.894 74.42ZM382.532 77.12C382.06 77.12 381.632 77.02 381.248 76.82C380.872 76.62 380.572 76.328 380.348 75.944C380.132 75.552 380.024 75.076 380.024 74.516C380.024 73.956 380.136 73.476 380.36 73.076C380.592 72.676 380.9 72.368 381.284 72.152C381.676 71.936 382.104 71.828 382.568 71.828C383.016 71.828 383.396 71.924 383.708 72.116C384.02 72.308 384.264 72.54 384.44 72.812L384.524 72.032H385.556V77H384.44V76.184C384.344 76.312 384.204 76.448 384.02 76.592C383.844 76.736 383.628 76.86 383.372 76.964C383.124 77.068 382.844 77.12 382.532 77.12ZM382.832 76.196C383.24 76.196 383.588 76.084 383.876 75.86C384.164 75.628 384.352 75.316 384.44 74.924V73.94C384.344 73.596 384.144 73.312 383.84 73.088C383.536 72.864 383.188 72.752 382.796 72.752C382.492 72.752 382.216 72.824 381.968 72.968C381.72 73.112 381.52 73.312 381.368 73.568C381.224 73.824 381.152 74.12 381.152 74.456C381.152 74.784 381.228 75.08 381.38 75.344C381.532 75.6 381.736 75.808 381.992 75.968C382.248 76.12 382.528 76.196 382.832 76.196ZM387.499 67.7H388.615V77H387.499V67.7ZM391.038 69.848H392.166V72.044H393.522V72.932H392.166V77H391.038V72.932H390.126V72.044H391.038V69.848ZM394.882 77V67.7H395.974V72.932C396.15 72.612 396.41 72.352 396.754 72.152C397.098 71.944 397.502 71.84 397.966 71.84C398.43 71.84 398.81 71.98 399.106 72.26C399.41 72.532 399.57 72.888 399.586 73.328V77H398.458V73.712C398.442 73.448 398.358 73.232 398.206 73.064C398.062 72.896 397.834 72.808 397.522 72.8C397.234 72.8 396.974 72.884 396.742 73.052C396.518 73.212 396.338 73.432 396.202 73.712C396.066 73.992 395.998 74.312 395.998 74.672V77H394.882Z" fill="black"/>
<path d="M52.62 95.352C52.476 95.448 52.28 95.556 52.032 95.676C51.784 95.796 51.492 95.9 51.156 95.988C50.828 96.068 50.468 96.104 50.076 96.096C49.396 96.088 48.788 95.968 48.252 95.736C47.716 95.504 47.256 95.188 46.872 94.788C46.496 94.38 46.208 93.916 46.008 93.396C45.808 92.876 45.708 92.32 45.708 91.728C45.708 91.08 45.812 90.484 46.02 89.94C46.236 89.388 46.536 88.912 46.92 88.512C47.304 88.104 47.756 87.788 48.276 87.564C48.804 87.34 49.38 87.228 50.004 87.228C50.524 87.228 50.996 87.3 51.42 87.444C51.844 87.58 52.208 87.74 52.512 87.924L52.044 89.016C51.804 88.856 51.512 88.704 51.168 88.56C50.824 88.416 50.448 88.344 50.04 88.344C49.616 88.344 49.216 88.432 48.84 88.608C48.464 88.776 48.132 89.012 47.844 89.316C47.556 89.612 47.328 89.964 47.16 90.372C47 90.772 46.92 91.204 46.92 91.668C46.92 92.292 47.048 92.856 47.304 93.36C47.568 93.856 47.936 94.248 48.408 94.536C48.888 94.824 49.448 94.968 50.088 94.968C50.536 94.968 50.928 94.904 51.264 94.776C51.608 94.64 51.892 94.484 52.116 94.308L52.62 95.352ZM54.304 86.7H55.42V96H54.304V86.7ZM57.3626 91.032H58.4786V96H57.3626V91.032ZM57.2786 89.244C57.2786 89.06 57.3466 88.912 57.4826 88.8C57.6266 88.68 57.7826 88.62 57.9506 88.62C58.1186 88.62 58.2706 88.68 58.4066 88.8C58.5426 88.912 58.6106 89.06 58.6106 89.244C58.6106 89.428 58.5426 89.58 58.4066 89.7C58.2706 89.812 58.1186 89.868 57.9506 89.868C57.7826 89.868 57.6266 89.812 57.4826 89.7C57.3466 89.58 57.2786 89.428 57.2786 89.244ZM62.7252 96.12C62.1652 96.12 61.6772 96.008 61.2612 95.784C60.8532 95.552 60.5372 95.236 60.3132 94.836C60.0972 94.436 59.9892 93.984 59.9892 93.48C59.9892 92.992 60.1092 92.548 60.3492 92.148C60.5972 91.74 60.9292 91.42 61.3452 91.188C61.7692 90.948 62.2372 90.828 62.7492 90.828C63.4052 90.828 63.9492 91.02 64.3812 91.404C64.8132 91.788 65.1092 92.316 65.2692 92.988L61.3332 94.368C61.4692 94.616 61.6612 94.812 61.9092 94.956C62.1572 95.092 62.4372 95.16 62.7492 95.16C62.9732 95.16 63.1852 95.12 63.3852 95.04C63.5852 94.96 63.7772 94.856 63.9612 94.728L64.4772 95.556C64.2212 95.724 63.9372 95.86 63.6252 95.964C63.3212 96.068 63.0212 96.12 62.7252 96.12ZM61.0932 93.42C61.0852 93.516 61.0892 93.608 61.1052 93.696L63.9972 92.628C63.8852 92.388 63.7212 92.176 63.5052 91.992C63.2972 91.808 63.0172 91.716 62.6652 91.716C62.2092 91.716 61.8332 91.876 61.5372 92.196C61.2412 92.516 61.0932 92.924 61.0932 93.42ZM67.6636 91.032L67.7356 91.992C67.9036 91.64 68.1636 91.36 68.5156 91.152C68.8676 90.944 69.2756 90.84 69.7396 90.84C70.2036 90.84 70.5836 90.98 70.8796 91.26C71.1836 91.532 71.3436 91.888 71.3596 92.328V96H70.2316V92.712C70.2156 92.448 70.1316 92.232 69.9796 92.064C69.8356 91.896 69.6076 91.808 69.2956 91.8C68.8636 91.8 68.4996 91.976 68.2036 92.328C67.9156 92.672 67.7716 93.12 67.7716 93.672V96H66.6556V91.032H67.6636ZM73.7684 88.848H74.8964V91.044H76.2524V91.932H74.8964V96H73.7684V91.932H72.8564V91.044H73.7684V88.848ZM79.0166 96.096C78.6566 96.096 78.3086 96.036 77.9726 95.916C77.6446 95.788 77.3726 95.6 77.1566 95.352L77.6366 94.704C77.8366 94.904 78.0486 95.056 78.2726 95.16C78.4966 95.256 78.7126 95.304 78.9206 95.304C79.1606 95.304 79.3686 95.256 79.5446 95.16C79.7286 95.064 79.8206 94.9 79.8206 94.668C79.8206 94.492 79.7606 94.352 79.6406 94.248C79.5286 94.144 79.3806 94.064 79.1966 94.008C79.0206 93.944 78.8366 93.88 78.6446 93.816C77.7966 93.544 77.3726 93.06 77.3726 92.364C77.3726 92.108 77.4366 91.864 77.5646 91.632C77.7006 91.4 77.8966 91.212 78.1526 91.068C78.4166 90.924 78.7406 90.852 79.1246 90.852C79.4686 90.852 79.7766 90.896 80.0486 90.984C80.3206 91.072 80.5766 91.212 80.8166 91.404L80.3726 92.088C80.2286 91.944 80.0566 91.836 79.8566 91.764C79.6646 91.684 79.4886 91.64 79.3286 91.632C79.1126 91.632 78.9206 91.684 78.7526 91.788C78.5926 91.892 78.5126 92.036 78.5126 92.22C78.5046 92.388 78.5566 92.524 78.6686 92.628C78.7806 92.724 78.9246 92.804 79.1006 92.868C79.2846 92.932 79.4686 92.992 79.6526 93.048C80.0126 93.168 80.3166 93.332 80.5646 93.54C80.8206 93.748 80.9486 94.052 80.9486 94.452C80.9486 94.9 80.7886 95.288 80.4686 95.616C80.1486 95.936 79.6646 96.096 79.0166 96.096Z" fill="black"/>
<path d="M28.71 1.752H37.746V4.272H31.32V7.098H37.008V9.618H31.32V12.48H37.998V15H28.71V1.752ZM48.2763 15H45.2343L43.4163 12.642L41.7603 15H39.2583L42.1743 11.04L39.1683 7.134H42.2643L43.9923 9.402L45.3423 7.134H47.8443L45.1443 10.896L48.2763 15ZM50.4969 3.678H53.0169V7.098H54.9249V9.06H53.0169V15H50.4969V9.06H49.2729V7.098H50.4969V3.678ZM60.7129 15.216C59.7529 15.216 58.9369 15.036 58.2649 14.676C57.6049 14.316 57.1009 13.818 56.7529 13.182C56.4049 12.546 56.2309 11.814 56.2309 10.986C56.2309 10.194 56.4349 9.48 56.8429 8.844C57.2509 8.208 57.7969 7.704 58.4809 7.332C59.1649 6.948 59.9269 6.756 60.7669 6.756C61.8949 6.756 62.8189 7.086 63.5389 7.746C64.2709 8.394 64.7449 9.336 64.9609 10.572L59.2009 12.408C59.5849 12.852 60.1069 13.074 60.7669 13.074C61.0429 13.074 61.3069 13.026 61.5589 12.93C61.8229 12.834 62.0809 12.708 62.3329 12.552L63.4489 14.424C63.0289 14.664 62.5729 14.856 62.0809 15C61.6009 15.144 61.1449 15.216 60.7129 15.216ZM58.7149 10.842C58.7149 10.902 58.7149 10.956 58.7149 11.004L62.1709 9.834C62.0629 9.534 61.8889 9.276 61.6489 9.06C61.4089 8.832 61.0489 8.718 60.5689 8.718C60.0049 8.718 59.5549 8.91 59.2189 9.294C58.8829 9.678 58.7149 10.194 58.7149 10.842ZM69.0601 7.134L69.2581 8.934C69.4861 8.478 69.7981 8.088 70.1941 7.764C70.5901 7.428 70.9801 7.176 71.3641 7.008C71.7481 6.828 72.0421 6.738 72.2461 6.738L72.1201 9.258C71.5321 9.186 71.0281 9.282 70.6081 9.546C70.1881 9.81 69.8641 10.158 69.6361 10.59C69.4081 11.022 69.2941 11.466 69.2941 11.922V15H66.7921V7.134H69.0601ZM76.4609 7.134L76.6409 8.394C76.9169 7.902 77.3069 7.506 77.8109 7.206C78.3149 6.906 78.9269 6.756 79.6469 6.756C80.3909 6.756 81.0089 6.978 81.5009 7.422C82.0049 7.854 82.2629 8.418 82.2749 9.114V15H79.7549V10.05C79.7429 9.702 79.6469 9.426 79.4669 9.222C79.2989 9.006 79.0109 8.898 78.6029 8.898C78.0149 8.898 77.5469 9.174 77.1989 9.726C76.8629 10.266 76.6949 10.956 76.6949 11.796V15H74.1749V7.134H76.4609ZM88.1744 15.216C87.4424 15.216 86.7764 15.072 86.1764 14.784C85.5884 14.484 85.1204 14.028 84.7724 13.416C84.4244 12.804 84.2504 12.024 84.2504 11.076C84.2504 10.188 84.4304 9.42 84.7904 8.772C85.1504 8.124 85.6244 7.626 86.2124 7.278C86.8004 6.918 87.4244 6.738 88.0844 6.738C88.8644 6.738 89.4524 6.864 89.8484 7.116C90.2564 7.368 90.5804 7.644 90.8204 7.944L90.9824 7.134H93.3224V15H90.8024V14.028C90.6824 14.148 90.5024 14.304 90.2624 14.496C90.0344 14.688 89.7464 14.856 89.3984 15C89.0504 15.144 88.6424 15.216 88.1744 15.216ZM88.8944 13.164C89.7704 13.164 90.4064 12.768 90.8024 11.976V10.05C90.6584 9.666 90.4064 9.36 90.0464 9.132C89.6984 8.904 89.2844 8.79 88.8044 8.79C88.2644 8.79 87.7964 8.994 87.4004 9.402C87.0044 9.798 86.8064 10.314 86.8064 10.95C86.8064 11.37 86.9024 11.748 87.0944 12.084C87.2864 12.42 87.5384 12.684 87.8504 12.876C88.1744 13.068 88.5224 13.164 88.8944 13.164ZM95.919 0.797999H98.439V15H95.919V0.797999Z" fill="black"/>
<path d="M349.71 1.752H352.32V15H349.71V1.752ZM357.611 7.134L357.791 8.394C358.067 7.902 358.457 7.506 358.961 7.206C359.465 6.906 360.077 6.756 360.797 6.756C361.541 6.756 362.159 6.978 362.651 7.422C363.155 7.854 363.413 8.418 363.425 9.114V15H360.905V10.05C360.893 9.702 360.797 9.426 360.617 9.222C360.449 9.006 360.161 8.898 359.753 8.898C359.165 8.898 358.697 9.174 358.349 9.726C358.013 10.266 357.845 10.956 357.845 11.796V15H355.325V7.134H357.611ZM366.751 3.678H369.271V7.098H371.179V9.06H369.271V15H366.751V9.06H365.527V7.098H366.751V3.678ZM376.967 15.216C376.007 15.216 375.191 15.036 374.519 14.676C373.859 14.316 373.355 13.818 373.007 13.182C372.659 12.546 372.485 11.814 372.485 10.986C372.485 10.194 372.689 9.48 373.097 8.844C373.505 8.208 374.051 7.704 374.735 7.332C375.419 6.948 376.181 6.756 377.021 6.756C378.149 6.756 379.073 7.086 379.793 7.746C380.525 8.394 380.999 9.336 381.215 10.572L375.455 12.408C375.839 12.852 376.361 13.074 377.021 13.074C377.297 13.074 377.561 13.026 377.813 12.93C378.077 12.834 378.335 12.708 378.587 12.552L379.703 14.424C379.283 14.664 378.827 14.856 378.335 15C377.855 15.144 377.399 15.216 376.967 15.216ZM374.969 10.842C374.969 10.902 374.969 10.956 374.969 11.004L378.425 9.834C378.317 9.534 378.143 9.276 377.903 9.06C377.663 8.832 377.303 8.718 376.823 8.718C376.259 8.718 375.809 8.91 375.473 9.294C375.137 9.678 374.969 10.194 374.969 10.842ZM385.314 7.134L385.512 8.934C385.74 8.478 386.052 8.088 386.448 7.764C386.844 7.428 387.234 7.176 387.618 7.008C388.002 6.828 388.296 6.738 388.5 6.738L388.374 9.258C387.786 9.186 387.282 9.282 386.862 9.546C386.442 9.81 386.118 10.158 385.89 10.59C385.662 11.022 385.548 11.466 385.548 11.922V15H383.046V7.134H385.314ZM392.715 7.134L392.895 8.394C393.171 7.902 393.561 7.506 394.065 7.206C394.569 6.906 395.181 6.756 395.901 6.756C396.645 6.756 397.263 6.978 397.755 7.422C398.259 7.854 398.517 8.418 398.529 9.114V15H396.009V10.05C395.997 9.702 395.901 9.426 395.721 9.222C395.553 9.006 395.265 8.898 394.857 8.898C394.269 8.898 393.801 9.174 393.453 9.726C393.117 10.266 392.949 10.956 392.949 11.796V15H390.429V7.134H392.715ZM404.428 15.216C403.696 15.216 403.03 15.072 402.43 14.784C401.842 14.484 401.374 14.028 401.026 13.416C400.678 12.804 400.504 12.024 400.504 11.076C400.504 10.188 400.684 9.42 401.044 8.772C401.404 8.124 401.878 7.626 402.466 7.278C403.054 6.918 403.678 6.738 404.338 6.738C405.118 6.738 405.706 6.864 406.102 7.116C406.51 7.368 406.834 7.644 407.074 7.944L407.236 7.134H409.576V15H407.056V14.028C406.936 14.148 406.756 14.304 406.516 14.496C406.288 14.688 406 14.856 405.652 15C405.304 15.144 404.896 15.216 404.428 15.216ZM405.148 13.164C406.024 13.164 406.66 12.768 407.056 11.976V10.05C406.912 9.666 406.66 9.36 406.3 9.132C405.952 8.904 405.538 8.79 405.058 8.79C404.518 8.79 404.05 8.994 403.654 9.402C403.258 9.798 403.06 10.314 403.06 10.95C403.06 11.37 403.156 11.748 403.348 12.084C403.54 12.42 403.792 12.684 404.104 12.876C404.428 13.068 404.776 13.164 405.148 13.164ZM412.173 0.797999H414.693V15H412.173V0.797999Z" fill="black"/>
<path d="M365.736 228.872C365.44 228.72 365.116 228.588 364.764 228.476C364.412 228.364 364.072 228.308 363.744 228.308C363.272 228.308 362.896 228.416 362.616 228.632C362.344 228.848 362.208 229.14 362.208 229.508C362.208 229.772 362.296 229.996 362.472 230.18C362.656 230.364 362.888 230.528 363.168 230.672C363.456 230.808 363.76 230.936 364.08 231.056C364.44 231.192 364.788 231.356 365.124 231.548C365.46 231.74 365.736 232 365.952 232.328C366.176 232.648 366.288 233.08 366.288 233.624C366.288 234.088 366.172 234.508 365.94 234.884C365.708 235.252 365.38 235.548 364.956 235.772C364.532 235.988 364.028 236.096 363.444 236.096C362.868 236.096 362.332 236.004 361.836 235.82C361.348 235.636 360.932 235.424 360.588 235.184L361.104 234.26C361.384 234.476 361.728 234.664 362.136 234.824C362.552 234.984 362.948 235.064 363.324 235.064C363.604 235.064 363.876 235.016 364.14 234.92C364.412 234.824 364.636 234.672 364.812 234.464C364.988 234.248 365.076 233.972 365.076 233.636C365.076 233.348 364.996 233.104 364.836 232.904C364.676 232.704 364.468 232.536 364.212 232.4C363.964 232.256 363.692 232.128 363.396 232.016C363.124 231.92 362.848 231.808 362.568 231.68C362.288 231.552 362.028 231.4 361.788 231.224C361.556 231.04 361.368 230.816 361.224 230.552C361.08 230.288 361.008 229.968 361.008 229.592C361.008 229.136 361.116 228.74 361.332 228.404C361.556 228.06 361.86 227.792 362.244 227.6C362.628 227.4 363.072 227.292 363.576 227.276C364.128 227.276 364.616 227.344 365.04 227.48C365.472 227.616 365.852 227.78 366.18 227.972L365.736 228.872ZM370.26 236.12C369.7 236.12 369.212 236.008 368.796 235.784C368.388 235.552 368.072 235.236 367.848 234.836C367.632 234.436 367.524 233.984 367.524 233.48C367.524 232.992 367.644 232.548 367.884 232.148C368.132 231.74 368.464 231.42 368.88 231.188C369.304 230.948 369.772 230.828 370.284 230.828C370.94 230.828 371.484 231.02 371.916 231.404C372.348 231.788 372.644 232.316 372.804 232.988L368.868 234.368C369.004 234.616 369.196 234.812 369.444 234.956C369.692 235.092 369.972 235.16 370.284 235.16C370.508 235.16 370.72 235.12 370.92 235.04C371.12 234.96 371.312 234.856 371.496 234.728L372.012 235.556C371.756 235.724 371.472 235.86 371.16 235.964C370.856 236.068 370.556 236.12 370.26 236.12ZM368.628 233.42C368.62 233.516 368.624 233.608 368.64 233.696L371.532 232.628C371.42 232.388 371.256 232.176 371.04 231.992C370.832 231.808 370.552 231.716 370.2 231.716C369.744 231.716 369.368 231.876 369.072 232.196C368.776 232.516 368.628 232.924 368.628 233.42ZM375.187 231.032L375.271 232.196C375.407 231.916 375.595 231.676 375.835 231.476C376.075 231.268 376.323 231.112 376.579 231.008C376.843 230.896 377.071 230.836 377.263 230.828L377.215 231.944C376.839 231.928 376.507 232.004 376.219 232.172C375.931 232.332 375.707 232.552 375.547 232.832C375.387 233.112 375.307 233.412 375.307 233.732V236H374.191V231.032H375.187ZM380.718 236.144L377.958 231.032H379.29L380.79 234.212L382.182 231.032H383.43L380.778 236.144H380.718ZM384.632 231.032H385.748V236H384.632V231.032ZM384.548 229.244C384.548 229.06 384.616 228.912 384.752 228.8C384.896 228.68 385.052 228.62 385.22 228.62C385.388 228.62 385.54 228.68 385.676 228.8C385.812 228.912 385.88 229.06 385.88 229.244C385.88 229.428 385.812 229.58 385.676 229.7C385.54 229.812 385.388 229.868 385.22 229.868C385.052 229.868 384.896 229.812 384.752 229.7C384.616 229.58 384.548 229.428 384.548 229.244ZM391.723 235.532C391.499 235.716 391.231 235.86 390.919 235.964C390.607 236.068 390.295 236.12 389.983 236.12C389.447 236.12 388.971 236.012 388.555 235.796C388.147 235.58 387.827 235.276 387.595 234.884C387.371 234.492 387.259 234.032 387.259 233.504C387.259 232.976 387.379 232.52 387.619 232.136C387.867 231.744 388.187 231.44 388.579 231.224C388.979 231.008 389.411 230.9 389.875 230.9C390.275 230.9 390.631 230.956 390.943 231.068C391.255 231.18 391.527 231.332 391.759 231.524L391.195 232.256C391.051 232.152 390.875 232.056 390.667 231.968C390.459 231.872 390.227 231.824 389.971 231.824C389.675 231.824 389.407 231.9 389.167 232.052C388.927 232.196 388.735 232.396 388.591 232.652C388.447 232.9 388.375 233.184 388.375 233.504C388.375 233.816 388.447 234.1 388.591 234.356C388.735 234.612 388.935 234.816 389.191 234.968C389.447 235.12 389.743 235.196 390.079 235.196C390.287 235.196 390.479 235.164 390.655 235.1C390.839 235.036 391.003 234.948 391.147 234.836L391.723 235.532ZM395.467 236.12C394.907 236.12 394.419 236.008 394.003 235.784C393.595 235.552 393.279 235.236 393.055 234.836C392.839 234.436 392.731 233.984 392.731 233.48C392.731 232.992 392.851 232.548 393.091 232.148C393.339 231.74 393.671 231.42 394.087 231.188C394.511 230.948 394.979 230.828 395.491 230.828C396.147 230.828 396.691 231.02 397.123 231.404C397.555 231.788 397.851 232.316 398.011 232.988L394.075 234.368C394.211 234.616 394.403 234.812 394.651 234.956C394.899 235.092 395.179 235.16 395.491 235.16C395.715 235.16 395.927 235.12 396.127 235.04C396.327 234.96 396.519 234.856 396.703 234.728L397.219 235.556C396.963 235.724 396.679 235.86 396.367 235.964C396.063 236.068 395.763 236.12 395.467 236.12ZM393.835 233.42C393.827 233.516 393.831 233.608 393.847 233.696L396.739 232.628C396.627 232.388 396.463 232.176 396.247 231.992C396.039 231.808 395.759 231.716 395.407 231.716C394.951 231.716 394.575 231.876 394.279 232.196C393.983 232.516 393.835 232.924 393.835 233.42ZM400.802 236.096C400.442 236.096 400.094 236.036 399.758 235.916C399.43 235.788 399.158 235.6 398.942 235.352L399.422 234.704C399.622 234.904 399.834 235.056 400.058 235.16C400.282 235.256 400.498 235.304 400.706 235.304C400.946 235.304 401.154 235.256 401.33 235.16C401.514 235.064 401.606 234.9 401.606 234.668C401.606 234.492 401.546 234.352 401.426 234.248C401.314 234.144 401.166 234.064 400.982 234.008C400.806 233.944 400.622 233.88 400.43 233.816C399.582 233.544 399.158 233.06 399.158 232.364C399.158 232.108 399.222 231.864 399.35 231.632C399.486 231.4 399.682 231.212 399.938 231.068C400.202 230.924 400.526 230.852 400.91 230.852C401.254 230.852 401.562 230.896 401.834 230.984C402.106 231.072 402.362 231.212 402.602 231.404L402.158 232.088C402.014 231.944 401.842 231.836 401.642 231.764C401.45 231.684 401.274 231.64 401.114 231.632C400.898 231.632 400.706 231.684 400.538 231.788C400.378 231.892 400.298 232.036 400.298 232.22C400.29 232.388 400.342 232.524 400.454 232.628C400.566 232.724 400.71 232.804 400.886 232.868C401.07 232.932 401.254 232.992 401.438 233.048C401.798 233.168 402.102 233.332 402.35 233.54C402.606 233.748 402.734 234.052 402.734 234.452C402.734 234.9 402.574 235.288 402.254 235.616C401.934 235.936 401.45 236.096 400.802 236.096Z" fill="black"/>
<path d="M363.608 105.048C363.04 106.584 362.476 108.116 361.916 109.644C361.356 111.172 360.792 112.7 360.224 114.228H359.204C359.772 112.7 360.336 111.172 360.896 109.644C361.456 108.116 362.02 106.584 362.588 105.048H363.608ZM365.597 109.032L365.669 109.98C365.861 109.62 366.121 109.34 366.449 109.14C366.785 108.932 367.169 108.828 367.601 108.828C368.009 108.828 368.349 108.924 368.621 109.116C368.901 109.308 369.073 109.568 369.137 109.896C369.337 109.56 369.597 109.3 369.917 109.116C370.245 108.924 370.593 108.828 370.961 108.828C371.441 108.828 371.821 108.968 372.101 109.248C372.389 109.528 372.541 109.884 372.557 110.316V114H371.441V110.736C371.425 110.48 371.357 110.268 371.237 110.1C371.125 109.924 370.929 109.828 370.649 109.812C370.353 109.812 370.093 109.9 369.869 110.076C369.645 110.244 369.469 110.468 369.341 110.748C369.213 111.028 369.145 111.324 369.137 111.636V114H368.009V110.736C368.001 110.48 367.933 110.268 367.805 110.1C367.685 109.924 367.481 109.828 367.193 109.812C366.905 109.812 366.649 109.9 366.425 110.076C366.201 110.244 366.025 110.468 365.897 110.748C365.769 111.028 365.705 111.328 365.705 111.648V114H364.589V109.032H365.597ZM376.796 114.12C376.236 114.12 375.748 114.008 375.332 113.784C374.924 113.552 374.608 113.236 374.384 112.836C374.168 112.436 374.06 111.984 374.06 111.48C374.06 110.992 374.18 110.548 374.42 110.148C374.668 109.74 375 109.42 375.416 109.188C375.84 108.948 376.308 108.828 376.82 108.828C377.476 108.828 378.02 109.02 378.452 109.404C378.884 109.788 379.18 110.316 379.34 110.988L375.404 112.368C375.54 112.616 375.732 112.812 375.98 112.956C376.228 113.092 376.508 113.16 376.82 113.16C377.044 113.16 377.256 113.12 377.456 113.04C377.656 112.96 377.848 112.856 378.032 112.728L378.548 113.556C378.292 113.724 378.008 113.86 377.696 113.964C377.392 114.068 377.092 114.12 376.796 114.12ZM375.164 111.42C375.156 111.516 375.16 111.608 375.176 111.696L378.068 110.628C377.956 110.388 377.792 110.176 377.576 109.992C377.368 109.808 377.088 109.716 376.736 109.716C376.28 109.716 375.904 109.876 375.608 110.196C375.312 110.516 375.164 110.924 375.164 111.42ZM381.206 106.848H382.334V109.044H383.69V109.932H382.334V114H381.206V109.932H380.294V109.044H381.206V106.848ZM386.046 109.032L386.13 110.196C386.266 109.916 386.454 109.676 386.694 109.476C386.934 109.268 387.182 109.112 387.438 109.008C387.702 108.896 387.93 108.836 388.122 108.828L388.074 109.944C387.698 109.928 387.366 110.004 387.078 110.172C386.79 110.332 386.566 110.552 386.406 110.832C386.246 111.112 386.166 111.412 386.166 111.732V114H385.05V109.032H386.046ZM389.562 109.032H390.678V114H389.562V109.032ZM389.478 107.244C389.478 107.06 389.546 106.912 389.682 106.8C389.826 106.68 389.982 106.62 390.15 106.62C390.318 106.62 390.47 106.68 390.606 106.8C390.742 106.912 390.81 107.06 390.81 107.244C390.81 107.428 390.742 107.58 390.606 107.7C390.47 107.812 390.318 107.868 390.15 107.868C389.982 107.868 389.826 107.812 389.682 107.7C389.546 107.58 389.478 107.428 389.478 107.244ZM396.652 113.532C396.428 113.716 396.16 113.86 395.848 113.964C395.536 114.068 395.224 114.12 394.912 114.12C394.376 114.12 393.9 114.012 393.484 113.796C393.076 113.58 392.756 113.276 392.524 112.884C392.3 112.492 392.188 112.032 392.188 111.504C392.188 110.976 392.308 110.52 392.548 110.136C392.796 109.744 393.116 109.44 393.508 109.224C393.908 109.008 394.34 108.9 394.804 108.9C395.204 108.9 395.56 108.956 395.872 109.068C396.184 109.18 396.456 109.332 396.688 109.524L396.124 110.256C395.98 110.152 395.804 110.056 395.596 109.968C395.388 109.872 395.156 109.824 394.9 109.824C394.604 109.824 394.336 109.9 394.096 110.052C393.856 110.196 393.664 110.396 393.52 110.652C393.376 110.9 393.304 111.184 393.304 111.504C393.304 111.816 393.376 112.1 393.52 112.356C393.664 112.612 393.864 112.816 394.12 112.968C394.376 113.12 394.672 113.196 395.008 113.196C395.216 113.196 395.408 113.164 395.584 113.1C395.768 113.036 395.932 112.948 396.076 112.836L396.652 113.532ZM399.497 114.096C399.137 114.096 398.789 114.036 398.453 113.916C398.125 113.788 397.853 113.6 397.637 113.352L398.117 112.704C398.317 112.904 398.529 113.056 398.753 113.16C398.977 113.256 399.193 113.304 399.401 113.304C399.641 113.304 399.849 113.256 400.025 113.16C400.209 113.064 400.301 112.9 400.301 112.668C400.301 112.492 400.241 112.352 400.121 112.248C400.009 112.144 399.861 112.064 399.677 112.008C399.501 111.944 399.317 111.88 399.125 111.816C398.277 111.544 397.853 111.06 397.853 110.364C397.853 110.108 397.917 109.864 398.045 109.632C398.181 109.4 398.377 109.212 398.633 109.068C398.897 108.924 399.221 108.852 399.605 108.852C399.949 108.852 400.257 108.896 400.529 108.984C400.801 109.072 401.057 109.212 401.297 109.404L400.853 110.088C400.709 109.944 400.537 109.836 400.337 109.764C400.145 109.684 399.969 109.64 399.809 109.632C399.593 109.632 399.401 109.684 399.233 109.788C399.073 109.892 398.993 110.036 398.993 110.22C398.985 110.388 399.037 110.524 399.149 110.628C399.261 110.724 399.405 110.804 399.581 110.868C399.765 110.932 399.949 110.992 400.133 111.048C400.493 111.168 400.797 111.332 401.045 111.54C401.301 111.748 401.429 112.052 401.429 112.452C401.429 112.9 401.269 113.288 400.949 113.616C400.629 113.936 400.145 114.096 399.497 114.096Z" fill="black"/>
<path d="M129.354 105.354C129.549 105.158 129.549 104.842 129.354 104.646L126.172 101.464C125.976 101.269 125.66 101.269 125.464 101.464C125.269 101.66 125.269 101.976 125.464 102.172L128.293 105L125.464 107.828C125.269 108.024 125.269 108.34 125.464 108.536C125.66 108.731 125.976 108.731 126.172 108.536L129.354 105.354ZM-4.37114e-08 105.5L129 105.5L129 104.5L4.37114e-08 104.5L-4.37114e-08 105.5Z" fill="black"/>
<path d="M354.248 375V366.324H356.624C357.48 366.324 358.208 366.456 358.808 366.72C359.408 366.976 359.892 367.32 360.26 367.752C360.636 368.184 360.908 368.664 361.076 369.192C361.252 369.712 361.34 370.236 361.34 370.764C361.34 371.412 361.224 372 360.992 372.528C360.76 373.048 360.444 373.492 360.044 373.86C359.644 374.228 359.184 374.512 358.664 374.712C358.152 374.904 357.612 375 357.044 375H354.248ZM355.412 373.872H356.816C357.448 373.872 358.012 373.748 358.508 373.5C359.012 373.252 359.408 372.892 359.696 372.42C359.984 371.94 360.128 371.36 360.128 370.68C360.128 369.976 359.976 369.384 359.672 368.904C359.376 368.424 358.98 368.06 358.484 367.812C357.996 367.564 357.476 367.44 356.924 367.44H355.412V373.872ZM365.095 375.12C364.623 375.12 364.195 375.02 363.811 374.82C363.435 374.62 363.135 374.328 362.911 373.944C362.695 373.552 362.587 373.076 362.587 372.516C362.587 371.956 362.699 371.476 362.923 371.076C363.155 370.676 363.463 370.368 363.847 370.152C364.239 369.936 364.667 369.828 365.131 369.828C365.579 369.828 365.959 369.924 366.271 370.116C366.583 370.308 366.827 370.54 367.003 370.812L367.087 370.032H368.119V375H367.003V374.184C366.907 374.312 366.767 374.448 366.583 374.592C366.407 374.736 366.191 374.86 365.935 374.964C365.687 375.068 365.407 375.12 365.095 375.12ZM365.395 374.196C365.803 374.196 366.151 374.084 366.439 373.86C366.727 373.628 366.915 373.316 367.003 372.924V371.94C366.907 371.596 366.707 371.312 366.403 371.088C366.099 370.864 365.751 370.752 365.359 370.752C365.055 370.752 364.779 370.824 364.531 370.968C364.283 371.112 364.083 371.312 363.931 371.568C363.787 371.824 363.715 372.12 363.715 372.456C363.715 372.784 363.791 373.08 363.943 373.344C364.095 373.6 364.299 373.808 364.555 373.968C364.811 374.12 365.091 374.196 365.395 374.196ZM370.542 367.848H371.67V370.044H373.026V370.932H371.67V375H370.542V370.932H369.63V370.044H370.542V367.848ZM376.462 375.12C375.99 375.12 375.562 375.02 375.178 374.82C374.802 374.62 374.502 374.328 374.278 373.944C374.062 373.552 373.954 373.076 373.954 372.516C373.954 371.956 374.066 371.476 374.29 371.076C374.522 370.676 374.83 370.368 375.214 370.152C375.606 369.936 376.034 369.828 376.498 369.828C376.946 369.828 377.326 369.924 377.638 370.116C377.95 370.308 378.194 370.54 378.37 370.812L378.454 370.032H379.486V375H378.37V374.184C378.274 374.312 378.134 374.448 377.95 374.592C377.774 374.736 377.558 374.86 377.302 374.964C377.054 375.068 376.774 375.12 376.462 375.12ZM376.762 374.196C377.17 374.196 377.518 374.084 377.806 373.86C378.094 373.628 378.282 373.316 378.37 372.924V371.94C378.274 371.596 378.074 371.312 377.77 371.088C377.466 370.864 377.118 370.752 376.726 370.752C376.422 370.752 376.146 370.824 375.898 370.968C375.65 371.112 375.45 371.312 375.298 371.568C375.154 371.824 375.082 372.12 375.082 372.456C375.082 372.784 375.158 373.08 375.31 373.344C375.462 373.6 375.666 373.808 375.922 373.968C376.178 374.12 376.458 374.196 376.762 374.196ZM384.465 375.12C384.041 375.12 383.665 375.04 383.337 374.88C383.017 374.712 382.753 374.5 382.545 374.244V375H381.429V365.7H382.545V370.704C382.745 370.44 383.025 370.228 383.385 370.068C383.745 369.908 384.153 369.828 384.609 369.828C385.049 369.828 385.453 369.936 385.821 370.152C386.189 370.36 386.485 370.66 386.709 371.052C386.933 371.444 387.045 371.904 387.045 372.432C387.045 373 386.925 373.484 386.685 373.884C386.445 374.284 386.129 374.592 385.737 374.808C385.345 375.016 384.921 375.12 384.465 375.12ZM384.225 374.16C384.713 374.16 385.113 374 385.425 373.68C385.745 373.352 385.905 372.936 385.905 372.432C385.905 372.112 385.829 371.824 385.677 371.568C385.533 371.304 385.333 371.096 385.077 370.944C384.829 370.792 384.545 370.716 384.225 370.716C383.809 370.716 383.449 370.828 383.145 371.052C382.841 371.276 382.641 371.564 382.545 371.916V372.936C382.641 373.288 382.837 373.58 383.133 373.812C383.429 374.044 383.793 374.16 384.225 374.16ZM390.618 375.12C390.146 375.12 389.718 375.02 389.334 374.82C388.958 374.62 388.658 374.328 388.434 373.944C388.218 373.552 388.11 373.076 388.11 372.516C388.11 371.956 388.222 371.476 388.446 371.076C388.678 370.676 388.986 370.368 389.37 370.152C389.762 369.936 390.19 369.828 390.654 369.828C391.102 369.828 391.482 369.924 391.794 370.116C392.106 370.308 392.35 370.54 392.526 370.812L392.61 370.032H393.642V375H392.526V374.184C392.43 374.312 392.29 374.448 392.106 374.592C391.93 374.736 391.714 374.86 391.458 374.964C391.21 375.068 390.93 375.12 390.618 375.12ZM390.918 374.196C391.326 374.196 391.674 374.084 391.962 373.86C392.25 373.628 392.438 373.316 392.526 372.924V371.94C392.43 371.596 392.23 371.312 391.926 371.088C391.622 370.864 391.274 370.752 390.882 370.752C390.578 370.752 390.302 370.824 390.054 370.968C389.806 371.112 389.606 371.312 389.454 371.568C389.31 371.824 389.238 372.12 389.238 372.456C389.238 372.784 389.314 373.08 389.466 373.344C389.618 373.6 389.822 373.808 390.078 373.968C390.334 374.12 390.614 374.196 390.918 374.196ZM396.989 375.096C396.629 375.096 396.281 375.036 395.945 374.916C395.617 374.788 395.345 374.6 395.129 374.352L395.609 373.704C395.809 373.904 396.021 374.056 396.245 374.16C396.469 374.256 396.685 374.304 396.893 374.304C397.133 374.304 397.341 374.256 397.517 374.16C397.701 374.064 397.793 373.9 397.793 373.668C397.793 373.492 397.733 373.352 397.613 373.248C397.501 373.144 397.353 373.064 397.169 373.008C396.993 372.944 396.809 372.88 396.617 372.816C395.769 372.544 395.345 372.06 395.345 371.364C395.345 371.108 395.409 370.864 395.537 370.632C395.673 370.4 395.869 370.212 396.125 370.068C396.389 369.924 396.713 369.852 397.097 369.852C397.441 369.852 397.749 369.896 398.021 369.984C398.293 370.072 398.549 370.212 398.789 370.404L398.345 371.088C398.201 370.944 398.029 370.836 397.829 370.764C397.637 370.684 397.461 370.64 397.301 370.632C397.085 370.632 396.893 370.684 396.725 370.788C396.565 370.892 396.485 371.036 396.485 371.22C396.477 371.388 396.529 371.524 396.641 371.628C396.753 371.724 396.897 371.804 397.073 371.868C397.257 371.932 397.441 371.992 397.625 372.048C397.985 372.168 398.289 372.332 398.537 372.54C398.793 372.748 398.921 373.052 398.921 373.452C398.921 373.9 398.761 374.288 398.441 374.616C398.121 374.936 397.637 375.096 396.989 375.096ZM402.788 375.12C402.228 375.12 401.74 375.008 401.324 374.784C400.916 374.552 400.6 374.236 400.376 373.836C400.16 373.436 400.052 372.984 400.052 372.48C400.052 371.992 400.172 371.548 400.412 371.148C400.66 370.74 400.992 370.42 401.408 370.188C401.832 369.948 402.3 369.828 402.812 369.828C403.468 369.828 404.012 370.02 404.444 370.404C404.876 370.788 405.172 371.316 405.332 371.988L401.396 373.368C401.532 373.616 401.724 373.812 401.972 373.956C402.22 374.092 402.5 374.16 402.812 374.16C403.036 374.16 403.248 374.12 403.448 374.04C403.648 373.96 403.84 373.856 404.024 373.728L404.54 374.556C404.284 374.724 404 374.86 403.688 374.964C403.384 375.068 403.084 375.12 402.788 375.12ZM401.156 372.42C401.148 372.516 401.152 372.608 401.168 372.696L404.06 371.628C403.948 371.388 403.784 371.176 403.568 370.992C403.36 370.808 403.08 370.716 402.728 370.716C402.272 370.716 401.896 370.876 401.6 371.196C401.304 371.516 401.156 371.924 401.156 372.42ZM408.122 375.096C407.762 375.096 407.414 375.036 407.078 374.916C406.75 374.788 406.478 374.6 406.262 374.352L406.742 373.704C406.942 373.904 407.154 374.056 407.378 374.16C407.602 374.256 407.818 374.304 408.026 374.304C408.266 374.304 408.474 374.256 408.65 374.16C408.834 374.064 408.926 373.9 408.926 373.668C408.926 373.492 408.866 373.352 408.746 373.248C408.634 373.144 408.486 373.064 408.302 373.008C408.126 372.944 407.942 372.88 407.75 372.816C406.902 372.544 406.478 372.06 406.478 371.364C406.478 371.108 406.542 370.864 406.67 370.632C406.806 370.4 407.002 370.212 407.258 370.068C407.522 369.924 407.846 369.852 408.23 369.852C408.574 369.852 408.882 369.896 409.154 369.984C409.426 370.072 409.682 370.212 409.922 370.404L409.478 371.088C409.334 370.944 409.162 370.836 408.962 370.764C408.77 370.684 408.594 370.64 408.434 370.632C408.218 370.632 408.026 370.684 407.858 370.788C407.698 370.892 407.618 371.036 407.618 371.22C407.61 371.388 407.662 371.524 407.774 371.628C407.886 371.724 408.03 371.804 408.206 371.868C408.39 371.932 408.574 371.992 408.758 372.048C409.118 372.168 409.422 372.332 409.67 372.54C409.926 372.748 410.054 373.052 410.054 373.452C410.054 373.9 409.894 374.288 409.574 374.616C409.254 374.936 408.77 375.096 408.122 375.096Z" fill="black"/>
<path d="M446.354 384.354C446.549 384.158 446.549 383.842 446.354 383.646L443.172 380.464C442.976 380.269 442.66 380.269 442.464 380.464C442.269 380.66 442.269 380.976 442.464 381.172L445.293 384L442.464 386.828C442.269 387.024 442.269 387.34 442.464 387.536C442.66 387.731 442.976 387.731 443.172 387.536L446.354 384.354ZM317 384.5L446 384.5L446 383.5L317 383.5L317 384.5Z" fill="black"/>
<path d="M318.646 86.6464C318.451 86.8417 318.451 87.1583 318.646 87.3536L321.828 90.5355C322.024 90.7308 322.34 90.7308 322.536 90.5355C322.731 90.3403 322.731 90.0237 322.536 89.8284L319.707 87L322.536 84.1716C322.731 83.9763 322.731 83.6597 322.536 83.4645C322.34 83.2692 322.024 83.2692 321.828 83.4645L318.646 86.6464ZM319 87.5L448 87.5L448 86.5L319 86.5L319 87.5Z" fill="black"/>
<path d="M318.646 244.646C318.451 244.842 318.451 245.158 318.646 245.354L321.828 248.536C322.024 248.731 322.34 248.731 322.536 248.536C322.731 248.34 322.731 248.024 322.536 247.828L319.707 245L322.536 242.172C322.731 241.976 322.731 241.66 322.536 241.464C322.34 241.269 322.024 241.269 321.828 241.464L318.646 244.646ZM319 245.5L448 245.5L448 244.5L319 244.5L319 245.5Z" fill="black"/>
<path d="M318.646 121.646C318.451 121.842 318.451 122.158 318.646 122.354L321.828 125.536C322.024 125.731 322.34 125.731 322.536 125.536C322.731 125.34 322.731 125.024 322.536 124.828L319.707 122L322.536 119.172C322.731 118.976 322.731 118.66 322.536 118.464C322.34 118.269 322.024 118.269 321.828 118.464L318.646 121.646ZM319 122.5L448 122.5L448 121.5L319 121.5L319 122.5Z" fill="black"/>
</svg>
