<svg width="1200" height="400" viewBox="0 0 1200 400" fill="none" xmlns="http://www.w3.org/2000/svg">
<path d="M366.319 257.558C334.663 212.314 345.677 149.975 390.921 118.319C436.164 86.6625 498.504 97.677 530.16 142.92C561.816 188.164 550.802 250.503 505.558 282.16C460.315 313.816 397.975 302.801 366.319 257.558Z" fill="#5D6BD2"/>
<path d="M390.919 118.321C345.676 149.978 334.663 212.318 366.32 257.561L398.53 174.511L437.711 215.545L459.243 132.771L496.129 205.927L530.159 142.919C498.501 97.6768 436.162 86.6637 390.919 118.321Z" fill="#8BBEB2"/>
<path d="M437.711 215.545L459.243 132.771L496.129 205.926L530.158 142.919L530.426 143.303L530.691 143.688L530.955 144.075L531.218 144.463L531.479 144.853L531.739 145.245L531.998 145.64L532.253 146.034L499.218 232.797L464.979 185.762L443.182 256.005L403.207 202.881L369.143 261.399L368.78 260.926L368.42 260.451L368.062 259.974L367.709 259.495L367.357 259.013L367.009 258.53L366.662 258.045L366.32 257.56L398.53 174.511L437.711 215.545Z" fill="white"/>
<path d="M437.711 215.545L459.243 132.771L496.129 205.926L530.158 142.919L530.426 143.303L530.691 143.688L530.955 144.075L531.218 144.463L531.479 144.853L531.739 145.245L531.998 145.64L532.253 146.034L499.218 232.797L464.979 185.762L443.182 256.005L403.207 202.881L369.143 261.399L368.78 260.926L368.42 260.451L368.062 259.974L367.709 259.495L367.357 259.013L367.009 258.53L366.662 258.045L366.32 257.56L398.53 174.511L437.711 215.545Z" fill="white"/>
<path d="M443.182 256.05L464.978 185.807L499.218 232.841L532.255 146.033L532.884 147.025L533.504 148.02L534.113 149.026L534.712 150.041L535.298 151.063L535.875 152.094L536.438 153.131L536.989 154.175L537.534 155.236L538.066 156.305L538.588 157.385L539.097 158.471L539.595 159.568L540.078 160.671L540.55 161.779L541.007 162.89L499.218 232.841L467.449 205.662L443.182 256.05L403.207 218.722L386.175 240.061L369.143 261.399L403.207 202.926L443.182 256.05Z" fill="#1F2A77"/>
<path d="M594.65 232.2C589.05 232.2 583.95 230.95 579.35 228.45C574.85 225.85 571.25 222.25 568.55 217.65C565.95 213.05 564.65 207.7 564.65 201.6C564.65 195.1 566.05 189.55 568.85 184.95C571.65 180.25 575.45 176.7 580.25 174.3C585.05 171.8 590.5 170.55 596.6 170.55C601.4 170.55 606 171.95 610.4 174.75C614.9 177.45 618.25 180.9 620.45 185.1L621.2 172.35H627.5V231H620.45V218.55C618.25 222.05 614.85 225.2 610.25 228C605.65 230.8 600.45 232.2 594.65 232.2ZM596.15 226.2C600.55 226.2 604.5 225.3 608 223.5C611.6 221.6 614.5 219 616.7 215.7C618.9 212.4 620.15 208.6 620.45 204.3V195.9C619.65 192.2 618.05 188.9 615.65 186C613.35 183.1 610.5 180.8 607.1 179.1C603.7 177.4 600 176.55 596 176.55C591.6 176.55 587.55 177.6 583.85 179.7C580.15 181.7 577.2 184.55 575 188.25C572.8 191.95 571.7 196.3 571.7 201.3C571.7 205.9 572.8 210.1 575 213.9C577.2 217.6 580.15 220.6 583.85 222.9C587.65 225.1 591.75 226.2 596.15 226.2ZM680.239 259.65C675.339 259.65 670.739 258.75 666.439 256.95C662.139 255.15 657.639 252.05 652.939 247.65L657.139 242.85C661.439 246.95 665.439 249.7 669.139 251.1C672.839 252.6 676.439 253.35 679.939 253.35C686.039 253.35 690.889 252.35 694.489 250.35C698.089 248.45 700.689 245.85 702.289 242.55C703.889 239.35 704.739 235.75 704.839 231.75L704.989 217.95C702.489 222.25 698.839 225.7 694.039 228.3C689.339 230.9 684.139 232.2 678.439 232.2C672.939 232.2 667.889 230.85 663.289 228.15C658.789 225.35 655.189 221.65 652.489 217.05C649.789 212.35 648.439 207.15 648.439 201.45C648.439 195.35 649.839 190 652.639 185.4C655.439 180.8 659.239 177.2 664.039 174.6C668.839 171.9 674.139 170.55 679.939 170.55C685.039 170.55 689.939 171.85 694.639 174.45C699.339 176.95 702.839 180.3 705.139 184.5L705.739 172.35H712.039V231.9C712.039 236.7 710.939 241.2 708.739 245.4C706.639 249.7 703.239 253.15 698.539 255.75C693.939 258.35 687.839 259.65 680.239 259.65ZM655.489 201.3C655.489 205.9 656.589 210.1 658.789 213.9C660.989 217.6 663.939 220.6 667.639 222.9C671.439 225.1 675.639 226.2 680.239 226.2C684.639 226.2 688.639 225.25 692.239 223.35C695.839 221.35 698.789 218.7 701.089 215.4C703.389 212.1 704.689 208.55 704.989 204.75V196.05C703.789 190.45 700.889 185.8 696.289 182.1C691.689 178.4 686.339 176.55 680.239 176.55C675.639 176.55 671.439 177.6 667.639 179.7C663.939 181.8 660.989 184.7 658.789 188.4C656.589 192.1 655.489 196.4 655.489 201.3ZM764.307 232.2C758.207 232.2 752.807 230.85 748.107 228.15C743.407 225.45 739.707 221.8 737.007 217.2C734.407 212.5 733.107 207.25 733.107 201.45C733.107 195.75 734.507 190.55 737.307 185.85C740.107 181.15 743.857 177.4 748.557 174.6C753.357 171.8 758.657 170.4 764.457 170.4C771.457 170.4 777.307 172.45 782.007 176.55C786.807 180.65 790.257 186 792.357 192.6L742.257 211.95C744.157 216.05 747.007 219.45 750.807 222.15C754.707 224.75 759.257 226.05 764.457 226.05C767.657 226.05 770.707 225.45 773.607 224.25C776.607 223.05 779.257 221.5 781.557 219.6L785.157 224.7C782.357 226.9 779.107 228.7 775.407 230.1C771.807 231.5 768.107 232.2 764.307 232.2ZM740.007 201.15C740.007 203.05 740.207 204.9 740.607 206.7L783.807 189.75C782.007 186.15 779.457 183.05 776.157 180.45C772.857 177.75 768.807 176.4 764.007 176.4C759.507 176.4 755.457 177.5 751.857 179.7C748.257 181.9 745.357 184.85 743.157 188.55C741.057 192.25 740.007 196.45 740.007 201.15ZM818.053 172.35L818.653 186.3C820.153 183.1 822.253 180.35 824.953 178.05C827.753 175.65 830.753 173.85 833.953 172.65C837.253 171.35 840.403 170.7 843.403 170.7L843.103 177.6C838.603 177.6 834.503 178.6 830.803 180.6C827.203 182.6 824.303 185.3 822.103 188.7C820.003 192 818.953 195.75 818.953 199.95V231H811.903V172.35H818.053Z" fill="#5D6BD2"/>
</svg>
