<svg width="96" height="96" viewBox="0 0 96 96" fill="none" xmlns="http://www.w3.org/2000/svg">
<g clip-path="url(#clip0)">
<path d="M9.17366 75.1844C-5.834 53.7353 -0.612193 24.1812 20.8369 9.17359C42.286 -5.83406 71.84 -0.612252 86.8477 20.8368C101.855 42.2859 96.6336 71.8399 75.1845 86.8476C53.7354 101.855 24.1813 96.6334 9.17366 75.1844Z" fill="#5D6BD2"/>
<path d="M20.8364 9.17432C-0.612325 24.1825 -5.83346 53.7366 9.17469 75.1854L24.4446 35.8132L43.0196 55.2667L53.2275 16.025L70.7147 50.7066L86.8475 20.8361C71.8393 -0.612685 42.2852 -5.83382 20.8364 9.17432Z" fill="#8BBEB2"/>
<path d="M43.0198 55.2671L53.2277 16.0254L70.7149 50.707L86.8476 20.8365L86.9744 21.0187L87.1002 21.2014L87.2254 21.3844L87.3497 21.5685L87.4736 21.7536L87.5968 21.9394L87.7196 22.1267L87.8407 22.3135L72.1792 63.4459L55.947 41.1476L45.6136 74.4487L26.6621 49.2637L10.5129 77.0057L10.3411 76.7819L10.1702 76.5563L10.0007 76.3302L9.83306 76.1033L9.66621 75.8745L9.50111 75.6456L9.33692 75.4158L9.1748 75.1857L24.4448 35.8136L43.0198 55.2671Z" fill="white"/>
<path d="M43.0198 55.2671L53.2277 16.0254L70.7149 50.707L86.8476 20.8365L86.9744 21.0187L87.1002 21.2014L87.2254 21.3844L87.3497 21.5685L87.4736 21.7536L87.5968 21.9394L87.7196 22.1267L87.8407 22.3135L72.1792 63.4459L55.947 41.1476L45.6136 74.4487L26.6621 49.2637L10.5129 77.0057L10.3411 76.7819L10.1702 76.5563L10.0007 76.3302L9.83306 76.1033L9.66621 75.8745L9.50111 75.6456L9.33692 75.4158L9.1748 75.1857L24.4448 35.8136L43.0198 55.2671Z" fill="white"/>
<path d="M45.6134 74.4704L55.9468 41.1694L72.179 63.4677L87.8412 22.3135L88.1398 22.7836L88.4333 23.2552L88.7223 23.7322L89.0063 24.2135L89.2843 24.6979L89.5575 25.1867L89.8245 25.6784L90.0858 26.1733L90.3439 26.6764L90.5963 27.1831L90.8438 27.6953L91.0852 28.2101L91.3211 28.7301L91.5501 29.253L91.7739 29.7784L91.9905 30.3049L72.179 63.4677L57.1182 50.5824L45.6134 74.4704L26.6619 56.774L10.5127 77.0063L26.6619 49.2855L45.6134 74.4704Z" fill="#1F2A77"/>
</g>
<defs>
<clipPath id="clip0">
<rect width="96" height="96" fill="white"/>
</clipPath>
</defs>
</svg>
