<svg width="32" height="32" viewBox="0 0 32 32" fill="none" xmlns="http://www.w3.org/2000/svg">
<g clip-path="url(#clip0)">
<path d="M3.05799 25.0607C-1.9445 17.9111 -0.203923 8.05992 6.94569 3.05743C14.0953 -1.94506 23.9465 -0.204476 28.949 6.94513C33.9515 14.0947 32.2109 23.9459 25.0613 28.9484C17.9117 33.9509 8.06048 32.2103 3.05799 25.0607Z" fill="#5D6BD2"/>
<path d="M6.94545 3.05821C-0.204047 8.06086 -1.9444 17.9121 3.05825 25.0616L8.14817 11.9377L14.3398 18.4221L17.7423 5.34173L23.5714 16.9021L28.9489 6.9454C23.9462 -0.204085 14.095 -1.94444 6.94545 3.05821Z" fill="#8BBEB2"/>
<path d="M14.3396 18.4222L17.7422 5.3418L23.5712 16.9022L28.9487 6.94548L28.991 7.00622L29.0329 7.0671L29.0746 7.12812L29.1161 7.18946L29.1574 7.25118L29.1985 7.31311L29.2394 7.37554L29.2798 7.43779L24.0593 21.1484L18.6486 13.7158L15.2042 24.816L8.88714 16.4211L3.50413 25.6683L3.44688 25.5937L3.3899 25.5185L3.33341 25.4431L3.27752 25.3675L3.2219 25.2913L3.16687 25.2149L3.11214 25.1384L3.05811 25.0617L8.14805 11.9378L14.3396 18.4222Z" fill="white"/>
<path d="M14.3396 18.4222L17.7422 5.3418L23.5712 16.9022L28.9487 6.94548L28.991 7.00622L29.0329 7.0671L29.0746 7.12812L29.1161 7.18946L29.1574 7.25118L29.1985 7.31311L29.2394 7.37554L29.2798 7.43779L24.0593 21.1484L18.6486 13.7158L15.2042 24.816L8.88714 16.4211L3.50413 25.6683L3.44688 25.5937L3.3899 25.5185L3.33341 25.4431L3.27752 25.3675L3.2219 25.2913L3.16687 25.2149L3.11214 25.1384L3.05811 25.0617L8.14805 11.9378L14.3396 18.4222Z" fill="white"/>
<path d="M15.2045 24.8229L18.6489 13.7227L24.0596 21.1554L29.2803 7.4375L29.3798 7.5942L29.4776 7.75141L29.5739 7.91042L29.6686 8.07084L29.7613 8.2323L29.8523 8.39522L29.9414 8.55913L30.0285 8.72408L30.1145 8.8918L30.1986 9.06068L30.2811 9.23141L30.3616 9.40302L30.4402 9.57635L30.5165 9.75065L30.5911 9.92579L30.6633 10.1013L24.0596 21.1554L19.0394 16.8603L15.2045 24.8229L8.8874 18.9242L3.50439 25.6682L8.8874 16.428L15.2045 24.8229Z" fill="#1F2A77"/>
</g>
<defs>
<clipPath id="clip0">
<rect width="32" height="32" fill="white"/>
</clipPath>
</defs>
</svg>
