<svg width="400" height="400" viewBox="0 0 400 400" fill="none" xmlns="http://www.w3.org/2000/svg">
<g clip-path="url(#clip0)">
<path d="M36.7079 314.254C-26.3926 224.07 -4.43724 99.8087 85.7466 36.7083C175.93 -26.3922 300.192 -4.43684 363.292 85.7469C426.393 175.931 404.437 300.192 314.254 363.293C224.07 426.393 99.8084 404.438 36.7079 314.254Z" fill="#5D6BD2"/>
<path d="M85.7441 36.7114C-4.43824 99.8139 -26.3908 224.076 36.7118 314.258L100.915 148.716L179.015 230.509L221.934 65.5153L295.46 211.336L363.291 85.7437C300.188 -4.43861 175.927 -26.3911 85.7441 36.7114Z" fill="#8BBEB2"/>
<path d="M179.015 230.507L221.934 65.5137L295.461 211.334L363.291 85.7422L363.824 86.5083L364.353 87.2764L364.88 88.0461L365.402 88.8198L365.923 89.5983L366.441 90.3795L366.957 91.1669L367.467 91.9521L301.617 264.896L233.368 171.141L189.921 311.157L110.238 205.266L42.338 321.909L41.6158 320.967L40.8971 320.019L40.1846 319.068L39.4796 318.114L38.778 317.152L38.0839 316.19L37.3935 315.224L36.7119 314.256L100.916 148.714L179.015 230.507Z" fill="white"/>
<path d="M179.015 230.507L221.934 65.5137L295.461 211.334L363.291 85.7422L363.824 86.5083L364.353 87.2764L364.88 88.0461L365.402 88.8198L365.923 89.5983L366.441 90.3795L366.957 91.1669L367.467 91.9521L301.617 264.896L233.368 171.141L189.921 311.157L110.238 205.266L42.338 321.909L41.6158 320.967L40.8971 320.019L40.1846 319.068L39.4796 318.114L38.778 317.152L38.0839 316.19L37.3935 315.224L36.7119 314.256L100.916 148.714L179.015 230.507Z" fill="white"/>
<path d="M189.921 311.248L233.368 171.233L301.617 264.987L367.47 91.9521L368.725 93.9288L369.959 95.9118L371.174 97.9174L372.368 99.941L373.537 101.978L374.686 104.033L375.809 106.1L376.907 108.181L377.992 110.296L379.053 112.427L380.094 114.58L381.109 116.745L382.101 118.931L383.064 121.13L384.005 123.339L384.916 125.552L301.617 264.987L238.293 210.81L189.921 311.248L110.238 236.843L42.3379 321.911L110.238 205.357L189.921 311.248Z" fill="#1F2A77"/>
</g>
<defs>
<clipPath id="clip0">
<rect width="400" height="400" fill="white"/>
</clipPath>
</defs>
</svg>
