<svg width="400" height="418" viewBox="0 0 400 418" fill="none" xmlns="http://www.w3.org/2000/svg">
<circle cx="200" cy="200" r="200" fill="#8BBEB2"/>
<g filter="url(#filter0_b_215_40)">
<path d="M221.8 58C247.933 58 269.133 64.6667 285.4 78C301.667 91.3333 309.8 111.467 309.8 138.4C309.8 152.533 306.733 166.133 300.6 179.2C294.467 192 284.733 202.533 271.4 210.8C258.333 218.8 241.133 222.8 219.8 222.8H175.8V342H156.2V58H221.8ZM219.8 204C233.667 204 245.133 201.867 254.2 197.6C263.533 193.067 270.733 187.467 275.8 180.8C281.133 173.867 284.867 166.667 287 159.2C289.4 151.733 290.6 144.8 290.6 138.4C290.6 120.267 284.733 105.467 273 94C261.533 82.5333 245.133 76.8 223.8 76.8H175.8V204H219.8Z" fill="#1F2A77"/>
</g>
<g filter="url(#filter1_b_215_40)">
<path d="M215.8 52C241.933 52 263.133 58.6667 279.4 72C295.667 85.3333 303.8 105.467 303.8 132.4C303.8 146.533 300.733 160.133 294.6 173.2C288.467 186 278.733 196.533 265.4 204.8C252.333 212.8 235.133 216.8 213.8 216.8H169.8V336H150.2V52H215.8ZM213.8 198C227.667 198 239.133 195.867 248.2 191.6C257.533 187.067 264.733 181.467 269.8 174.8C275.133 167.867 278.867 160.667 281 153.2C283.4 145.733 284.6 138.8 284.6 132.4C284.6 114.267 278.733 99.4667 267 88C255.533 76.5333 239.133 70.8 217.8 70.8H169.8V198H213.8Z" fill="#5D6BD2"/>
</g>
<rect x="150" y="77" width="26" height="112" fill="#8BBEB2"/>
<ellipse cx="160" cy="332.5" rx="24" ry="24.5" fill="#1F2A77"/>
<circle cx="160" cy="207" r="24" fill="#1F2A77"/>
<circle cx="160" cy="207" r="7" fill="white"/>
<circle cx="160" cy="332" r="7" fill="white"/>
<circle cx="160" cy="62" r="24" fill="#1F2A77"/>
<circle cx="160" cy="62" r="7" fill="white"/>
<defs>
<filter id="filter0_b_215_40" x="152.2" y="54" width="161.6" height="292" filterUnits="userSpaceOnUse" color-interpolation-filters="sRGB">
<feFlood flood-opacity="0" result="BackgroundImageFix"/>
<feGaussianBlur in="BackgroundImage" stdDeviation="2"/>
<feComposite in2="SourceAlpha" operator="in" result="effect1_backgroundBlur_215_40"/>
<feBlend mode="normal" in="SourceGraphic" in2="effect1_backgroundBlur_215_40" result="shape"/>
</filter>
<filter id="filter1_b_215_40" x="146.2" y="48" width="161.6" height="292" filterUnits="userSpaceOnUse" color-interpolation-filters="sRGB">
<feFlood flood-opacity="0" result="BackgroundImageFix"/>
<feGaussianBlur in="BackgroundImage" stdDeviation="2"/>
<feComposite in2="SourceAlpha" operator="in" result="effect1_backgroundBlur_215_40"/>
<feBlend mode="normal" in="SourceGraphic" in2="effect1_backgroundBlur_215_40" result="shape"/>
</filter>
</defs>
</svg>
