<svg width="400" height="400" viewBox="0 0 400 400" fill="none" xmlns="http://www.w3.org/2000/svg">
<g clip-path="url(#clip0)">
<rect width="400" height="400" fill="url(#paint0_linear)"/>
<path d="M-6.8835 344.754C-86.8289 230.495 -59.0125 73.0617 55.2463 -6.88376C169.505 -86.8292 326.939 -59.0127 406.884 55.2461C486.83 169.505 459.013 326.938 344.754 406.884C230.496 486.829 73.0619 459.013 -6.8835 344.754Z" fill="#5D6BD2"/>
<path d="M55.2426 -6.87978C-59.0143 73.0683 -86.8272 230.503 -6.87909 344.76L74.4635 135.025L173.412 238.653L227.789 29.6135L320.943 214.362L406.882 55.242C326.934 -59.015 169.5 -86.8278 55.2426 -6.87978Z" fill="#8BBEB2"/>
<path d="M173.412 238.653L227.789 29.6133L320.943 214.362L406.881 55.2419L407.556 56.2126L408.227 57.1857L408.894 58.1608L409.556 59.1411L410.216 60.1274L410.872 61.1172L411.526 62.1148L412.171 63.1096L328.743 282.221L242.274 163.439L187.229 340.833L86.2746 206.673L0.248055 354.454L-0.666877 353.262L-1.57746 352.06L-2.4802 350.855L-3.37337 349.647L-4.26219 348.428L-5.14164 347.209L-6.01631 345.985L-6.87988 344.759L74.4632 135.025L173.412 238.653Z" fill="white"/>
<path d="M173.412 238.653L227.789 29.6133L320.943 214.362L406.881 55.2419L407.556 56.2126L408.227 57.1857L408.894 58.1608L409.556 59.1411L410.216 60.1274L410.872 61.1172L411.526 62.1148L412.171 63.1096L328.743 282.221L242.274 163.439L187.229 340.833L86.2746 206.673L0.248055 354.454L-0.666877 353.262L-1.57746 352.06L-2.4802 350.855L-3.37337 349.647L-4.26219 348.428L-5.14164 347.209L-6.01631 345.985L-6.87988 344.759L74.4632 135.025L173.412 238.653Z" fill="white"/>
<path d="M187.229 340.944L242.274 163.55L328.743 282.333L412.175 63.1055L413.766 65.6098L415.329 68.1221L416.869 70.6632L418.382 73.227L419.862 75.8072L421.318 78.411L422.74 81.0304L424.132 83.6664L425.507 86.3468L426.851 89.0457L428.17 91.7743L429.456 94.5168L430.713 97.2868L431.932 100.072L433.125 102.871L434.278 105.675L328.743 282.333L248.514 213.693L187.229 340.944L86.2746 246.676L0.248047 354.453L86.2746 206.785L187.229 340.944Z" fill="#1F2A77"/>
</g>
<defs>
<linearGradient id="paint0_linear" x1="200" y1="0" x2="200" y2="400" gradientUnits="userSpaceOnUse">
<stop offset="0.479167" stop-color="#8BBEB2"/>
<stop offset="0.479267" stop-color="#5D6BD2"/>
</linearGradient>
<clipPath id="clip0">
<rect width="400" height="400" fill="white"/>
</clipPath>
</defs>
</svg>
