<svg width="582" height="279" viewBox="0 0 582 279" fill="none" xmlns="http://www.w3.org/2000/svg">
<path d="M57.319 196.558C25.6628 151.314 36.6774 88.9749 81.9207 57.3187C127.164 25.6625 189.504 36.677 221.16 81.9204C252.816 127.164 241.802 189.503 196.558 221.16C151.315 252.816 88.9753 241.801 57.319 196.558Z" fill="#5D6BD2"/>
<path d="M81.9189 57.3209C36.6763 88.9782 25.6631 151.318 57.3204 196.561L89.5299 113.511L128.711 154.545L150.243 71.7713L187.129 144.927L221.159 81.9195C189.501 36.6768 127.162 25.6637 81.9189 57.3209Z" fill="#8BBEB2"/>
<path d="M128.711 154.545L150.243 71.7705L187.129 144.926L221.158 81.9188L221.426 82.3031L221.691 82.6884L221.955 83.0746L222.218 83.4627L222.479 83.8533L222.739 84.2452L222.998 84.6402L223.253 85.0342L190.218 171.797L155.979 124.762L134.182 195.005L94.207 141.881L60.1428 200.399L59.7805 199.926L59.4199 199.451L59.0625 198.974L58.7088 198.495L58.3569 198.013L58.0086 197.53L57.6623 197.045L57.3203 196.56L89.53 113.511L128.711 154.545Z" fill="white"/>
<path d="M128.711 154.545L150.243 71.7705L187.129 144.926L221.158 81.9188L221.426 82.3031L221.691 82.6884L221.955 83.0746L222.218 83.4627L222.479 83.8533L222.739 84.2452L222.998 84.6402L223.253 85.0342L190.218 171.797L155.979 124.762L134.182 195.005L94.207 141.881L60.1428 200.399L59.7805 199.926L59.4199 199.451L59.0625 198.974L58.7088 198.495L58.3569 198.013L58.0086 197.53L57.6623 197.045L57.3203 196.56L89.53 113.511L128.711 154.545Z" fill="white"/>
<path d="M134.182 195.05L155.978 124.807L190.218 171.841L223.255 85.0332L223.884 86.0248L224.504 87.0197L225.113 88.0259L225.712 89.041L226.298 90.0628L226.875 91.0938L227.438 92.131L227.989 93.1748L228.534 94.2361L229.066 95.3048L229.588 96.3853L230.097 97.4712L230.595 98.5681L231.078 99.671L231.55 100.779L232.007 101.89L190.218 171.841L158.449 144.662L134.182 195.05L94.2068 157.722L77.1747 179.061L60.1426 200.399L94.2068 141.926L134.182 195.05Z" fill="#1F2A77"/>
<path d="M285.65 171.2C280.05 171.2 274.95 169.95 270.35 167.45C265.85 164.85 262.25 161.25 259.55 156.65C256.95 152.05 255.65 146.7 255.65 140.6C255.65 134.1 257.05 128.55 259.85 123.95C262.65 119.25 266.45 115.7 271.25 113.3C276.05 110.8 281.5 109.55 287.6 109.55C292.4 109.55 297 110.95 301.4 113.75C305.9 116.45 309.25 119.9 311.45 124.1L312.2 111.35H318.5V170H311.45V157.55C309.25 161.05 305.85 164.2 301.25 167C296.65 169.8 291.45 171.2 285.65 171.2ZM287.15 165.2C291.55 165.2 295.5 164.3 299 162.5C302.6 160.6 305.5 158 307.7 154.7C309.9 151.4 311.15 147.6 311.45 143.3V134.9C310.65 131.2 309.05 127.9 306.65 125C304.35 122.1 301.5 119.8 298.1 118.1C294.7 116.4 291 115.55 287 115.55C282.6 115.55 278.55 116.6 274.85 118.7C271.15 120.7 268.2 123.55 266 127.25C263.8 130.95 262.7 135.3 262.7 140.3C262.7 144.9 263.8 149.1 266 152.9C268.2 156.6 271.15 159.6 274.85 161.9C278.65 164.1 282.75 165.2 287.15 165.2ZM371.239 198.65C366.339 198.65 361.739 197.75 357.439 195.95C353.139 194.15 348.639 191.05 343.939 186.65L348.139 181.85C352.439 185.95 356.439 188.7 360.139 190.1C363.839 191.6 367.439 192.35 370.939 192.35C377.039 192.35 381.889 191.35 385.489 189.35C389.089 187.45 391.689 184.85 393.289 181.55C394.889 178.35 395.739 174.75 395.839 170.75L395.989 156.95C393.489 161.25 389.839 164.7 385.039 167.3C380.339 169.9 375.139 171.2 369.439 171.2C363.939 171.2 358.889 169.85 354.289 167.15C349.789 164.35 346.189 160.65 343.489 156.05C340.789 151.35 339.439 146.15 339.439 140.45C339.439 134.35 340.839 129 343.639 124.4C346.439 119.8 350.239 116.2 355.039 113.6C359.839 110.9 365.139 109.55 370.939 109.55C376.039 109.55 380.939 110.85 385.639 113.45C390.339 115.95 393.839 119.3 396.139 123.5L396.739 111.35H403.039V170.9C403.039 175.7 401.939 180.2 399.739 184.4C397.639 188.7 394.239 192.15 389.539 194.75C384.939 197.35 378.839 198.65 371.239 198.65ZM346.489 140.3C346.489 144.9 347.589 149.1 349.789 152.9C351.989 156.6 354.939 159.6 358.639 161.9C362.439 164.1 366.639 165.2 371.239 165.2C375.639 165.2 379.639 164.25 383.239 162.35C386.839 160.35 389.789 157.7 392.089 154.4C394.389 151.1 395.689 147.55 395.989 143.75V135.05C394.789 129.45 391.889 124.8 387.289 121.1C382.689 117.4 377.339 115.55 371.239 115.55C366.639 115.55 362.439 116.6 358.639 118.7C354.939 120.8 351.989 123.7 349.789 127.4C347.589 131.1 346.489 135.4 346.489 140.3ZM455.307 171.2C449.207 171.2 443.807 169.85 439.107 167.15C434.407 164.45 430.707 160.8 428.007 156.2C425.407 151.5 424.107 146.25 424.107 140.45C424.107 134.75 425.507 129.55 428.307 124.85C431.107 120.15 434.857 116.4 439.557 113.6C444.357 110.8 449.657 109.4 455.457 109.4C462.457 109.4 468.307 111.45 473.007 115.55C477.807 119.65 481.257 125 483.357 131.6L433.257 150.95C435.157 155.05 438.007 158.45 441.807 161.15C445.707 163.75 450.257 165.05 455.457 165.05C458.657 165.05 461.707 164.45 464.607 163.25C467.607 162.05 470.257 160.5 472.557 158.6L476.157 163.7C473.357 165.9 470.107 167.7 466.407 169.1C462.807 170.5 459.107 171.2 455.307 171.2ZM431.007 140.15C431.007 142.05 431.207 143.9 431.607 145.7L474.807 128.75C473.007 125.15 470.457 122.05 467.157 119.45C463.857 116.75 459.807 115.4 455.007 115.4C450.507 115.4 446.457 116.5 442.857 118.7C439.257 120.9 436.357 123.85 434.157 127.55C432.057 131.25 431.007 135.45 431.007 140.15ZM509.053 111.35L509.653 125.3C511.153 122.1 513.253 119.35 515.953 117.05C518.753 114.65 521.753 112.85 524.953 111.65C528.253 110.35 531.403 109.7 534.403 109.7L534.103 116.6C529.603 116.6 525.503 117.6 521.803 119.6C518.203 121.6 515.303 124.3 513.103 127.7C511.003 131 509.953 134.75 509.953 138.95V170H502.903V111.35H509.053Z" fill="white"/>
</svg>
